<svg width="25" height="24" viewBox="0 0 25 24" fill="none" xmlns="http://www.w3.org/2000/svg">
<g clip-path="url(#clip0_1_745)">
<path d="M12.5783 24C19.2057 24 24.5783 18.6274 24.5783 12C24.5783 5.37258 19.2057 0 12.5783 0C5.95084 0 0.578262 5.37258 0.578262 12C0.578262 18.6274 5.95084 24 12.5783 24Z" fill="#F0F0F0"/>
<path d="M9.96962 10.4348H24.4767C23.7097 4.54697 18.6752 0 12.5783 0C11.6822 0 10.8096 0.0990469 9.96957 0.285234V10.4348H9.96962Z" fill="#D80027"/>
<path d="M6.83912 10.4348V1.45911C3.54414 3.25695 1.18529 6.55465 0.67984 10.4348H6.83912V10.4348Z" fill="#D80027"/>
<path d="M6.83907 13.5652H0.67984C1.18529 17.4454 3.54414 20.7431 6.83912 22.5409L6.83907 13.5652Z" fill="#D80027"/>
<path d="M9.96957 13.5652V23.7147C10.8096 23.9009 11.6822 24 12.5783 24C18.6752 24 23.7097 19.453 24.4767 13.5652H9.96957V13.5652Z" fill="#D80027"/>
</g>
<defs>
<clipPath id="clip0_1_745">
<rect width="24" height="24" fill="white" transform="translate(0.578262)"/>
</clipPath>
</defs>
</svg>
