<svg width="25" height="24" viewBox="0 0 25 24" fill="none" xmlns="http://www.w3.org/2000/svg">
<g clip-path="url(#clip0_1_794)">
<path d="M12.5783 24C19.2057 24 24.5783 18.6274 24.5783 12C24.5783 5.37258 19.2057 0 12.5783 0C5.95084 0 0.578262 5.37258 0.578262 12C0.578262 18.6274 5.95084 24 12.5783 24Z" fill="#F0F0F0"/>
<path d="M24.5783 12C24.5783 6.84043 21.3218 2.44191 16.7522 0.746399V23.2537C21.3218 21.5581 24.5783 17.1596 24.5783 12Z" fill="#D80027"/>
<path d="M0.578262 12C0.578262 17.1596 3.83481 21.5581 8.40437 23.2536V0.746399C3.83481 2.44191 0.578262 6.84043 0.578262 12Z" fill="#0052B4"/>
</g>
<defs>
<clipPath id="clip0_1_794">
<rect width="24" height="24" fill="white" transform="translate(0.578262)"/>
</clipPath>
</defs>
</svg>
