<svg width="25" height="24" viewBox="0 0 25 24" fill="none" xmlns="http://www.w3.org/2000/svg">
<g clip-path="url(#clip0_1_756)">
<path d="M1.32465 16.1739C3.02016 20.7434 7.41868 24 12.5783 24C17.7378 24 22.1363 20.7434 23.8319 16.1739L12.5783 15.1304L1.32465 16.1739Z" fill="#FFDA44"/>
<path d="M12.5783 0C7.41868 0 3.02016 3.2565 1.32465 7.82611L12.5783 8.86955L23.8319 7.82606C22.1363 3.2565 17.7378 0 12.5783 0Z" fill="black"/>
<path d="M1.32465 7.82611C0.842309 9.1261 0.578262 10.5322 0.578262 12C0.578262 13.4678 0.842309 14.8739 1.32465 16.1739H23.8319C24.3143 14.8739 24.5783 13.4678 24.5783 12C24.5783 10.5322 24.3143 9.1261 23.8319 7.82611H1.32465Z" fill="#D80027"/>
</g>
<defs>
<clipPath id="clip0_1_756">
<rect width="24" height="24" fill="white" transform="translate(0.578262)"/>
</clipPath>
</defs>
</svg>
