<svg width="25" height="24" viewBox="0 0 25 24" fill="none" xmlns="http://www.w3.org/2000/svg">
<g clip-path="url(#clip0_1_737)">
<path d="M1.32465 7.82614C0.842309 9.12617 0.578262 10.5322 0.578262 12C0.578262 13.4679 0.842309 14.874 1.32465 16.1739L12.5783 17.2174L23.8319 16.1739C24.3142 14.874 24.5783 13.4679 24.5783 12C24.5783 10.5322 24.3142 9.12617 23.8319 7.82614L12.5783 6.78265L1.32465 7.82614Z" fill="#F0F0F0"/>
<path d="M12.5783 0C7.41874 0 3.02018 3.2565 1.32471 7.82611H23.832C22.1364 3.2565 17.7379 0 12.5783 0Z" fill="#D80027"/>
<path d="M12.5783 24C17.7379 24 22.1364 20.7435 23.8319 16.1739H1.32471C3.02018 20.7435 7.41874 24 12.5783 24Z" fill="#6DA544"/>
</g>
<defs>
<clipPath id="clip0_1_737">
<rect width="24" height="24" fill="white" transform="translate(0.578262)"/>
</clipPath>
</defs>
</svg>
