<svg width="25" height="24" viewBox="0 0 25 24" fill="none" xmlns="http://www.w3.org/2000/svg">
<g clip-path="url(#clip0_1_809)">
<path d="M16.7522 0.746344C15.4521 0.264047 14.0461 6.23894e-09 12.5783 6.23894e-09C11.1104 -4.68688e-05 9.70435 0.264047 8.40437 0.746344L7.36089 12L8.40437 23.2536C9.70431 23.736 11.1104 24 12.5783 24C14.0461 24 15.4522 23.736 16.7522 23.2536L17.7956 12L16.7522 0.746344Z" fill="#FFDA44"/>
<path d="M24.5783 11.9999C24.5783 6.84042 21.3218 2.44181 16.7522 0.746338V23.2537C21.3218 21.558 24.5782 17.1596 24.5783 11.9999Z" fill="#D80027"/>
<path d="M0.578262 12C0.578262 17.1596 3.83476 21.5581 8.40428 23.2537L8.40432 0.74646C3.83476 2.44193 0.578262 6.8404 0.578262 12H0.578262Z" fill="#0052B4"/>
</g>
<defs>
<clipPath id="clip0_1_809">
<rect width="24" height="24" fill="white" transform="translate(0.578262)"/>
</clipPath>
</defs>
</svg>
