<svg width="25" height="24" viewBox="0 0 25 24" fill="none" xmlns="http://www.w3.org/2000/svg">
<g clip-path="url(#clip0_1_764)">
<path d="M0.578262 12C0.578262 13.4679 0.842309 14.8739 1.32465 16.1739L12.5783 17.2174L23.8319 16.1739C24.3142 14.8739 24.5783 13.4679 24.5783 12C24.5783 10.5322 24.3142 9.12612 23.8319 7.82614L12.5783 6.78265L1.32465 7.82614C0.842309 9.12612 0.578262 10.5322 0.578262 12H0.578262Z" fill="#FFDA44"/>
<path d="M23.8319 7.82611C22.1363 3.25655 17.7378 0 12.5783 0C7.41868 0 3.02016 3.25655 1.32465 7.82611H23.8319Z" fill="#D80027"/>
<path d="M1.32465 16.1739C3.02016 20.7435 7.41868 24 12.5783 24C17.7378 24 22.1363 20.7435 23.8319 16.1739H1.32465Z" fill="#D80027"/>
</g>
<defs>
<clipPath id="clip0_1_764">
<rect width="24" height="24" fill="white" transform="translate(0.578262)"/>
</clipPath>
</defs>
</svg>
