<svg width="25" height="24" viewBox="0 0 25 24" fill="none" xmlns="http://www.w3.org/2000/svg">
<g clip-path="url(#clip0_1_773)">
<path d="M12.5783 24C19.2057 24 24.5783 18.6274 24.5783 12C24.5783 5.37258 19.2057 0 12.5783 0C5.95084 0 0.578262 5.37258 0.578262 12C0.578262 18.6274 5.95084 24 12.5783 24Z" fill="#F0F0F0"/>
<path d="M3.05889 4.69415C2.11628 5.92054 1.40551 7.33406 0.991653 8.86964H7.23437L3.05889 4.69415Z" fill="#0052B4"/>
<path d="M24.1649 8.86965C23.751 7.33412 23.0402 5.9206 22.0976 4.69421L17.9222 8.86965H24.1649Z" fill="#0052B4"/>
<path d="M0.991653 15.1305C1.40556 16.666 2.11633 18.0795 3.05889 19.3059L7.23423 15.1305H0.991653Z" fill="#0052B4"/>
<path d="M19.8841 2.48067C18.6577 1.53806 17.2442 0.827297 15.7087 0.413391V6.65606L19.8841 2.48067Z" fill="#0052B4"/>
<path d="M5.27242 21.5193C6.49881 22.4619 7.91232 23.1727 9.44785 23.5866V17.344L5.27242 21.5193Z" fill="#0052B4"/>
<path d="M9.44781 0.413391C7.91227 0.827297 6.49876 1.53806 5.27242 2.48063L9.44781 6.65602V0.413391Z" fill="#0052B4"/>
<path d="M15.7087 23.5866C17.2442 23.1727 18.6578 22.4619 19.8841 21.5194L15.7087 17.344V23.5866Z" fill="#0052B4"/>
<path d="M17.9222 15.1305L22.0976 19.3059C23.0402 18.0796 23.751 16.666 24.1649 15.1305H17.9222Z" fill="#0052B4"/>
<path d="M24.4767 10.4348H14.1436H14.1435V0.101578C13.6311 0.034875 13.1087 0 12.5783 0C12.0477 0 11.5254 0.034875 11.0131 0.101578V10.4347V10.4347H0.67984C0.613137 10.9471 0.578262 11.4695 0.578262 12C0.578262 12.5306 0.613137 13.0529 0.67984 13.5652H11.013H11.013V23.8984C11.5254 23.9651 12.0477 24 12.5783 24C13.1087 24 13.6311 23.9652 14.1435 23.8984V13.5653V13.5653H24.4767C24.5434 13.0529 24.5783 12.5306 24.5783 12C24.5783 11.4695 24.5434 10.9471 24.4767 10.4348Z" fill="#D80027"/>
<path d="M15.7087 15.1305L21.0635 20.4853C21.3098 20.2391 21.5447 19.9817 21.7689 19.7149L17.1844 15.1304H15.7087V15.1305Z" fill="#D80027"/>
<path d="M9.44782 15.1305H9.44772L4.09296 20.4853C4.33914 20.7315 4.59653 20.9665 4.86335 21.1906L9.44782 16.6061V15.1305Z" fill="#D80027"/>
<path d="M9.44781 8.86966V8.86957L4.09299 3.51471C3.84671 3.7609 3.61178 4.01829 3.38762 4.2851L7.97213 8.86962H9.44781V8.86966Z" fill="#D80027"/>
<path d="M15.7087 8.86962L21.0636 3.51472C20.8174 3.26843 20.56 3.0335 20.2932 2.80939L15.7087 7.3939V8.86962Z" fill="#D80027"/>
</g>
<defs>
<clipPath id="clip0_1_773">
<rect width="24" height="24" fill="white" transform="translate(0.578262)"/>
</clipPath>
</defs>
</svg>
