<svg width="60" height="60" viewBox="0 0 60 60" fill="none" xmlns="http://www.w3.org/2000/svg">
<g clip-path="url(#clip0_963_1264)">
<path d="M59.3257 29.8179C59.2258 13.7773 46.0494 0.855382 29.8952 0.955921C13.7411 1.05646 0.726487 14.1414 0.826319 30.182C0.92615 46.2226 14.1026 59.1446 30.2568 59.044C46.4109 58.9435 59.4255 45.8585 59.3257 29.8179Z" fill="#FCFCF3"/>
<path d="M53.8735 29.8519C53.7923 16.8013 43.0719 6.28796 29.9289 6.36976C16.7859 6.45156 6.19725 17.0975 6.27847 30.1481C6.35969 43.1987 17.0801 53.712 30.2231 53.6302C43.3661 53.5484 53.9547 42.9025 53.8735 29.8519Z" stroke="#FAC25E" stroke-width="1.51894" stroke-miterlimit="10"/>
<path d="M52.8612 29.8585C52.7834 17.3631 42.5191 7.297 29.9352 7.37532C17.3513 7.45364 7.21306 17.6467 7.29083 30.1421C7.3686 42.6375 17.6329 52.7036 30.2168 52.6253C42.8007 52.547 52.9389 42.3539 52.8612 29.8585Z" stroke="#533B6A" stroke-width="1.01263" stroke-miterlimit="10"/>
<path d="M31.8498 29.989C31.8437 29.0162 31.0446 28.2325 30.0649 28.2386C29.0853 28.2447 28.296 29.0383 28.302 30.0111C28.3081 30.9839 29.1072 31.7675 30.0869 31.7614C31.0665 31.7553 31.8558 30.9618 31.8498 29.989Z" fill="#FAC25E"/>
<path d="M29.3522 12.3888C29.3019 11.7104 29.1309 11.7966 28.532 11.5958C28.1036 11.4523 27.6875 11.2274 27.7626 10.9511C27.8266 10.7563 28.4681 10.5947 28.7874 10.4847C29.1399 10.3643 29.1634 10.434 29.2095 10.0258C29.3377 9.44546 29.2382 9.49311 29.4139 8.9379C29.6009 8.34577 30.0505 9.01909 30.1879 9.29402C30.3201 9.56009 30.4328 9.7729 30.5571 9.79246C30.6672 9.80956 31.0205 9.60021 31.3753 9.45057C31.646 9.33705 32.1474 9.0861 32.2235 9.18222C32.2906 9.26695 32.4335 9.40078 32.1595 9.78884C31.9514 10.0837 31.8575 10.2177 31.7024 10.3776C31.5561 10.5297 31.2831 10.8746 31.2404 11.0019C31.219 11.0669 31.64 11.4671 31.7781 11.6442C32.449 12.5068 32.3648 12.7551 32.1336 12.8303C31.9944 12.8756 31.5019 12.7211 31.1651 12.4754C30.9478 12.3178 30.6654 12.1836 30.5848 12.1994C30.4417 12.227 30.2055 12.733 30.1338 12.9393C30.0344 13.2233 29.7285 13.6294 29.5636 13.6622C29.2827 13.5559 29.352 12.765 29.3522 12.3862L29.3522 12.3888Z" fill="#533B6A"/>
<path d="M48.4147 31.0895C48.3644 30.4111 48.1934 30.4973 47.5945 30.2964C47.1661 30.153 46.75 29.9281 46.8251 29.6518C46.8891 29.457 47.5306 29.2954 47.8499 29.1854C48.2024 29.065 48.2259 29.1347 48.272 28.7265C48.4002 28.1461 48.3007 28.1938 48.4764 27.6386C48.6634 27.0464 49.113 27.7198 49.2504 27.9947C49.3878 28.2696 49.4953 28.4736 49.6195 28.4931C49.7297 28.5102 50.083 28.3009 50.4378 28.1513C50.7085 28.0377 51.2099 27.7868 51.286 27.8829C51.3531 27.9676 51.496 28.1015 51.222 28.4895C51.0139 28.7844 50.92 28.9184 50.7649 29.0783C50.6186 29.2304 50.3456 29.5752 50.3029 29.7026C50.2815 29.7675 50.7025 30.1678 50.8406 30.3449C51.5115 31.2074 51.4273 31.4558 51.1961 31.5309C51.0569 31.5763 50.5644 31.4218 50.2276 31.176C50.0103 31.0185 49.7279 30.8843 49.6473 30.9001C49.5042 30.9276 49.268 31.4337 49.1963 31.64C49.0969 31.924 48.791 32.3301 48.6261 32.3629C48.3452 32.2566 48.4145 31.4657 48.4147 31.0869L48.4147 31.0895Z" fill="#533B6A"/>
<path d="M10.2662 31.3268C10.2159 30.6484 10.045 30.7346 9.44602 30.5337C9.01764 30.3903 8.60155 30.1654 8.67663 29.8891C8.74069 29.6943 9.38219 29.5327 9.70148 29.4227C10.054 29.3023 10.0775 29.372 10.1236 28.9638C10.2518 28.3835 10.1522 28.4311 10.328 27.8759C10.515 27.2838 10.9646 27.9571 11.102 28.232C11.2342 28.4981 11.3468 28.7109 11.4711 28.7304C11.5813 28.7476 11.9345 28.5382 12.2894 28.3886C12.56 28.275 13.0615 28.0241 13.1376 28.1202C13.2047 28.2049 13.3476 28.3388 13.0735 28.7268C12.8655 29.0217 12.7716 29.1557 12.6164 29.3156C12.4613 29.4754 12.1972 29.8125 12.1544 29.9399C12.1331 30.0049 12.5541 30.4051 12.6921 30.5822C13.3631 31.4448 13.2789 31.6931 13.0477 31.7683C12.9084 31.8136 12.416 31.6591 12.0791 31.4133C11.8618 31.2558 11.5794 31.1216 11.4989 31.1374C11.3557 31.1649 11.1195 31.671 11.0479 31.8773C10.9485 32.1613 10.6426 32.5674 10.4777 32.6002C10.1967 32.4939 10.266 31.703 10.2662 31.3242L10.2662 31.3268Z" fill="#533B6A"/>
<path d="M29.5861 49.9767C29.5358 49.2983 29.3648 49.3845 28.7658 49.1836C28.3375 49.0402 27.9214 48.8153 27.9964 48.539C28.0605 48.3442 28.702 48.1826 29.0213 48.0726C29.3738 47.9522 29.3973 48.0219 29.4434 47.6137C29.5716 47.0334 29.4721 47.081 29.6478 46.5258C29.8348 45.9337 30.2844 46.607 30.4218 46.8819C30.554 47.148 30.6667 47.3608 30.7909 47.3803C30.9011 47.3975 31.2543 47.1881 31.6092 47.0385C31.8799 46.9249 32.3813 46.674 32.4574 46.7701C32.5245 46.8548 32.6674 46.9887 32.3933 47.3767C32.1853 47.6716 32.0914 47.8056 31.9362 47.9655C31.79 48.1176 31.517 48.4624 31.4743 48.5898C31.4529 48.6548 31.8739 49.055 32.012 49.2321C32.6829 50.0947 32.5987 50.343 32.3675 50.4182C32.2283 50.4635 31.7358 50.309 31.3989 50.0632C31.1817 49.9057 30.8993 49.7715 30.8187 49.7873C30.6755 49.8148 30.4393 50.3209 30.3677 50.5272C30.2683 50.8112 29.9624 51.2173 29.7975 51.2501C29.5165 51.1438 29.5859 50.3529 29.5861 49.9741L29.5861 49.9767Z" fill="#533B6A"/>
<path d="M34.0311 30.8623L40.9193 41.9297C41.1611 42.3183 40.6555 42.7371 40.3145 42.4303L30.6329 33.7328C30.4553 33.5725 30.4587 33.2942 30.642 33.1393L32.2144 32.6211C32.4003 32.4636 33.9057 30.6559 34.0337 30.8623L34.0311 30.8623Z" fill="#FAC25E"/>
<path d="M33.5867 29.9782C33.5747 28.0529 31.9933 26.502 30.0544 26.5141C28.1155 26.5261 26.5535 28.0966 26.5655 30.0219C26.5774 31.9471 28.1589 33.498 30.0978 33.486C32.0366 33.4739 33.5987 31.9034 33.5867 29.9782Z" stroke="#533B6A" stroke-width="1.34511" stroke-miterlimit="10"/>
<path d="M26.6645 28.6613L20.4512 18.6777C20.1137 18.1358 20.8179 17.5532 21.2941 17.9811L30.0283 25.8279C30.2755 26.05 30.2702 26.439 30.0168 26.6541C30.0168 26.6541 26.6447 26.7208 26.9625 29.2543C26.9625 29.2543 26.8442 28.9487 26.6658 28.6626L26.6645 28.6613Z" fill="#533B6A"/>
<path d="M22.0572 45.5817C22.0546 45.1634 21.711 44.8264 21.2897 44.829C20.8685 44.8317 20.5291 45.1729 20.5317 45.5912C20.5343 46.0095 20.8779 46.3465 21.2992 46.3439C21.7204 46.3413 22.0598 46 22.0572 45.5817Z" fill="#533B6A"/>
<path d="M40.4064 45.4675C40.4038 45.0491 40.0601 44.7122 39.6389 44.7148C39.2176 44.7174 38.8782 45.0586 38.8808 45.4769C38.8834 45.8953 39.227 46.2322 39.6483 46.2296C40.0696 46.227 40.409 45.8858 40.4064 45.4675Z" fill="#533B6A"/>
<path d="M15.8722 40.1745C15.8696 39.7562 15.526 39.4192 15.1047 39.4218C14.6834 39.4244 14.344 39.7657 14.3466 40.184C14.3492 40.6023 14.6928 40.9393 15.1141 40.9367C15.5354 40.934 15.8748 40.5928 15.8722 40.1745Z" fill="#533B6A"/>
<path d="M46.8805 39.9811C46.8779 39.5628 46.5343 39.2258 46.113 39.2284C45.6917 39.2311 45.3523 39.5723 45.3549 39.9906C45.3575 40.4089 45.7011 40.7459 46.1224 40.7433C46.5437 40.7407 46.8831 40.3994 46.8805 39.9811Z" fill="#533B6A"/>
<path d="M21.8656 14.8219C21.863 14.4036 21.5194 14.0666 21.0981 14.0693C20.6768 14.0719 20.3374 14.4131 20.34 14.8314C20.3426 15.2498 20.6862 15.5867 21.1075 15.5841C21.5288 15.5815 21.8682 15.2403 21.8656 14.8219Z" fill="#533B6A"/>
<path d="M40.215 14.7077C40.2124 14.2894 39.8687 13.9524 39.4475 13.955C39.0262 13.9576 38.6868 14.2989 38.6894 14.7172C38.692 15.1355 39.0356 15.4725 39.4569 15.4699C39.8782 15.4672 40.2176 15.126 40.215 14.7077Z" fill="#533B6A"/>
<path d="M15.7465 19.9386C15.7438 19.5203 15.4002 19.1833 14.9789 19.186C14.5577 19.1886 14.2183 19.5298 14.2209 19.9481C14.2235 20.3665 14.5671 20.7034 14.9884 20.7008C15.4097 20.6982 15.7491 20.357 15.7465 19.9386Z" fill="#533B6A"/>
<path d="M46.7545 19.7453C46.7519 19.327 46.4083 18.99 45.987 18.9926C45.5657 18.9952 45.2263 19.3365 45.2289 19.7548C45.2315 20.1731 45.5752 20.5101 45.9964 20.5075C46.4177 20.5048 46.7571 20.1636 46.7545 19.7453Z" fill="#533B6A"/>
</g>
<defs>
<clipPath id="clip0_963_1264">
<rect width="58.0892" height="58.5005" fill="white" transform="translate(1.00708 59.2261) rotate(-90.3566)"/>
</clipPath>
</defs>
</svg>
