<svg width="60" height="59" viewBox="0 0 60 59" fill="none"
    xmlns="http://www.w3.org/2000/svg">
    <g clip-path="url(#clip0_1718_2824)">
        <path d="M58.8591 29.588C58.7593 13.5474 45.5828 0.625402 29.4287 0.725941C13.2745 0.826479 0.259934 13.9114 0.359766 29.952C0.459598 45.9926 13.6361 58.9146 29.7902 58.8141C45.9444 58.7135 58.9589 45.6285 58.8591 29.588Z" fill="#FCFCF3"/>
        <path d="M53.407 29.6219C53.3257 16.5713 42.6054 6.05798 29.4624 6.13978C16.3194 6.22158 5.73069 16.8675 5.81192 29.9181C5.89314 42.9687 16.6135 53.482 29.7565 53.4002C42.8995 53.3184 53.4882 42.6725 53.407 29.6219Z" stroke="#FAC25E" stroke-width="1.51894" stroke-miterlimit="10"/>
        <path d="M52.3946 29.6285C52.3168 17.1331 42.0525 7.06702 29.4686 7.14534C16.8847 7.22366 6.74651 17.4167 6.82428 29.9121C6.90204 42.4076 17.1664 52.4736 29.7502 52.3953C42.3341 52.317 52.4724 42.1239 52.3946 29.6285Z" stroke="#533B6A" stroke-width="1.01263" stroke-miterlimit="10"/>
        <path d="M31.3832 29.759C31.3772 28.7862 30.5781 28.0025 29.5984 28.0086C28.6187 28.0147 27.8294 28.8083 27.8355 29.7811C27.8415 30.7539 28.6406 31.5375 29.6203 31.5314C30.6 31.5253 31.3893 30.7318 31.3832 29.759Z" fill="#FAC25E"/>
        <path d="M28.8856 12.1588C28.8353 11.4805 28.6644 11.5667 28.0654 11.3658C27.637 11.2223 27.2209 10.9974 27.296 10.7211C27.3601 10.5263 28.0016 10.3647 28.3209 10.2547C28.6734 10.1343 28.6968 10.2041 28.7429 9.79581C28.8712 9.21548 28.7716 9.26313 28.9473 8.70792C29.1344 8.11579 29.584 8.78911 29.7213 9.06404C29.8536 9.33011 29.9662 9.54292 30.0905 9.56248C30.2007 9.57958 30.5539 9.37023 30.9088 9.22059C31.1794 9.10707 31.6809 8.85612 31.757 8.95224C31.8241 9.03697 31.967 9.1708 31.6929 9.55886C31.4848 9.85373 31.391 9.98776 31.2358 10.1476C31.0896 10.2997 30.8165 10.6446 30.7738 10.7719C30.7525 10.8369 31.1735 11.2371 31.3115 11.4142C31.9824 12.2768 31.8982 12.5251 31.667 12.6003C31.5278 12.6456 31.0354 12.4911 30.6985 12.2454C30.4812 12.0879 30.1988 11.9536 30.1183 11.9694C29.9751 11.997 29.7389 12.503 29.6672 12.7093C29.5679 12.9933 29.262 13.3994 29.0971 13.4322C28.8161 13.3259 28.8854 12.535 28.8856 12.1563L28.8856 12.1588Z" fill="#533B6A"/>
        <path d="M47.9481 30.8595C47.8978 30.1811 47.7269 30.2673 47.1279 30.0665C46.6995 29.923 46.2834 29.6981 46.3585 29.4218C46.4226 29.227 47.0641 29.0654 47.3834 28.9554C47.7359 28.835 47.7593 28.9047 47.8054 28.4965C47.9337 27.9162 47.8341 27.9638 48.0098 27.4086C48.1969 26.8165 48.6465 27.4898 48.7838 27.7647C48.9212 28.0397 49.0287 28.2436 49.153 28.2632C49.2632 28.2803 49.6164 28.0709 49.9713 27.9213C50.2419 27.8078 50.7434 27.5568 50.8195 27.6529C50.8865 27.7377 51.0294 27.8715 50.7554 28.2595C50.5473 28.5544 50.4535 28.6884 50.2983 28.8483C50.1521 29.0004 49.879 29.3453 49.8363 29.4726C49.815 29.5376 50.236 29.9378 50.374 30.1149C51.0449 30.9775 50.9607 31.2258 50.7295 31.301C50.5903 31.3463 50.0979 31.1918 49.761 30.9461C49.5437 30.7885 49.2613 30.6543 49.1808 30.6701C49.0376 30.6977 48.8014 31.2037 48.7297 31.41C48.6304 31.694 48.3245 32.1001 48.1596 32.1329C47.8786 32.0266 47.9479 31.2357 47.9481 30.8569L47.9481 30.8595Z" fill="#533B6A"/>
        <path d="M9.7997 31.0968C9.7494 30.4184 9.57843 30.5047 8.97946 30.3038C8.55109 30.1603 8.135 29.9354 8.21007 29.6591C8.27413 29.4643 8.91564 29.3027 9.23493 29.1927C9.58743 29.0723 9.6109 29.142 9.657 28.7338C9.78522 28.1535 9.68568 28.2011 9.86141 27.6459C10.0484 27.0538 10.498 27.7271 10.6354 28.002C10.7676 28.2681 10.8803 28.4809 11.0046 28.5005C11.1147 28.5176 11.468 28.3082 11.8228 28.1586C12.0935 28.0451 12.5949 27.7941 12.671 27.8902C12.7381 27.975 12.881 28.1088 12.607 28.4968C12.3989 28.7917 12.305 28.9257 12.1499 29.0856C11.9947 29.2454 11.7306 29.5826 11.6879 29.7099C11.6665 29.7749 12.0875 30.1751 12.2256 30.3522C12.8965 31.2148 12.8123 31.4631 12.5811 31.5383C12.4419 31.5836 11.9494 31.4291 11.6126 31.1834C11.3953 31.0259 11.1129 30.8916 11.0323 30.9074C10.8892 30.935 10.653 31.441 10.5813 31.6473C10.482 31.9313 10.176 32.3374 10.0111 32.3702C9.73017 32.2639 9.79948 31.473 9.79968 31.0942L9.7997 31.0968Z" fill="#533B6A"/>
        <path d="M29.1195 49.7467C29.0692 49.0683 28.8983 49.1546 28.2993 48.9537C27.8709 48.8102 27.4548 48.5853 27.5299 48.309C27.594 48.1142 28.2355 47.9526 28.5548 47.8426C28.9073 47.7222 28.9307 47.7919 28.9768 47.3837C29.105 46.8034 29.0055 46.851 29.1812 46.2958C29.3683 45.7037 29.8179 46.377 29.9552 46.6519C30.0874 46.918 30.2001 47.1308 30.3244 47.1504C30.4346 47.1675 30.7878 46.9581 31.1427 46.8085C31.4133 46.695 31.9147 46.444 31.9909 46.5401C32.0579 46.6249 32.2008 46.7587 31.9268 47.1467C31.7187 47.4416 31.6248 47.5756 31.4697 47.7355C31.3235 47.8876 31.0504 48.2325 31.0077 48.3598C30.9863 48.4248 31.4074 48.825 31.5454 49.0021C32.2163 49.8647 32.1321 50.113 31.9009 50.1882C31.7617 50.2335 31.2693 50.079 30.9324 49.8333C30.7151 49.6758 30.4327 49.5415 30.3522 49.5573C30.209 49.5849 29.9728 50.0909 29.9011 50.2972C29.8018 50.5812 29.4959 50.9873 29.3309 51.0201C29.05 50.9138 29.1193 50.1229 29.1195 49.7441L29.1195 49.7467Z" fill="#533B6A"/>
        <path d="M33.5646 30.6323L40.4527 41.6997C40.6945 42.0883 40.189 42.5071 39.8479 42.2004L30.1664 33.5028C29.9888 33.3425 29.9921 33.0642 30.1755 32.9093L31.7478 32.3911C31.9337 32.2336 33.4391 30.426 33.5671 30.6323L33.5646 30.6323Z" fill="#FAC25E"/>
        <path d="M33.1202 29.7482C33.1082 27.823 31.5267 26.272 29.5878 26.2841C27.649 26.2962 26.0869 27.8666 26.0989 29.7919C26.1109 31.7171 27.6924 33.268 29.6312 33.256C31.5701 33.2439 33.1321 31.6734 33.1202 29.7482Z" stroke="#533B6A" stroke-width="1.34511" stroke-miterlimit="10"/>
        <path d="M26.1979 28.4314L19.9846 18.4477C19.6472 17.9059 20.3513 17.3232 20.8276 17.7511L29.5618 25.5979C29.8089 25.8201 29.8037 26.209 29.5503 26.4241C29.5503 26.4241 26.1782 26.4908 26.496 29.0243C26.496 29.0243 26.3776 28.7187 26.1992 28.4326L26.1979 28.4314Z" fill="#533B6A"/>
        <path d="M21.5907 45.3517C21.5881 44.9334 21.2445 44.5964 20.8232 44.599C20.4019 44.6017 20.0625 44.9429 20.0651 45.3612C20.0677 45.7795 20.4113 46.1165 20.8326 46.1139C21.2539 46.1113 21.5933 45.77 21.5907 45.3517Z" fill="#533B6A"/>
        <path d="M39.9398 45.2375C39.9372 44.8192 39.5936 44.4822 39.1723 44.4848C38.751 44.4874 38.4116 44.8287 38.4142 45.247C38.4168 45.6653 38.7605 46.0023 39.1817 45.9996C39.603 45.997 39.9424 45.6558 39.9398 45.2375Z" fill="#533B6A"/>
        <path d="M15.4056 39.9445C15.403 39.5262 15.0594 39.1892 14.6381 39.1918C14.2169 39.1944 13.8774 39.5357 13.8801 39.954C13.8827 40.3723 14.2263 40.7093 14.6476 40.7067C15.0688 40.7041 15.4082 40.3628 15.4056 39.9445Z" fill="#533B6A"/>
        <path d="M46.4139 39.7511C46.4113 39.3328 46.0677 38.9958 45.6464 38.9985C45.2252 39.0011 44.8857 39.3423 44.8884 39.7606C44.891 40.179 45.2346 40.5159 45.6559 40.5133C46.0771 40.5107 46.4165 40.1695 46.4139 39.7511Z" fill="#533B6A"/>
        <path d="M21.399 14.592C21.3964 14.1736 21.0528 13.8367 20.6315 13.8393C20.2103 13.8419 19.8709 14.1831 19.8735 14.6015C19.8761 15.0198 20.2197 15.3568 20.641 15.3541C21.0622 15.3515 21.4016 15.0103 21.399 14.592Z" fill="#533B6A"/>
        <path d="M39.7484 14.4777C39.7458 14.0594 39.4022 13.7224 38.9809 13.725C38.5596 13.7276 38.2202 14.0689 38.2228 14.4872C38.2254 14.9055 38.5691 15.2425 38.9903 15.2399C39.4116 15.2373 39.751 14.896 39.7484 14.4777Z" fill="#533B6A"/>
        <path d="M15.2799 19.7087C15.2773 19.2903 14.9337 18.9534 14.5124 18.956C14.0911 18.9586 13.7517 19.2998 13.7543 19.7182C13.7569 20.1365 14.1005 20.4735 14.5218 20.4708C14.9431 20.4682 15.2825 20.127 15.2799 19.7087Z" fill="#533B6A"/>
        <path d="M46.288 19.5153C46.2854 19.097 45.9417 18.76 45.5205 18.7626C45.0992 18.7652 44.7598 19.1065 44.7624 19.5248C44.765 19.9431 45.1086 20.2801 45.5299 20.2775C45.9512 20.2749 46.2906 19.9336 46.288 19.5153Z" fill="#533B6A"/>
    </g>
    <defs>
        <clipPath id="clip0_1718_2824">
            <rect width="58.0892" height="58.5005" fill="white" transform="translate(0.540527 58.9961) rotate(-90.3566)"/>
        </clipPath>
    </defs>
</svg>
