<svg width="394" height="383" viewBox="0 0 394 383" fill="none"
    xmlns="http://www.w3.org/2000/svg">
    <g clip-path="url(#clip0_915_786)">
        <path d="M197.076 569C353.097 569 479.576 441.625 479.576 284.5C479.576 127.375 353.097 0 197.076 0C41.0557 0 -85.4238 127.375 -85.4238 284.5C-85.4238 441.625 41.0557 569 197.076 569Z" fill="#FCFCF3"/>
        <path d="M197.076 515.969C324.014 515.969 426.918 412.337 426.918 284.5C426.918 156.663 324.014 53.031 197.076 53.031C70.1381 53.031 -32.7656 156.663 -32.7656 284.5C-32.7656 412.337 70.1381 515.969 197.076 515.969Z" stroke="#FAC25E" stroke-width="9" stroke-miterlimit="10"/>
        <path d="M197.076 506.122C318.614 506.122 417.14 406.898 417.14 284.5C417.14 162.101 318.614 62.8777 197.076 62.8777C75.5381 62.8777 -22.988 162.101 -22.988 284.5C-22.988 406.898 75.5381 506.122 197.076 506.122Z" stroke="#533B6A" stroke-width="6" stroke-miterlimit="10"/>
        <path d="M197.076 301.754C206.538 301.754 214.209 294.029 214.209 284.5C214.209 274.971 206.538 267.246 197.076 267.246C187.614 267.246 179.944 274.971 179.944 284.5C179.944 294.029 187.614 301.754 197.076 301.754Z" fill="#FAC25E"/>
        <path d="M368.413 278.525C375.014 278.077 374.186 276.408 376.176 270.595C377.597 266.437 379.81 262.404 382.492 263.151C384.384 263.786 385.916 270.035 386.967 273.147C388.117 276.583 387.437 276.807 391.405 277.28C397.041 278.562 396.584 277.591 401.973 279.334C407.721 281.189 401.145 285.521 398.463 286.84C395.867 288.11 393.79 289.193 393.593 290.401C393.419 291.471 395.434 294.919 396.868 298.38C397.956 301.019 400.366 305.912 399.427 306.646C398.599 307.293 397.289 308.675 393.531 305.986C390.675 303.945 389.377 303.023 387.832 301.505C386.361 300.073 383.024 297.397 381.788 296.973C381.157 296.762 377.239 300.833 375.508 302.165C367.078 308.638 364.668 307.804 363.951 305.551C363.518 304.194 365.051 299.413 367.461 296.152C369.006 294.048 370.329 291.309 370.181 290.525C369.921 289.131 365.014 286.803 363.011 286.093C360.255 285.11 356.324 282.11 356.015 280.504C357.066 277.778 364.754 278.5 368.438 278.525H368.413Z" fill="#533B6A"/>
        <path d="M185.37 91.7461C191.971 91.298 191.143 89.6299 193.133 83.8164C194.555 79.6585 196.767 75.6252 199.45 76.3721C201.341 77.007 202.874 83.2562 203.924 86.3683C205.074 89.8041 204.394 90.0282 208.362 90.5013C213.999 91.7835 213.541 90.8125 218.931 92.5553C224.679 94.4101 218.102 98.7422 215.42 100.062C212.824 101.332 210.748 102.415 210.55 103.622C210.377 104.693 212.392 108.141 213.826 111.602C214.913 114.241 217.324 119.133 216.384 119.867C215.556 120.515 214.246 121.897 210.488 119.208C207.633 117.166 206.335 116.245 204.79 114.726C203.244 113.207 199.981 110.618 198.745 110.195C198.115 109.983 194.196 114.054 192.466 115.386C184.035 121.859 181.625 121.025 180.908 118.772C180.475 117.415 182.008 112.635 184.419 109.373C185.964 107.27 187.286 104.531 187.138 103.747C186.878 102.352 181.971 100.024 179.969 99.3149C177.212 98.3314 173.281 95.3313 172.972 93.7254C174.023 90.9992 181.711 91.7212 185.395 91.7461H185.37Z" fill="#533B6A"/>
        <path d="M2.80953 278.525C9.41035 278.077 8.58216 276.408 10.5723 270.595C11.9938 266.437 14.2064 262.404 16.8888 263.151C18.78 263.786 20.3128 270.035 21.3635 273.147C22.5131 276.583 21.8332 276.807 25.8011 277.28C31.4378 278.562 30.9804 277.591 36.3699 279.334C42.1177 281.189 35.5417 285.521 32.8593 286.84C30.2635 288.11 28.1868 289.193 27.989 290.401C27.816 291.471 29.8308 294.919 31.2647 298.38C32.3525 301.019 34.7629 305.912 33.8235 306.646C32.9953 307.293 31.685 308.675 27.9272 305.986C25.0718 303.945 23.7739 303.023 22.2288 301.505C20.7578 300.073 17.4203 297.397 16.1842 296.973C15.5538 296.762 11.6353 300.833 9.90479 302.165C1.47454 308.638 -0.935874 307.804 -1.65282 305.551C-2.08545 304.194 -0.552676 299.413 1.85773 296.152C3.40287 294.048 4.7255 291.309 4.57717 290.525C4.31758 289.131 -0.589757 286.803 -2.59225 286.093C-5.34877 285.11 -9.2796 282.11 -9.58862 280.504C-8.53793 277.778 -0.84934 278.5 2.83426 278.525H2.80953Z" fill="#533B6A"/>
        <path d="M188.448 322.916L80.3877 389.242C76.5929 391.57 72.5508 386.628 75.5545 383.329L160.735 289.691C162.305 287.973 165.012 288.023 166.507 289.816L171.452 305.14C172.972 306.957 190.463 321.709 188.448 322.941V322.916Z" fill="#FAC25E"/>
        <path d="M197.076 318.646C215.802 318.646 230.983 303.359 230.983 284.5C230.983 265.641 215.802 250.354 197.076 250.354C178.35 250.354 163.17 265.641 163.17 284.5C163.17 303.359 178.35 318.646 197.076 318.646Z" stroke="#533B6A" stroke-width="7.97" stroke-miterlimit="10"/>
        <path d="M210.303 251.399L307.782 191.571C313.073 188.322 318.697 195.206 314.506 199.812L237.658 284.288C235.482 286.678 231.7 286.604 229.623 284.126C229.623 284.126 229.178 251.324 204.518 254.262C204.518 254.262 207.497 253.129 210.29 251.412L210.303 251.399Z" fill="#533B6A"/>
        <path d="M46.0115 205.564C50.0803 205.564 53.3787 202.242 53.3787 198.144C53.3787 194.047 50.0803 190.725 46.0115 190.725C41.9427 190.725 38.6443 194.047 38.6443 198.144C38.6443 202.242 41.9427 205.564 46.0115 205.564Z" fill="#533B6A"/>
        <path d="M46.0115 384.039C50.0803 384.039 53.3787 380.717 53.3787 376.62C53.3787 372.522 50.0803 369.2 46.0115 369.2C41.9427 369.2 38.6443 372.522 38.6443 376.62C38.6443 380.717 41.9427 384.039 46.0115 384.039Z" fill="#533B6A"/>
        <path d="M98.9788 145.736C103.048 145.736 106.346 142.414 106.346 138.316C106.346 134.219 103.048 130.897 98.9788 130.897C94.91 130.897 91.6116 134.219 91.6116 138.316C91.6116 142.414 94.91 145.736 98.9788 145.736Z" fill="#533B6A"/>
        <path d="M345.199 205.564C349.268 205.564 352.566 202.242 352.566 198.144C352.566 194.047 349.268 190.725 345.199 190.725C341.13 190.725 337.832 194.047 337.832 198.144C337.832 202.242 341.13 205.564 345.199 205.564Z" fill="#533B6A"/>
        <path d="M345.199 384.039C349.268 384.039 352.566 380.717 352.566 376.62C352.566 372.522 349.268 369.2 345.199 369.2C341.13 369.2 337.832 372.522 337.832 376.62C337.832 380.717 341.13 384.039 345.199 384.039Z" fill="#533B6A"/>
        <path d="M295.804 145.736C299.873 145.736 303.171 142.414 303.171 138.316C303.171 134.219 299.873 130.897 295.804 130.897C291.735 130.897 288.437 134.219 288.437 138.316C288.437 142.414 291.735 145.736 295.804 145.736Z" fill="#533B6A"/>
    </g>
    <defs>
        <clipPath id="clip0_915_786">
            <rect width="565" height="569" fill="white" transform="translate(-85.4238)"/>
        </clipPath>
    </defs>
</svg>
