<svg width="96" height="24" viewBox="0 0 96 24" fill="none" xmlns="http://www.w3.org/2000/svg">
<path d="M25.9956 17.3104L17.5028 0L0.629822 8.72127L6.98937 21.671H2.65844V23.5375H25.8748V21.671H17.5591L25.9956 17.3104ZM3.07704 9.54714L16.6897 2.51067L23.5483 16.4763L13.5019 21.6628H9.02604L3.07704 9.54714Z" fill="#0C4DA2"/>
<path d="M32.347 6.22689H31.381L31.059 7.37486H29.4892L29.8032 6.22689H29.1028V4.87245H30.1816L30.5036 3.66667H29.5858V2.34526H30.8739L31.212 1.10645H32.7898L32.4517 2.34526H33.4096L33.7477 1.10645H35.3175L34.9794 2.34526H35.7763V3.67492H34.601L34.279 4.87245H35.2772V6.22689H33.9007L33.5948 7.37486H32.0331L32.347 6.22689ZM32.7173 4.87245L33.0474 3.66667H32.0814L31.7433 4.87245H32.7173Z" fill="#0C4DA2"/>
<path d="M36.7585 4.88106V0.792969H38.5697V4.88932C38.5697 5.49221 38.9723 5.88863 39.5841 5.88863C40.2039 5.88863 40.5984 5.49221 40.5984 4.88932V0.792969H42.4016V4.88106C42.4016 6.53282 41.2746 7.62298 39.5841 7.62298C37.8774 7.62298 36.7585 6.53282 36.7585 4.88106Z" fill="#0C4DA2"/>
<path d="M43.0214 6.6483L43.9794 5.34341C44.3738 5.78113 45.0017 6.06193 45.6216 6.06193C46.0241 6.06193 46.4266 5.92979 46.4266 5.5251C46.4266 5.09565 46.0643 4.97177 45.4042 4.83137C44.0116 4.54231 43.2066 3.98071 43.2066 2.78319C43.2066 1.41224 44.4141 0.668945 45.847 0.668945C46.8452 0.668945 47.6583 0.958002 48.2459 1.55263L47.3041 2.79145C46.805 2.40329 46.33 2.22159 45.8631 2.22159C45.4364 2.22159 45.1144 2.35374 45.1144 2.67583C45.1144 2.99792 45.364 3.16309 46.1207 3.32827C47.5617 3.62559 48.3506 4.30281 48.3506 5.50859C48.3506 6.8878 47.1592 7.61457 45.5813 7.61457C44.5187 7.63109 43.5769 7.2099 43.0214 6.6483Z" fill="#0C4DA2"/>
<path d="M50.838 3.29542H53.5509V4.89762H50.838V5.91345H54.042V7.51565H49.067V0.80127H53.9534V2.41173H50.838V3.29542Z" fill="#0C4DA2"/>
<path d="M30.7934 8.78756L31.9365 11.1578L33.0474 8.78756H35.0841L32.822 13.0243V15.4937H31.0107V12.9913L28.7487 8.7793L30.7934 8.78756Z" fill="#0C4DA2"/>
<path d="M34.7862 12.1488C34.7862 10.1336 36.2272 8.66357 38.1994 8.66357C40.1717 8.66357 41.6126 10.1254 41.6126 12.1323C41.6126 14.1557 40.1717 15.6257 38.1833 15.6257C36.2272 15.6257 34.7862 14.1639 34.7862 12.1488ZM39.7531 12.1488C39.7531 11.1247 39.101 10.3731 38.2075 10.3731C37.3139 10.3731 36.6458 11.1164 36.6458 12.1405C36.6458 13.1729 37.3139 13.9162 38.2075 13.9162C39.101 13.9162 39.7531 13.1646 39.7531 12.1488Z" fill="#0C4DA2"/>
<path d="M42.3774 12.8752V8.78711H44.1807V12.8835C44.1807 13.4864 44.5832 13.8828 45.195 13.8828C45.8148 13.8828 46.2093 13.4864 46.2093 12.8835V8.78711H48.0125V12.8752C48.0125 14.527 46.8855 15.6171 45.195 15.6171C43.4883 15.6171 42.3774 14.527 42.3774 12.8752Z" fill="#0C4DA2"/>
<path d="M49.1234 8.79541H51.9167C53.4382 8.79541 54.4364 9.66258 54.4364 10.9675C54.4364 11.9503 53.889 12.677 52.9632 12.9826L54.5732 15.4933H52.5124L51.0393 13.1395H50.9346V15.4933H49.1234V8.79541ZM51.8684 11.7025C52.3273 11.7025 52.6251 11.4217 52.6251 11.0005C52.6251 10.5958 52.3273 10.315 51.8684 10.315H50.9266V11.7025H51.8684Z" fill="#0C4DA2"/>
<path d="M28.7969 16.79H30.6968L32.0733 21.481H32.0894L33.4901 16.79H35.3658L33.152 23.4879H31.0027L28.7969 16.79Z" fill="#0C4DA2"/>
<path d="M35.4141 20.1429C35.4141 18.1278 36.8551 16.6577 38.8273 16.6577C40.7996 16.6577 42.2406 18.1195 42.2406 20.1264C42.2406 22.1498 40.7996 23.6199 38.8112 23.6199C36.8551 23.6199 35.4141 22.1581 35.4141 20.1429ZM40.381 20.1429C40.381 19.1188 39.729 18.3673 38.8354 18.3673C37.9418 18.3673 37.2737 19.1106 37.2737 20.1347C37.2737 21.167 37.9418 21.9103 38.8354 21.9103C39.729 21.9103 40.381 21.1587 40.381 20.1429Z" fill="#0C4DA2"/>
<path d="M46.2737 18.4996V23.4961H44.4624V18.4996H42.6028V16.7817H48.1252V18.4996H46.2737Z" fill="#0C4DA2"/>
<path d="M50.8703 19.2759H53.5831V20.8781H50.8703V21.894H54.0742V23.4962H49.0992V16.79H53.9856V18.4005H50.8703V19.2759Z" fill="#0C4DA2"/>
<path d="M95.2181 0.379883H60.6994V24.0082H95.2181V0.379883Z" fill="white"/>
<path d="M94.7753 0.842285H61.1583V23.5374H94.7753V0.842285Z" fill="#0C4DA2"/>
<path d="M77.9426 2.94824L78.2727 3.98885H79.3434L78.4739 4.63303L78.812 5.67364L77.9426 5.02945L77.0813 5.67364L77.4194 4.63303L76.5419 3.98885H77.6126L77.9426 2.94824Z" fill="#FFF200"/>
<path d="M77.9426 18.7061L78.2727 19.7467H79.3434L78.4739 20.3908L78.812 21.4315L77.9426 20.7873L77.0813 21.4315L77.4194 20.3908L76.5419 19.7467H77.6126L77.9426 18.7061Z" fill="#FFF200"/>
<path d="M74.1269 3.98877L74.4489 5.03763H75.5196L74.6502 5.68182L74.9883 6.72242L74.1269 6.06998L73.2575 6.72242L73.5956 5.68182L72.7262 5.03763H73.7969L74.1269 3.98877Z" fill="#FFF200"/>
<path d="M71.3094 6.8877L71.6395 7.93656L72.7101 7.9283L71.8407 8.57249L72.1708 9.61309L71.3094 8.96065L70.448 9.61309L70.7862 8.57249L69.9087 7.9283L70.9874 7.93656L71.3094 6.8877Z" fill="#FFF200"/>
<path d="M70.2709 10.8188L70.601 11.8595H71.6717L70.8023 12.5036L71.1323 13.5442L70.2709 12.8918L69.4096 13.5442L69.7477 12.5036L68.8702 11.8595H69.9489L70.2709 10.8188Z" fill="#FFF200"/>
<path d="M71.3013 14.75L71.6314 15.7989L72.694 15.7906L71.8246 16.4348L72.1627 17.4754L71.3013 16.823L70.4319 17.4754L70.77 16.4348L69.9006 15.7906L70.9713 15.7989L71.3013 14.75Z" fill="#FFF200"/>
<path d="M74.1269 17.6406L74.4489 18.6812H75.5196L74.6502 19.3172L74.9883 20.366L74.1269 19.7218L73.2575 20.366L73.5956 19.3172L72.7262 18.6812H73.7969L74.1269 17.6406Z" fill="#FFF200"/>
<path d="M81.7664 3.98877L81.4444 5.03763H80.3657L81.2432 5.68182L80.9051 6.72242L81.7664 6.06998L82.6278 6.72242L82.2977 5.68182L83.1671 5.03763H82.0965L81.7664 3.98877Z" fill="#FFF200"/>
<path d="M84.5839 6.8877L84.2539 7.93656L83.1832 7.9283L84.0526 8.57249L83.7145 9.61309L84.5839 8.96065L85.4453 9.61309L85.1072 8.57249L85.9766 7.9283L84.9059 7.93656L84.5839 6.8877Z" fill="#FFF200"/>
<path d="M85.6224 10.8188L85.2923 11.8595H84.2217L85.0911 12.5036L84.753 13.5442L85.6224 12.8918L86.4837 13.5442L86.1456 12.5036L87.015 11.8595H85.9444L85.6224 10.8188Z" fill="#FFF200"/>
<path d="M84.592 14.75L84.2619 15.7989L83.1913 15.7906L84.0687 16.4348L83.7226 17.4754L84.592 16.823L85.4614 17.4754L85.1233 16.4348L85.9927 15.7906L84.922 15.7989L84.592 14.75Z" fill="#FFF200"/>
<path d="M81.7664 17.6406L81.4444 18.6812H80.3657L81.2432 19.3172L80.9051 20.366L81.7664 19.7218L82.6278 20.366L82.2977 19.3172L83.1671 18.6812H82.0965L81.7664 17.6406Z" fill="#FFF200"/>
</svg>
