<svg width="16" height="20" viewBox="0 0 16 20" fill="none" xmlns="http://www.w3.org/2000/svg">
<path opacity="0.2" d="M15.2857 12.1424C15.2857 14.0368 14.5332 15.8537 13.1936 17.1932C11.8541 18.5327 10.0373 19.2853 8.14286 19.2853C6.24845 19.2853 4.43164 18.5327 3.09209 17.1932C1.75255 15.8537 1 14.0368 1 12.1424C1 6.42815 5.28571 0.713867 8.14286 0.713867C11 0.713867 15.2857 6.42815 15.2857 12.1424Z" fill="#B8A4CC"/>
<path d="M13.3803 3.88929C11.7562 1.45446 9.79815 0 8.14279 0C6.48743 0 4.52939 1.45446 2.90529 3.88929C1.241 6.3875 0.285645 9.39554 0.285645 12.1429C0.285645 14.2267 1.11345 16.2252 2.58695 17.6987C4.06045 19.1722 6.05894 20 8.14279 20C10.2266 20 12.2251 19.1722 13.6986 17.6987C15.1721 16.2252 15.9999 14.2267 15.9999 12.1429C15.9999 9.39554 15.0446 6.3875 13.3803 3.88929ZM8.14279 18.5714C6.4384 18.5695 4.80437 17.8916 3.59919 16.6865C2.39401 15.4813 1.71611 13.8472 1.71422 12.1429C1.71422 9.67054 2.58207 6.95089 4.09457 4.68214C5.39189 2.73571 7.01868 1.42857 8.14279 1.42857C8.991 1.42857 10.1249 2.17232 11.1874 3.37321L7.60707 7.38125C7.52514 7.47282 7.46822 7.58398 7.44181 7.70398C7.41539 7.82398 7.42038 7.94876 7.45629 8.06627C7.4922 8.18378 7.55781 8.29004 7.64679 8.37477C7.73576 8.45951 7.8451 8.51987 7.96422 8.55L10.1606 9.09911L9.58029 12.0027C9.54322 12.1883 9.58136 12.3811 9.68633 12.5386C9.7913 12.6962 9.95451 12.8056 10.1401 12.8429C10.188 12.8527 10.2368 12.8575 10.2856 12.8571C10.4505 12.8568 10.6102 12.7995 10.7377 12.6949C10.8651 12.5902 10.9524 12.4447 10.9848 12.283L11.699 8.71161C11.735 8.53167 11.7004 8.34477 11.6023 8.18967C11.5043 8.03457 11.3503 7.92317 11.1723 7.87857L9.46154 7.45089L12.0803 4.51786C12.1178 4.57232 12.1544 4.62679 12.191 4.68214C13.7035 6.95089 14.5714 9.67054 14.5714 12.1429C14.5695 13.8472 13.8916 15.4813 12.6864 16.6865C11.4812 17.8916 9.84717 18.5695 8.14279 18.5714Z" fill="#533B6A"/>
</svg>
