<svg width="21" height="17" viewBox="0 0 21 17" fill="none"
    xmlns="http://www.w3.org/2000/svg">
    <path d="M1.78149 4.56689L13.7815 4.5669M13.7815 4.5669C13.7815 6.22375 15.1246 7.56689 16.7815 7.56689C18.4383 7.56689 19.7815 6.22375 19.7815 4.56689C19.7815 2.91004 18.4383 1.56689 16.7815 1.56689C15.1246 1.56689 13.7815 2.91004 13.7815 4.5669ZM7.78149 12.5669L19.7815 12.5669M7.78149 12.5669C7.78149 14.2237 6.43835 15.5669 4.78149 15.5669C3.12464 15.5669 1.78149 14.2237 1.78149 12.5669C1.78149 10.91 3.12464 9.56689 4.78149 9.56689C6.43835 9.56689 7.78149 10.91 7.78149 12.5669Z" stroke="#533B6A" stroke-width="2" stroke-linecap="round" stroke-linejoin="round"/>
</svg>
