<svg width="23" height="23" viewBox="0 0 23 23" fill="none" xmlns="http://www.w3.org/2000/svg">
<path d="M6.89857 18.8102L8.6019 11.6089C8.73082 11.0639 8.79527 10.7914 8.95058 10.6083C9.08719 10.4472 9.27127 10.3336 9.47645 10.2836C9.70971 10.2268 9.98221 10.2912 10.5272 10.4201L13.252 11.0646C13.7971 11.1935 14.0696 11.258 14.2526 11.4133C14.4137 11.5499 14.5273 11.734 14.5773 11.9392C14.6342 12.1724 14.5697 12.4449 14.4408 12.99L12.7375 20.1913M13.0596 1.52829L5.24523 5.10062C4.72287 5.33941 4.46169 5.45881 4.25194 5.63609C4.06614 5.79313 3.91055 5.98275 3.79282 6.19563C3.6599 6.43596 3.5938 6.71543 3.46159 7.27436L1.79626 14.315C1.53843 15.405 1.40952 15.9501 1.52318 16.4166C1.62315 16.8269 1.85047 17.1951 2.17256 17.4683C2.53872 17.7789 3.08373 17.9078 4.17376 18.1657L15.4623 20.8358C16.5523 21.0936 17.0973 21.2225 17.5638 21.1088C17.9742 21.0089 18.3424 20.7815 18.6156 20.4595C18.9262 20.0933 19.0551 19.5483 19.3129 18.4583L20.9783 11.4176C21.1105 10.8587 21.1766 10.5792 21.1654 10.3048C21.1555 10.0617 21.1014 9.82249 21.0056 9.59886C20.8975 9.34639 20.7175 9.12264 20.3575 8.67513L14.9715 1.9805C14.6925 1.63372 14.553 1.46033 14.3763 1.36457C14.2204 1.28008 14.0449 1.23856 13.8677 1.24426C13.6668 1.25072 13.4644 1.34324 13.0596 1.52829Z" stroke="#4B325E" stroke-width="2" stroke-linecap="round" stroke-linejoin="round"/>
</svg>
