<svg width="13" height="13" viewBox="0 0 13 13" fill="none"
    xmlns="http://www.w3.org/2000/svg">
    <path fill-rule="evenodd" clip-rule="evenodd" d="M8.74284 0.934082H3.40951C1.56856 0.934082 0.0761719 2.42647 0.0761719 4.26742V9.60075C0.0761719 11.4417 1.56856 12.9341 3.40951 12.9341H8.74284C10.5838 12.9341 12.0762 11.4417 12.0762 9.60075V4.26742C12.0762 2.42647 10.5838 0.934082 8.74284 0.934082ZM10.9095 9.60075C10.9058 10.7958 9.93791 11.7637 8.74284 11.7674H3.40951C2.21441 11.7637 1.2465 10.7958 1.24284 9.60075V4.26742C1.2465 3.07232 2.21441 2.10441 3.40951 2.10075H8.74284C9.93791 2.10441 10.9058 3.07232 10.9095 4.26742V9.60075ZM9.24284 4.43408C9.61104 4.43408 9.90951 4.1356 9.90951 3.76742C9.90951 3.39923 9.61104 3.10075 9.24284 3.10075C8.87464 3.10075 8.57617 3.39923 8.57617 3.76742C8.57617 4.1356 8.87464 4.43408 9.24284 4.43408ZM6.07617 3.93408C4.41932 3.93408 3.07617 5.27723 3.07617 6.93408C3.07617 8.59095 4.41932 9.93408 6.07617 9.93408C7.73304 9.93408 9.07617 8.59095 9.07617 6.93408C9.07797 6.13788 8.76244 5.3738 8.19944 4.8108C7.63644 4.24781 6.87237 3.93231 6.07617 3.93408ZM4.24284 6.93408C4.24284 7.94662 5.06364 8.76742 6.07617 8.76742C7.08871 8.76742 7.90951 7.94662 7.90951 6.93408C7.90951 5.92155 7.08871 5.10075 6.07617 5.10075C5.06364 5.10075 4.24284 5.92155 4.24284 6.93408Z" fill="#533B6A"/>
</svg>
