<svg width="35" height="47" viewBox="0 0 35 47" fill="none"
    xmlns="http://www.w3.org/2000/svg">
    <path d="M6.92304 36.4872C6.95123 31.9579 10.6718 28.3092 15.2332 28.3376C19.7945 28.366 23.4694 32.0607 23.4412 36.59C23.413 41.1193 19.6924 44.768 15.1311 44.7396C10.5697 44.7112 6.89485 41.0165 6.92304 36.4872Z" stroke="#533B6A" stroke-width="3.16448" stroke-miterlimit="10"/>
    <path d="M21.48 30.0166L20.962 2.35686C20.9343 0.855409 18.7986 0.606914 18.4064 2.06111L11.2131 28.7307C11.0098 29.4855 11.5181 30.2464 12.2935 30.3466C12.2935 30.3466 19.0347 26.1612 21.6508 31.5685C21.6508 31.5685 21.4933 30.8139 21.4791 30.0208L21.48 30.0166Z" fill="#533B6A"/>
</svg>
