<svg width="88" height="32" viewBox="0 0 88 32" fill="none" xmlns="http://www.w3.org/2000/svg">
<path d="M32.8203 16.0034C32.8203 24.8417 25.5206 32.0034 16.5167 32.0034C7.51632 32 0.216553 24.8383 0.216553 16C0.216553 7.16168 7.51632 0 16.5202 0C20.843 0 24.9919 1.68691 28.0489 4.68777C31.1023 7.6852 32.8203 11.7571 32.8203 16.0034ZM10.0203 12.4106H12.9972C13.0877 12.4072 13.1607 12.3353 13.1642 12.2464C13.4146 10.6176 14.8404 9.41317 16.5167 9.41317C18.193 9.41317 19.6188 10.6176 19.8692 12.2464C19.8762 12.3388 19.9527 12.4072 20.0466 12.4106H23.0096C23.1001 12.4106 23.1766 12.3388 23.1766 12.2464C22.9123 8.82806 20.0083 6.18648 16.5167 6.18648C13.0251 6.18648 10.1211 8.82806 9.85684 12.2464C9.85336 12.3388 9.92639 12.4106 10.0203 12.4106ZM19.7127 18.4876C21.695 17.4234 22.9922 15.4457 23.1627 13.2318C23.1627 13.1429 23.0896 13.0676 22.9957 13.0676C22.9957 13.0676 22.9957 13.0676 22.9922 13.0676H20.0292C19.9388 13.071 19.8658 13.1429 19.8623 13.2318C19.6154 14.8606 18.1895 16.0684 16.5097 16.0684C14.83 16.0684 13.4076 14.864 13.1607 13.2318C13.1572 13.1429 13.0842 13.071 12.9938 13.0676H10.0168C9.92639 13.0676 9.85336 13.1394 9.84988 13.2318C10.0203 15.4457 11.3175 17.4234 13.2998 18.4876C11.2132 19.6065 9.88814 21.7348 9.82901 24.0719C9.82901 24.1608 9.90205 24.2361 9.99247 24.2361H9.99595H12.9555C13.0459 24.2361 13.1224 24.1642 13.1224 24.0719C13.1955 22.2857 14.6909 20.8725 16.5097 20.876C18.3286 20.8725 19.824 22.2857 19.8971 24.0719C19.8971 24.1608 19.9736 24.2361 20.064 24.2361H23.0201C23.114 24.2361 23.187 24.1608 23.187 24.0719C23.1279 21.7348 21.8029 19.6031 19.7127 18.4876ZM44.2377 8.66039C47.0825 8.66724 48.411 10.6313 48.411 12.2943V17.9299C48.411 19.5997 47.0895 21.5774 44.2377 21.5672C41.386 21.5569 40.0645 19.5962 40.0645 17.9299V12.2977C40.0645 10.6313 41.386 8.66724 44.2377 8.66039ZM45.8305 17.7348V12.4893C45.8305 11.5278 44.8255 11.2027 44.2343 11.2027C43.643 11.2027 42.638 11.5278 42.638 12.4893V17.7348C42.638 18.6963 43.643 19.0214 44.2343 19.0214C44.8255 19.0214 45.8305 18.6963 45.8305 17.7348ZM62.5237 21.3311H59.9536V8.88965H67.0065V11.4183H62.5445V13.9127H66.377V16.4277H62.5271L62.5237 21.3311ZM73.6211 21.3311L73.0438 19.1275H69.6878L69.1001 21.3311H66.5161L69.8269 8.88623H72.8317L76.1912 21.3311H73.6211ZM71.371 12.7733L70.3208 16.6878H72.4004L71.371 12.7733ZM55.3561 15.1035L58.6564 21.3345H55.6447L53.8641 17.7211L52.0835 21.3345H49.0718L52.3722 15.1035L49.0892 8.88965H52.0661L53.8641 12.5133L55.6586 8.88965H58.6356L55.3561 15.1035ZM84.4821 8.88965H87.16V21.3345H84.6386V14.2652L83.0214 17.5637H81.4147L79.7976 14.2549V21.3345H77.2762V8.88965H79.9158L82.2146 13.6766L84.4821 8.88965Z" fill="#71A246"/>
</svg>
