<svg width="47" height="90" viewBox="0 0 47 90" fill="none" xmlns="http://www.w3.org/2000/svg">
    <g opacity="0.25" clip-path="url(#clip0_1718_2190)">
        <path
            d="M27.2827 67.8577L1.13867 45.0109C0.530187 44.4807 -0.384585 44.4536 -0.984842 44.9922C-1.0054 45.0109 -1.0239 45.0276 -1.04446 45.0463C-1.11641 45.1149 -1.18219 45.1898 -1.23975 45.2709C-1.3857 45.4767 -1.50904 45.693 -1.60977 45.9155C-1.9099 46.5747 -1.71461 47.3586 -1.16985 47.8307L24.9865 70.5173C25.6176 71.0642 26.555 71.0476 27.1656 70.4778L27.3238 70.3302C28.0433 69.6585 28.0248 68.5024 27.2848 67.8557L27.2827 67.8577Z"
            fill="#2B57AE" />
        <path
            d="M1.12791 16.2594C4.29776 17.9749 10.2514 9.07847 20.3633 10.6131C30.4772 12.1477 43.6171 17.2548 45.0108 34.1919C46.4045 51.1289 36.7285 55.635 38.0935 59.2616C39.4605 62.8881 50.1249 70.3015 44.2436 78.7836C38.3603 87.2656 35.2655 88.223 31.1706 86.5636C27.0757 84.9042 21.1835 79.6609 16.5726 82.3662C11.9617 85.0716 7.55025 91.7736 -0.142082 89.2263C-7.83648 86.679 -30.9135 79.4924 -43.0646 49.6192C-46.3146 41.6298 -44.8127 33.4058 -46.3058 26.7082C-49.4499 12.6037 -52.0579 4.42947 -47.208 1.20135C-44.4351 -0.64436 -17.5643 6.13877 1.12791 16.2594Z"
            fill="#FCFCF3" />
        <path
            d="M0.298157 44.2747L-35.2054 13.2494C-35.2054 13.2494 -31.8094 13.3784 -30.1114 12.846C-28.7876 12.4322 -29.8339 10.7791 -32.3213 9.66241C-33.4827 9.14047 -37.9764 7.47692 -40.0362 6.81773C-41.8822 6.22717 -44.7232 5.28311 -44.1949 9.12383C-43.6337 13.2037 -41.4732 18.839 -40.7352 20.1365C-39.9972 21.4341 -38.994 22.661 -38.4431 20.8643C-37.8922 19.0677 -38.4184 16.6868 -37.9436 15.9319L-1.95486 47.1485C-1.8603 46.4352 -1.60951 45.749 -1.14904 45.1501C-0.713238 44.7051 -0.219872 44.4223 0.298157 44.2726V44.2747Z"
            fill="#2B57AE" />
        <path
            d="M3.55643 83.4994C6.61322 83.5993 23.4574 67.7165 33.1993 50.5362C42.9432 33.3558 35.0021 18.1801 21.3915 17.7559C7.78085 17.3317 0.976562 29.59 0.976562 29.59C0.976562 29.59 -8.18352 13.1042 -25.887 19.7875C-43.5905 26.4729 -37.074 52.5137 -25.7883 63.3538C-14.5027 74.194 -3.53975 83.2665 3.55643 83.4994Z"
            fill="#2B57AE" />
        <path
            d="M27.2827 67.8577L1.13867 45.0109C0.530187 44.4807 -0.384585 44.4536 -0.984842 44.9922C-1.0054 45.0109 -1.0239 45.0276 -1.04446 45.0463C-1.11641 45.1149 -1.18219 45.1898 -1.23975 45.2709C-1.3857 45.4767 -1.50904 45.693 -1.60977 45.9155C-1.9099 46.5747 -1.71461 47.3586 -1.16985 47.8307L24.9865 70.5173C25.6176 71.0642 26.555 71.0476 27.1656 70.4778L27.3238 70.3302C28.0433 69.6585 28.0248 68.5024 27.2848 67.8557L27.2827 67.8577Z"
            fill="#FCFCF3" />
        <path
            d="M25.544 66.7493C25.544 66.7493 27.98 66.2815 29.2689 66.2503C30.5578 66.2191 32.116 66.0714 32.3627 66.2711L40.02 72.5094C42.2443 74.3039 41.0623 75.2335 40.2996 75.4518L35.4441 76.2836C35.0453 76.3979 34.7616 76.7556 34.737 77.1736L34.3032 81.1266C34.258 81.9251 33.89 83.1686 32.5518 81.9896C32.5518 81.9896 24.7957 76.0673 24.3229 75.6285C23.9406 75.275 23.5911 74.2852 23.6322 73.1083C23.6733 71.9313 23.6425 69.1989 23.6425 69.1989C23.6836 68.0511 24.4524 67.0613 25.544 66.7493Z"
            fill="#2B57AE" />
    </g>
    <defs>
        <clipPath id="clip0_1718_2190">
            <rect width="96" height="89" fill="white" transform="translate(-49.8906 0.897949)" />
        </clipPath>
    </defs>
</svg>
