<svg width="73" height="124" viewBox="0 0 73 124" fill="none" xmlns="http://www.w3.org/2000/svg">
<g opacity="0.25">
<path d="M11.0531 101.299C32.535 101.299 49.9495 83.8846 49.9495 62.4027C49.9495 40.9208 32.535 23.5063 11.0531 23.5063C-10.4288 23.5063 -27.8433 40.9208 -27.8433 62.4027C-27.8433 83.8846 -10.4288 101.299 11.0531 101.299Z" fill="#FCFCF3"/>
<path d="M11.053 80.6089C21.1079 80.6089 29.2591 72.4578 29.2591 62.4029C29.2591 52.3479 21.1079 44.1968 11.053 44.1968C0.998059 44.1968 -7.15308 52.3479 -7.15308 62.4029C-7.15308 72.4578 0.998059 80.6089 11.053 80.6089Z" stroke="#B2D1DE" stroke-width="3.19151" stroke-miterlimit="10"/>
<path d="M11.0532 92.6684C27.7684 92.6684 41.3188 79.1181 41.3188 62.4028C41.3188 45.6876 27.7684 32.1372 11.0532 32.1372C-5.66203 32.1372 -19.2124 45.6876 -19.2124 62.4028C-19.2124 79.1181 -5.66203 92.6684 11.0532 92.6684Z" stroke="#B2D1DE" stroke-width="3.19151" stroke-miterlimit="10"/>
<path d="M11.0532 70.1528C15.3335 70.1528 18.8034 66.6829 18.8034 62.4026C18.8034 58.1222 15.3335 54.6523 11.0532 54.6523C6.77286 54.6523 3.30298 58.1222 3.30298 62.4026C3.30298 66.6829 6.77286 70.1528 11.0532 70.1528Z" fill="#B2D1DE"/>
<path d="M36.3411 32.3283C38.0224 32.6983 40.0714 33.1368 44.4084 33.9759C51.7123 35.391 54.1377 39.9598 53.5789 45.0078C52.6603 53.3151 49.6768 54.0399 49.6771 57.8355C49.6773 60.0643 37.6089 40.8763 35.095 31.8335C35.095 31.8335 35.6325 32.1724 36.3411 32.3283Z" fill="#FCFCF3"/>
<path d="M40.0333 43.7467L11.2745 60.2349C10.6068 60.619 10.2902 61.439 10.5825 62.1517C10.5929 62.1759 10.6016 62.1984 10.6119 62.2226C10.65 62.3091 10.6967 62.3939 10.7521 62.4718C10.8905 62.669 11.0444 62.8489 11.2122 63.0098C11.707 63.489 12.4699 63.5582 13.065 63.2139L41.6837 46.6651C42.374 46.2655 42.6577 45.4126 42.3411 44.6809L42.2598 44.4906C41.8879 43.6273 40.8481 43.2813 40.0316 43.7484L40.0333 43.7467Z" fill="#B2D1DE"/>
<path d="M35.1342 46.5028C35.1342 46.5028 35.5702 44.4615 35.9663 43.4512C36.3625 42.4409 36.7586 41.1849 36.9905 41.0586L44.2736 37.1299C46.3755 35.983 46.7024 37.2008 46.6211 37.8617L45.6748 41.8959C45.6316 42.2419 45.8132 42.5775 46.1264 42.7315L49.0171 44.3421C49.614 44.6362 50.4478 45.3213 49.1071 45.9804C49.1071 45.9804 42.035 50.0873 41.5454 50.3122C41.1493 50.4956 40.2774 50.4471 39.3882 50.0354C38.499 49.6237 36.3936 48.7673 36.3936 48.7673C35.5269 48.366 35.0183 47.4491 35.1359 46.5011L35.1342 46.5028Z" fill="#B2D1DE"/>
</g>
</svg>
