<svg width="60" height="112" viewBox="0 0 60 112" fill="none" xmlns="http://www.w3.org/2000/svg">
<g opacity="0.25" clip-path="url(#clip0_1718_3786)">
<path d="M-38.1242 82.091C-40.7374 77.1282 -39.2882 54.2904 -39.7537 47.1184C-40.2193 39.9441 -40.9177 26.4372 -32.3411 22.3595C-27.1377 19.8849 -19.4102 18.2132 -17.8583 13.7375C-16.3064 9.2619 -10.6876 -3.45832 9.81115 0.89839C30.3099 5.2551 29.0935 14.2544 32.8728 22.3595C36.6521 30.4668 58.7028 31.6538 59.0132 42.2128C59.3235 52.7718 61.1105 102.13 53.6545 105.242C46.2009 108.355 -1.60215 114.735 -12.0592 110.379C-22.5163 106.022 -35.1733 87.6964 -38.1242 82.0955V82.091Z" fill="#FCFCF3"/>
<path d="M-7.69316 62.9883L-29.7575 43.7822C-29.7575 43.7822 -30.1797 54.8169 -29.9401 59.2011C-29.7004 63.5852 -29.7575 73.728 -29.7575 73.728C-29.7575 74.1099 -29.6274 74.4804 -29.3878 74.7777L-9.56913 102.633C-8.21807 104.38 -6.28048 104.923 -5.57984 104.906C34.4044 103.985 46.4589 100.214 46.4589 100.214C47.3216 100.138 47.9812 99.4132 47.9812 98.5464V58.0827L-7.69316 62.9883Z" fill="#B2D1DE"/>
<path d="M24.4039 25.1386C23.7785 24.7224 23.03 24.5326 22.2837 24.5989L-3.70374 26.3073L-31.1541 29.3009C-31.825 29.3604 -32.3408 29.923 -32.3408 30.5976V41.5546C-32.3408 42.0989 -32.1103 42.618 -31.7041 42.984L-10.685 61.9019C-9.90449 62.604 -8.88891 63.0523 -7.84366 62.9859C34.4638 60.3513 44.9574 59.2902 49.1498 58.3205C49.7226 58.1878 50.1266 57.6756 50.1266 57.0878V43.7913C50.1266 42.8056 49.6336 41.8862 48.812 41.3396L24.4039 25.1409V25.1386Z" fill="#B2D1DE"/>
<path d="M0.522716 11.5586C1.36485 11.355 0.760067 10.2459 0.285369 9.49115C-0.189329 8.73645 -1.10449 7.97945 -1.57919 8.57636C-2.05389 9.17326 -0.784983 11.8788 0.525001 11.5586H0.522716Z" fill="#B2D1DE"/>
<path d="M4.00082 34.25C4.00082 34.25 1.26217 34.0122 -0.762143 34.25C-2.78646 34.4878 -3.14476 35.2837 -2.1908 36.3975C-1.23684 37.5112 -1.07937 38.067 1.1047 37.9892C3.28877 37.9115 18.3308 36.9555 19.7206 36.7154C21.1105 36.4775 20.3551 35.4827 19.2847 34.7257C18.2144 33.9687 17.8173 33.7309 16.982 33.6508C16.149 33.5708 15.316 33.6508 15.316 33.6508L13.974 35.6222L9.9779 35.8052L4.00538 34.2477L4.00082 34.25Z" fill="#FCFCF3"/>
<path d="M12.0956 72.0197C12.9332 71.9625 12.8282 71.7521 13.0793 71.0202C13.2596 70.4942 13.5403 69.9865 13.878 70.0826C14.1177 70.1626 14.3117 70.9493 14.444 71.3427C14.5901 71.7749 14.5034 71.8047 15.0054 71.8641C15.7198 72.0265 15.6627 71.903 16.3451 72.1226C17.0731 72.3581 16.2401 72.9024 15.9001 73.0694C15.5714 73.2295 15.309 73.3644 15.2816 73.5176C15.2588 73.6526 15.5144 74.0871 15.697 74.5239C15.8362 74.8555 16.1397 75.473 16.021 75.5668C15.916 75.6491 15.7494 75.8229 15.2747 75.4844C14.9119 75.226 14.7476 75.1094 14.5513 74.9195C14.355 74.7297 13.9419 74.4004 13.7845 74.3478C13.7046 74.3204 13.2071 74.8349 12.988 75.0019C11.9199 75.8183 11.6141 75.7131 11.5228 75.4295C11.468 75.258 11.662 74.6565 11.9678 74.2449C12.1641 73.9796 12.3307 73.6343 12.3124 73.5359C12.2782 73.3598 11.6575 73.0671 11.4041 72.9756C11.055 72.8521 10.5552 72.4725 10.5164 72.2712C10.651 71.9282 11.6232 72.0174 12.0911 72.0219L12.0956 72.0197Z" fill="#FCFCF3"/>
<path d="M8.48529 79.7726C9.32286 79.7154 9.21788 79.505 9.46892 78.7732C9.64921 78.2472 9.92992 77.7395 10.2677 77.8355C10.5073 77.9155 10.7013 78.7023 10.8337 79.0956C10.9797 79.5279 10.893 79.5576 11.3951 79.6171C12.1094 79.7794 12.0524 79.6559 12.7348 79.8755C13.4628 80.1111 12.6298 80.6554 12.2897 80.8223C11.9611 80.9824 11.6986 81.1173 11.6712 81.2706C11.6484 81.4055 11.904 81.84 12.0866 82.2768C12.2258 82.6084 12.5294 83.2259 12.4107 83.3197C12.3057 83.402 12.1391 83.5758 11.6644 83.2374C11.3015 82.9789 11.1372 82.8623 10.9409 82.6725C10.7561 82.4918 10.3316 82.1533 10.1741 82.1007C10.0942 82.0733 9.59672 82.5879 9.37763 82.7548C8.30956 83.5713 8.00375 83.4661 7.91246 83.1825C7.85769 83.011 8.05167 82.4095 8.35749 81.9978C8.55376 81.7325 8.72036 81.3872 8.7021 81.2889C8.66787 81.1128 8.04711 80.82 7.79378 80.7285C7.44461 80.605 6.9448 80.2254 6.90601 80.0242C7.04066 79.6811 8.01287 79.7703 8.48072 79.7749L8.48529 79.7726Z" fill="#FCFCF3"/>
<path d="M11.0095 87.0289C11.847 86.9718 11.742 86.7614 11.9931 86.0295C12.1734 85.5035 12.4541 84.9958 12.7919 85.0919C13.0315 85.1719 13.2255 85.9586 13.3578 86.352C13.5039 86.7842 13.4172 86.8139 13.9193 86.8734C14.6336 87.0358 14.5765 86.9123 15.2589 87.1318C15.9869 87.3674 15.1539 87.9117 14.8139 88.0787C14.4853 88.2387 14.2228 88.3737 14.1954 88.5269C14.1726 88.6618 14.4282 89.0964 14.6108 89.5332C14.75 89.8648 15.0535 90.4823 14.9349 90.576C14.8299 90.6584 14.6633 90.8322 14.1886 90.4937C13.8257 90.2353 13.6614 90.1186 13.4651 89.9288C13.2688 89.739 12.8558 89.4097 12.6983 89.3571C12.6184 89.3296 12.1209 89.8442 11.9018 90.0112C10.8337 90.8276 10.5279 90.7224 10.4366 90.4388C10.3819 90.2673 10.5758 89.6658 10.8817 89.2542C11.0779 88.9889 11.2445 88.6435 11.2263 88.5452C11.192 88.3691 10.5713 88.0764 10.318 87.9849C9.96878 87.8614 9.46897 87.4818 9.43018 87.2805C9.56483 86.9375 10.537 87.0266 11.0049 87.0312L11.0095 87.0289Z" fill="#FCFCF3"/>
<path d="M19.6269 89.7848C20.4645 89.7276 20.3595 89.5172 20.6105 88.7854C20.7908 88.2594 21.0715 87.7517 21.4093 87.8477C21.6489 87.9278 21.8429 88.7145 21.9753 89.1078C22.1213 89.5401 22.0346 89.5698 22.5367 89.6293C23.251 89.7917 23.194 89.6682 23.8764 89.8877C24.6044 90.1233 23.7714 90.6676 23.4313 90.8345C23.0913 91.0015 22.8402 91.1295 22.8128 91.2828C22.79 91.4177 23.0456 91.8522 23.2282 92.289C23.3674 92.6207 23.671 93.2381 23.5523 93.3319C23.4473 93.4142 23.2807 93.588 22.806 93.2496C22.4431 92.9911 22.2788 92.8745 22.0825 92.6847C21.8863 92.4949 21.4732 92.1655 21.3157 92.1129C21.2358 92.0855 20.7383 92.6001 20.5192 92.767C19.4512 93.5835 19.1453 93.4783 19.0541 93.1947C18.9993 93.0232 19.1933 92.4217 19.4991 92.01C19.6954 91.7447 19.862 91.3994 19.8437 91.3011C19.8095 91.125 19.1887 90.8322 18.9354 90.7407C18.5862 90.6172 18.0864 90.2376 18.0476 90.0364C18.1823 89.6933 19.1545 89.7825 19.6223 89.7871L19.6269 89.7848Z" fill="#FCFCF3"/>
<path d="M19.5632 69.8492C20.4007 69.7921 20.2958 69.5817 20.5468 68.8498C20.7271 68.3238 21.0078 67.8161 21.3456 67.9122C21.5852 67.9922 21.7792 68.7789 21.9116 69.1723C22.0576 69.6045 21.9709 69.6343 22.473 69.6937C23.1873 69.8561 23.1302 69.7326 23.8126 69.9522C24.5406 70.1877 23.7076 70.732 23.3676 70.899C23.039 71.0591 22.7765 71.194 22.7491 71.3472C22.7263 71.4821 22.9819 71.9167 23.1645 72.3535C23.3037 72.6851 23.6072 73.3026 23.4886 73.3964C23.3836 73.4787 23.217 73.6525 22.7423 73.314C22.3794 73.0556 22.2151 72.939 22.0188 72.7491C21.834 72.5685 21.4095 72.23 21.252 72.1774C21.1721 72.1499 20.6746 72.6645 20.4555 72.8315C19.3874 73.6479 19.0816 73.5427 18.9903 73.2591C18.9356 73.0876 19.1295 72.4861 19.4354 72.0745C19.6316 71.8092 19.7982 71.4638 19.78 71.3655C19.7457 71.1894 19.125 70.8967 18.8717 70.8052C18.5225 70.6817 18.0227 70.3021 17.9839 70.1008C18.1185 69.7578 19.0908 69.847 19.5586 69.8515L19.5632 69.8492Z" fill="#FCFCF3"/>
<path d="M27.5439 73.2018C28.3814 73.1446 28.2765 72.9342 28.5275 72.2024C28.7078 71.6764 28.9885 71.1687 29.3263 71.2647C29.5659 71.3447 29.7599 72.1315 29.8923 72.5248C30.0383 72.9571 29.9516 72.9868 30.4537 73.0463C31.168 73.2086 31.111 73.0851 31.7933 73.3047C32.5214 73.5403 31.6884 74.0846 31.3483 74.2515C31.0197 74.4116 30.7572 74.5465 30.7298 74.6998C30.707 74.8347 30.9626 75.2692 31.1452 75.706C31.2844 76.0376 31.5879 76.6551 31.4693 76.7489C31.3643 76.8312 31.1977 77.005 30.723 76.6666C30.3601 76.4081 30.1958 76.2915 29.9995 76.1017C29.8033 75.9119 29.3902 75.5825 29.2327 75.5299C29.1528 75.5025 28.6553 76.0171 28.4362 76.184C27.3682 77.0005 27.0623 76.8953 26.9711 76.6117C26.9163 76.4402 27.1103 75.8387 27.4161 75.427C27.6123 75.1617 27.7789 74.8164 27.7607 74.7181C27.7265 74.542 27.1057 74.2492 26.8524 74.1577C26.5032 74.0342 26.0034 73.6546 25.9646 73.4534C26.0992 73.1103 27.0715 73.1995 27.5393 73.2041L27.5439 73.2018Z" fill="#FCFCF3"/>
<path d="M29.9199 80.2985C30.7574 80.2413 30.6524 80.0309 30.9035 79.299C31.0838 78.773 31.3645 78.2653 31.7023 78.3614C31.9419 78.4414 32.1359 79.2281 32.2682 79.6215C32.4143 80.0537 32.3276 80.0835 32.8297 80.1429C33.544 80.3053 33.4869 80.1818 34.1693 80.4014C34.8973 80.6369 34.0643 81.1812 33.7243 81.3482C33.3842 81.5151 33.1332 81.6432 33.1058 81.7964C33.083 81.9314 33.3386 82.3659 33.5212 82.8027C33.6604 83.1343 33.9639 83.7518 33.8452 83.8456C33.7403 83.9279 33.5737 84.1017 33.099 83.7632C32.7361 83.5048 32.5718 83.3882 32.3755 83.1984C32.1906 83.0177 31.7662 82.6792 31.6087 82.6266C31.5288 82.5992 31.0313 83.1137 30.8122 83.2807C29.7441 84.0971 29.4383 83.9919 29.347 83.7084C29.2922 83.5368 29.4862 82.9354 29.7921 82.5237C29.9883 82.2584 30.1549 81.9131 30.1367 81.8147C30.1024 81.6386 29.4817 81.3459 29.2283 81.2544C28.8792 81.1309 28.3794 80.7513 28.3406 80.55C28.4752 80.207 29.4474 80.2962 29.9153 80.3007L29.9199 80.2985Z" fill="#FCFCF3"/>
<path d="M27.0534 87.0978C27.891 87.0406 27.786 86.8302 28.037 86.0984C28.2173 85.5724 28.498 85.0646 28.8358 85.1607C29.0754 85.2407 29.2694 86.0275 29.4018 86.4208C29.5479 86.8531 29.4611 86.8828 29.9632 86.9423C30.6775 87.1046 30.6205 86.9811 31.3029 87.2007C32.0309 87.4363 31.1979 87.9806 30.8578 88.1475C30.5292 88.3076 30.2667 88.4425 30.2394 88.5958C30.2165 88.7307 30.4721 89.1652 30.6547 89.602C30.7939 89.9336 31.0975 90.5511 30.9788 90.6449C30.8738 90.7272 30.7072 90.901 30.2325 90.5626C29.8696 90.3041 29.7053 90.1875 29.5091 89.9977C29.3128 89.8079 28.8997 89.4785 28.7422 89.4259C28.6624 89.3985 28.1648 89.9131 27.9457 90.08C26.8777 90.8965 26.5719 90.7913 26.4806 90.5077C26.4258 90.3361 26.6198 89.7347 26.9256 89.323C27.1219 89.0577 27.2885 88.7124 27.2702 88.614C27.236 88.438 26.6152 88.1452 26.3619 88.0537C26.0127 87.9302 25.5129 87.5506 25.4741 87.3493C25.6088 87.0063 26.581 87.0955 27.0488 87.1001L27.0534 87.0978Z" fill="#FCFCF3"/>
<path d="M47.5908 43.7866C47.5908 43.7866 34.5138 40.5367 23.096 36.8394C13.9945 33.89 7.84173 32.7088 -6.21436 31.5347" stroke="#FCFCF3" stroke-width="1.68954" stroke-linecap="round" stroke-linejoin="round"/>
<path d="M9.97347 35.8074C6.53875 35.1419 -2.18154 31.2609 -3.70605 30.7281C-2.33445 28.8916 -0.688984 26.2707 0.942791 23.2702C2.62934 20.1667 6.36759 12.5968 6.87195 8.36133C7.34894 8.80043 19.3898 13.5917 21.4461 14.4973C21.6834 16.5327 20.321 22.3577 18.0799 27.2633C16.4481 30.8378 14.3279 34.6662 13.9696 35.6245L9.97347 35.8074Z" fill="#FCFCF3" stroke="#B2D1DE" stroke-width="1.68954" stroke-linecap="round" stroke-linejoin="round"/>
<path d="M5.24234 21.3079C6.39942 21.0655 6.9791 24.05 7.41271 25.0082C7.84633 25.9665 8.80714 24.4479 11.7512 22.6641C14.8664 20.775 15.4917 20.8322 15.6652 21.7447C15.8386 22.6595 8.21833 27.7938 7.07951 27.3044C5.5938 26.6663 4.19937 21.5275 5.24234 21.3102V21.3079Z" fill="#B2D1DE"/>
</g>
<defs>
<clipPath id="clip0_1718_3786">
<rect width="99.4219" height="111.85" fill="white" transform="translate(-40)"/>
</clipPath>
</defs>
</svg>
