<svg width="75" height="111" viewBox="0 0 75 111" fill="none" xmlns="http://www.w3.org/2000/svg">
<g opacity="0.25" clip-path="url(#clip0_915_1400)">
<path d="M70.5088 99.3928C68.191 105.838 64.5685 112.241 51.8848 105.613C39.2011 98.9844 25.3218 84.9138 19.0382 82.124C12.7543 79.3357 12.3462 71.8409 17.17 51.3066C21.9923 30.772 14.3187 30.4337 21.5601 19.1589C28.8014 7.8842 36.9923 16.15 50.1878 15.0709C63.3849 13.9922 94.6853 10.2701 90.0912 28.5075C85.4971 46.7449 81.7159 40.408 74.262 41.1362C66.8093 41.8663 58.1062 68.4381 63.2936 75.402C68.5978 82.5204 79.4568 74.5134 70.5084 99.3944L70.5088 99.3928Z" fill="#FCFCF3"/>
<path d="M27.7469 26.7279C28.1021 25.4098 27.2699 25.5095 25.4308 24.501C23.59 23.4921 22.3366 23.6672 22.5106 24.5156C22.6847 25.3639 27.1161 29.0753 27.7485 26.7283L27.7469 26.7279Z" fill="#B2D1DE"/>
<path d="M29.0962 23.3088C28.1832 23.6398 26.0684 21.047 24.9396 19.6344C23.8123 18.2221 25.2218 17.5305 26.7076 18.7374C28.1935 19.9443 30.2111 22.904 29.0962 23.3088Z" fill="#B2D1DE"/>
<path d="M32.3291 22.0268C30.9665 22.1945 31.1314 20.5011 31.2046 19.1103C31.2778 17.7196 32.8107 18.7518 32.8827 19.9725C32.9563 21.1936 33.3694 21.8988 32.3291 22.0268Z" fill="#B2D1DE"/>
<path d="M52.406 80.5142C52.331 80.7927 52.0465 80.9607 51.7672 80.8905C40.6363 78.0902 20.3324 76.4019 20.1295 76.386C19.9876 76.3748 19.8563 76.3057 19.7648 76.195C19.6749 76.0847 19.6322 75.9433 19.6471 75.8005C21.2075 61.6942 24.7611 46.7617 27.4674 36.7181C29.2434 30.1273 30.6136 25.8112 30.6266 25.7691C30.6912 25.5672 30.8698 25.423 31.081 25.4023C39.4166 24.6215 63.1044 32.2141 64.107 32.5382C64.3722 32.6232 64.5265 32.901 64.4567 33.1724C64.4567 33.1724 52.4048 80.5122 52.404 80.5154L52.406 80.5142Z" fill="#FCFCF3"/>
<path d="M27.9779 36.8557C29.7716 30.1988 31.1311 25.9288 31.1311 25.9288C39.4545 25.1498 63.9461 33.0416 63.9461 33.0416L51.8955 80.3768C40.5929 77.532 20.1724 75.8578 20.1724 75.8578C21.7402 61.6927 25.3313 46.6775 27.9779 36.8557ZM26.9585 36.5811C24.2475 46.6419 20.6883 61.6016 19.1237 75.7422C19.0928 76.0258 19.1778 76.3102 19.3576 76.5308C19.5374 76.7513 19.8021 76.8884 20.0853 76.9124C20.2883 76.9283 40.5492 78.6135 51.6373 81.4039C52.1974 81.5447 52.766 81.2103 52.916 80.6534L52.9198 80.6393L64.9704 33.3041C65.1079 32.7625 64.8026 32.2078 64.271 32.0359C63.2621 31.71 39.4746 24.0872 31.0339 24.8767C30.6121 24.9166 30.2531 25.2046 30.1256 25.6089C30.1122 25.6525 28.7379 29.9777 26.9585 36.5811Z" fill="#B2D1DE"/>
<path d="M64.0084 103.435C63.7624 103.973 53.0487 101.187 44.3478 93.9075C35.6485 86.6284 32.6753 83.1074 29.6881 77.769L36.2492 78.4284C36.2492 78.4284 33.6286 76.2122 33.6022 72.5777C33.5754 68.9446 36.5192 74.0689 39.6669 75.8231C39.6669 75.8231 38.3909 73.8376 39.7733 72.8148C41.1558 71.792 42.8484 74.4634 45.4728 77.7908C48.0961 81.1162 61.7494 86.8097 68.8122 87.1015L64.0088 103.433L64.0084 103.435Z" fill="#B2D1DE"/>
<path d="M83.0784 34.1579C83.0784 34.1579 68.3498 30.4979 60.2761 31.4943C56.7456 31.9299 54.4081 34.2087 52.8825 34.1182C51.1646 34.0164 54.4443 29.9229 54.4443 29.9229C54.4443 29.9229 49.8938 33.2184 47.9268 33.478C46.3199 33.6895 45.705 31.2073 49.7819 28.0254L45.7846 26.9483C45.7846 26.9483 49.0316 21.638 60.9382 19.6278C74.6155 17.3169 86.2026 20.6939 86.2026 20.6939L83.0768 34.1574L83.0784 34.1579Z" fill="#B2D1DE"/>
<path d="M51.098 95.4717C51.098 95.4717 43.0356 90.6807 43.9208 88.7023C44.3353 87.9079 46.7906 88.4683 48.1633 89.6447C48.1633 89.6447 46.7892 88.3734 47.0212 86.7184C47.1296 85.9411 49.1395 87.441 49.9797 87.8682C49.9797 87.8682 48.7899 85.3812 51.1677 86.0725C53.5455 86.7639 56.762 88.6379 56.762 88.6379" stroke="#FCFCF3" stroke-width="1.35163" stroke-linecap="round" stroke-linejoin="round"/>
<path d="M62.49 98.5413C62.49 98.5413 54.5747 96.0052 55.0116 94.0089C55.4488 92.011 60.5153 94.4847 60.5153 94.4847" stroke="#FCFCF3" stroke-width="1.35163" stroke-linecap="round" stroke-linejoin="round"/>
<path d="M64.0587 92.7198C64.0587 92.7198 61.0748 91.6644 60.8287 90.3394C60.5826 89.0144 64.3805 90.0378 64.3805 90.0378" stroke="#FCFCF3" stroke-width="1.35163" stroke-linecap="round" stroke-linejoin="round"/>
<path d="M37.4763 80.5205C37.4763 80.5205 36.0249 79.3736 35.7717 78.4499" stroke="#FCFCF3" stroke-width="1.35163" stroke-linecap="round" stroke-linejoin="round"/>
<path d="M43.5711 80.8537C43.5711 80.8537 39.4105 77.8193 39.3965 76.0018" stroke="#FCFCF3" stroke-width="1.35163" stroke-linecap="round" stroke-linejoin="round"/>
<path d="M71.4064 29.6953C71.4064 29.6953 66.5121 30.0839 65.2869 28.1037C64.8256 27.3585 68.4957 26.8424 68.4957 26.8424C68.4957 26.8424 65.2266 26.2264 63.2835 25.9728C61.3387 25.7187 61.612 24.5421 63.4993 24.3404C65.387 24.137 66.4327 24.0577 66.4327 24.0577C66.4327 24.0577 64.324 23.4491 64.5611 22.369C64.7998 21.2894 68.7151 22.0644 68.7151 22.0644" stroke="#FCFCF3" stroke-width="1.35163" stroke-linecap="round" stroke-linejoin="round"/>
<path d="M54.4458 29.9233C55.167 29.1661 57.6946 27.9575 60.7514 28.0236" stroke="#FCFCF3" stroke-width="1.35163" stroke-linecap="round" stroke-linejoin="round"/>
<path d="M49.261 28.5264C50.3515 27.8366 52.123 26.1577 55.8932 24.9515" stroke="#FCFCF3" stroke-width="1.35163" stroke-linecap="round" stroke-linejoin="round"/>
<path d="M75.7145 24.1982C75.7145 24.1982 72.722 24.4564 72.6956 23.2413C72.6688 22.0277 76.3062 22.0023 76.3062 22.0023" stroke="#FCFCF3" stroke-width="1.35163" stroke-linecap="round" stroke-linejoin="round"/>
</g>
<defs>
<clipPath id="clip0_915_1400">
<rect width="95.6279" height="69.9469" fill="white" transform="translate(0.542969 92.5518) rotate(-74.9194)"/>
</clipPath>
</defs>
</svg>
