<svg width="49" height="90" viewBox="0 0 49 90" fill="none" xmlns="http://www.w3.org/2000/svg">
<g opacity="0.25" clip-path="url(#clip0_1718_2276)">
<path d="M77.9644 67.8577L51.8203 45.0109C51.2118 44.4807 50.2971 44.4536 49.6968 44.9922C49.6762 45.0109 49.6577 45.0276 49.6372 45.0463C49.5652 45.1149 49.4994 45.1898 49.4419 45.2709C49.2959 45.4767 49.1726 45.693 49.0719 45.9155C48.7717 46.5747 48.967 47.3586 49.5118 47.8307L75.6682 70.5173C76.2993 71.0642 77.2367 71.0476 77.8472 70.4778L78.0055 70.3302C78.725 69.6585 78.7065 68.5024 77.9664 67.8557L77.9644 67.8577Z" fill="#2B57AE"/>
<path d="M51.8095 16.2594C54.9794 17.9749 60.933 9.07847 71.0449 10.6131C81.1588 12.1477 94.2987 17.2548 95.6924 34.1919C97.0862 51.1289 87.4101 55.635 88.7751 59.2616C90.1421 62.8881 100.807 70.3015 94.9253 78.7836C89.0419 87.2656 85.9471 88.223 81.8522 86.5636C77.7573 84.9042 71.8651 79.6609 67.2542 82.3662C62.6434 85.0716 58.2319 91.7736 50.5396 89.2263C42.8452 86.679 19.7682 79.4924 7.61707 49.6192C4.36704 41.6298 5.86892 33.4058 4.37588 26.7082C1.23173 12.6037 -1.3763 4.42947 3.47365 1.20135C6.24655 -0.64436 33.1173 6.13877 51.8095 16.2594Z" fill="#FCFCF3"/>
<path d="M50.9798 44.2747L15.4762 13.2494C15.4762 13.2494 18.8722 13.3784 20.5702 12.846C21.8941 12.4322 20.8477 10.7791 18.3604 9.66241C17.1989 9.14047 12.7052 7.47692 10.6454 6.81773C8.79941 6.22717 5.95847 5.28311 6.48678 9.12383C7.04797 13.2037 9.20849 18.839 9.94648 20.1365C10.6845 21.4341 11.6876 22.661 12.2386 20.8643C12.7895 19.0677 12.2632 16.6868 12.7381 15.9319L48.7268 47.1485C48.8213 46.4352 49.0721 45.749 49.5326 45.1501C49.9684 44.7051 50.4618 44.4223 50.9798 44.2726V44.2747Z" fill="#2B57AE"/>
<path d="M54.2381 83.4994C57.2949 83.5993 74.1391 67.7165 83.8809 50.5362C93.6248 33.3558 85.6837 18.1801 72.0731 17.7559C58.4625 17.3317 51.6582 29.59 51.6582 29.59C51.6582 29.59 42.4981 13.1042 24.7946 19.7875C7.09118 26.4729 13.6077 52.5137 24.8933 63.3538C36.179 74.194 47.1419 83.2665 54.2381 83.4994Z" fill="#2B57AE"/>
<path d="M77.9644 67.8577L51.8203 45.0109C51.2118 44.4807 50.2971 44.4536 49.6968 44.9922C49.6762 45.0109 49.6577 45.0276 49.6372 45.0463C49.5652 45.1149 49.4994 45.1898 49.4419 45.2709C49.2959 45.4767 49.1726 45.693 49.0719 45.9155C48.7717 46.5747 48.967 47.3586 49.5118 47.8307L75.6682 70.5173C76.2993 71.0642 77.2367 71.0476 77.8472 70.4778L78.0055 70.3302C78.725 69.6585 78.7065 68.5024 77.9664 67.8557L77.9644 67.8577Z" fill="#FCFCF3"/>
</g>
<defs>
<clipPath id="clip0_1718_2276">
<rect width="96" height="89" fill="white" transform="translate(0.791016 0.897949)"/>
</clipPath>
</defs>
</svg>
