<svg width="79" height="90" viewBox="0 0 79 90" fill="none" xmlns="http://www.w3.org/2000/svg">
<g opacity="0.25" clip-path="url(#clip0_915_1420)">
<path d="M78.135 67.0604L51.991 44.2136C51.3825 43.6833 50.4677 43.6563 49.8675 44.1949C49.8469 44.2136 49.8284 44.2302 49.8078 44.2489C49.7359 44.3175 49.6701 44.3924 49.6125 44.4735C49.4666 44.6794 49.3433 44.8956 49.2425 45.1181C48.9424 45.7773 49.1377 46.5613 49.6824 47.0333L75.8388 69.72C76.4699 70.2669 77.4073 70.2502 78.0179 69.6805L78.1761 69.5328C78.8956 68.8612 78.8771 67.705 78.1371 67.0583L78.135 67.0604Z" fill="#B2D1DE"/>
<path d="M51.98 15.462C55.1498 17.1776 61.1035 8.28111 71.2153 9.81573C81.3292 11.3504 94.4691 16.4575 95.8628 33.3945C97.2566 50.3315 87.5805 54.8377 88.9455 58.4642C90.3125 62.0908 100.977 69.5042 95.0957 77.9862C89.2123 86.4682 86.1175 87.4256 82.0226 85.7662C77.9277 84.1068 72.0355 78.8635 67.4247 81.5689C62.8138 84.2742 58.4023 90.9762 50.71 88.4289C43.0156 85.8816 19.9386 78.6951 7.78748 48.8219C4.53745 40.8324 6.03933 32.6085 4.54629 25.9108C1.40214 11.8064 -1.20589 3.63211 3.64406 0.403987C6.41696 -1.44172 33.2877 5.34141 51.98 15.462Z" fill="#FCFCF3"/>
<path d="M51.1502 43.4776L15.6467 12.4523C15.6467 12.4523 19.0426 12.5812 20.7406 12.0489C22.0645 11.6351 21.0181 9.98195 18.5308 8.86529C17.3693 8.34335 12.8756 6.6798 10.8158 6.02061C8.96982 5.43005 6.12888 4.48599 6.65719 8.32671C7.21838 12.4066 9.3789 18.0419 10.1169 19.3394C10.8549 20.637 11.858 21.8639 12.409 20.0672C12.9599 18.2706 12.4336 15.8896 12.9085 15.1348L48.8972 46.3513C48.9918 45.6381 49.2425 44.9519 49.703 44.353C50.1388 43.908 50.6322 43.6252 51.1502 43.4755V43.4776Z" fill="#B2D1DE"/>
<path d="M54.4082 82.7018C57.465 82.8016 74.3092 66.9189 84.0511 49.7386C93.795 32.5582 85.8539 17.3825 72.2433 16.9583C58.6327 16.5341 51.8284 28.7924 51.8284 28.7924C51.8284 28.7924 42.6683 12.3066 24.9648 18.9899C7.26134 25.6753 13.7778 51.7161 25.0635 62.5562C36.3491 73.3963 47.3121 82.4689 54.4082 82.7018Z" fill="#B2D1DE"/>
<path d="M78.135 67.0604L51.991 44.2136C51.3825 43.6833 50.4677 43.6563 49.8675 44.1949C49.8469 44.2136 49.8284 44.2302 49.8078 44.2489C49.7359 44.3175 49.6701 44.3924 49.6125 44.4735C49.4666 44.6794 49.3433 44.8956 49.2425 45.1181C48.9424 45.7773 49.1377 46.5613 49.6824 47.0333L75.8388 69.72C76.4699 70.2669 77.4073 70.2502 78.0179 69.6805L78.1761 69.5328C78.8956 68.8612 78.8771 67.705 78.1371 67.0583L78.135 67.0604Z" fill="#FCFCF3"/>
<path d="M76.3958 65.952C76.3958 65.952 78.8318 65.4841 80.1207 65.4529C81.4096 65.4217 82.9678 65.2741 83.2145 65.4737L90.8719 71.712C93.0961 73.5066 91.9141 74.4361 91.1514 74.6544L86.2959 75.4862C85.8971 75.6006 85.6134 75.9582 85.5888 76.3762L85.155 80.3292C85.1098 81.1277 84.7418 82.3712 83.4036 81.1922C83.4036 81.1922 75.6475 75.2699 75.1747 74.8312C74.7924 74.4777 74.4429 73.4879 74.484 72.3109C74.5251 71.1339 74.4943 68.4016 74.4943 68.4016C74.5354 67.2537 75.3042 66.2639 76.3958 65.952Z" fill="#B2D1DE"/>
</g>
<defs>
<clipPath id="clip0_915_1420">
<rect width="96" height="89" fill="white" transform="translate(0.961182 0.10083)"/>
</clipPath>
</defs>
</svg>
