<svg width="12" height="13" viewBox="0 0 12 13" fill="none" xmlns="http://www.w3.org/2000/svg">
<path d="M11.0761 5.8511C10.0224 5.87451 9.03901 5.54671 8.1961 4.93794V9.12911C8.1961 10.7213 7.2127 12.1261 5.71418 12.6881C4.23907 13.25 2.55324 12.8286 1.52301 11.6344C0.469359 10.4169 0.282044 8.70765 1.0313 7.30279C1.78056 5.92134 3.32591 5.14867 4.91809 5.3594V7.46669C4.19224 7.23255 3.39615 7.4901 2.95128 8.09888C2.52982 8.73107 2.52982 9.55057 2.9747 10.1593C3.41957 10.7681 4.21566 11.0257 4.91809 10.7915C5.64393 10.5574 6.13563 9.87837 6.13563 9.12911V0.934082H8.1961C8.1961 1.1214 8.1961 1.2853 8.24293 1.47261C8.38341 2.24529 8.82829 2.9243 9.5073 3.34576C9.95218 3.65015 10.5141 3.81405 11.0761 3.81405V5.8511Z" fill="#533B6A"/>
</svg>
