<?xml version="1.0" encoding="UTF-8" standalone="no"?>
<!DOCTYPE svg PUBLIC "-//W3C//DTD SVG 1.1//EN" "http://www.w3.org/Graphics/SVG/1.1/DTD/svg11.dtd">
<svg width="100%" height="100%" viewBox="0 0 534 293" version="1.1" xmlns="http://www.w3.org/2000/svg" xmlns:xlink="http://www.w3.org/1999/xlink" xml:space="preserve" xmlns:serif="http://www.serif.com/" style="fill-rule:evenodd;clip-rule:evenodd;stroke-linejoin:round;stroke-miterlimit:2;">
    <g transform="matrix(1,0,0,1,-99.9079,-193.444)">
        <path d="M125.97,471.8C105.13,468.9 90.26,445.75 107.39,382.62C124.52,319.48 167.83,253.34 255.41,216.02C342.99,178.7 449.92,184.74 541.13,256.11C632.33,327.48 645.13,463.21 625.23,478.73C605.32,494.25 413.32,481.07 336.38,479.79C259.44,478.52 151.83,475.4 125.97,471.81L125.97,471.8Z" style="fill:rgb(252,252,243);fill-rule:nonzero;"/>
        <path d="M588.67,464.66L606.14,465.53C609.77,465.71 612.82,462.86 612.9,459.23C613.37,436.86 610.74,362.34 559.49,305.99C557.16,303.43 553.2,303.19 550.56,305.43L538.32,315.84C535.61,318.15 535.29,322.21 537.59,324.92C549.23,338.64 580.35,382.23 582.57,458.43C582.67,461.78 585.33,464.5 588.68,464.66L588.67,464.66Z" style="fill:rgb(134,194,150);fill-rule:nonzero;"/>
        <path d="M559.98,463.23L544.51,462.46C541.11,462.29 538.42,459.51 538.39,456.1C538.25,439.02 535.08,389.51 504.68,356.16C502.35,353.6 502.55,349.63 505.04,347.23L517.56,335.2C520.24,332.63 524.51,332.85 526.93,335.68C538.15,348.79 565.81,388 566.74,456.72C566.79,460.43 563.68,463.42 559.98,463.23Z" style="fill:rgb(134,194,150);fill-rule:nonzero;"/>
        <path d="M523.74,454.8C524.02,438.21 521.88,394.17 493.67,365.93C491.27,363.53 487.46,363.33 484.88,365.53L478.5,370.97C475.9,373.19 475.5,377.04 477.56,379.77C485.06,389.72 500.76,415.27 499.94,454.02C499.87,457.49 502.59,460.37 506.05,460.54L516.98,461.08C520.61,461.26 523.68,458.41 523.74,454.78L523.74,454.8Z" style="fill:rgb(134,194,150);fill-rule:nonzero;"/>
        <path d="M477.53,459.14L470.81,458.81C467.52,458.65 464.88,456.03 464.7,452.73C464.14,442.55 461.64,421 450.63,405.21C448.62,402.33 449.16,398.39 451.97,396.28L457.54,392.11C460.52,389.88 464.78,390.62 466.79,393.75C472.68,402.91 483.12,423.1 484.27,452.45C484.42,456.23 481.29,459.32 477.51,459.14L477.53,459.14Z" style="fill:rgb(134,194,150);fill-rule:nonzero;"/>
        <path d="M522.44,301.2L535.01,289.03C537.62,286.5 537.63,282.33 535.03,279.79C519.01,264.17 462.78,215.19 386.63,214.12C383.16,214.07 380.28,216.8 380.12,220.26L379.36,236.31C379.19,239.87 381.94,242.87 385.49,243.05C403.46,243.92 456.56,250.96 513.73,301.39C516.24,303.61 520.05,303.52 522.45,301.19L522.44,301.2Z" style="fill:rgb(134,194,150);fill-rule:nonzero;"/>
        <path d="M501.8,321.18L490.67,331.95C488.22,334.32 484.35,334.38 481.84,332.07C469.27,320.5 430.94,289 385.82,288.43C382.36,288.39 379.6,285.53 379.55,282.07L379.32,264.71C379.27,261 382.36,258.03 386.07,258.19C403.31,258.95 450.84,265.53 501.67,311.79C504.41,314.29 504.47,318.6 501.81,321.18L501.8,321.18Z" style="fill:rgb(134,194,150);fill-rule:nonzero;"/>
        <path d="M470.88,341.89C458.96,330.35 425.32,301.83 385.43,303.15C382.04,303.26 379.29,305.91 379.13,309.3L378.75,317.68C378.59,321.1 381.14,324.02 384.54,324.38C396.93,325.7 426.32,331.69 454.06,358.75C456.54,361.17 460.51,361.15 463,358.75L470.87,351.13C473.48,348.6 473.5,344.42 470.89,341.89L470.88,341.89Z" style="fill:rgb(134,194,150);fill-rule:nonzero;"/>
        <path d="M442.48,378.6L437.65,383.28C435.28,385.57 431.57,385.71 429.04,383.59C421.22,377.04 403.78,364.15 384.73,361.41C381.25,360.91 378.75,357.83 379.13,354.33L379.89,347.41C380.3,343.71 383.75,341.1 387.41,341.77C398.12,343.73 420,349.89 442.23,369.1C445.09,371.57 445.21,375.97 442.5,378.6L442.48,378.6Z" style="fill:rgb(134,194,150);fill-rule:nonzero;"/>
        <path d="M146.4,454.85L128.91,454.94C125.28,454.96 122.35,451.98 122.44,448.35C122.97,425.98 128.9,351.65 182.59,297.63C185.03,295.17 189,295.11 191.54,297.47L203.31,308.41C205.92,310.83 206.06,314.9 203.64,317.51C191.4,330.7 158.38,372.87 152.78,448.89C152.53,452.23 149.75,454.83 146.4,454.84L146.4,454.85Z" style="fill:rgb(134,194,150);fill-rule:nonzero;"/>
        <path d="M175.12,454.7L190.61,454.62C194.02,454.6 196.82,451.94 197,448.54C197.9,431.48 203.26,382.16 235.11,350.19C237.55,347.74 237.53,343.76 235.14,341.26L223.16,328.68C220.6,325.99 216.32,326.03 213.78,328.74C201.99,341.34 172.62,379.28 168.64,447.9C168.43,451.6 171.4,454.73 175.11,454.71L175.12,454.7Z" style="fill:rgb(134,194,150);fill-rule:nonzero;"/>
        <path d="M211.71,447.88C212.16,431.29 216.26,387.39 245.69,360.43C248.19,358.14 252.01,358.11 254.49,360.43L260.62,366.15C263.12,368.48 263.35,372.35 261.17,374.98C253.23,384.59 236.42,409.42 235.52,448.17C235.44,451.64 232.59,454.4 229.12,454.42L218.17,454.48C214.54,454.5 211.6,451.52 211.7,447.89L211.71,447.88Z" style="fill:rgb(134,194,150);fill-rule:nonzero;"/>
        <path d="M257.68,454.26L264.41,454.22C267.71,454.2 270.46,451.7 270.78,448.42C271.79,438.27 275.24,416.85 286.94,401.57C289.08,398.78 288.71,394.82 285.99,392.59L280.61,388.17C277.73,385.81 273.44,386.36 271.29,389.4C265,398.29 253.68,418 251.22,447.27C250.9,451.04 253.9,454.27 257.68,454.25L257.68,454.26Z" style="fill:rgb(134,194,150);fill-rule:nonzero;"/>
        <path d="M219.82,294.49L207.8,281.78C205.3,279.14 205.48,274.97 208.19,272.55C224.89,257.65 283.23,211.21 359.36,213.53C362.82,213.64 365.58,216.49 365.59,219.95L365.64,236.02C365.65,239.58 362.78,242.46 359.21,242.48C341.22,242.55 287.86,247.24 228.51,295.08C225.9,297.18 222.11,296.93 219.8,294.49L219.82,294.49Z" style="fill:rgb(134,194,150);fill-rule:nonzero;"/>
        <path d="M239.55,315.36L250.19,326.62C252.53,329.1 256.39,329.33 259,327.13C272.07,316.13 311.76,286.36 356.86,287.79C360.32,287.9 363.21,285.16 363.41,281.71L364.41,264.37C364.62,260.66 361.67,257.56 357.96,257.56C340.7,257.56 292.93,262.02 240.1,305.98C237.25,308.35 237,312.66 239.55,315.35L239.55,315.36Z" style="fill:rgb(134,194,150);fill-rule:nonzero;"/>
        <path d="M269.52,337.42C281.94,326.42 316.81,299.42 356.6,302.51C359.98,302.77 362.61,305.54 362.62,308.93L362.62,317.32C362.63,320.74 359.97,323.54 356.55,323.76C344.11,324.53 314.49,329.21 285.58,355.02C282.99,357.33 279.03,357.13 276.65,354.61L269.13,346.65C266.64,344.01 266.8,339.83 269.52,337.42Z" style="fill:rgb(134,194,150);fill-rule:nonzero;"/>
        <path d="M296.26,375.36L300.88,380.25C303.15,382.65 306.85,382.95 309.47,380.94C317.57,374.74 335.57,362.64 354.72,360.74C358.22,360.39 360.86,357.42 360.63,353.92L360.18,346.97C359.94,343.25 356.61,340.5 352.92,341C342.13,342.48 320,347.67 296.95,365.87C293.98,368.21 293.67,372.61 296.26,375.35L296.26,375.36Z" style="fill:rgb(134,194,150);fill-rule:nonzero;"/>
    </g>
</svg>
