<?xml version="1.0" encoding="UTF-8"?>
<svg id="Layer_1" xmlns="http://www.w3.org/2000/svg" viewBox="0 0 667.77 380.69">
    <path
        d="M475.94,35.57c8.5,0,6.55-4.85,9.63-17.55,3.08-12.72,0-19.98-4.82-17.55s-19.95,35.12-4.82,35.12h0Z"
        style="fill:#fac25e; stroke-width:0px;" />
    <path
        d="M498.68,38.15c-3.47-4.96,8.69-21.89,15.35-30.98,6.66-9.08,13.1-1.71,8.25,9.19-4.85,10.9-19.37,27.85-23.61,21.79Z"
        style="fill:#fac25e; stroke-width:0px;" />
    <path
        d="M511.62,55.53c-3.21-7.93,7.23-9.68,15.71-11.5,8.48-1.82,4.76,9.09-2.46,11.5-7.22,2.42-10.79,6.05-13.24,0Z"
        style="fill:#fac25e; stroke-width:0px;" />
    <path
        d="M192.59,271.25c-1.79,0-3.27-1.44-3.3-3.23-1.2-71.54-23.93-196.5-24.17-197.75-.16-.87.04-1.77.56-2.5.52-.72,1.3-1.21,2.18-1.35,87.31-13.49,182.82-16.32,247.57-16.32,42.49,0,70.65,1.25,70.93,1.26,1.32.06,2.47.9,2.94,2.14,18.19,48.91,10.92,203.81,10.6,210.37-.08,1.73-1.5,3.11-3.25,3.13,0,0-304.06,4.24-304.08,4.24h.01Z"
        style="fill:#fcfcf3; stroke-width:0px;" />
    <path
        d="M415.44,53.39c42.92,0,70.78,1.26,70.78,1.26,18.16,48.84,10.39,209.07,10.39,209.07l-304.03,4.24c-1.21-72.65-24.22-198.29-24.22-198.29,87.68-13.54,183.74-16.28,247.06-16.28M415.44,46.81c-64.86,0-160.54,2.84-248.07,16.36-1.75.27-3.33,1.25-4.36,2.69-1.03,1.44-1.43,3.26-1.12,5,.23,1.25,22.92,125.94,24.11,197.21.06,3.6,2.99,6.48,6.58,6.48h.09l304.03-4.24c3.48-.05,6.32-2.79,6.49-6.27.32-6.6,7.62-162.15-10.8-211.68-.92-2.47-3.23-4.17-5.87-4.28-.28-.01-28.51-1.27-71.08-1.27Z"
        style="fill:#533b6a; stroke-width:0px;" />
    <path
        d="M73.62,378.27c-3.63-.61-4.24-69.62,25.42-133.8,29.66-64.17,46.01-87.78,73.26-114.42l6.66,40.56s9.08-19.37,30.88-25.42c21.79-6.05-4.24,19.98-9.68,41.77,0,0,9.87-10.9,18.25-4.24s-4.93,21.18-20.68,42.38c-15.74,21.18-27.85,112.61-18.16,155.59l-105.94-2.42h-.01Z"
        style="fill:#fac25e; stroke-width:0px;" />
    <path
        d="M520.9,380.69s-1.86-94.6-20.92-141.58c-8.34-20.55-25.82-30.92-27.75-40.25-2.17-10.51,27.75,2.6,27.75,2.6,0,0-27.18-22.05-31.92-33.47-3.87-9.33,10.05-17.06,35.78,2.32v-25.81s37.18,10.93,68.54,79.34c36.04,78.58,34.51,153.81,34.51,153.81l-85.99,3.02h0Z"
        style="fill:#fac25e; stroke-width:0px;" />
    <path
        d="M100.58,287.64s15.74-56.3,29.06-54.18c5.45,1.21,6.05,16.89,1.21,27.07,0,0,5.42-10.33,15.74-11.62,4.85-.61-.91,13.92-2.12,19.67,0,0,13.02-11.2,12.72,4.24s-6.36,37.84-6.36,37.84"
        style="fill:none; stroke:#533b6a; stroke-linecap:round; stroke-linejoin:round; stroke-width:4.06px;" />
    <path d="M100.58,361.19s2.42-51.76,15.13-52.37c12.72-.61,6.05,33.9,6.05,33.9"
        style="fill:none; stroke:#533b6a; stroke-linecap:round; stroke-linejoin:round; stroke-width:4.06px;" />
    <path d="M138.11,361.19s1.51-19.67,9.08-23.3c7.57-3.63,7.57,20.89,7.57,20.89"
        style="fill:none; stroke:#533b6a; stroke-linecap:round; stroke-linejoin:round; stroke-width:4.06px;" />
    <path d="M168.38,181.39s4.54-10.6,9.68-13.62"
        style="fill:none; stroke:#533b6a; stroke-linecap:round; stroke-linejoin:round; stroke-width:4.06px;" />
    <path d="M176.25,218.62s11.5-29.97,22.4-33"
        style="fill:none; stroke:#533b6a; stroke-linecap:round; stroke-linejoin:round; stroke-width:4.06px;" />
    <path
        d="M528.82,303.19s-10.26-28.83-.34-39.42c3.73-3.99,12.78,17.27,12.78,17.27,0,0-1.59-20.68-3.21-32.79-1.62-12.12,5.89-12.38,10.16-1.35,4.28,11.03,6.45,17.2,6.45,17.2,0,0,.24-13.68,7.12-14,6.88-.31,8.56,24.51,8.56,24.51"
        style="fill:none; stroke:#533b6a; stroke-linecap:round; stroke-linejoin:round; stroke-width:4.06px;" />
    <path d="M499.98,201.47c5.72,3.11,17.08,16.37,21.63,34.87"
        style="fill:none; stroke:#533b6a; stroke-linecap:round; stroke-linejoin:round; stroke-width:4.06px;" />
    <path d="M499.98,167.99c5.91,5.45,18.87,13.39,32.23,34.12"
        style="fill:none; stroke:#533b6a; stroke-linecap:round; stroke-linejoin:round; stroke-width:4.06px;" />
    <path d="M541.95,360.16s-3.26-26.89,2.29-29.45c5.55-2.57,9.82,20.48,9.82,20.48"
        style="fill:none; stroke:#533b6a; stroke-linecap:round; stroke-linejoin:round; stroke-width:4.06px;" />
    <path d="M568.84,320.21s-6.4-17.59.86-19.72c7.25-2.13,13.29,19.72,13.29,19.72"
        style="fill:none; stroke:#533b6a; stroke-linecap:round; stroke-linejoin:round; stroke-width:4.06px;" />
    <rect y="371.23" width="667.77" height="9.46" style="fill:#fac25e; stroke-width:0px;" />
</svg>