<?xml version="1.0" encoding="UTF-8"?>
<svg width="668px" height="417px" viewBox="0 0 668 417" version="1.1" xmlns="http://www.w3.org/2000/svg" xmlns:xlink="http://www.w3.org/1999/xlink">
    <title>Artboard</title>
    <g id="Artboard" stroke="none" stroke-width="1" fill="none" fill-rule="evenodd">
        <g id="Palumba_Badge-Sign-with-line" transform="translate(0, 57)">
            <path d="M476.103928,33.6331624 C484.606856,33.6331624 482.656184,29.0467021 485.737245,17.0367959 C488.818306,5.00797641 485.737245,-1.85752904 480.915585,0.440429396 C476.093925,2.73838783 460.958713,33.6520756 476.093925,33.6520756 L476.093925,33.6520756 L476.103928,33.6331624 Z" id="Path" fill="#FAC25E" fill-rule="nonzero"></path>
            <path d="M498.85176,36.0729701 C495.380565,31.382487 507.544753,15.3724309 514.207047,6.77636418 C520.869341,-1.81024595 527.311559,5.15928232 522.459889,15.4669971 C517.608218,25.7747119 503.083217,41.8036812 498.841757,36.0729701 L498.85176,36.0729701 Z" id="Path" fill="#FAC25E" fill-rule="nonzero"></path>
            <path d="M511.796217,52.508574 C508.585112,45.0094751 519.028707,43.3545668 527.511628,41.6334621 C535.994549,39.9123574 532.273268,50.2295288 525.050781,52.508574 C517.828294,54.7970759 514.257065,58.2298286 511.806221,52.508574 L511.796217,52.508574 Z" id="Path" fill="#FAC25E" fill-rule="nonzero"></path>
            <path d="M192.656334,256.506761 C190.865717,256.506761 189.385207,255.145008 189.355197,253.452273 C188.154784,185.79962 165.416955,67.6297079 165.176872,66.4476306 C165.016817,65.6249047 165.216886,64.773809 165.737065,64.0834758 C166.257244,63.4025992 167.037513,62.9392249 167.917816,62.8068322 C255.257888,50.0498531 350.800785,47.3736299 415.573087,47.3736299 C458.077721,47.3736299 486.247421,48.5557073 486.527517,48.5651639 C487.847972,48.6219036 488.998368,49.4162596 489.46853,50.5888804 C507.664795,96.8412043 500.392291,243.324234 500.072181,249.527776 C499.992153,251.163771 498.571664,252.468784 496.821061,252.487698 C496.821061,252.487698 192.656334,256.497304 192.636327,256.497304 L192.64633,256.497304 L192.656334,256.506761 Z" id="Path" fill="#FCFCF3" fill-rule="nonzero"></path>
            <path d="M415.58309,50.4848576 C458.517873,50.4848576 486.387469,51.6763916 486.387469,51.6763916 C504.553724,97.8625191 496.781047,249.385927 496.781047,249.385927 L192.64633,253.395533 C191.435914,184.693196 168.417988,65.8802334 168.417988,65.8802334 C256.128188,53.0759712 352.221274,50.4848576 415.563083,50.4848576 M415.58309,44.2624022 C350.70075,44.2624022 254.987795,46.948082 167.427647,59.733431 C165.677044,59.9887597 164.0965,60.9155084 163.066146,62.2772616 C162.035791,63.6390147 161.635653,65.3601194 161.94576,67.0055711 C162.175839,68.1876485 184.873654,186.102232 186.064064,253.499556 C186.124085,256.903939 189.055094,259.627445 192.64633,259.627445 L192.736361,259.627445 L496.871078,255.617839 C500.352277,255.570556 503.193255,252.979442 503.363314,249.688538 C503.683424,243.44717 510.985938,96.3494601 492.559594,49.5108258 C491.639277,47.1750409 489.328481,45.5674156 486.687572,45.4633928 C486.407476,45.4539362 458.167752,44.2624022 415.58309,44.2624022 L415.58309,44.2624022 Z" id="Shape" fill="#533B6A" fill-rule="nonzero"></path>
            <path d="M73.6453569,357.711498 C70.0141067,357.134644 69.4038966,291.874516 99.0741123,231.181935 C128.744328,170.49881 145.09996,148.171733 172.359345,122.979299 L179.021639,161.335346 C179.021639,161.335346 188.104767,143.017875 209.912275,137.296621 C231.70978,131.575366 205.670815,156.190946 200.228941,176.796919 C200.228941,176.796919 210.102341,166.489204 218.485227,172.787312 C226.868113,179.08542 213.553529,192.816431 197.798104,212.864464 C182.052683,232.893583 169.938512,319.355451 179.631849,360 L73.6553604,357.711498 L73.6453569,357.711498 L73.6453569,357.711498 Z" id="Path" fill="#FAC25E" fill-rule="nonzero"></path>
            <path d="M521.079414,360 C521.079414,360 519.218773,270.540384 500.152208,226.113187 C491.809336,206.679835 474.323315,196.873321 472.39265,188.050295 C470.221903,178.111389 500.152208,190.509016 500.152208,190.509016 C500.152208,190.509016 472.962846,169.657171 468.221214,158.857712 C464.349881,150.034687 478.274675,142.72472 504.013538,161.051648 L504.013538,136.644114 C504.013538,136.644114 541.206344,146.980199 572.577145,211.67293 C608.629558,285.983042 607.099031,357.125188 607.099031,357.125188 L521.079414,359.981087 L521.079414,359.981087 L521.079414,360 Z" id="Path" fill="#FAC25E" fill-rule="nonzero"></path>
            <path d="M100.614643,272.006159 C100.614643,272.006159 116.360064,218.765394 129.684652,220.770197 C135.136529,221.914448 135.736736,236.742427 130.895069,246.369265 C130.895069,246.369265 136.316935,236.600578 146.64049,235.380674 C151.49216,234.80382 145.730177,248.544288 144.51976,253.981844 C144.51976,253.981844 157.544244,243.39043 157.244141,257.99145 C156.944038,272.59247 150.88195,293.775297 150.88195,293.775297" id="Path" stroke="#533B6A" stroke-width="4.06" stroke-linecap="round" stroke-linejoin="round"></path>
            <path d="M100.614643,341.559593 C100.614643,341.559593 103.035476,292.612132 115.749854,292.035279 C128.474235,291.458425 121.801938,324.093217 121.801938,324.093217" id="Path" stroke="#533B6A" stroke-width="4.06" stroke-linecap="round" stroke-linejoin="round"></path>
            <path d="M138.157569,341.559593 C138.157569,341.559593 139.668089,322.958423 147.240697,319.52567 C154.813304,316.092918 154.813304,339.280548 154.813304,339.280548" id="Path" stroke="#533B6A" stroke-width="4.06" stroke-linecap="round" stroke-linejoin="round"></path>
            <path d="M168.437995,171.529582 C168.437995,171.529582 172.979559,161.505566 178.121329,158.649667" id="Path" stroke="#533B6A" stroke-width="4.06" stroke-linecap="round" stroke-linejoin="round"></path>
            <path d="M176.310706,206.736575 C176.310706,206.736575 187.814667,178.395087 198.718421,175.529732" id="Path" stroke="#533B6A" stroke-width="4.06" stroke-linecap="round" stroke-linejoin="round"></path>
            <path d="M529.002141,286.711202 C529.002141,286.711202 518.738608,259.447769 528.662024,249.43321 C532.393309,245.660019 541.446426,265.764791 541.446426,265.764791 C541.446426,265.764791 539.855879,246.208503 538.235321,234.756537 C536.614763,223.295115 544.127349,223.049243 548.39882,233.479893 C552.680294,243.910544 554.851042,249.745278 554.851042,249.745278 C554.851042,249.745278 555.091124,236.808623 561.973494,236.506011 C568.855864,236.212856 570.536442,259.684185 570.536442,259.684185" id="Path" stroke="#533B6A" stroke-width="4.06" stroke-linecap="round" stroke-linejoin="round"></path>
            <path d="M500.152208,190.518473 C505.874178,193.459481 517.238091,205.998958 521.789658,223.493704" id="Path" stroke="#533B6A" stroke-width="4.06" stroke-linecap="round" stroke-linejoin="round"></path>
            <path d="M500.152208,158.857712 C506.064244,164.01157 519.028707,171.520125 532.393309,191.123696" id="Path" stroke="#533B6A" stroke-width="4.06" stroke-linecap="round" stroke-linejoin="round"></path>
            <path d="M542.136664,340.585561 C542.136664,340.585561 538.875541,315.156712 544.427453,312.735818 C549.979364,310.305467 554.250835,332.102974 554.250835,332.102974" id="Path" stroke="#533B6A" stroke-width="4.06" stroke-linecap="round" stroke-linejoin="round"></path>
            <path d="M569.035926,302.806368 C569.035926,302.806368 562.633721,286.172175 569.896222,284.157915 C577.148719,282.143655 583.190799,302.806368 583.190799,302.806368" id="Path" stroke="#533B6A" stroke-width="4.06" stroke-linecap="round" stroke-linejoin="round"></path>
            <rect id="Rectangle" fill="#FAC25E" fill-rule="nonzero" x="0" y="351.054038" width="668" height="8.94596165"></rect>
        </g>
    </g>
</svg>