<?xml version="1.0" encoding="UTF-8"?>
<svg id="Design" xmlns="http://www.w3.org/2000/svg" viewBox="0 0 361.35 424.65">
    <path
        d="M108,241.36L11.32,157.38s-1.85,48.25-.8,67.42c1.05,19.17.8,63.52.8,63.52,0,1.67.57,3.29,1.62,4.59l86.84,121.8c5.92,7.64,14.41,10.01,17.48,9.94,175.2-4.03,228.02-20.52,228.02-20.52,3.78-.33,6.67-3.5,6.67-7.29v-176.93l-243.95,21.45h0Z"
        style="fill:#fac25e; stroke-width:0px;" />
    <path
        d="M248.64,75.86c-2.74-1.82-6.02-2.65-9.29-2.36l-113.87,7.47L5.2,94.06c-2.94.26-5.2,2.72-5.2,5.67v47.91c0,2.38,1.01,4.65,2.79,6.25l92.1,82.72c3.42,3.07,7.87,5.03,12.45,4.74,185.38-11.52,231.36-16.16,249.73-20.4,2.51-.58,4.28-2.82,4.28-5.39v-58.14c0-4.31-2.16-8.33-5.76-10.72l-106.95-70.83h0Z"
        style="fill:#fde4ba; stroke-width:0px;" />
    <path
        d="M103.77,52.45c16.7-.5,25.39-.35,22.96-5.22s-23.3-4.35-29.57-4c-6.26.35-10.78,6.61-6.78,8.35s9.56.98,13.39.87Z"
        style="fill:#fac25e; stroke-width:0px;" />
    <path
        d="M130.26,31.26c3.9-2.6-2.26-10.44-7.48-13.74s-14.15-9.74-16.99-8c-2.84,1.74-.4,7.83,6.9,13.91,7.3,6.09,13.39,10.61,17.57,7.83Z"
        style="fill:#fac25e; stroke-width:0px;" />
    <path d="M144,16.48c3.69-.89,1.04-5.74-1.04-9.04s-6.09-6.61-8.17-4,3.48,14.44,9.22,13.04h-.01Z"
        style="fill:#fac25e; stroke-width:0px;" />
    <path
        d="M159.24,115.7s-12-1.04-20.87,0-10.44,4.52-6.26,9.39,4.87,7.3,14.44,6.96,75.48-4.52,81.57-5.57c6.09-1.04,2.78-5.39-1.91-8.7s-6.43-4.35-10.09-4.7c-3.65-.35-7.3,0-7.3,0l-5.88,8.62-17.51.8-26.17-6.81h-.02Z"
        style="fill:#533b6a; stroke-width:0px;" />
    <path
        d="M194.71,280.85c3.67-.25,3.21-1.17,4.31-4.37.79-2.3,2.02-4.52,3.5-4.1,1.05.35,1.9,3.79,2.48,5.51.64,1.89.26,2.02,2.46,2.28,3.13.71,2.88.17,5.87,1.13,3.19,1.03-.46,3.41-1.95,4.14-1.44.7-2.59,1.29-2.71,1.96-.1.59,1.02,2.49,1.82,4.4.61,1.45,1.94,4.15,1.42,4.56-.46.36-1.19,1.12-3.27-.36-1.59-1.13-2.31-1.64-3.17-2.47s-2.67-2.27-3.36-2.5c-.35-.12-2.53,2.13-3.49,2.86-4.68,3.57-6.02,3.11-6.42,1.87-.24-.75.61-3.38,1.95-5.18.86-1.16,1.59-2.67,1.51-3.1-.15-.77-2.87-2.05-3.98-2.45-1.53-.54-3.72-2.2-3.89-3.08.59-1.5,4.85-1.11,6.9-1.09h.02Z"
        style="fill:#533b6a; stroke-width:0px;" />
    <path
        d="M178.89,314.75c3.67-.25,3.21-1.17,4.31-4.37.79-2.3,2.02-4.52,3.5-4.1,1.05.35,1.9,3.79,2.48,5.51.64,1.89.26,2.02,2.46,2.28,3.13.71,2.88.17,5.87,1.13,3.19,1.03-.46,3.41-1.95,4.14-1.44.7-2.59,1.29-2.71,1.96-.1.59,1.02,2.49,1.82,4.4.61,1.45,1.94,4.15,1.42,4.56-.46.36-1.19,1.12-3.27-.36-1.59-1.13-2.31-1.64-3.17-2.47-.81-.79-2.67-2.27-3.36-2.5-.35-.12-2.53,2.13-3.49,2.86-4.68,3.57-6.02,3.11-6.42,1.87-.24-.75.61-3.38,1.95-5.18.86-1.16,1.59-2.67,1.51-3.1-.15-.77-2.87-2.05-3.98-2.45-1.53-.54-3.72-2.2-3.89-3.08.59-1.5,4.85-1.11,6.9-1.09h.02Z"
        style="fill:#533b6a; stroke-width:0px;" />
    <path
        d="M189.95,346.48c3.67-.25,3.21-1.17,4.31-4.37.79-2.3,2.02-4.52,3.5-4.1,1.05.35,1.9,3.79,2.48,5.51.64,1.89.26,2.02,2.46,2.28,3.13.71,2.88.17,5.87,1.13,3.19,1.03-.46,3.41-1.95,4.14-1.44.7-2.59,1.29-2.71,1.96-.1.59,1.02,2.49,1.82,4.4.61,1.45,1.94,4.15,1.42,4.56-.46.36-1.19,1.12-3.27-.36-1.59-1.13-2.31-1.64-3.17-2.47s-2.67-2.27-3.36-2.5c-.35-.12-2.53,2.13-3.49,2.86-4.68,3.57-6.02,3.11-6.42,1.87-.24-.75.61-3.38,1.95-5.18.86-1.16,1.59-2.67,1.51-3.1-.15-.77-2.87-2.05-3.98-2.45-1.53-.54-3.72-2.2-3.89-3.08.59-1.5,4.85-1.11,6.9-1.09h.02Z"
        style="fill:#533b6a; stroke-width:0px;" />
    <path
        d="M227.71,358.53c3.67-.25,3.21-1.17,4.31-4.37.79-2.3,2.02-4.52,3.5-4.1,1.05.35,1.9,3.79,2.48,5.51.64,1.89.26,2.02,2.46,2.28,3.13.71,2.88.17,5.87,1.13,3.19,1.03-.46,3.41-1.95,4.14s-2.59,1.29-2.71,1.96c-.1.59,1.02,2.49,1.82,4.4.61,1.45,1.94,4.15,1.42,4.56-.46.36-1.19,1.12-3.27-.36-1.59-1.13-2.31-1.64-3.17-2.47s-2.67-2.27-3.36-2.5c-.35-.12-2.53,2.13-3.49,2.86-4.68,3.57-6.02,3.11-6.42,1.87-.24-.75.61-3.38,1.95-5.18.86-1.16,1.59-2.67,1.51-3.1-.15-.77-2.87-2.05-3.98-2.45-1.53-.54-3.72-2.2-3.89-3.08.59-1.5,4.85-1.11,6.9-1.09h.02Z"
        style="fill:#533b6a; stroke-width:0px;" />
    <path
        d="M227.43,271.36c3.67-.25,3.21-1.17,4.31-4.37.79-2.3,2.02-4.52,3.5-4.1,1.05.35,1.9,3.79,2.48,5.51.64,1.89.26,2.02,2.46,2.28,3.13.71,2.88.17,5.87,1.13,3.19,1.03-.46,3.41-1.95,4.14-1.44.7-2.59,1.29-2.71,1.96-.1.59,1.02,2.49,1.82,4.4.61,1.45,1.94,4.15,1.42,4.56-.46.36-1.19,1.12-3.27-.36-1.59-1.13-2.31-1.64-3.17-2.47-.81-.79-2.67-2.27-3.36-2.5-.35-.12-2.53,2.13-3.49,2.86-4.68,3.57-6.02,3.11-6.42,1.87-.24-.75.61-3.38,1.95-5.18.86-1.16,1.59-2.67,1.51-3.1-.15-.77-2.87-2.05-3.98-2.45-1.53-.54-3.72-2.2-3.89-3.08.59-1.5,4.85-1.11,6.9-1.09h.02Z"
        style="fill:#533b6a; stroke-width:0px;" />
    <path
        d="M262.4,286.02c3.67-.25,3.21-1.17,4.31-4.37.79-2.3,2.02-4.52,3.5-4.1,1.05.35,1.9,3.79,2.48,5.51.64,1.89.26,2.02,2.46,2.28,3.13.71,2.88.17,5.87,1.13,3.19,1.03-.46,3.41-1.95,4.14-1.44.7-2.59,1.29-2.71,1.96-.1.59,1.02,2.49,1.82,4.4.61,1.45,1.94,4.15,1.42,4.56-.46.36-1.19,1.12-3.27-.36-1.59-1.13-2.31-1.64-3.17-2.47s-2.67-2.27-3.36-2.5c-.35-.12-2.53,2.13-3.49,2.86-4.68,3.57-6.02,3.11-6.42,1.87-.24-.75.61-3.38,1.95-5.18.86-1.16,1.59-2.67,1.51-3.1-.15-.77-2.87-2.05-3.98-2.45-1.53-.54-3.72-2.2-3.89-3.08.59-1.5,4.85-1.11,6.9-1.09h.02Z"
        style="fill:#533b6a; stroke-width:0px;" />
    <path
        d="M272.81,317.05c3.67-.25,3.21-1.17,4.31-4.37.79-2.3,2.02-4.52,3.5-4.1,1.05.35,1.9,3.79,2.48,5.51.64,1.89.26,2.02,2.46,2.28,3.13.71,2.88.17,5.87,1.13,3.19,1.03-.46,3.41-1.95,4.14s-2.59,1.29-2.71,1.96c-.1.59,1.02,2.49,1.82,4.4.61,1.45,1.94,4.15,1.42,4.56-.46.36-1.19,1.12-3.27-.36-1.59-1.13-2.31-1.64-3.17-2.47-.81-.79-2.67-2.27-3.36-2.5-.35-.12-2.53,2.13-3.49,2.86-4.68,3.57-6.02,3.11-6.42,1.87-.24-.75.61-3.38,1.95-5.18.86-1.16,1.59-2.67,1.51-3.1-.15-.77-2.87-2.05-3.98-2.45-1.53-.54-3.72-2.2-3.89-3.08.59-1.5,4.85-1.11,6.9-1.09h.02Z"
        style="fill:#533b6a; stroke-width:0px;" />
    <path
        d="M260.25,346.78c3.67-.25,3.21-1.17,4.31-4.37.79-2.3,2.02-4.52,3.5-4.1,1.05.35,1.9,3.79,2.48,5.51.64,1.89.26,2.02,2.46,2.28,3.13.71,2.88.17,5.87,1.13,3.19,1.03-.46,3.41-1.95,4.14-1.44.7-2.59,1.29-2.71,1.96-.1.59,1.02,2.49,1.82,4.4.61,1.45,1.94,4.15,1.42,4.56-.46.36-1.19,1.12-3.27-.36-1.59-1.13-2.31-1.64-3.17-2.47s-2.67-2.27-3.36-2.5c-.35-.12-2.53,2.13-3.49,2.86-4.68,3.57-6.02,3.11-6.42,1.87-.24-.75.61-3.38,1.95-5.18.86-1.16,1.59-2.67,1.51-3.1-.15-.77-2.87-2.05-3.98-2.45-1.53-.54-3.72-2.2-3.89-3.08.59-1.5,4.85-1.11,6.9-1.09h.02Z"
        style="fill:#533b6a; stroke-width:0px;" />
    <path
        d="M9.02,104.48s28.79,18.41,56.4,40.03c16.54,12.96,28.86,21.94,34.75,27.44-2.51,34.67,0,56.47,0,56.47"
        style="fill:none; stroke:#533b6a; stroke-linecap:round; stroke-linejoin:round; stroke-width:5px;" />
    <path d="M350.24,157.4s-57.3,4.65-107.33,9.94c-39.88,4.22-66.84,5.91-128.43,7.59"
        style="fill:none; stroke:#533b6a; stroke-linecap:round; stroke-linejoin:round; stroke-width:5px;" />
    <path
        d="M185.41,122.51c-15.05-2.91-53.26-19.88-59.94-22.21,6.01-8.03,13.22-19.49,20.37-32.61,7.39-13.57,23.77-46.67,25.98-65.19,2.09,1.92,54.85,22.87,63.86,26.83,1.04,8.9-4.93,34.37-14.75,55.82-7.15,15.63-16.44,32.37-18.01,36.56l-17.51.8h0Z"
        style="fill:#fcfcf3; stroke:#533b6a; stroke-linecap:round; stroke-linejoin:round; stroke-width:5px;" />
    <path
        d="M164.68,59.11c5.07-1.06,7.61,11.99,9.51,16.18s6.11-2.45,19.01-10.25c13.65-8.26,16.39-8.01,17.15-4.02.76,4-32.63,26.45-37.62,24.31-6.51-2.79-12.62-25.26-8.05-26.21h0Z"
        style="fill:#533b6a; stroke-width:0px;" />
    <path
        d="M107.92,256.91s.03,29.28,0,27.69c.54,27.86,1.74,32.45,2.43,60.3.51,20.43.35,20.56.35,50.54"
        style="fill:none; stroke:#533b6a; stroke-linecap:round; stroke-linejoin:round; stroke-width:5px;" />
</svg>