<?xml version="1.0" encoding="UTF-8" standalone="no"?>
<!DOCTYPE svg PUBLIC "-//W3C//DTD SVG 1.1//EN" "http://www.w3.org/Graphics/SVG/1.1/DTD/svg11.dtd">
<svg width="100%" height="100%" viewBox="0 0 587 430" version="1.1" xmlns="http://www.w3.org/2000/svg" xmlns:xlink="http://www.w3.org/1999/xlink" xml:space="preserve" xmlns:serif="http://www.serif.com/" style="fill-rule:evenodd;clip-rule:evenodd;stroke-linecap:round;stroke-linejoin:round;">
    <g transform="matrix(1,0,0,1,-52.5866,-129.484)">
        <path d="M123.78,555.73C81.88,552.28 38.14,541.02 57.17,455.13C76.2,369.24 137.43,264.35 143.93,222.59C150.42,180.83 194.19,166.42 323.6,162.21C453.01,157.99 442.76,111.9 521.15,136.85C599.54,161.8 563.63,223.64 591.1,300.24C618.57,376.85 690.62,556.69 575.19,558.59C459.76,560.49 491.28,527.91 475.06,484.83C458.83,441.76 287.44,432.6 254.45,474.53C220.73,517.4 285.53,569.05 123.77,555.73L123.78,555.73Z" style="fill:rgb(252,252,243);fill-rule:nonzero;"/>
        <path d="M486.17,185.68C494.55,185.68 492.63,180.9 495.67,168.37C498.71,155.83 495.67,148.67 490.92,151.06C486.17,153.45 471.25,185.69 486.17,185.69L486.17,185.68Z" style="fill:rgb(250,194,94);fill-rule:nonzero;"/>
        <path d="M508.59,188.22C505.17,183.33 517.16,166.63 523.73,157.67C530.3,148.72 536.65,155.98 531.87,166.73C527.09,177.48 512.77,194.19 508.59,188.22Z" style="fill:rgb(250,194,94);fill-rule:nonzero;"/>
        <path d="M521.35,205.36C518.18,197.54 528.48,195.81 536.84,194.02C545.2,192.23 541.53,202.98 534.41,205.36C527.29,207.75 523.77,211.33 521.35,205.36Z" style="fill:rgb(250,194,94);fill-rule:nonzero;"/>
        <path d="M206.76,418.08C204.99,418.08 203.54,416.66 203.51,414.89C202.33,344.34 179.91,221.12 179.68,219.89C179.52,219.03 179.72,218.14 180.23,217.42C180.74,216.71 181.51,216.23 182.38,216.09C268.48,202.79 362.66,200 426.51,200C468.41,200 496.18,201.23 496.45,201.24C497.75,201.3 498.89,202.13 499.35,203.35C517.29,251.58 510.12,404.33 509.8,410.8C509.72,412.51 508.32,413.87 506.6,413.89C506.6,413.89 206.77,418.07 206.75,418.07L206.76,418.08Z" style="fill:rgb(252,252,243);fill-rule:nonzero;"/>
        <path d="M426.51,203.25C468.83,203.25 496.31,204.49 496.31,204.49C514.22,252.65 506.56,410.65 506.56,410.65L206.76,414.83C205.57,343.19 182.88,219.3 182.88,219.3C269.34,205.95 364.07,203.25 426.51,203.25M426.51,196.76C362.55,196.76 268.2,199.56 181.89,212.89C180.16,213.16 178.61,214.12 177.59,215.54C176.57,216.96 176.18,218.75 176.49,220.47C176.72,221.7 199.09,344.66 200.26,414.94C200.32,418.49 203.21,421.33 206.75,421.33L206.84,421.33L506.64,417.15C510.07,417.1 512.87,414.4 513.04,410.97C513.36,404.46 520.55,251.07 502.39,202.23C501.48,199.79 499.2,198.12 496.6,198.01C496.32,198 468.49,196.76 426.51,196.76Z" style="fill:rgb(83,59,106);fill-rule:nonzero;"/>
        <path d="M89.44,523.61C85.86,523.01 85.26,454.96 114.51,391.67C143.76,328.39 159.88,305.11 186.75,278.84L193.32,318.84C193.32,318.84 202.27,299.74 223.77,293.77C245.26,287.8 219.59,313.47 214.22,334.96C214.22,334.96 223.95,324.21 232.22,330.78C240.49,337.35 227.36,351.67 211.83,372.57C196.31,393.46 184.37,483.61 193.92,526L89.45,523.61L89.44,523.61Z" style="fill:rgb(250,194,94);fill-rule:nonzero;"/>
        <path d="M530.5,526C530.5,526 528.67,432.72 509.87,386.39C501.65,366.13 484.41,355.9 482.51,346.7C480.37,336.34 509.87,349.26 509.87,349.26C509.87,349.26 483.07,327.52 478.39,316.26C474.57,307.06 488.3,299.44 513.67,318.55L513.67,293.1C513.67,293.1 550.33,303.88 581.26,371.34C616.8,448.83 615.29,523.01 615.29,523.01L530.5,525.99L530.5,526Z" style="fill:rgb(250,194,94);fill-rule:nonzero;"/>
        <path d="M116.02,434.24C116.02,434.24 131.54,378.72 144.68,380.81C150.05,382 150.65,397.47 145.87,407.5C145.87,407.5 151.21,397.31 161.39,396.04C166.17,395.44 160.49,409.77 159.3,415.44C159.3,415.44 172.14,404.4 171.84,419.62C171.54,434.84 165.57,456.93 165.57,456.93" style="fill:none;fill-rule:nonzero;stroke:rgb(83,59,106);stroke-width:4px;"/>
        <path d="M116.02,506.77C116.02,506.77 118.41,455.73 130.94,455.13C143.48,454.53 136.91,488.56 136.91,488.56" style="fill:none;fill-rule:nonzero;stroke:rgb(83,59,106);stroke-width:4px;"/>
        <path d="M153.03,506.77C153.03,506.77 154.52,487.37 161.98,483.79C169.44,480.21 169.44,504.39 169.44,504.39" style="fill:none;fill-rule:nonzero;stroke:rgb(83,59,106);stroke-width:4px;"/>
        <path d="M182.88,329.47C182.88,329.47 187.36,319.02 192.43,316.04" style="fill:none;fill-rule:nonzero;stroke:rgb(83,59,106);stroke-width:4px;"/>
        <path d="M190.64,366.18C190.64,366.18 201.98,336.63 212.73,333.64" style="fill:none;fill-rule:nonzero;stroke:rgb(83,59,106);stroke-width:4px;"/>
        <path d="M538.31,449.58C538.31,449.58 528.19,421.15 537.97,410.71C541.65,406.78 550.57,427.74 550.57,427.74C550.57,427.74 549,407.35 547.4,395.41C545.8,383.46 553.21,383.2 557.42,394.08C561.64,404.96 563.78,411.04 563.78,411.04C563.78,411.04 564.02,397.55 570.8,397.23C577.58,396.92 579.24,421.4 579.24,421.4" style="fill:none;fill-rule:nonzero;stroke:rgb(83,59,106);stroke-width:4px;"/>
        <path d="M509.87,349.27C515.51,352.34 526.71,365.41 531.2,383.66" style="fill:none;fill-rule:nonzero;stroke:rgb(83,59,106);stroke-width:4px;"/>
        <path d="M509.87,316.26C515.7,321.63 528.48,329.46 541.65,349.91" style="fill:none;fill-rule:nonzero;stroke:rgb(83,59,106);stroke-width:4px;"/>
        <path d="M551.26,505.76C551.26,505.76 548.05,479.24 553.52,476.72C558.99,474.19 563.2,496.92 563.2,496.92" style="fill:none;fill-rule:nonzero;stroke:rgb(83,59,106);stroke-width:4px;"/>
        <path d="M577.77,466.36C577.77,466.36 571.46,449.01 578.62,446.91C585.77,444.81 591.73,466.36 591.73,466.36" style="fill:none;fill-rule:nonzero;stroke:rgb(83,59,106);stroke-width:4px;"/>
    </g>
</svg>
