<?xml version="1.0" encoding="UTF-8" standalone="no"?>
<!DOCTYPE svg PUBLIC "-//W3C//DTD SVG 1.1//EN" "http://www.w3.org/Graphics/SVG/1.1/DTD/svg11.dtd">
<svg width="100%" height="100%" viewBox="0 0 310 529" version="1.1" xmlns="http://www.w3.org/2000/svg" xmlns:xlink="http://www.w3.org/1999/xlink" xml:space="preserve" xmlns:serif="http://www.serif.com/" style="fill-rule:evenodd;clip-rule:evenodd;stroke-linejoin:round;stroke-miterlimit:2;">
    <g transform="matrix(1,0,0,1,-162.165,-95.16)">
        <path d="M338.2,286.44C325.2,283.9 317.01,286.69 317.07,257.61C317.13,228.53 320.44,202.78 336.3,209.88C349.02,212.29 409.57,213.17 409.57,213.17L431.77,217.29C431.77,217.29 433.67,240.83 430.5,257.6C427.33,274.37 427.65,291.82 412.1,294.04C396.55,296.26 338.2,286.43 338.2,286.43L338.2,286.44Z" style="fill:rgb(252,252,243);fill-rule:nonzero;"/>
        <path d="M292.96,546.66C292.96,546.66 299.07,544.57 300.84,542.46L300.79,593.28C300.79,593.28 332.29,586.62 340.22,601.21C343.07,606.6 338,607.24 331.02,603.75C324.04,600.26 311.82,602.16 311.82,602.16C311.82,602.16 346.56,622.78 337.68,623.41C328.8,624.04 302.16,605.97 292.96,604.38C283.76,602.79 267.9,602.79 269.17,598.99C270.44,595.18 282.86,592.96 292.06,592.33L292.96,546.66Z" style="fill:rgb(83,59,106);fill-rule:nonzero;"/>
        <path d="M392.79,500.94C394.02,500.9 424.59,533.98 424.59,533.98C424.59,533.98 439.67,502.73 455.36,505.75C463.61,507.34 448.24,516.57 440.77,524.78C437.6,528.27 439.82,527.63 439.82,527.63C439.82,527.63 462.02,516.53 470.59,522.87C479.15,529.21 450.29,531.12 441.09,537.46C431.89,543.8 427.77,550.15 419.84,560.3C411.91,570.45 409.37,565.37 411.91,557.13C414.45,548.88 420.79,542.46 420.79,542.46L387.32,507.8C387.32,507.8 382.13,501.28 392.79,500.93L392.79,500.94Z" style="fill:rgb(83,59,106);fill-rule:nonzero;"/>
        <path d="M380.51,208.34C380.51,208.34 383.89,232.45 386.43,234.14C388.97,235.83 397.43,220.61 401.23,206.65L405.04,192.69C405.04,192.69 434.64,172.81 432.53,149.98C430.42,127.14 418.57,107.69 394.89,100.08C371.21,92.47 347.52,89.08 305.66,125.45C263.79,161.82 256.18,169.86 225.73,226.1C225.73,226.1 148.13,274.45 164.41,349.59C175.41,400.34 204.59,430.37 208.82,435.02C213.05,439.67 218.12,438.4 218.12,438.4C218.12,438.4 253.33,489.83 270.98,501.84C277.75,509.03 279.44,539.06 292.97,546.67C295.51,548.78 306.38,540.68 312,520.45C313.27,515.8 317.92,526.79 335.68,515.38C353.44,503.96 359.36,492.97 359.36,492.97C359.36,492.97 380.69,510.97 390.66,507.35C395.31,505.66 394.89,496.78 388.97,487.05C383.05,477.32 377.55,470.13 377.55,470.13C377.55,470.13 405.46,440.1 410.96,427.84C410.96,427.84 449.02,415.15 463.82,390.2C478.62,365.25 473.12,335.65 448.6,314.92C438.03,303.5 420.27,296.31 420.27,296.31C420.27,296.31 355.24,290.24 325.96,285.74C320.46,284.89 311.58,273.05 314.12,261.63C316.66,250.21 325.54,208.77 325.54,208.77L380.52,208.35L380.51,208.34Z" style="fill:rgb(250,194,94);fill-rule:nonzero;"/>
        <path d="M347.73,168.79C343.78,163.91 345.37,152.93 352.37,145.32C359.36,137.71 367.4,133.27 376.7,136.02C386,138.77 382.17,157.17 370.14,166.05C361.26,172.61 351.32,173.24 347.73,168.8L347.73,168.79Z" style="fill:rgb(83,59,106);fill-rule:nonzero;"/>
        <path d="M369.72,194.59C369.72,194.59 377.47,180.23 396.36,186.98C399.32,188.04 398.04,183.8 394.67,181.69L392.98,180.63C392.98,180.63 396.15,170.25 400.17,171.64C404.19,173.03 402.07,178.52 403.55,179.15C405.03,179.78 413.28,177.88 411.59,181.9C409.9,185.92 405.13,190.28 406.14,191.9C407.15,193.52 418.78,185.49 417.3,179.78C415.82,174.07 409.6,174.28 406.09,174.28C406.09,174.28 406.3,166.77 400.17,167.14C394.04,167.51 389.81,178.93 389.81,178.93C389.81,178.93 383.25,178.51 376.91,182.74C370.57,186.97 366.34,194.79 369.72,194.58L369.72,194.59Z" style="fill:rgb(83,59,106);fill-rule:nonzero;"/>
        <path d="M189.88,333.83C191.67,278.35 216.84,234.55 220.01,235.19C223.18,235.82 197.79,260.48 195.54,331.83C194.27,372.11 202.83,390.92 217.47,422.64C219.37,426.76 216.62,429.09 210.81,418.83C206.65,411.5 188.29,382.99 189.88,333.83Z" style="fill:rgb(83,59,106);fill-rule:nonzero;"/>
        <path d="M243.48,401.08C238.04,397.92 241.89,396.96 246.02,399.18C250.14,401.4 270.13,412.18 296.13,407.11C322.14,402.04 341.94,395.89 375.74,354.46C385.57,342.41 383.04,351.29 380.81,354.46C378.59,357.63 352.26,399.01 321.81,408.45C291.36,417.89 266.94,414.72 243.47,401.08L243.48,401.08Z" style="fill:rgb(83,59,106);fill-rule:nonzero;"/>
        <path d="M354.61,290.04C354.61,290.04 357.88,297.64 379.51,319.07C392.69,332.13 419.8,351.28 418.21,399.49C418.08,403.4 415.79,411.12 416.01,400.9C416.13,395.26 414.58,387.86 413.5,382.68C410.65,369.04 405.03,349.23 383.81,330.23C360.22,309.1 349.55,289.23 349.55,289.23L354.62,290.05L354.61,290.04Z" style="fill:rgb(83,59,106);fill-rule:nonzero;"/>
        <path d="M326.59,206.64L380.51,208.33L381.41,214.21C381.41,214.21 328.49,210.73 326.59,211.72C324.69,212.7 312,272.3 321.83,278.64C331.66,284.98 409.31,294.82 417.43,291.64C425.55,288.47 434.6,227.36 429.04,219.32C426.19,215.2 398.43,215.13 398.43,215.13L400.22,210.03C400.22,210.03 427.68,211.7 432.75,214.56C437.82,217.41 432.23,276.22 423.55,292.25C420.11,298.61 410.33,295.98 390.66,295.03C370.99,294.08 324.32,289 319.14,283.29C313.95,277.58 311.79,273.23 315.86,237.71C319.62,204.93 326.6,206.63 326.6,206.63L326.59,206.64Z" style="fill:rgb(83,59,106);fill-rule:nonzero;"/>
        <path d="M382.86,225.04C385.9,224.09 380.91,205.28 382.86,197.13C383.77,193.32 380.07,193.64 378.61,200.94C377.14,208.24 382.86,225.05 382.86,225.05L382.86,225.04Z" style="fill:rgb(83,59,106);fill-rule:nonzero;"/>
        <path d="M397.21,338.38C397.21,338.38 402.85,346.41 411.14,342.13C416.87,339.17 417.41,336.59 415.78,332.67C414.15,328.75 416.87,328.23 419.24,329.57C422.7,331.52 428.73,333.06 431.04,331.41C434.67,328.81 434.67,323.59 433.2,321.08C430.13,315.83 434.1,315.98 438.54,318.3C441.43,319.82 447.2,318.84 446.02,314.31C444.84,309.78 452.1,317.99 447.14,322.08C443.26,325.28 437.54,321.38 437.54,321.38C437.54,321.38 439.91,332.68 434.1,336.07C425.64,340.99 421.52,336.28 421.52,336.28C421.52,336.28 420.46,343.89 414.44,345.9C409.69,347.48 404.29,348.12 401.75,344.31C399.21,340.5 397.2,338.39 397.2,338.39L397.21,338.38Z" style="fill:rgb(83,59,106);fill-rule:nonzero;"/>
        <path d="M415.79,373.49C415.79,373.49 419.21,381.09 427.77,381.09C433.07,381.09 436.18,376.24 437.78,372.54C438.28,371.38 439.95,371.47 440.37,372.66C441.75,376.57 444.46,381.69 449.02,381.09C453.36,380.53 456.91,376.71 459.08,373.7C459.71,372.83 461.1,373.43 460.86,374.48C459.82,379.04 456.76,385.43 447.75,385.53C443.46,385.57 441.24,383.06 440.2,381.27C439.74,380.47 438.65,380.31 437.96,380.92C434.88,383.64 426.18,388.91 417.24,380.35L415.79,373.48L415.79,373.49Z" style="fill:rgb(83,59,106);fill-rule:nonzero;"/>
        <path d="M163.16,312.57C163.44,311.3 163.24,323.68 170.21,322.73C173.93,322.22 175.87,319.71 177.22,317.84C178.88,315.54 180.33,318.4 180.58,319.47C181.02,321.38 182.18,323.29 185.12,322.77C190.64,321.79 195.27,312.89 195.27,312.89C195.27,312.89 195.07,326.57 184.27,326.6C181.13,326.6 179.37,322.81 177.83,323.27C176.56,323.64 174.83,325.53 173.97,326.17C171.01,328.37 164.76,328.55 162.5,322.18L163.16,312.56L163.16,312.57Z" style="fill:rgb(83,59,106);fill-rule:nonzero;"/>
        <path d="M353.02,158.43C353.02,158.43 353.44,159.91 358.94,159.7C364.44,159.49 372.47,151.45 374.16,145.32C374.16,145.32 376.36,150.23 373.11,156.26C370.44,161.21 363.63,166.15 358.3,166.15C349.63,166.15 353.01,158.43 353.01,158.43L353.02,158.43Z" style="fill:rgb(252,252,243);fill-rule:nonzero;"/>
        <path d="M307.28,248.6C306.09,247.55 303.04,244.37 304.37,240.3C305.56,236.68 303.56,234.97 301.09,238.63C298.62,242.29 293.41,247 285.05,243.76C276.68,240.52 277.46,224.09 279.42,218.88C281.38,213.66 280.39,209.83 277.8,212.74C275.21,215.65 265.02,231.65 255.63,225.62C246.24,219.6 254.24,197.97 254.85,196.05C255.46,194.12 254.11,193.34 252.32,197.02C250.25,201.29 245.01,223.12 252.86,229.78C260.71,236.45 274.43,223.1 274.43,223.1C274.43,223.1 271.51,244.02 282.62,248.54C293.72,253.06 301.16,243.42 301.16,243.42C300.9,249.1 307.37,252.87 307.37,252.87C312.62,254.48 316.18,252.16 316.18,252.16L316.18,247.3C311.2,250.46 308.47,249.47 307.28,248.61L307.28,248.6Z" style="fill:rgb(83,59,106);fill-rule:nonzero;"/>
        <path d="M188.25,353.6C188.99,355.36 185.31,361.17 181.52,363.25C179.5,364.36 177.74,364.37 175.61,363.52C172.23,362.15 172.06,358.75 169.79,356.23C169.1,354.96 168.82,354.02 169.63,353.61C171.61,352.9 174.85,360.89 179.65,359.57C181.83,358.97 182.41,357.53 184.01,356.18C185.33,355.07 187.59,352.62 188.23,353.59L188.25,353.6Z" style="fill:rgb(83,59,106);fill-rule:nonzero;"/>
        <path d="M354.98,232.41C356.84,232.43 356.65,231.95 357.33,230.38C357.82,229.25 358.53,228.18 359.27,228.45C359.78,228.67 360.08,230.44 360.3,231.33C360.54,232.31 360.35,232.36 361.45,232.58C363,233.06 362.9,232.78 364.37,233.39C365.94,234.04 364,235.09 363.22,235.4C362.46,235.7 361.86,235.95 361.77,236.28C361.7,236.57 362.19,237.58 362.51,238.57C362.76,239.33 363.32,240.75 363.04,240.93C362.8,241.09 362.4,241.45 361.4,240.61C360.64,239.98 360.3,239.69 359.9,239.23C359.5,238.77 358.64,237.98 358.31,237.83C358.14,237.76 356.95,238.8 356.43,239.13C353.92,240.74 353.26,240.45 353.11,239.81C353.02,239.42 353.56,238.13 354.3,237.27C354.78,236.72 355.21,235.99 355.19,235.76C355.15,235.37 353.83,234.61 353.28,234.36C352.53,234.03 351.49,233.1 351.44,232.65C351.8,231.92 353.93,232.29 354.97,232.38L354.98,232.41Z" style="fill:rgb(83,59,106);fill-rule:nonzero;"/>
        <path d="M345.63,248.87C347.49,248.89 347.3,248.41 347.98,246.84C348.47,245.71 349.18,244.64 349.92,244.91C350.43,245.13 350.73,246.9 350.95,247.79C351.19,248.77 351,248.82 352.1,249.04C353.65,249.52 353.55,249.24 355.02,249.85C356.59,250.5 354.65,251.55 353.87,251.86C353.09,252.17 352.51,252.41 352.42,252.74C352.35,253.03 352.84,254.04 353.16,255.03C353.41,255.79 353.97,257.21 353.69,257.39C353.45,257.55 353.05,257.91 352.05,257.07C351.29,256.44 350.95,256.15 350.55,255.69C350.15,255.23 349.29,254.44 348.96,254.29C348.79,254.22 347.6,255.26 347.08,255.59C344.57,257.2 343.91,256.91 343.76,256.27C343.67,255.88 344.21,254.59 344.95,253.73C345.43,253.18 345.86,252.45 345.84,252.22C345.8,251.83 344.48,251.07 343.93,250.82C343.18,250.49 342.14,249.56 342.09,249.11C342.45,248.38 344.58,248.75 345.62,248.84L345.63,248.87Z" style="fill:rgb(83,59,106);fill-rule:nonzero;"/>
        <path d="M349.92,265.34C351.78,265.36 351.59,264.88 352.27,263.31C352.76,262.18 353.47,261.11 354.21,261.38C354.72,261.6 355.02,263.37 355.24,264.26C355.48,265.24 355.29,265.29 356.39,265.51C357.94,265.99 357.84,265.71 359.31,266.32C360.88,266.97 358.94,268.02 358.16,268.33C357.38,268.64 356.8,268.88 356.71,269.21C356.64,269.5 357.13,270.51 357.45,271.5C357.7,272.26 358.26,273.68 357.98,273.86C357.74,274.02 357.34,274.38 356.34,273.54C355.58,272.91 355.24,272.62 354.84,272.16C354.44,271.7 353.58,270.91 353.25,270.76C353.08,270.69 351.89,271.73 351.37,272.06C348.86,273.67 348.2,273.38 348.05,272.74C347.96,272.35 348.5,271.06 349.24,270.2C349.72,269.65 350.15,268.92 350.13,268.69C350.09,268.3 348.77,267.54 348.22,267.29C347.47,266.96 346.43,266.03 346.38,265.58C346.74,264.85 348.87,265.22 349.91,265.31L349.92,265.34Z" style="fill:rgb(83,59,106);fill-rule:nonzero;"/>
        <path d="M368.49,272.95C370.35,272.97 370.16,272.49 370.84,270.92C371.33,269.79 372.04,268.72 372.78,268.99C373.29,269.21 373.59,270.98 373.81,271.87C374.05,272.85 373.86,272.9 374.96,273.12C376.51,273.6 376.41,273.32 377.88,273.93C379.45,274.58 377.51,275.63 376.73,275.94C375.95,276.25 375.37,276.49 375.28,276.82C375.21,277.11 375.7,278.12 376.02,279.11C376.27,279.87 376.83,281.29 376.55,281.47C376.31,281.63 375.91,281.99 374.91,281.15C374.15,280.52 373.81,280.23 373.41,279.77C373.01,279.31 372.15,278.52 371.82,278.37C371.65,278.3 370.46,279.34 369.94,279.67C367.43,281.28 366.77,280.99 366.62,280.35C366.53,279.96 367.07,278.67 367.81,277.81C368.29,277.26 368.72,276.53 368.7,276.3C368.66,275.91 367.34,275.15 366.79,274.9C366.04,274.57 365,273.64 364.95,273.19C365.31,272.46 367.44,272.83 368.48,272.92L368.49,272.95Z" style="fill:rgb(83,59,106);fill-rule:nonzero;"/>
        <path d="M371.89,228.94C373.75,228.96 373.56,228.48 374.24,226.91C374.73,225.78 375.44,224.71 376.18,224.98C376.69,225.2 376.99,226.97 377.21,227.86C377.45,228.84 377.26,228.89 378.36,229.11C379.91,229.59 379.81,229.31 381.28,229.92C382.85,230.57 380.91,231.62 380.13,231.93C379.35,232.24 378.77,232.48 378.68,232.81C378.61,233.1 379.1,234.11 379.42,235.1C379.67,235.86 380.23,237.28 379.95,237.46C379.71,237.62 379.31,237.98 378.31,237.14C377.55,236.51 377.21,236.22 376.81,235.76C376.41,235.3 375.55,234.51 375.22,234.36C375.05,234.29 373.86,235.33 373.34,235.66C370.83,237.27 370.17,236.98 370.02,236.34C369.93,235.95 370.47,234.66 371.21,233.8C371.69,233.25 372.12,232.52 372.1,232.29C372.06,231.9 370.74,231.14 370.19,230.89C369.44,230.56 368.4,229.63 368.35,229.18C368.71,228.45 370.84,228.82 371.88,228.91L371.89,228.94Z" style="fill:rgb(83,59,106);fill-rule:nonzero;"/>
        <path d="M388.94,237.76C390.8,237.78 390.61,237.3 391.29,235.73C391.78,234.6 392.49,233.53 393.23,233.8C393.74,234.02 394.04,235.79 394.26,236.68C394.5,237.66 394.31,237.71 395.41,237.93C396.96,238.41 396.86,238.13 398.33,238.74C399.9,239.39 397.96,240.44 397.18,240.75C396.4,241.06 395.82,241.3 395.73,241.63C395.66,241.92 396.15,242.93 396.47,243.92C396.72,244.68 397.28,246.1 397,246.28C396.76,246.44 396.36,246.8 395.36,245.96C394.6,245.33 394.26,245.04 393.86,244.58C393.46,244.12 392.6,243.33 392.27,243.18C392.1,243.11 390.91,244.15 390.39,244.48C387.88,246.09 387.22,245.8 387.07,245.16C386.98,244.77 387.52,243.48 388.26,242.62C388.74,242.07 389.17,241.34 389.15,241.11C389.11,240.72 387.79,239.96 387.24,239.71C386.49,239.38 385.45,238.45 385.4,238C385.76,237.27 387.89,237.64 388.93,237.73L388.94,237.76Z" style="fill:rgb(83,59,106);fill-rule:nonzero;"/>
        <path d="M392.94,253.84C394.8,253.86 394.61,253.38 395.29,251.81C395.78,250.68 396.49,249.61 397.23,249.88C397.74,250.1 398.04,251.87 398.26,252.76C398.5,253.74 398.31,253.79 399.41,254.01C400.96,254.49 400.86,254.21 402.33,254.82C403.9,255.47 401.96,256.52 401.18,256.83C400.4,257.14 399.82,257.38 399.73,257.71C399.66,258 400.15,259.01 400.47,260C400.72,260.76 401.28,262.18 401,262.36C400.76,262.52 400.36,262.88 399.36,262.04C398.6,261.41 398.26,261.12 397.86,260.66C397.46,260.2 396.6,259.41 396.27,259.26C396.1,259.19 394.91,260.23 394.39,260.56C391.88,262.17 391.22,261.88 391.07,261.24C390.98,260.85 391.52,259.56 392.26,258.7C392.74,258.15 393.17,257.42 393.15,257.19C393.11,256.8 391.79,256.04 391.24,255.79C390.49,255.46 389.45,254.53 389.4,254.08C389.76,253.35 391.89,253.72 392.93,253.81L392.94,253.84Z" style="fill:rgb(83,59,106);fill-rule:nonzero;"/>
        <path d="M385.39,268.34C387.25,268.36 387.06,267.88 387.74,266.31C388.23,265.18 388.94,264.11 389.68,264.38C390.19,264.6 390.49,266.37 390.71,267.26C390.95,268.24 390.76,268.29 391.86,268.51C393.41,268.99 393.31,268.71 394.78,269.32C396.35,269.97 394.41,271.02 393.63,271.33C392.85,271.64 392.27,271.88 392.18,272.21C392.11,272.5 392.6,273.51 392.92,274.5C393.17,275.26 393.73,276.68 393.45,276.86C393.21,277.02 392.81,277.38 391.81,276.54C391.05,275.91 390.71,275.62 390.31,275.16C389.91,274.7 389.05,273.91 388.72,273.76C388.55,273.69 387.36,274.73 386.84,275.06C384.33,276.67 383.67,276.38 383.52,275.74C383.43,275.35 383.97,274.06 384.71,273.2C385.19,272.65 385.62,271.92 385.6,271.69C385.56,271.3 384.24,270.54 383.69,270.29C382.94,269.96 381.9,269.03 381.85,268.58C382.21,267.85 384.34,268.22 385.38,268.31L385.39,268.34Z" style="fill:rgb(83,59,106);fill-rule:nonzero;"/>
    </g>
</svg>
