<svg width="234" height="125" viewBox="0 0 234 125" fill="none" xmlns="http://www.w3.org/2000/svg">
<path d="M11.5643 119.027L3.35878 119.233C1.6538 119.275 0.256062 117.903 0.260646 116.199C0.299686 105.699 2.39801 70.7715 27.0939 44.9314C28.2166 43.7575 30.0771 43.6909 31.2896 44.7723L36.9108 49.7978C38.1553 50.9129 38.2583 52.8212 37.1479 54.0659C31.5282 60.3671 16.4237 80.4548 14.4982 116.176C14.4124 117.746 13.133 118.991 11.5596 119.027L11.5643 119.027Z" fill="#72BC8C"/>
<path d="M25.0386 118.689L32.3048 118.508C33.9017 118.467 35.1959 117.194 35.2495 115.595C35.5134 107.584 37.5749 84.3951 52.2229 69.1028C53.3456 67.9289 53.2978 66.0642 52.1576 64.9094L46.4238 59.1207C45.1964 57.884 43.1907 57.9377 42.0226 59.2372C36.6071 65.2571 23.1765 83.3302 21.9429 115.557C21.8764 117.297 23.3007 118.736 25.0386 118.689Z" fill="#72BC8C"/>
<path d="M42.1366 115.156C42.1977 107.37 43.7125 86.7347 57.2739 73.8142C58.4276 72.7162 60.2173 72.6666 61.4021 73.7285L64.3319 76.3545C65.5259 77.4261 65.6688 79.2369 64.6708 80.4937C61.037 85.0743 53.3755 96.8781 53.3106 115.066C53.3032 116.694 51.9938 118.014 50.3687 118.054L45.235 118.18C43.53 118.222 42.1229 116.85 42.1368 115.146L42.1366 115.156Z" fill="#72BC8C"/>
<path d="M63.7669 117.727L66.9231 117.65C68.4684 117.613 69.7372 116.415 69.86 114.869C70.2408 110.1 71.6636 100.019 77.0117 92.7397C77.988 91.4119 77.7804 89.5574 76.4867 88.5349L73.9221 86.5141C72.55 85.4334 70.543 85.7311 69.5638 87.1761C66.6944 91.4049 61.5626 100.755 60.6826 114.51C60.5684 116.282 62.0009 117.768 63.7762 117.727L63.7669 117.727Z" fill="#72BC8C"/>
<path d="M44.5305 43.1132L38.7749 37.2583C37.5799 36.0411 37.6236 34.0848 38.8727 32.9234C46.5692 25.7817 73.5158 3.45676 109.251 3.83825C110.88 3.85505 112.199 5.16915 112.234 6.79414L112.404 14.3323C112.443 16.0043 111.118 17.3797 109.45 17.423C101.01 17.6226 76.0187 20.3092 48.6143 43.3034C47.4111 44.3157 45.6248 44.2293 44.5259 43.1084L44.5305 43.1132Z" fill="#72BC8C"/>
<path d="M53.9818 52.7267L59.0781 57.9082C60.2 59.0485 62.0147 59.1215 63.219 58.067C69.25 52.7851 87.5967 38.4527 108.77 38.7087C110.393 38.7301 111.721 37.4205 111.785 35.7979L112.094 27.6567C112.161 25.9169 110.746 24.4878 109.003 24.5198C100.907 24.6763 78.5335 27.2117 54.1517 48.3232C52.8374 49.4642 52.7592 51.4854 53.9771 52.7266L53.9818 52.7267Z" fill="#72BC8C"/>
<path d="M68.2444 62.8007C73.9701 57.5254 90.082 44.5365 108.78 45.6185C110.369 45.7094 111.628 46.9845 111.664 48.5766L111.745 52.5122C111.78 54.1185 110.55 55.4587 108.951 55.5881C103.123 56.0636 89.2665 58.5327 75.9393 70.9051C74.7478 72.0116 72.8856 71.9562 71.7454 70.8014L68.1419 67.1354C66.9468 65.9183 66.9859 63.9572 68.2397 62.8006L68.2444 62.8007Z" fill="#72BC8C"/>
<path d="M81.1411 80.3507L83.3526 82.6022C84.4378 83.704 86.1766 83.8127 87.3881 82.8475C91.1325 79.8655 99.4635 74.021 108.432 72.9566C110.07 72.7624 111.279 71.3465 111.141 69.7002L110.865 66.4451C110.715 64.7047 109.127 63.4402 107.403 63.7121C102.356 64.5073 92.0198 67.1432 81.3685 75.897C79.9982 77.0226 79.8909 79.0853 81.1317 80.3505L81.1411 80.3507Z" fill="#72BC8C"/>
<path d="M219.153 119.557L227.356 119.802C229.059 119.853 230.468 118.489 230.468 116.785C230.479 106.285 228.559 71.3469 203.999 45.3824C202.883 44.2001 201.022 44.1258 199.803 45.2035L194.154 50.1991C192.902 51.304 192.789 53.2117 193.894 54.4642C199.483 60.7938 214.484 80.9595 216.229 116.687C216.307 118.256 217.581 119.508 219.153 119.552L219.153 119.557Z" fill="#72BC8C"/>
<path d="M205.681 119.152L198.416 118.935C196.816 118.886 195.533 117.606 195.488 116.009C195.264 107.995 193.322 84.7963 178.751 69.4292C177.635 68.2516 177.691 66.3847 178.841 65.2397L184.607 59.4772C185.839 58.2449 187.846 58.3134 189.007 59.6141C194.391 65.6618 207.729 83.8007 208.8 116.038C208.856 117.776 207.426 119.21 205.686 119.157L205.681 119.152Z" fill="#72BC8C"/>
<path d="M188.596 115.529C188.577 107.741 187.163 87.0997 173.67 74.111C172.523 73.0077 170.732 72.9493 169.541 74.0089L166.599 76.6211C165.399 77.6851 165.247 79.4979 166.239 80.757C169.852 85.3573 177.45 97.2005 177.423 115.389C177.42 117.018 178.725 118.346 180.352 118.395L185.488 118.551C187.191 118.602 188.605 117.238 188.6 115.534L188.596 115.529Z" fill="#72BC8C"/>
<path d="M166.957 117.989L163.801 117.892C162.253 117.844 160.992 116.64 160.88 115.097C160.524 110.324 159.154 100.235 153.842 92.9317C152.871 91.598 153.09 89.7446 154.392 88.73L156.967 86.719C158.346 85.6453 160.352 85.953 161.325 87.4041C164.173 91.6475 169.254 101.025 170.069 114.785C170.175 116.557 168.73 118.037 166.957 117.984L166.957 117.989Z" fill="#72BC8C"/>
<path d="M186.572 43.4777L192.358 37.6547C193.562 36.4452 193.526 34.4869 192.282 33.3202C184.621 26.1366 157.792 3.6741 122.051 3.87923C120.426 3.89069 119.099 5.19565 119.054 6.81867L118.844 14.3568C118.798 16.0267 120.111 17.4111 121.785 17.4619C130.224 17.7034 155.202 20.5226 182.489 43.6536C183.689 44.669 185.469 44.5957 186.581 43.4779L186.572 43.4777Z" fill="#72BC8C"/>
<path d="M177.073 53.0392L171.951 58.198C170.824 59.3343 169.011 59.3974 167.812 58.3351C161.808 53.0232 143.535 38.5972 122.361 38.7448C120.736 38.7563 119.412 37.4373 119.359 35.8166L119.091 27.6705C119.035 25.9277 120.455 24.5076 122.196 24.5507C130.292 24.7509 152.65 27.3974 176.924 48.6326C178.233 49.7774 178.3 51.8022 177.073 53.0346L177.073 53.0392Z" fill="#72BC8C"/>
<path d="M162.759 63.0398C157.06 57.7355 141.015 44.6648 122.313 45.6528C120.724 45.7355 119.459 47.0044 119.415 48.5946L119.317 52.5305C119.273 54.1348 120.488 55.4792 122.09 55.622C127.917 56.1276 141.758 58.6667 155.02 71.1099C156.209 72.2236 158.069 72.1757 159.214 71.0212L162.834 67.3743C164.033 66.1647 164.007 64.2019 162.759 63.0398Z" fill="#72BC8C"/>
<path d="M149.775 80.5283L147.551 82.7687C146.458 83.8682 144.719 83.9661 143.513 82.9927C139.785 79.9903 131.481 74.1051 122.52 72.9916C120.882 72.7869 119.678 71.363 119.827 69.7237L120.118 66.4686C120.274 64.7263 121.868 63.4748 123.593 63.7522C128.638 64.5717 138.959 67.2631 149.561 76.0684C150.927 77.2006 151.022 79.2683 149.775 80.5236L149.775 80.5283Z" fill="#72BC8C"/>
</svg>
