<?xml version="1.0" encoding="UTF-8"?>
<svg id="Design" xmlns="http://www.w3.org/2000/svg" version="1.1" viewBox="0 0 700 700">
  <defs>
    <style>
      .cls-1 {
        fill: #fac25e;
      }

      .cls-1, .cls-2, .cls-3 {
        stroke-width: 0px;
      }

      .cls-4 {
        stroke: #533b6a;
        stroke-miterlimit: 10;
        stroke-width: 1.88px;
      }

      .cls-4, .cls-2 {
        fill: #533b6a;
      }

      .cls-3 {
        fill: #fff0d9;
      }
    </style>
  </defs>
  <path class="cls-3" d="M308.67,148.63c8.95-32.43-2.32-81.81-49.08-90.18-46.77-8.37-101.62,16.41-91.39,76.07,10.23,59.66,63.22,64.58,87.39,60.26,24.17-4.32,47.71-26.69,53.09-46.15Z"/>
  <path class="cls-3" d="M557.88,171.15c8.14-29.5-2.11-74.43-44.66-82.05-42.55-7.61-92.46,14.93-83.15,69.21,9.3,54.28,57.52,58.76,79.51,54.83,21.99-3.93,43.41-24.29,48.3-41.99Z"/>
  <path class="cls-3" d="M646.62,386.7c8.44-30.58-2.18-77.16-46.29-85.05s-95.84,15.48-86.2,71.74c9.64,56.27,59.62,60.91,82.42,56.84,22.8-4.07,45-25.18,50.07-43.53Z"/>
  <path class="cls-3" d="M512.88,607.09c8.67-31.42-2.24-79.27-47.56-87.38-45.32-8.11-98.47,15.9-88.56,73.71,9.91,57.81,61.26,62.58,84.68,58.39,23.42-4.19,46.23-25.87,51.44-44.72Z"/>
  <path class="cls-3" d="M252.28,559.59c8.41-30.48-2.18-76.9-46.14-84.76-43.96-7.86-95.51,15.42-85.9,71.5,9.61,56.08,59.42,60.7,82.14,56.64,22.72-4.06,44.85-25.09,49.9-43.38Z"/>
  <path class="cls-3" d="M188.32,362.95c8.41-30.48-2.18-76.9-46.14-84.76-43.96-7.86-95.51,15.42-85.9,71.5,9.61,56.08,59.42,60.7,82.14,56.64,22.72-4.06,44.85-25.09,49.9-43.38Z"/>
  <path class="cls-2" d="M352.65,342.92l-116.28-100.45s11.12.42,16.68-1.3c4.33-1.34.91-6.7-7.24-10.31-3.8-1.69-18.52-7.08-25.26-9.21-6.05-1.91-15.35-4.97-13.62,7.46,1.84,13.21,8.92,31.46,11.33,35.66,2.42,4.2,5.7,8.17,7.5,2.36s.08-13.53,1.63-15.97l117.87,101.07c.31-2.31,1.13-4.53,2.64-6.47,1.43-1.44,3.04-2.36,4.74-2.84Z"/>
  <path class="cls-1" d="M363.33,469.91c10.01.33,65.18-51.1,97.09-106.73,31.91-55.63,5.9-104.76-38.67-106.13s-66.86,38.31-66.86,38.31c0,0-30-53.38-87.98-31.73s-36.64,105.96.33,141.06c36.96,35.1,72.86,64.47,96.11,65.23Z"/>
  <path class="cls-2" d="M441.04,419.27l-85.63-73.97c-1.99-1.72-4.99-1.81-6.95-.06-.06.06-.13.12-.19.18-.24.22-.45.47-.64.73-.48.67-.88,1.37-1.21,2.09-.98,2.13-.34,4.67,1.44,6.2l85.66,73.45c2.07,1.77,5.13,1.72,7.14-.13l.52-.48c2.36-2.17,2.3-5.92-.13-8.01Z"/>
  <path class="cls-2" d="M435.34,415.68s7.98-1.52,12.2-1.62c4.22-.1,9.33-.58,10.13.07l25.08,20.2c7.28,5.81,3.41,8.82.92,9.53l-15.9,2.69c-1.31.37-2.24,1.53-2.32,2.88l-1.42,12.8c-.15,2.59-1.35,6.61-5.74,2.79,0,0-25.4-19.18-26.95-20.59-1.25-1.15-2.4-4.35-2.26-8.16.14-3.81.03-12.66.03-12.66.13-3.72,2.65-6.92,6.23-7.93Z"/>
  <path class="cls-1" d="M374.4,583.67l.58-38.02c0-3.08,1.58-5.59,3.53-5.59h17.45c3.02,0,5.61,1.79,6.04,4.06,1.79,46.6.86,74.1.86,74.1,0,.95-.14,3.18-1.94,2.23h0c-.61,0-1.1-.79-1.09-1.76.19-11.29.4-71.52-1.43-72.97-2.81-2.22-13.65-2.18-18.92-2.18-.94,0-1.59.12-1.7,2.69-1.94,44.02,0,72.26,0,72.26,0,1.08-.55,1.95-1.24,1.95h-.33c-.68,0-1.81.23-1.81-36.77Z"/>
  <path class="cls-1" d="M495.25,594.5l.58-28.95c0-2.35,1.58-4.25,3.53-4.25h17.45c3.02,0,5.61,1.37,6.04,3.09,1.79,35.47.86,56.41.86,56.41,0,.72-.14,2.42-1.94,1.7h0c-.61,0-1.1-.6-1.09-1.34.19-8.59.4-54.45-1.43-55.55-2.81-1.69-13.65-1.66-18.92-1.66-.94,0-1.59.09-1.7,2.05-1.94,33.52,0,55.01,0,55.01,0,.82-.55,1.49-1.24,1.49h-.33c-.68,0-1.81.18-1.81-28Z"/>
  <path class="cls-4" d="M454.61,588.49l.58-33.66c0-2.73,1.58-4.94,3.53-4.94h17.45c3.02,0,5.61,1.59,6.04,3.59,1.79,41.25.86,65.59.86,65.59,0,.84-.14,2.82-1.94,1.98h0c-.61,0-1.1-.7-1.09-1.56.19-9.99.4-63.31-1.43-64.59-2.81-1.97-13.65-1.93-18.92-1.93-.94,0-1.59.11-1.7,2.39-1.94,38.97,0,63.96,0,63.96,0,.95-.55,1.73-1.24,1.73h-.33c-.68,0-1.81.2-1.81-32.55Z"/>
  <path class="cls-1" d="M414.52,599.54l.58-23.47c0-1.9,1.58-3.45,3.53-3.45h17.45c3.02,0,5.61,1.11,6.04,2.5,1.79,28.76.86,45.74.86,45.74,0,.59-.14,1.96-1.94,1.38h0c-.61,0-1.1-.49-1.09-1.09.19-6.97.4-44.15-1.43-45.04-2.81-1.37-13.65-1.34-18.92-1.34-.94,0-1.59.07-1.7,1.66-1.94,27.18,0,44.6,0,44.6,0,.67-.55,1.21-1.24,1.21h-.33c-.68,0-1.81.14-1.81-22.7Z"/>
  <path class="cls-2" d="M607.97,406.58c3.05-2.35,3.78-2.4,5.26-3.94,1.47-1.55.42-2.31-4.09-9.2s-17.61-25.32-20.89-29.04c-3.28-3.73-3.96-3.49-6.3-.45s.63,6.43,5.08,13.35c4.45,6.92,19.68,30.25,20.94,29.29Z"/>
  <path class="cls-1" d="M622.92,434.54c6.19-4.57,7.44-4.98,10.62-7.74,3.19-2.76,1.79-3.28-2.47-10.34-4.27-7.06-17.41-25.46-21.12-28.88s-4.95-2.79-10.29,2.37c-5.34,5.16-1.99,8.28,2.16,15.41,4.15,7.14,18.54,31.07,21.09,29.18Z"/>
  <path class="cls-2" d="M490.94,216.96c.09-32.75-1.61-137.42,0-139.03,1.61-1.61,2.68,3.22,2.68,10.2s2.42,141.18,0,144.4c-2.42,3.22-2.71-5.9-2.68-15.57Z"/>
  <path class="cls-2" d="M433.14,151.74c32.75.1,137.42-1.85,139.03,0,1.61,1.85-3.22,3.08-10.2,3.08s-141.18,2.78-144.4,0,5.9-3.11,15.57-3.08Z"/>
  <path class="cls-1" d="M164.16,504.17c4.4-4.12,52.8-.77,71.32,0,18.52.77,32.09.77,33.54,5.53s-68.21,0-86.24,0-24.9.36-18.62-5.53Z"/>
  <path class="cls-2" d="M164.16,528.07c4.4-4.12,52.8-.77,71.32,0,18.52.77,32.09.77,33.54,5.53s-68.21,0-86.24,0-24.9.36-18.62-5.53Z"/>
  <path class="cls-1" d="M164.16,551.97c4.4-4.12,52.8-.77,71.32,0,18.52.77,32.09.77,33.54,5.53,1.45,4.76-68.21,0-86.24,0s-24.9.36-18.62-5.53Z"/>
  <path class="cls-1" d="M164.16,575.87c4.4-4.12,52.8-.77,71.32,0s32.09.77,33.54,5.53-68.21,0-86.24,0-24.9.36-18.62-5.53Z"/>
  <path class="cls-1" d="M549.74,301.46c-26.83,15.16-28.48,45.92-19.9,57.35,32.48,43.22,69.02,4,72.12-21.74,3.1-25.74-25.4-50.77-52.23-35.61ZM595.08,336.03c-2.7,22.46-30.9,56.56-59.24,18.86-7.49-9.97-6.54-33.96,16.87-47.19,23.4-13.22,45.07,5.87,42.37,28.32Z"/>
  <path class="cls-2" d="M251.94,121.1c15.01,3.79,36.07,9.27,38.19,3.69,3.64-9.63-15.66-52.76-23.95-38.92-13.02,21.74-21.23,33.47-14.24,35.23Z"/>
  <path class="cls-1" d="M239.85,124.81c-4.98-12.21,29.19-45.3,21.8-50.39-12.77-5.52-26.94-9.4-41.74-1.04-38.29,21.63-40.65,65.54-28.39,81.85,42.48,56.53,88.05,19.28,99.07-16.46,0-6.79-48.28-7.94-50.74-13.97Z"/>
  <path class="cls-2" d="M556.68,332.49c3.93.05,3.52-.97,4.97-4.29,1.03-2.38,2.54-4.64,4.09-4.08,1.09.47,1.7,4.21,2.17,6.09.52,2.07.1,2.18,2.43,2.64,3.27,1.02,3.05.43,6.16,1.71,3.32,1.37-.78,3.6-2.43,4.24-1.6.63-2.88,1.16-3.05,1.86-.16.62.88,2.74,1.56,4.85.52,1.6,1.71,4.6,1.13,4.98-.52.34-1.36,1.09-3.46-.67-1.6-1.34-2.32-1.94-3.16-2.9s-2.65-2.64-3.36-2.95c-.36-.16-2.88,2.05-3.96,2.75-5.3,3.41-6.69,2.8-7.01,1.44-.19-.82.94-3.55,2.52-5.36,1.02-1.16,1.93-2.71,1.88-3.18-.09-.83-2.88-2.44-4.04-2.95-1.59-.71-3.77-2.66-3.88-3.62.75-1.55,5.27-.76,7.45-.57Z"/>
  <path class="cls-2" d="M140.56,525.45c2.87.04,2.57-.7,3.62-3.13.75-1.73,1.85-3.38,2.98-2.97.79.34,1.24,3.07,1.58,4.44.38,1.51.08,1.58,1.77,1.92,2.39.75,2.22.31,4.49,1.24,2.42,1-.57,2.62-1.77,3.09-1.16.46-2.1.84-2.22,1.36-.11.45.64,2,1.14,3.53.38,1.17,1.25,3.35.82,3.63-.38.25-.99.8-2.52-.49-1.16-.98-1.69-1.41-2.3-2.12s-1.93-1.93-2.45-2.15c-.26-.11-2.1,1.49-2.89,2-3.86,2.48-4.87,2.04-5.1,1.05-.14-.6.69-2.59,1.84-3.9.74-.85,1.41-1.97,1.37-2.32-.06-.6-2.1-1.77-2.94-2.15-1.16-.51-2.75-1.94-2.83-2.64.55-1.13,3.84-.56,5.43-.41Z"/>
  <path class="cls-2" d="M510.87,131.96c2.31.03,2.06-.57,2.91-2.52.61-1.4,1.49-2.72,2.4-2.39.64.27,1,2.47,1.27,3.57.3,1.21.06,1.28,1.43,1.55,1.92.6,1.79.25,3.61,1,1.94.8-.46,2.11-1.43,2.49-.94.37-1.69.68-1.79,1.09-.09.36.51,1.61.92,2.84.31.94,1,2.69.66,2.92-.3.2-.8.64-2.03-.39-.94-.78-1.36-1.14-1.85-1.7s-1.55-1.55-1.97-1.73c-.21-.09-1.69,1.2-2.32,1.61-3.11,2-3.92,1.64-4.11.84-.11-.48.55-2.08,1.48-3.14.6-.68,1.13-1.59,1.1-1.86-.05-.49-1.69-1.43-2.37-1.73-.93-.41-2.21-1.56-2.27-2.12.44-.91,3.09-.45,4.37-.33Z"/>
  <path class="cls-1" d="M530.05,109.65c2.31.03,2.06-.57,2.91-2.52.61-1.4,1.49-2.72,2.4-2.39.64.27,1,2.47,1.27,3.57.3,1.21.06,1.28,1.43,1.55,1.92.6,1.79.25,3.61,1,1.94.8-.46,2.11-1.43,2.49-.94.37-1.69.68-1.79,1.09-.09.36.51,1.61.92,2.84.31.94,1,2.69.66,2.92-.3.2-.8.64-2.03-.39-.94-.78-1.36-1.14-1.85-1.7s-1.55-1.55-1.97-1.73c-.21-.09-1.69,1.2-2.32,1.61-3.11,2-3.92,1.64-4.11.84-.11-.48.55-2.08,1.48-3.14.6-.68,1.13-1.59,1.1-1.86-.05-.49-1.69-1.43-2.37-1.73-.93-.41-2.21-1.56-2.27-2.12.44-.91,3.09-.45,4.37-.33Z"/>
  <path class="cls-1" d="M521.69,196.12c2.31.03,2.06-.57,2.91-2.52.61-1.4,1.49-2.72,2.4-2.39.64.27,1,2.47,1.27,3.57.3,1.21.06,1.28,1.43,1.55,1.92.6,1.79.25,3.61,1,1.94.8-.46,2.11-1.43,2.49-.94.37-1.69.68-1.79,1.09-.09.36.51,1.61.92,2.84.31.94,1,2.69.66,2.92-.3.2-.8.64-2.03-.39-.94-.78-1.36-1.14-1.85-1.7s-1.55-1.55-1.97-1.73c-.21-.09-1.69,1.2-2.32,1.61-3.11,2-3.92,1.64-4.11.84-.11-.48.55-2.08,1.48-3.14.6-.68,1.13-1.59,1.1-1.86-.05-.49-1.69-1.43-2.37-1.73-.93-.41-2.21-1.56-2.27-2.12.44-.91,3.09-.45,4.37-.33Z"/>
  <path class="cls-1" d="M470.72,182.09c2.31.03,2.06-.57,2.91-2.52.61-1.4,1.49-2.72,2.4-2.39.64.27,1,2.47,1.27,3.57.3,1.21.06,1.28,1.43,1.55,1.92.6,1.79.25,3.61,1,1.94.8-.46,2.11-1.43,2.49-.94.37-1.69.68-1.79,1.09-.09.36.51,1.61.92,2.84.31.94,1,2.69.66,2.92-.3.2-.8.64-2.03-.39-.94-.78-1.36-1.14-1.85-1.7s-1.55-1.55-1.97-1.73c-.21-.09-1.69,1.2-2.32,1.61-3.11,2-3.92,1.64-4.11.84-.11-.48.55-2.08,1.48-3.14.6-.68,1.13-1.59,1.1-1.86-.05-.49-1.69-1.43-2.37-1.73-.93-.41-2.21-1.56-2.27-2.12.44-.91,3.09-.45,4.37-.33Z"/>
  <path class="cls-1" d="M457.71,85.56c2.31.03,2.06-.57,2.91-2.52.61-1.4,1.49-2.72,2.4-2.39.64.27,1,2.47,1.27,3.57.3,1.21.06,1.28,1.43,1.55,1.92.6,1.79.25,3.61,1,1.94.8-.46,2.11-1.43,2.49-.94.37-1.69.68-1.79,1.09-.09.36.51,1.61.92,2.84.31.94,1,2.69.66,2.92-.3.2-.8.64-2.03-.39-.94-.78-1.36-1.14-1.85-1.7s-1.55-1.55-1.97-1.73c-.21-.09-1.69,1.2-2.32,1.61-3.11,2-3.92,1.64-4.11.84-.11-.48.55-2.08,1.48-3.14.6-.68,1.13-1.59,1.1-1.86-.05-.49-1.69-1.43-2.37-1.73-.93-.41-2.21-1.56-2.27-2.12.44-.91,3.09-.45,4.37-.33Z"/>
  <path class="cls-1" d="M49.71,324.24c15.27-.46,23.22-.32,20.99-4.77s-21.31-3.98-27.04-3.66c-5.73.32-9.86,6.04-6.2,7.63,3.66,1.59,8.74.9,12.25.8Z"/>
  <path class="cls-1" d="M73.94,304.87c3.56-2.38-2.07-9.54-6.84-12.56-4.77-3.02-12.94-8.91-15.53-7.32-2.59,1.59-.37,7.16,6.31,12.72,6.68,5.57,12.25,9.7,16.06,7.16Z"/>
  <path class="cls-1" d="M86.5,291.35c3.38-.82.95-5.25-.95-8.27-1.91-3.02-5.57-6.04-7.47-3.66s3.18,13.2,8.43,11.93Z"/>
  <path class="cls-2" d="M105.51,331.58c4.39-.91,6.59,10.38,8.24,14.01s5.29-2.12,16.46-8.88c11.82-7.15,14.19-6.94,14.85-3.48.66,3.46-28.25,22.9-32.57,21.05-5.64-2.42-10.92-21.87-6.97-22.69Z"/>
  <path class="cls-2" d="M163.81,301.56c-6.82-2.27-46.01-18.54-49.15-20.06-3.14-1.52-4.55-2.82-6.17,5.85-1.62,8.66-6.17,19.27-14.4,37.13-8.23,17.86-19.36,34.38-21.87,38.12-3.43,5.11-1.62,6.17,1.52,8.01,3.14,1.84,23.17,12.24,32.59,16.89,9.42,4.66,21.79,9.11,25.66,8.53,2.18-.33,13.75-19.14,23.82-40.26,10.07-21.11,14.56-40.17,15.1-46.45.54-6.28-.27-5.5-7.1-7.77ZM152.4,352.81c-10.43,21.82-20.41,38.29-22.6,38.29-3.05,0-18.34-6.39-27.29-10.73-8.95-4.35-26.86-12.26-26.86-14.17,0-1.57,7.82-12.17,14.6-24.6s17.12-35.37,19.29-42.24c2.17-6.87,2.78-12.43,3.82-13.21s12.86,5.63,21.29,9.03c8.43,3.4,31.81,10.62,32.42,12.53s-4.26,23.29-14.69,45.11Z"/>
</svg>