<svg width="35" height="39" viewBox="0 0 35 39" fill="none" xmlns="http://www.w3.org/2000/svg">
    <path
        d="M2.3957 28.3852C2.42389 23.8559 6.14445 20.2072 10.7058 20.2356C15.2672 20.2639 18.942 23.9587 18.9138 28.488C18.8856 33.0173 15.1651 36.666 10.6037 36.6376C6.04237 36.6092 2.36751 32.9144 2.3957 28.3852Z"
        stroke="#533B6A" stroke-width="3.16448" stroke-miterlimit="10" />
    <path
        d="M19.0114 25.9795L33.8966 2.66079C34.7049 1.39521 33.0641 0.00563159 31.9323 0.999358L11.1744 19.2235C10.5871 19.7394 10.589 20.6545 11.1792 21.1673C11.1792 21.1673 19.1101 21.415 18.2943 27.3663C18.2943 27.3663 18.581 26.6507 19.0084 25.9825L19.0114 25.9795Z"
        fill="#533B6A" />
</svg>
