<?xml version="1.0" encoding="UTF-8"?>
<svg id="Design" xmlns="http://www.w3.org/2000/svg" version="1.1" viewBox="0 0 700 700">
    <defs>
        <style>
            .cls-1, .cls-2 {
            fill: #b2d1de;
            }

            .cls-1, .cls-3 {
            stroke: #fff;
            stroke-miterlimit: 10;
            stroke-width: 4px;
            }

            .cls-4 {
            fill: #fde4ba;
            }

            .cls-4, .cls-5, .cls-2, .cls-6, .cls-7 {
            stroke-width: 0px;
            }

            .cls-5, .cls-3 {
            fill: #533b6a;
            }

            .cls-8 {
            stroke: #fac25e;
            stroke-linecap: round;
            stroke-linejoin: round;
            stroke-width: 3.9px;
            }

            .cls-8, .cls-7 {
            fill: #fff;
            }

            .cls-6 {
            fill: #fac25e;
            }
        </style>
    </defs>
    <path class="cls-4"
        d="M448.6,346.7c-1.8,30.7-5.7,113.2-13.7,120.1-8,7-180.7,13.3-197.7-11.5-17-24.8,4.5-237.8,1-258.4-3.5-20.6,26.4-29.2,86.1-27.6,59.7,1.6,124.6,16.8,126.1,30.6s-1.8,146.8-1.8,146.8h0Z" />
    <path class="cls-8"
        d="M494,367.2c-6.3,30.1-27.8,108.6-36.7,114.4-8.9,5.7-169.4-10.2-182.6-37.2-13.2-27,39.2-234.6,38.8-255.5-.5-20.9,30.4-25,89.2-14.7,58.8,10.3,118,34.6,117.4,48.4s-26.2,144.7-26.2,144.7h0Z" />
    <path class="cls-6"
        d="M515.5,207.8c-40.5-27.5-195.9-58.1-204.9-45.4-7.9,11.3-26.2,113.5-30.4,137.8h-.2l-19,143.5s-6.4,18.2,80.1,37c93.7,20.4,105.9,15.8,122.5,3.4,16.6-12.3,42.7-135.5,50.5-187.8,7.8-52.2,17.5-77.6,1.4-88.5h0ZM451.9,475.7c-19.6,24.5-175.3-25.3-177.4-30.6s21.3-145.7,21.3-145.7c0,0,14.6-119.2,26.4-125.8,22.9-12.7,183.6,27.8,189.9,50.4,6.3,22.5-40.8,227.2-60.3,251.7h0Z" />
    <path class="cls-2"
        d="M570,346.8c4.2,5.9,16.5-6.7,20.6-12s4.4-11.4,1.5-13.2c-2.9-1.8-7.4-2.3-13.7,7.9-6.3,10.3-11.3,13.4-8.4,17.3h0Z" />
    <path class="cls-2"
        d="M588.5,367.7c2.3-9.4,10.9-14.1,26.8-20.6s18.3-8.2,24.8-3.7c6.5,4.5,7.2,10.2-18.4,21.8-25.6,11.6-35.3,11-33.2,2.5h0Z" />
    <path class="cls-2"
        d="M603.9,404.3c-4.2-4,0-12,5.9-14.5,6-2.5,15.9-1.4,17.4,2.6,1.5,4.1-3,7.7-8.9,9.5-5.9,1.8-10.2,6.2-14.3,2.4Z" />
    <g>
        <path class="cls-5"
            d="M355.5,292.1c4.1,0,3.7-1,5.2-4.5,1.1-2.5,2.6-4.9,4.3-4.2,1.1.5,1.8,4.4,2.3,6.4.5,2.2.1,2.3,2.5,2.8,3.4,1.1,3.2.5,6.4,1.8,3.5,1.4-.8,3.8-2.5,4.4-1.7.6-3,1.2-3.2,1.9-.2.6.9,2.9,1.6,5.1.5,1.7,1.8,4.8,1.2,5.2-.5.4-1.4,1.1-3.6-.7-1.7-1.4-2.4-2-3.3-3-.8-1-2.8-2.8-3.5-3.1-.4-.2-3,2.1-4.1,2.9-5.5,3.6-7,2.9-7.3,1.5-.2-.9,1-3.7,2.6-5.6,1.1-1.2,2-2.8,2-3.3,0-.9-3-2.5-4.2-3.1-1.6-.7-3.9-2.8-4-3.8.8-1.6,5.5-.8,7.8-.6h0Z" />
        <path class="cls-5"
            d="M334.8,328.4c4.1,0,3.7-1,5.2-4.5,1.1-2.5,2.6-4.9,4.3-4.2,1.1.5,1.8,4.4,2.3,6.4.5,2.2.1,2.3,2.5,2.8,3.4,1.1,3.2.5,6.4,1.8,3.5,1.4-.8,3.8-2.5,4.4-1.7.6-3,1.2-3.2,1.9-.2.6.9,2.9,1.6,5.1.5,1.7,1.8,4.8,1.2,5.2-.5.4-1.4,1.1-3.6-.7-1.7-1.4-2.4-2-3.3-3s-2.8-2.8-3.5-3.1c-.4-.2-3,2.1-4.1,2.9-5.5,3.6-7,2.9-7.3,1.5-.2-.9,1-3.7,2.6-5.6,1.1-1.2,2-2.8,2-3.3,0-.9-3-2.5-4.2-3.1-1.6-.7-3.9-2.8-4-3.8.8-1.6,5.5-.8,7.8-.6h0Z" />
        <path class="cls-5"
            d="M344.3,364.7c4.1,0,3.7-1,5.2-4.5,1.1-2.5,2.6-4.9,4.3-4.2,1.1.5,1.8,4.4,2.3,6.4.5,2.2.1,2.3,2.5,2.8,3.4,1.1,3.2.5,6.4,1.8,3.5,1.4-.8,3.8-2.5,4.4-1.7.6-3,1.2-3.2,1.9-.2.6.9,2.9,1.6,5.1.5,1.7,1.8,4.8,1.2,5.2-.5.4-1.4,1.1-3.6-.7-1.7-1.4-2.4-2-3.3-3s-2.8-2.8-3.5-3.1c-.4-.2-3,2.1-4.1,2.9-5.5,3.6-7,2.9-7.3,1.5-.2-.9,1-3.7,2.6-5.6,1.1-1.2,2-2.8,2-3.3,0-.9-3-2.5-4.2-3.1-1.6-.7-3.9-2.8-4-3.8.8-1.6,5.5-.8,7.8-.6h0Z" />
        <path class="cls-5"
            d="M385.2,381.5c4.1,0,3.7-1,5.2-4.5,1.1-2.5,2.6-4.9,4.3-4.2,1.1.5,1.8,4.4,2.3,6.4.5,2.2.1,2.3,2.5,2.8,3.4,1.1,3.2.5,6.4,1.8,3.5,1.4-.8,3.8-2.5,4.4s-3,1.2-3.2,1.9c-.2.6.9,2.9,1.6,5.1.5,1.7,1.8,4.8,1.2,5.2-.5.4-1.4,1.1-3.6-.7-1.7-1.4-2.4-2-3.3-3-.8-1-2.8-2.8-3.5-3.1-.4-.2-3,2.1-4.1,2.9-5.5,3.6-7,2.9-7.3,1.5-.2-.9,1-3.7,2.6-5.6,1.1-1.2,2-2.8,2-3.3,0-.9-3-2.5-4.2-3.1-1.6-.7-3.9-2.8-4-3.8.8-1.6,5.5-.8,7.8-.6h0Z" />
        <path class="cls-5"
            d="M392.7,284.5c4.1,0,3.7-1,5.2-4.5,1.1-2.5,2.6-4.9,4.3-4.2,1.1.5,1.8,4.4,2.3,6.4.5,2.2.1,2.3,2.5,2.8,3.4,1.1,3.2.5,6.4,1.8,3.5,1.4-.8,3.8-2.5,4.4s-3,1.2-3.2,1.9c-.2.6.9,2.9,1.6,5.1.5,1.7,1.8,4.8,1.2,5.2-.5.4-1.4,1.1-3.6-.7-1.7-1.4-2.4-2-3.3-3s-2.8-2.8-3.5-3.1c-.4-.2-3,2.1-4.1,2.9-5.5,3.6-7,2.9-7.3,1.5-.2-.9,1-3.7,2.6-5.6,1.1-1.2,2-2.8,2-3.3,0-.9-3-2.5-4.2-3.1-1.6-.7-3.9-2.8-4-3.8.8-1.6,5.5-.8,7.8-.6h0Z" />
        <path class="cls-5"
            d="M430.3,303.9c4.1,0,3.7-1,5.2-4.5,1.1-2.5,2.6-4.9,4.3-4.2,1.1.5,1.8,4.4,2.3,6.4.5,2.2.1,2.3,2.5,2.8,3.4,1.1,3.2.5,6.4,1.8,3.5,1.4-.8,3.8-2.5,4.4s-3,1.2-3.2,1.9c-.2.6.9,2.9,1.6,5.1.5,1.7,1.8,4.8,1.2,5.2-.5.4-1.4,1.1-3.6-.7-1.7-1.4-2.4-2-3.3-3s-2.8-2.8-3.5-3.1c-.4-.2-3,2.1-4.1,2.9-5.5,3.6-7,2.9-7.3,1.5-.2-.9,1-3.7,2.6-5.6,1.1-1.2,2-2.8,2-3.3,0-.9-3-2.5-4.2-3.1-1.6-.7-3.9-2.8-4-3.8.8-1.6,5.5-.8,7.8-.6h0Z" />
        <path class="cls-5"
            d="M439.1,339.3c4.1,0,3.7-1,5.2-4.5,1.1-2.5,2.6-4.9,4.3-4.2,1.1.5,1.8,4.4,2.3,6.4.5,2.2.1,2.3,2.5,2.8,3.4,1.1,3.2.5,6.4,1.8,3.5,1.4-.8,3.8-2.5,4.4-1.7.6-3,1.2-3.2,1.9-.2.6.9,2.9,1.6,5.1.5,1.7,1.8,4.8,1.2,5.2-.5.4-1.4,1.1-3.6-.7-1.7-1.4-2.4-2-3.3-3s-2.8-2.8-3.5-3.1c-.4-.2-3,2.1-4.1,2.9-5.5,3.6-7,2.9-7.3,1.5-.2-.9,1-3.7,2.6-5.6,1.1-1.2,2-2.8,2-3.3,0-.9-3-2.5-4.2-3.1-1.6-.7-3.9-2.8-4-3.8.8-1.6,5.5-.8,7.8-.6h0Z" />
        <path class="cls-5"
            d="M422.5,371.3c4.1,0,3.7-1,5.2-4.5,1.1-2.5,2.6-4.9,4.3-4.2,1.1.5,1.8,4.4,2.3,6.4.5,2.2.1,2.3,2.5,2.8,3.4,1.1,3.2.5,6.4,1.8,3.5,1.4-.8,3.8-2.5,4.4s-3,1.2-3.2,1.9c-.2.6.9,2.9,1.6,5.1.5,1.7,1.8,4.8,1.2,5.2-.5.4-1.4,1.1-3.6-.7-1.7-1.4-2.4-2-3.3-3s-2.8-2.8-3.5-3.1c-.4-.2-3,2.1-4.1,2.9-5.5,3.6-7,2.9-7.3,1.5-.2-.9,1-3.7,2.6-5.6,1.1-1.2,2-2.8,2-3.3,0-.9-3-2.5-4.2-3.1-1.6-.7-3.9-2.8-4-3.8.8-1.6,5.5-.8,7.8-.6h0Z" />
    </g>
    <path class="cls-5"
        d="M330.9,481.7c-5.7-16.7-14.3-19.3-19.8-23.2-9.6-4.3-22-6.4-33.3-.3-29.4,15.6-30.2,47.5-21.1,59.9,31.4,43.1,66.5,15.8,75.4-10.8,1.3-5,3.4-12.1-1.2-25.5h0Z" />
    <path class="cls-5"
        d="M431.3,481.7c-5.7-16.7-14.3-19.3-19.8-23.2-9.6-4.3-22-6.4-33.3-.3-29.4,15.6-30.2,47.5-21.1,59.9,31.4,43.1,66.5,15.8,75.4-10.8,1.3-5,3.4-12.1-1.2-25.5h0Z" />
    <path class="cls-7"
        d="M378.7,494.2c3.6-1.9,8.5,7.5,10.9,10.2s4.1-3.2,12.2-12.1c8.6-9.4,10.7-9.8,12.2-6.9,1.5,2.9-19,27.5-23.4,27-5.6-.7-15.3-16.5-12-18.2h0Z" />
    <g>
        <path class="cls-7"
            d="M277.2,484.6c2.3-2.4,14.2,11,19.8,15.8s12.9,10.2,10.3,14-16.2-11.1-21.2-15.9c-4.9-4.8-11.8-10.8-8.9-13.9h0Z" />
        <path class="cls-7"
            d="M278.1,514c-2.1-2.7,10.8-15.5,12.9-17.2,2-1.7,12-13.5,14.9-12.6,2.9.9-2.7,10.3-11.9,19.1-9.2,8.8-13.2,14.1-15.8,10.7Z" />
    </g>
    <path class="cls-1"
        d="M583.1,400.3c-12.4-36-31-41.5-43-50-20.9-9.3-47.7-13.7-72.4-.7-63.8,33.6-65.5,102-45.9,128.7,68.2,92.6,144.5,34,163.8-23.2,2.7-10.7,7.4-26-2.5-54.8h0Z" />
    <path class="cls-3"
        d="M270.1,434.4c-8.7-25.7-21.7-29.7-30.1-35.8-14.6-6.7-33.4-9.8-50.7-.5-44.7,24.1-45.9,73-32.2,92.2,47.7,66.3,101.2,24.3,114.8-16.7,1.9-7.8,5.2-18.6-1.8-39.2h0Z" />
    <path class="cls-7"
        d="M453.1,420.6c10.5-5.6,24.5,21.6,31.5,29.6,6.9,8,11.9-9.4,35.4-34.9,24.8-27.1,31.1-28.3,35.3-19.9,4.3,8.3-55.1,79.5-67.5,78-16.2-2-44.2-47.7-34.7-52.7h0Z" />
    <g>
        <path class="cls-7"
            d="M186.8,433.3c3.8-4,23.9,18.6,33.4,26.6s21.8,17.3,17.4,23.6c-4.4,6.3-27.4-18.8-35.7-26.8-8.3-8.1-19.9-18.2-15-23.4h0Z" />
        <path class="cls-7"
            d="M188.1,483c-3.6-4.6,18.3-26.2,21.7-29s20.2-22.7,25.1-21.2-4.5,17.4-20.1,32.2c-15.6,14.8-22.3,23.8-26.7,18.1Z" />
    </g>
</svg>