<?xml version="1.0" encoding="UTF-8"?>
<svg width="436px" height="490px" viewBox="0 0 436 490" version="1.1" xmlns="http://www.w3.org/2000/svg" xmlns:xlink="http://www.w3.org/1999/xlink">
    <title>img_ballot_box</title>
    <g id="Page-1" stroke="none" stroke-width="1" fill="none" fill-rule="evenodd">
        <g id="img_ballot_box" transform="translate(0.0095, 0.0145)">
            <path d="M8.21054412,358.93546 C-3.23945588,337.23546 3.11054412,237.37546 1.07054412,206.01546 C-0.969455882,174.64546 -4.02945588,115.58546 33.5505441,97.7554597 C56.3505441,86.9354597 90.2105441,79.6254597 97.0105441,60.0554597 C103.810544,40.4854597 128.430544,-15.1345403 218.250544,3.91545966 C308.070544,22.9654597 302.740544,62.3154597 319.300544,97.7554597 C335.860544,133.20546 432.480544,138.39546 433.840544,184.56546 C435.200544,230.73546 443.030544,446.55546 410.360544,460.16546 C377.700544,473.77546 168.240544,501.67546 122.420544,482.62546 C76.6005441,463.57546 21.1405441,383.44546 8.21054412,358.95546 L8.21054412,358.93546 Z" id="Path" fill="#FCFCF3" fill-rule="nonzero"></path>
            <path d="M141.550544,275.40546 L44.8705441,191.42546 C44.8705441,191.42546 43.0205441,239.67546 44.0705441,258.84546 C45.1205441,278.01546 44.8705441,322.36546 44.8705441,322.36546 C44.8705441,324.03546 45.4405441,325.65546 46.4905441,326.95546 L133.330544,448.75546 C139.250544,456.39546 147.740544,458.76546 150.810544,458.696958 C326.010544,454.66546 378.830544,438.17546 378.830544,438.17546 C382.610544,437.84546 385.500544,434.67546 385.500544,430.88546 L385.500544,253.95546 L141.550544,275.40546 L141.550544,275.40546 Z" id="Path" fill="#FAC25E" fill-rule="nonzero"></path>
            <path d="M282.190544,109.90546 C279.450544,108.08546 276.170544,107.25546 272.900544,107.54546 L159.030544,115.01546 L38.7505441,128.10546 C35.8105441,128.36546 33.5505441,130.82546 33.5505441,133.77546 L33.5505441,181.68546 C33.5505441,184.06546 34.5605441,186.33546 36.3405441,187.93546 L128.440544,270.65546 C131.860544,273.72546 136.310544,275.68546 140.890544,275.39546 C326.270544,263.87546 372.250544,259.23546 390.620544,254.99546 C393.130544,254.41546 394.900544,252.17546 394.900544,249.60546 L394.900544,191.46546 C394.900544,187.15546 392.740544,183.13546 389.140544,180.74546 L282.190544,109.91546 L282.190544,109.90546 Z" id="Path" fill="#FDE4BA" fill-rule="nonzero"></path>
            <path d="M137.320544,86.4954597 C154.020544,85.9954597 162.710544,86.1454597 160.280544,81.2754597 C157.850544,76.4054597 136.980544,76.9254597 130.710544,77.2754597 C124.450544,77.6254597 119.930544,83.8854597 123.930544,85.6254597 C127.930544,87.3654597 133.490544,86.6054597 137.320544,86.4954597 L137.320544,86.4954597 Z" id="Path" fill="#FAC25E" fill-rule="nonzero"></path>
            <path d="M163.810544,65.3054597 C167.710544,62.7054597 161.550544,54.8654597 156.330544,51.5654597 C151.110544,48.2654597 142.180544,41.8254597 139.340544,43.5654597 C136.500544,45.3054597 138.940544,51.3954597 146.240544,57.4754597 C153.540544,63.5654597 159.630544,68.0854597 163.810544,65.3054597 Z" id="Path" fill="#FAC25E" fill-rule="nonzero"></path>
            <path d="M177.550544,50.5254597 C181.240544,49.6354597 178.590544,44.7854597 176.510544,41.4854597 C174.430544,38.1854597 170.420544,34.8754597 168.340544,37.4854597 C166.260544,40.0954597 171.820544,51.9254597 177.560544,50.5254597 L177.550544,50.5254597 Z" id="Path" fill="#FAC25E" fill-rule="nonzero"></path>
            <path d="M192.790544,149.74546 C192.790544,149.74546 180.790544,148.70546 171.920544,149.74546 C163.050544,150.78546 161.480544,154.26546 165.660544,159.13546 C169.840544,164.00546 170.530544,166.43546 180.100544,166.09546 C189.670544,165.75546 255.580544,161.57546 261.670544,160.52546 C267.760544,159.48546 264.450544,155.13546 259.760544,151.82546 C255.070544,148.51546 253.330544,147.47546 249.670544,147.12546 C246.020544,146.77546 242.370544,147.12546 242.370544,147.12546 L236.490544,155.74546 L218.980544,156.54546 L192.810544,149.73546 L192.790544,149.74546 Z" id="Path" fill="#533B6A" fill-rule="nonzero"></path>
            <g id="Group" transform="translate(205.5205, 296.884)" fill="#533B6A" fill-rule="nonzero">
                <path d="M22.74,18.011483 C26.41,17.761483 25.95,16.841483 27.05,13.641483 C27.84,11.341483 29.07,9.12148301 30.55,9.54148301 C31.6,9.89148301 32.45,13.331483 33.03,15.051483 C33.67,16.941483 33.29,17.071483 35.49,17.331483 C38.62,18.041483 38.37,17.501483 41.36,18.461483 C44.55,19.491483 40.9,21.871483 39.41,22.601483 C37.97,23.301483 36.82,23.891483 36.7,24.561483 C36.6,25.151483 37.72,27.051483 38.52,28.961483 C39.13,30.411483 40.46,33.111483 39.94,33.521483 C39.48,33.881483 38.75,34.641483 36.67,33.161483 C35.08,32.031483 34.36,31.521483 33.5,30.691483 C32.64,29.861483 30.83,28.421483 30.14,28.191483 C29.79,28.071483 27.61,30.321483 26.65,31.051483 C21.97,34.621483 20.63,34.161483 20.23,32.921483 C19.99,32.171483 20.84,29.541483 22.18,27.741483 C23.04,26.581483 23.77,25.071483 23.69,24.641483 C23.54,23.871483 20.82,22.591483 19.71,22.191483 C18.18,21.651483 15.99,19.991483 15.82,19.111483 C16.41,17.611483 20.67,18.001483 22.72,18.021483 L22.74,18.011483 Z" id="Path"></path>
                <path d="M6.92,51.911483 C10.59,51.661483 10.13,50.741483 11.23,47.541483 C12.02,45.241483 13.25,43.021483 14.73,43.441483 C15.78,43.791483 16.63,47.231483 17.21,48.951483 C17.85,50.841483 17.47,50.971483 19.67,51.231483 C22.8,51.941483 22.55,51.401483 25.54,52.361483 C28.73,53.391483 25.08,55.771483 23.59,56.501483 C22.15,57.201483 21,57.791483 20.88,58.461483 C20.78,59.051483 21.9,60.951483 22.7,62.861483 C23.31,64.311483 24.64,67.011483 24.12,67.421483 C23.66,67.781483 22.93,68.541483 20.85,67.061483 C19.26,65.931483 18.54,65.421483 17.68,64.591483 C16.87,63.801483 15.01,62.321483 14.32,62.091483 C13.97,61.971483 11.79,64.221483 10.83,64.951483 C6.15,68.521483 4.81,68.061483 4.41,66.821483 C4.17,66.071483 5.02,63.441483 6.36,61.641483 C7.22,60.481483 7.95,58.971483 7.87,58.541483 C7.72,57.771483 5,56.491483 3.89,56.091483 C2.36,55.551483 0.17,53.891483 2.84217094e-14,53.011483 C0.59,51.511483 4.85,51.901483 6.9,51.921483 L6.92,51.911483 Z" id="Path"></path>
                <path d="M17.98,83.641483 C21.65,83.391483 21.19,82.471483 22.29,79.271483 C23.08,76.971483 24.31,74.751483 25.79,75.171483 C26.84,75.521483 27.69,78.961483 28.27,80.681483 C28.91,82.571483 28.53,82.701483 30.73,82.961483 C33.86,83.671483 33.61,83.131483 36.6,84.091483 C39.79,85.121483 36.14,87.501483 34.65,88.231483 C33.21,88.931483 32.06,89.521483 31.94,90.191483 C31.84,90.781483 32.96,92.681483 33.76,94.591483 C34.37,96.041483 35.7,98.741483 35.18,99.151483 C34.72,99.511483 33.99,100.271483 31.91,98.791483 C30.32,97.661483 29.6,97.151483 28.74,96.321483 C27.88,95.491483 26.07,94.051483 25.38,93.821483 C25.03,93.701483 22.85,95.951483 21.89,96.681483 C17.21,100.251483 15.87,99.791483 15.47,98.551483 C15.23,97.801483 16.08,95.171483 17.42,93.371483 C18.28,92.211483 19.01,90.701483 18.93,90.271483 C18.78,89.501483 16.06,88.221483 14.95,87.821483 C13.42,87.281483 11.23,85.621483 11.06,84.741483 C11.65,83.241483 15.91,83.631483 17.96,83.651483 L17.98,83.641483 Z" id="Path"></path>
                <path d="M55.74,95.691483 C59.41,95.441483 58.95,94.521483 60.05,91.321483 C60.84,89.021483 62.07,86.801483 63.55,87.221483 C64.6,87.571483 65.45,91.011483 66.03,92.731483 C66.67,94.621483 66.29,94.751483 68.49,95.011483 C71.62,95.721483 71.37,95.181483 74.36,96.141483 C77.55,97.171483 73.9,99.551483 72.41,100.281483 C70.92,101.011483 69.82,101.571483 69.7,102.241483 C69.6,102.831483 70.72,104.731483 71.52,106.641483 C72.13,108.091483 73.46,110.791483 72.94,111.201483 C72.48,111.561483 71.75,112.321483 69.67,110.841483 C68.08,109.711483 67.36,109.201483 66.5,108.371483 C65.64,107.541483 63.83,106.101483 63.14,105.871483 C62.79,105.751483 60.61,108.001483 59.65,108.731483 C54.97,112.301483 53.63,111.841483 53.23,110.601483 C52.99,109.851483 53.84,107.221483 55.18,105.421483 C56.04,104.261483 56.77,102.751483 56.69,102.321483 C56.54,101.551483 53.82,100.271483 52.71,99.871483 C51.18,99.331483 48.99,97.671483 48.82,96.791483 C49.41,95.291483 53.67,95.681483 55.72,95.701483 L55.74,95.691483 Z" id="Path"></path>
                <path d="M55.46,8.52148301 C59.13,8.27148301 58.67,7.35148301 59.77,4.15148301 C60.56,1.85148301 61.79,-0.368516993 63.27,0.0514830075 C64.32,0.401483007 65.17,3.84148301 65.75,5.56148301 C66.39,7.45148301 66.01,7.58148301 68.21,7.84148301 C71.34,8.55148301 71.09,8.01148301 74.08,8.97148301 C77.27,10.001483 73.62,12.381483 72.13,13.111483 C70.69,13.811483 69.54,14.401483 69.42,15.071483 C69.32,15.661483 70.44,17.561483 71.24,19.471483 C71.85,20.921483 73.18,23.621483 72.66,24.031483 C72.2,24.391483 71.47,25.151483 69.39,23.671483 C67.8,22.541483 67.08,22.031483 66.22,21.201483 C65.41,20.411483 63.55,18.931483 62.86,18.701483 C62.51,18.581483 60.33,20.831483 59.37,21.561483 C54.69,25.131483 53.35,24.671483 52.95,23.431483 C52.71,22.681483 53.56,20.051483 54.9,18.251483 C55.76,17.091483 56.49,15.581483 56.41,15.151483 C56.26,14.381483 53.54,13.101483 52.43,12.701483 C50.9,12.161483 48.71,10.501483 48.54,9.62148301 C49.13,8.12148301 53.39,8.51148301 55.44,8.53148301 L55.46,8.52148301 Z" id="Path"></path>
                <path d="M90.43,23.181483 C94.1,22.931483 93.64,22.011483 94.74,18.811483 C95.53,16.511483 96.76,14.291483 98.24,14.711483 C99.29,15.061483 100.14,18.501483 100.72,20.221483 C101.36,22.111483 100.98,22.241483 103.18,22.501483 C106.31,23.211483 106.06,22.671483 109.05,23.631483 C112.24,24.661483 108.59,27.041483 107.1,27.771483 C105.66,28.471483 104.51,29.061483 104.39,29.731483 C104.29,30.321483 105.41,32.221483 106.21,34.131483 C106.82,35.581483 108.15,38.281483 107.63,38.691483 C107.17,39.051483 106.44,39.811483 104.36,38.331483 C102.77,37.201483 102.05,36.691483 101.19,35.861483 C100.33,35.031483 98.52,33.591483 97.83,33.361483 C97.48,33.241483 95.3,35.491483 94.34,36.221483 C89.66,39.791483 88.32,39.331483 87.92,38.091483 C87.68,37.341483 88.53,34.711483 89.87,32.911483 C90.73,31.751483 91.46,30.241483 91.38,29.811483 C91.23,29.041483 88.51,27.761483 87.4,27.361483 C85.87,26.821483 83.68,25.161483 83.51,24.281483 C84.1,22.781483 88.36,23.171483 90.41,23.191483 L90.43,23.181483 Z" id="Path"></path>
                <path d="M100.84,54.211483 C104.51,53.961483 104.05,53.041483 105.15,49.841483 C105.94,47.541483 107.17,45.321483 108.65,45.741483 C109.7,46.091483 110.55,49.531483 111.13,51.251483 C111.77,53.141483 111.39,53.271483 113.59,53.531483 C116.72,54.241483 116.47,53.701483 119.46,54.661483 C122.65,55.691483 119,58.071483 117.51,58.801483 C116.02,59.531483 114.92,60.091483 114.8,60.761483 C114.7,61.351483 115.82,63.251483 116.62,65.161483 C117.23,66.611483 118.56,69.311483 118.04,69.721483 C117.58,70.081483 116.85,70.841483 114.77,69.361483 C113.18,68.231483 112.46,67.721483 111.6,66.891483 C110.79,66.101483 108.93,64.621483 108.24,64.391483 C107.89,64.271483 105.71,66.521483 104.75,67.251483 C100.07,70.821483 98.73,70.361483 98.33,69.121483 C98.09,68.371483 98.94,65.741483 100.28,63.941483 C101.14,62.781483 101.87,61.271483 101.79,60.841483 C101.64,60.071483 98.92,58.791483 97.81,58.391483 C96.28,57.851483 94.09,56.191483 93.92,55.311483 C94.51,53.811483 98.77,54.201483 100.82,54.221483 L100.84,54.211483 Z" id="Path"></path>
                <path d="M88.28,83.941483 C91.95,83.691483 91.49,82.771483 92.59,79.571483 C93.38,77.271483 94.61,75.051483 96.09,75.471483 C97.14,75.821483 97.99,79.261483 98.57,80.981483 C99.21,82.871483 98.83,83.001483 101.03,83.261483 C104.16,83.971483 103.91,83.431483 106.9,84.391483 C110.09,85.421483 106.44,87.801483 104.95,88.531483 C103.51,89.231483 102.36,89.821483 102.24,90.491483 C102.14,91.081483 103.26,92.981483 104.06,94.891483 C104.67,96.341483 106,99.041483 105.48,99.451483 C105.02,99.811483 104.29,100.571483 102.21,99.091483 C100.62,97.961483 99.9,97.451483 99.04,96.621483 C98.18,95.791483 96.37,94.351483 95.68,94.121483 C95.33,94.001483 93.15,96.251483 92.19,96.981483 C87.51,100.551483 86.17,100.091483 85.77,98.851483 C85.53,98.101483 86.38,95.471483 87.72,93.671483 C88.58,92.511483 89.31,91.001483 89.23,90.571483 C89.08,89.801483 86.36,88.521483 85.25,88.121483 C83.72,87.581483 81.53,85.921483 81.36,85.041483 C81.95,83.541483 86.21,83.931483 88.26,83.951483 L88.28,83.941483 Z" id="Path"></path>
            </g>
            <path d="M42.5705441,138.52546 C42.5705441,138.52546 71.3605441,156.93546 98.9705441,178.55546 C115.510544,191.51546 127.830544,200.49546 133.720544,205.99546 C131.210544,240.66546 133.720544,262.46546 133.720544,262.46546" id="Path" stroke="#533B6A" stroke-width="5" stroke-linecap="round" stroke-linejoin="round"></path>
            <path d="M383.790544,191.44546 C383.790544,191.44546 326.490544,196.09546 276.460544,201.38546 C236.580544,205.60546 209.620544,207.29546 148.030544,208.97546" id="Path" stroke="#533B6A" stroke-width="5" stroke-linecap="round" stroke-linejoin="round"></path>
            <path d="M218.960544,156.55546 C203.910544,153.64546 165.700544,136.67546 159.020544,134.34546 C165.030544,126.31546 172.240544,114.85546 179.390544,101.73546 C186.780544,88.1654597 203.160544,55.0654597 205.370544,36.5454597 C207.460544,38.4654597 260.220544,59.4154597 269.230544,63.3754597 C270.270544,72.2754597 264.300544,97.7454597 254.480544,119.19546 C247.330544,134.82546 238.040544,151.56546 236.470544,155.75546 L218.960544,156.55546 L218.960544,156.55546 Z" id="Path" stroke="#533B6A" stroke-width="5" fill="#FCFCF3" fill-rule="nonzero" stroke-linecap="round" stroke-linejoin="round"></path>
            <path d="M198.230544,93.1554597 C203.300544,92.0954597 205.840544,105.14546 207.740544,109.33546 C209.640544,113.52546 213.850544,106.88546 226.750544,99.0854597 C240.400544,90.8254597 243.140544,91.0754597 243.900544,95.0654597 C244.660544,99.0654597 211.270544,121.51546 206.280544,119.37546 C199.770544,116.58546 193.660544,94.1154597 198.230544,93.1654597 L198.230544,93.1554597 Z" id="Path" fill="#533B6A" fill-rule="nonzero"></path>
            <path d="M141.470544,290.95546 C141.470544,290.95546 141.500544,320.23546 141.470544,318.64546 C142.010544,346.50546 143.210544,351.09546 143.900544,378.94546 C144.410544,399.37546 144.250544,399.50546 144.250544,429.48546" id="Path" stroke="#533B6A" stroke-width="5" stroke-linecap="round" stroke-linejoin="round"></path>
        </g>
    </g>
</svg>