<?xml version="1.0" encoding="UTF-8"?>
<svg id="Design" xmlns="http://www.w3.org/2000/svg" viewBox="0 0 614.16 597.51">
    <path
        d="M272.59,92.25c32.45-110.49-152.02-129.58-140.48-14.11,20.76,89.17,119.57,72.55,140.49,14.11h-.01Z"
        style="fill:#fff0d9; stroke-width:0px;" />
    <path
        d="M521.8,114.77c29.52-100.52-138.32-117.9-127.82-12.84,18.88,81.13,108.79,66.01,127.82,12.84h0Z"
        style="fill:#fff0d9; stroke-width:0px;" />
    <path
        d="M610.54,330.32c30.61-104.21-143.37-122.21-132.5-13.31,19.56,84.11,112.78,68.44,132.5,13.31Z"
        style="fill:#fff0d9; stroke-width:0px;" />
    <path
        d="M476.8,550.71c31.45-107.05-147.31-125.56-136.13-13.67,20.11,86.41,115.86,70.29,136.13,13.67Z"
        style="fill:#fff0d9; stroke-width:0px;" />
    <path
        d="M216.2,503.21c30.5-103.85-142.89-121.79-132.05-13.26,19.5,83.82,112.4,68.19,132.05,13.26Z"
        style="fill:#fff0d9; stroke-width:0px;" />
    <path
        d="M152.24,306.57c30.5-103.85-142.89-121.79-132.05-13.26,19.5,83.82,112.4,68.19,132.05,13.26Z"
        style="fill:#fff0d9; stroke-width:0px;" />
    <path
        d="M316.57,286.54l-116.28-100.45c4.16.3,32.98.82,9.44-11.61-3.8-1.69-18.52-7.08-25.26-9.21-6.05-1.91-15.35-4.97-13.62,7.46,3.85,21.97,19.47,65.81,20.46,22.05l117.87,101.07c.35-4.1,3.26-8.41,7.39-9.31Z"
        style="fill:#533b6a; stroke-width:0px;" />
    <path
        d="M327.25,413.53c34.86-8.04,191.85-191.69,58.42-212.86-44.57-1.37-66.86,38.31-66.86,38.31,0,0-30-53.38-87.98-31.73-104.65,52.44,37.89,201.34,96.44,206.29h-.02Z"
        style="fill:#fac25e; stroke-width:0px;" />
    <path
        d="M404.96,362.89l-85.63-73.97c-3.17-2.84-7.75-.79-8.99,2.94-8.11,3.59,86.92,77.21,87.1,79.65,5.24,4.63,13.04-4.01,7.53-8.62h0Z"
        style="fill:#533b6a; stroke-width:0px;" />
    <path
        d="M399.26,359.3c1.56-.56,19.97-2.81,22.33-1.55,0,0,25.08,20.2,25.08,20.2,7.28,5.81,3.41,8.82.92,9.53l-15.9,2.69c-5.95,1.04.3,26.42-9.48,18.47,0,0-25.4-19.18-26.95-20.59-1.25-1.15-2.4-4.35-2.26-8.16.8-9.78-2.74-17.28,6.26-20.59h0Z"
        style="fill:#533b6a; stroke-width:0px;" />
    <path
        d="M338.32,527.29c1.25-3.35-2.54-44.95,4.11-43.61,4.56.89,22.37-2.84,23.49,4.06.62,49.14,3.5,75.64-1.08,76.33-2.97-10.61.54-72.87-2.62-74.8-2.96-2.15-13.72-2.11-18.89-2.11-1.13-.17-1.7.83-1.69,4.01-1.85,43.44.07,70.8.05,71.06-2.31,4.74-3.45,3.28-3.38-34.94h0Z"
        style="fill:#fac25e; stroke-width:0px;" />
    <path
        d="M459.17,538.12l.58-28.95c0-2.35,1.58-4.25,3.53-4.25,4.16.88,21.92-2.43,23.49,3.09.85,36.9,3.15,58.93-1.08,58.11-2.95-7.6.52-55.65-2.62-56.95-2.98-1.64-13.69-1.6-18.89-1.6-1.1-.09-1.67.48-1.68,3.05-1.85,33.09.07,53.9.05,54.11-2.62,3.98-3.25,2.41-3.38-26.61h0Z"
        style="fill:#fac25e; stroke-width:0px;" />
    <path
        d="M418.53,532.11l.58-33.66c0-2.73,1.58-4.94,3.53-4.94,4.35.96,22.15-2.73,23.49,3.59.72,43.22,3.34,67.65-1.08,67.57-2.96-9.17.53-64.58-2.62-66.22-2.97-1.91-13.71-1.86-18.89-1.86-1.12-.13-1.69.67-1.69,3.55-2.74,40.85,1.95,62.23-1.19,64.53-1.4.02-1.95.45-2.14-32.56Z"
        style="fill:#533b6a; stroke:#533b6a; stroke-miterlimit:10; stroke-width:1.88px;" />
    <path
        d="M378.44,543.16c2.36-29.53-7.33-27.16,21.56-26.92,3.02,0,5.61,1.11,6.04,2.5.96,29.94,2.97,48.22-1.08,47.12-2.91-5.77.5-45.26-2.62-46.18-2.98-1.33-13.67-1.29-18.9-1.29-1.08-.04-1.64.28-1.67,2.47-2.73,28.74,1.95,43.49-1.19,45-1.39-.02-1.95.43-2.14-22.7h0Z"
        style="fill:#fac25e; stroke-width:0px;" />
    <path
        d="M571.89,350.2c6.76-5.51,8.34-2.51,1.17-13.14-4.51-6.89-17.61-25.32-20.89-29.04-3.28-3.73-3.96-3.49-6.3-.45s.63,6.43,5.08,13.35,19.68,30.25,20.94,29.29h0Z"
        style="fill:#533b6a; stroke-width:0px;" />
    <path
        d="M586.84,378.16c6.19-4.57,7.44-4.98,10.62-7.74,3.19-2.76,1.79-3.28-2.47-10.34-4.27-7.06-17.41-25.46-21.12-28.88s-4.95-2.79-10.29,2.37c-5.34,5.16-1.99,8.28,2.16,15.41,4.15,7.14,18.54,31.07,21.09,29.18h0Z"
        style="fill:#fac25e; stroke-width:0px;" />
    <path d="M454.86,160.58c.41-24.9-3.27-175.65,2.68-128.83.41.45,2.99,198.39-2.68,128.83h0Z"
        style="fill:#533b6a; stroke-width:0px;" />
    <path
        d="M397.06,95.36c25.08.48,175.71-3.77,128.83,3.08-6.98,0-141.18,2.78-144.4,0s5.9-3.11,15.57-3.08h0Z"
        style="fill:#533b6a; stroke-width:0px;" />
    <path
        d="M128.08,447.79c-.42-3.37,104.2-2.37,104.86,5.53,1.45,4.76-68.21,0-86.24,0s-24.9.36-18.62-5.53h0Z"
        style="fill:#fac25e; stroke-width:0px;" />
    <path
        d="M128.08,471.69c-.42-3.37,104.2-2.37,104.86,5.53,1.45,4.76-68.21,0-86.24,0s-24.9.36-18.62-5.53h0Z"
        style="fill:#533b6a; stroke-width:0px;" />
    <path
        d="M128.08,495.59c-.42-3.37,104.2-2.37,104.86,5.53,1.45,4.76-68.21,0-86.24,0s-24.9.36-18.62-5.53h0Z"
        style="fill:#fac25e; stroke-width:0px;" />
    <path
        d="M128.08,519.49c-.42-3.37,104.2-2.37,104.86,5.53,1.45,4.76-68.21,0-86.24,0s-24.9.36-18.62-5.53h0Z"
        style="fill:#fac25e; stroke-width:0px;" />
    <path
        d="M513.66,245.08c-26.83,15.16-28.48,45.92-19.9,57.35,32.48,43.22,69.02,4,72.12-21.74s-25.4-50.77-52.23-35.61h.01ZM559,279.65c-2.7,22.46-30.9,56.56-59.24,18.86-24.45-39.96,58.3-82.08,59.24-18.86Z"
        style="fill:#fac25e; stroke-width:0px;" />
    <path
        d="M215.86,64.72c15.01,3.79,36.07,9.27,38.19,3.69,3.64-9.63-15.66-52.76-23.95-38.92-13.02,21.74-21.23,33.47-14.24,35.23h0Z"
        style="fill:#533b6a; stroke-width:0px;" />
    <path
        d="M203.77,68.43c-4.98-12.21,29.19-45.3,21.8-50.39-12.77-5.52-26.94-9.4-41.74-1.04-38.29,21.63-40.65,65.54-28.39,81.85,42.48,56.53,88.05,19.28,99.07-16.46,0-6.79-48.28-7.94-50.74-13.97h0Z"
        style="fill:#fac25e; stroke-width:0px;" />
    <path
        d="M520.6,276.11c5.64,1.37,4.41-8.91,9.06-8.37,1.09.47,1.7,4.21,2.17,6.09.52,2.07.1,2.18,2.43,2.64,4.62,1.08,11.78,2.37,3.73,5.95-1.6.63-2.88,1.16-3.05,1.86-.21,1.25,3.5,8.41,2.69,9.83-3.13,2.04-7.49-5.54-9.98-6.52-2.52,1.49-10.51,7.87-10.97,4.19-.74-1.58,4.08-6.81,4.4-8.54-1.06-2.2-7.51-3.92-7.92-6.57.75-1.55,5.27-.76,7.45-.57h-.01Z"
        style="fill:#533b6a; stroke-width:0px;" />
    <path
        d="M104.48,469.07c4.12,1.01,3.2-6.49,6.6-6.1,1.75.94.55,6.29,3.35,6.36,3.38.73,8.5,1.81,2.72,4.33-1.16.46-2.1.84-2.22,1.36-.15.92,2.56,6.13,1.96,7.16-2.28,1.5-5.45-4.06-7.27-4.76-.26-.11-2.1,1.49-2.89,2-3.86,2.48-4.87,2.04-5.1,1.05-.54-1.16,2.98-4.95,3.21-6.22-.77-1.6-5.47-2.86-5.77-4.79.55-1.13,3.84-.56,5.43-.41l-.02.02Z"
        style="fill:#533b6a; stroke-width:0px;" />
    <path
        d="M474.79,75.58c2.31.03,2.06-.57,2.91-2.52,1.82-4.19,3.24-2.2,3.67,1.18.3,1.21.06,1.28,1.43,1.55,1.92.6,1.79.25,3.61,1,2.7,1.54-2.97,2.62-3.22,3.58-.12.74,2.06,4.92,1.58,5.76-1.83,1.2-4.39-3.25-5.85-3.82-1.36.85-6.37,4.63-6.43,2.45-.44-.92,2.39-3.99,2.58-5-.62-1.29-4.41-2.29-4.64-3.85.44-.91,3.09-.45,4.37-.33h-.01Z"
        style="fill:#533b6a; stroke-width:0px;" />
    <path
        d="M493.97,53.27c2.31.03,2.06-.57,2.91-2.52,1.82-4.19,3.24-2.2,3.67,1.18.3,1.21.06,1.28,1.43,1.55,1.92.6,1.79.25,3.61,1,2.7,1.54-2.97,2.62-3.22,3.58-.12.74,2.06,4.92,1.58,5.76-1.83,1.2-4.39-3.25-5.85-3.82-1.36.85-6.37,4.63-6.43,2.45-.44-.92,2.39-3.99,2.58-5-.62-1.29-4.41-2.29-4.64-3.85.44-.91,3.09-.45,4.37-.33h0Z"
        style="fill:#fac25e; stroke-width:0px;" />
    <path
        d="M485.61,139.74c2.31.03,2.06-.57,2.91-2.52,1.82-4.19,3.24-2.2,3.67,1.18.3,1.21.06,1.28,1.43,1.55,1.92.6,1.79.25,3.61,1,2.7,1.54-2.97,2.62-3.22,3.58-.12.74,2.06,4.92,1.58,5.76-1.83,1.2-4.39-3.25-5.85-3.82-1.36.85-6.37,4.63-6.43,2.45-.44-.92,2.39-3.99,2.58-5-.62-1.29-4.41-2.29-4.64-3.85.44-.91,3.09-.45,4.37-.33h0Z"
        style="fill:#fac25e; stroke-width:0px;" />
    <path
        d="M434.64,125.71c2.31.03,2.06-.57,2.91-2.52,1.82-4.19,3.24-2.2,3.67,1.18.3,1.21.06,1.28,1.43,1.55,1.92.6,1.79.25,3.61,1,2.7,1.54-2.97,2.62-3.22,3.58-.12.74,2.06,4.92,1.58,5.76-1.83,1.2-4.39-3.25-5.85-3.82-1.36.85-6.37,4.63-6.43,2.45-.44-.92,2.39-3.99,2.58-5-.62-1.29-4.41-2.29-4.64-3.85.44-.91,3.09-.45,4.37-.33h-.01Z"
        style="fill:#fac25e; stroke-width:0px;" />
    <path
        d="M421.63,29.18c2.31.03,2.06-.57,2.91-2.52,1.82-4.19,3.24-2.2,3.67,1.18.3,1.21.06,1.28,1.43,1.55,1.92.6,1.79.25,3.61,1,2.7,1.54-2.97,2.62-3.22,3.58-.12.74,2.06,4.92,1.58,5.76-1.83,1.2-4.39-3.25-5.85-3.82-1.36.85-6.37,4.63-6.43,2.45-.44-.92,2.39-3.99,2.58-5-.62-1.29-4.41-2.29-4.64-3.85.44-.91,3.09-.45,4.37-.33h-.01Z"
        style="fill:#fac25e; stroke-width:0px;" />
    <path
        d="M13.63,267.86c15.27-.46,23.22-.32,20.99-4.77s-21.31-3.98-27.04-3.66c-5.73.32-9.86,6.04-6.2,7.63s8.74.9,12.25.8Z"
        style="fill:#fac25e; stroke-width:0px;" />
    <path d="M37.86,248.49c6.09-6.53-17.93-21.45-22.37-19.88-6.33,4.53,18.09,25.1,22.37,19.88Z"
        style="fill:#fac25e; stroke-width:0px;" />
    <path d="M50.42,234.97c5.53-1.55-4.8-16.35-8.42-11.93-1.9,2.38,3.18,13.2,8.43,11.93h-.01Z"
        style="fill:#fac25e; stroke-width:0px;" />
    <path
        d="M69.43,275.2c4.39-.91,6.59,10.38,8.24,14.01s5.29-2.12,16.46-8.88c11.82-7.15,14.19-6.94,14.85-3.48s-28.25,22.9-32.57,21.05c-5.64-2.42-10.92-21.87-6.97-22.69h0Z"
        style="fill:#533b6a; stroke-width:0px;" />
    <path
        d="M127.73,245.18c-6.82-2.27-46.01-18.54-49.15-20.06-3.14-1.52-4.55-2.82-6.17,5.85-.9,12.98-29.46,67.87-36.27,75.25-3.43,5.11-1.62,6.17,1.52,8.01,9.12,4.6,46.21,26.04,58.25,25.42,7.77-2.35,41.86-77.46,38.92-86.71.54-6.28-.27-5.5-7.1-7.77h0ZM116.32,296.43c-10.43,21.82-20.41,38.29-22.6,38.29-3.05,0-18.34-6.39-27.29-10.73-8.95-4.35-26.86-12.26-26.86-14.17,6.28-9.14,31.32-55.26,33.89-66.84,5.24-20.23.84-13.38,25.11-4.18,8.43,3.4,31.81,10.62,32.42,12.53s-4.26,23.29-14.69,45.11h.02Z"
        style="fill:#533b6a; stroke-width:0px;" />
</svg>