<?xml version="1.0" encoding="UTF-8" standalone="no"?>
<svg
   width="40"
   height="40"
   viewBox="0 0 40 40"
   fill="none"
   version="1.1"
   id="svg2"
   sodipodi:docname="img_needle.svg"
   inkscape:version="1.3.2 (091e20e, 2023-11-25)"
   xmlns:inkscape="http://www.inkscape.org/namespaces/inkscape"
   xmlns:sodipodi="http://sodipodi.sourceforge.net/DTD/sodipodi-0.dtd"
   xmlns="http://www.w3.org/2000/svg"
   xmlns:svg="http://www.w3.org/2000/svg">
  <defs
     id="defs2" />
  <sodipodi:namedview
     id="namedview2"
     pagecolor="#ffffff"
     bordercolor="#000000"
     borderopacity="0.25"
     inkscape:showpageshadow="2"
     inkscape:pageopacity="0.0"
     inkscape:pagecheckerboard="0"
     inkscape:deskcolor="#d1d1d1"
     showguides="true"
     inkscape:zoom="48.722341"
     inkscape:cx="41.172077"
     inkscape:cy="2.8631629"
     inkscape:window-width="1344"
     inkscape:window-height="806"
     inkscape:window-x="0"
     inkscape:window-y="38"
     inkscape:window-maximized="0"
     inkscape:current-layer="g2">
    <sodipodi:guide
       position="-20,20"
       orientation="0,1"
       id="guide2"
       inkscape:locked="false"
       inkscape:label=""
       inkscape:color="rgb(0,134,229)" />
    <sodipodi:guide
       position="20,40"
       orientation="-1,0"
       id="guide3"
       inkscape:locked="false"
       inkscape:label=""
       inkscape:color="rgb(0,134,229)" />
  </sodipodi:namedview>
  <g
     id="g2"
     transform="matrix(-0.29178988,-0.34835857,0.34835857,-0.29178988,13.206006,32.011708)">
    <path
       d="m 2.3957,28.3852 c 0.02819,-4.5293 3.74875,-8.178 8.3101,-8.1496 4.5614,0.0283 8.2362,3.7231 8.208,8.2524 -0.0282,4.5293 -3.7487,8.178 -8.3101,8.1496 -4.56133,-0.0284 -8.23619,-3.7232 -8.208,-8.2524 z"
       stroke="#533b6a"
       stroke-width="3.16448"
       stroke-miterlimit="10"
       id="path1" />
    <path
       d="M 19.0114,25.9795 33.8966,2.66079 C 34.7049,1.39521 33.0641,0.00563159 31.9323,0.999358 L 11.1744,19.2235 c -0.5873,0.5159 -0.5854,1.431 0.0048,1.9438 0,0 7.9309,0.2477 7.1151,6.199 0,0 0.2867,-0.7156 0.7141,-1.3838 z"
       fill="#533b6a"
       id="path2" />
  </g>
</svg>
