<svg width="85" height="81" viewBox="0 0 85 81" fill="none" xmlns="http://www.w3.org/2000/svg">
<path d="M40.3855 80.8979C62.4769 80.8979 80.3855 62.9893 80.3855 40.8979C80.3855 18.8066 62.4769 0.897949 40.3855 0.897949C18.2941 0.897949 0.385498 18.8066 0.385498 40.8979C0.385498 62.9893 18.2941 80.8979 40.3855 80.8979Z" fill="#FCFCF3"/>
<path d="M40.3855 59.6211C50.7257 59.6211 59.1081 51.2387 59.1081 40.8984C59.1081 30.5582 50.7257 22.1758 40.3855 22.1758C30.0453 22.1758 21.6628 30.5582 21.6628 40.8984C21.6628 51.2387 30.0453 59.6211 40.3855 59.6211Z" stroke="#72BC8C" stroke-width="3.28206" stroke-miterlimit="10"/>
<path d="M40.3849 72.0226C57.5744 72.0226 71.5092 58.0878 71.5092 40.8983C71.5092 23.7088 57.5744 9.77393 40.3849 9.77393C23.1953 9.77393 9.2605 23.7088 9.2605 40.8983C9.2605 58.0878 23.1953 72.0226 40.3849 72.0226Z" stroke="#72BC8C" stroke-width="3.28206" stroke-miterlimit="10"/>
<path d="M40.3849 48.8684C44.7867 48.8684 48.355 45.3001 48.355 40.8983C48.355 36.4966 44.7867 32.9282 40.3849 32.9282C35.9831 32.9282 32.4148 36.4966 32.4148 40.8983C32.4148 45.3001 35.9831 48.8684 40.3849 48.8684Z" fill="#72BC8C"/>
<path d="M66.3916 9.97023C68.1206 10.3508 70.2277 10.8018 74.6878 11.6646C82.1989 13.1198 84.6931 17.8183 84.1185 23.0095C83.1738 31.5525 80.1057 32.2979 80.106 36.2012C80.1062 38.4933 67.6954 18.7608 65.1101 9.46143C65.1101 9.46143 65.6629 9.80994 66.3916 9.97023Z" fill="#FCFCF3"/>
<path d="M70.1885 21.7125L40.6137 38.6686C39.9269 39.0635 39.6014 39.9068 39.902 40.6398C39.9127 40.6647 39.9216 40.6878 39.9323 40.7127C39.9714 40.8017 40.0195 40.8888 40.0764 40.9689C40.2187 41.1717 40.377 41.3567 40.5496 41.5222C41.0584 42.015 41.843 42.0861 42.455 41.7321L71.8857 24.7138C72.5955 24.3028 72.8873 23.4257 72.5617 22.6732L72.4781 22.4775C72.0956 21.5898 71.0264 21.234 70.1867 21.7143L70.1885 21.7125Z" fill="#72BC8C"/>
<path d="M65.149 24.5473C65.149 24.5473 65.5974 22.448 66.0048 21.4091C66.4122 20.3701 66.8196 19.0785 67.058 18.9487L74.5477 14.9085C76.7093 13.729 77.0455 14.9814 76.9619 15.661L75.9888 19.8097C75.9443 20.1655 76.1311 20.5107 76.4531 20.669L79.4259 22.3253C80.0396 22.6277 80.8971 23.3322 79.5184 24.01C79.5184 24.01 72.2457 28.2335 71.7422 28.4648C71.3348 28.6533 70.4381 28.6035 69.5237 28.1801C68.6093 27.7567 66.4442 26.8761 66.4442 26.8761C65.5529 26.4633 65.0298 25.5205 65.1508 24.5455L65.149 24.5473Z" fill="#72BC8C"/>
</svg>
