<?xml version="1.0" encoding="UTF-8" standalone="no"?>
<!DOCTYPE svg PUBLIC "-//W3C//DTD SVG 1.1//EN" "http://www.w3.org/Graphics/SVG/1.1/DTD/svg11.dtd">
<svg width="100%" height="100%" viewBox="0 0 467 428" version="1.1" xmlns="http://www.w3.org/2000/svg" xmlns:xlink="http://www.w3.org/1999/xlink" xml:space="preserve" xmlns:serif="http://www.serif.com/" style="fill-rule:evenodd;clip-rule:evenodd;stroke-linejoin:round;stroke-miterlimit:2;">
    <g transform="matrix(1,0,0,1,-125.632,-117.042)">
        <path d="M373.818,190.913C389.238,199.163 418.2,156.38 467.39,163.76C516.59,171.14 580.51,195.7 587.29,277.15C594.07,358.6 547,380.27 553.64,397.71C560.29,415.15 612.168,450.801 583.558,491.591C554.938,532.381 539.883,536.985 519.963,529.005C500.043,521.025 471.38,495.81 448.95,508.82C426.52,521.83 405.06,554.06 367.64,541.81C330.21,529.56 217.95,495 158.84,351.34C143.03,312.919 150.336,273.37 143.073,241.161C127.778,173.333 115.091,134.023 138.684,118.499C152.173,109.623 282.888,142.243 373.818,190.913Z" style="fill:rgb(254,252,242);fill-rule:nonzero;"/>
        <path d="M369.78,325.64L197.07,176.44C197.07,176.44 213.59,177.06 221.85,174.5C228.29,172.51 223.2,164.56 211.1,159.19C205.45,156.68 183.59,148.68 173.57,145.51C164.59,142.67 150.77,138.13 153.34,156.6C156.07,176.22 166.58,203.32 170.17,209.56C173.76,215.8 178.64,221.7 181.32,213.06C184,204.42 181.44,192.97 183.75,189.34L358.82,339.46C359.28,336.03 360.5,332.73 362.74,329.85C364.86,327.71 367.26,326.35 369.78,325.63L369.78,325.64Z" style="fill:rgb(83,59,106);fill-rule:nonzero;"/>
        <path d="M385.63,514.27C400.5,514.75 482.44,438.37 529.83,355.75C577.23,273.13 538.6,200.15 472.39,198.11C406.18,196.07 373.08,255.02 373.08,255.02C373.08,255.02 328.52,175.74 242.4,207.88C156.28,240.03 187.98,365.26 242.88,417.39C297.78,469.52 351.11,513.15 385.63,514.27Z" style="fill:rgb(178,209,222);fill-rule:nonzero;"/>
        <path d="M501.05,439.05L373.87,329.18C370.91,326.63 366.46,326.5 363.54,329.09C363.44,329.18 363.35,329.26 363.25,329.35C362.9,329.68 362.58,330.04 362.3,330.43C361.59,331.42 360.99,332.46 360.5,333.53C359.04,336.7 359.99,340.47 362.64,342.74L489.88,451.84C492.95,454.47 497.51,454.39 500.48,451.65L501.25,450.94C504.75,447.71 504.66,442.15 501.06,439.04L501.05,439.05Z" style="fill:rgb(83,59,106);fill-rule:nonzero;"/>
        <path d="M492.59,433.72C492.59,433.72 504.44,431.47 510.71,431.32C516.98,431.17 524.56,430.46 525.76,431.42L563.01,461.42C573.83,470.05 568.08,474.52 564.37,475.57L540.75,479.57C538.81,480.12 537.43,481.84 537.31,483.85L535.2,502.86C534.98,506.7 533.19,512.68 526.68,507.01C526.68,507.01 488.95,478.53 486.65,476.42C484.79,474.72 483.09,469.96 483.29,464.3C483.49,458.64 483.34,445.5 483.34,445.5C483.54,439.98 487.28,435.22 492.59,433.72Z" style="fill:rgb(83,59,106);fill-rule:nonzero;"/>
    </g>
</svg>
