<?xml version="1.0" encoding="UTF-8"?>
<svg id="Design" xmlns="http://www.w3.org/2000/svg" viewBox="0 0 497 383.7">
    <path
        d="M301.68,187.26c-1.8,30.7-5.7,113.2-13.7,120.1-8,7-180.7,13.3-197.7-11.5s4.5-237.8,1-258.4c-3.5-20.6,26.4-29.2,86.1-27.6,59.7,1.6,124.6,16.8,126.1,30.6s-1.8,146.8-1.8,146.8h0Z"
        style="fill:#fde4ba; stroke-width:0px;" />
    <path
        d="M347.08,207.76c-6.3,30.1-27.8,108.6-36.7,114.4-8.9,5.7-169.4-10.2-182.6-37.2S166.98,50.36,166.58,29.46c-.5-20.9,30.4-25,89.2-14.7s118,34.6,117.4,48.4-26.2,144.7-26.2,144.7h0l.1-.1Z"
        style="fill:#fff; stroke:#fac25e; stroke-linecap:round; stroke-linejoin:round; stroke-width:3.9px;" />
    <path
        d="M368.58,48.36C328.08,20.86,172.68-9.74,163.68,2.96c-7.9,11.3-26.2,113.5-30.4,137.8h-.2l-19,143.5s-6.4,18.2,80.1,37c93.7,20.4,105.9,15.8,122.5,3.4,16.6-12.3,42.7-135.5,50.5-187.8,7.8-52.2,17.5-77.6,1.4-88.5h0ZM304.98,316.26c-19.6,24.5-175.3-25.3-177.4-30.6s21.3-145.7,21.3-145.7c0,0,14.6-119.2,26.4-125.8,22.9-12.7,183.6,27.8,189.9,50.4,6.3,22.5-40.8,227.2-60.3,251.7h.1Z"
        style="fill:#fac25e; stroke-width:0px;" />
    <path
        d="M423.08,187.36c4.2,5.9,16.5-6.7,20.6-12s4.4-11.4,1.5-13.2c-2.9-1.8-7.4-2.3-13.7,7.9-6.3,10.3-11.3,13.4-8.4,17.3h0Z"
        style="fill:#b2d1de; stroke-width:0px;" />
    <path
        d="M441.58,208.26c2.3-9.4,10.9-14.1,26.8-20.6s18.3-8.2,24.8-3.7,7.2,10.2-18.4,21.8c-25.6,11.6-35.3,11-33.2,2.5h0Z"
        style="fill:#b2d1de; stroke-width:0px;" />
    <path
        d="M456.98,244.86c-4.2-4,0-12,5.9-14.5,6-2.5,15.9-1.4,17.4,2.6,1.5,4.1-3,7.7-8.9,9.5s-10.2,6.2-14.3,2.4h-.1Z"
        style="fill:#b2d1de; stroke-width:0px;" />
    <path
        d="M208.58,132.66c4.1,0,3.7-1,5.2-4.5,1.1-2.5,2.6-4.9,4.3-4.2,1.1.5,1.8,4.4,2.3,6.4.5,2.2.1,2.3,2.5,2.8,3.4,1.1,3.2.5,6.4,1.8,3.5,1.4-.8,3.8-2.5,4.4s-3,1.2-3.2,1.9c-.2.6.9,2.9,1.6,5.1.5,1.7,1.8,4.8,1.2,5.2-.5.4-1.4,1.1-3.6-.7-1.7-1.4-2.4-2-3.3-3-.8-1-2.8-2.8-3.5-3.1-.4-.2-3,2.1-4.1,2.9-5.5,3.6-7,2.9-7.3,1.5-.2-.9,1-3.7,2.6-5.6,1.1-1.2,2-2.8,2-3.3,0-.9-3-2.5-4.2-3.1-1.6-.7-3.9-2.8-4-3.8.8-1.6,5.5-.8,7.8-.6h0l-.2-.1Z"
        style="fill:#533b6a; stroke-width:0px;" />
    <path
        d="M187.88,168.96c4.1,0,3.7-1,5.2-4.5,1.1-2.5,2.6-4.9,4.3-4.2,1.1.5,1.8,4.4,2.3,6.4.5,2.2.1,2.3,2.5,2.8,3.4,1.1,3.2.5,6.4,1.8,3.5,1.4-.8,3.8-2.5,4.4s-3,1.2-3.2,1.9c-.2.6.9,2.9,1.6,5.1.5,1.7,1.8,4.8,1.2,5.2-.5.4-1.4,1.1-3.6-.7-1.7-1.4-2.4-2-3.3-3s-2.8-2.8-3.5-3.1c-.4-.2-3,2.1-4.1,2.9-5.5,3.6-7,2.9-7.3,1.5-.2-.9,1-3.7,2.6-5.6,1.1-1.2,2-2.8,2-3.3,0-.9-3-2.5-4.2-3.1-1.6-.7-3.9-2.8-4-3.8.8-1.6,5.5-.8,7.8-.6h0l-.2-.1Z"
        style="fill:#533b6a; stroke-width:0px;" />
    <path
        d="M197.38,205.26c4.1,0,3.7-1,5.2-4.5,1.1-2.5,2.6-4.9,4.3-4.2,1.1.5,1.8,4.4,2.3,6.4.5,2.2.1,2.3,2.5,2.8,3.4,1.1,3.2.5,6.4,1.8,3.5,1.4-.8,3.8-2.5,4.4s-3,1.2-3.2,1.9c-.2.6.9,2.9,1.6,5.1.5,1.7,1.8,4.8,1.2,5.2-.5.4-1.4,1.1-3.6-.7-1.7-1.4-2.4-2-3.3-3s-2.8-2.8-3.5-3.1c-.4-.2-3,2.1-4.1,2.9-5.5,3.6-7,2.9-7.3,1.5-.2-.9,1-3.7,2.6-5.6,1.1-1.2,2-2.8,2-3.3,0-.9-3-2.5-4.2-3.1-1.6-.7-3.9-2.8-4-3.8.8-1.6,5.5-.8,7.8-.6h0l-.2-.1Z"
        style="fill:#533b6a; stroke-width:0px;" />
    <path
        d="M238.28,222.06c4.1,0,3.7-1,5.2-4.5,1.1-2.5,2.6-4.9,4.3-4.2,1.1.5,1.8,4.4,2.3,6.4.5,2.2.1,2.3,2.5,2.8,3.4,1.1,3.2.5,6.4,1.8,3.5,1.4-.8,3.8-2.5,4.4s-3,1.2-3.2,1.9c-.2.6.9,2.9,1.6,5.1.5,1.7,1.8,4.8,1.2,5.2-.5.4-1.4,1.1-3.6-.7-1.7-1.4-2.4-2-3.3-3-.8-1-2.8-2.8-3.5-3.1-.4-.2-3,2.1-4.1,2.9-5.5,3.6-7,2.9-7.3,1.5-.2-.9,1-3.7,2.6-5.6,1.1-1.2,2-2.8,2-3.3,0-.9-3-2.5-4.2-3.1-1.6-.7-3.9-2.8-4-3.8.8-1.6,5.5-.8,7.8-.6h0l-.2-.1Z"
        style="fill:#533b6a; stroke-width:0px;" />
    <path
        d="M245.78,125.06c4.1,0,3.7-1,5.2-4.5,1.1-2.5,2.6-4.9,4.3-4.2,1.1.5,1.8,4.4,2.3,6.4.5,2.2.1,2.3,2.5,2.8,3.4,1.1,3.2.5,6.4,1.8,3.5,1.4-.8,3.8-2.5,4.4s-3,1.2-3.2,1.9c-.2.6.9,2.9,1.6,5.1.5,1.7,1.8,4.8,1.2,5.2-.5.4-1.4,1.1-3.6-.7-1.7-1.4-2.4-2-3.3-3s-2.8-2.8-3.5-3.1c-.4-.2-3,2.1-4.1,2.9-5.5,3.6-7,2.9-7.3,1.5-.2-.9,1-3.7,2.6-5.6,1.1-1.2,2-2.8,2-3.3,0-.9-3-2.5-4.2-3.1-1.6-.7-3.9-2.8-4-3.8.8-1.6,5.5-.8,7.8-.6h0l-.2-.1Z"
        style="fill:#533b6a; stroke-width:0px;" />
    <path
        d="M283.38,144.46c4.1,0,3.7-1,5.2-4.5,1.1-2.5,2.6-4.9,4.3-4.2,1.1.5,1.8,4.4,2.3,6.4.5,2.2.1,2.3,2.5,2.8,3.4,1.1,3.2.5,6.4,1.8,3.5,1.4-.8,3.8-2.5,4.4s-3,1.2-3.2,1.9c-.2.6.9,2.9,1.6,5.1.5,1.7,1.8,4.8,1.2,5.2-.5.4-1.4,1.1-3.6-.7-1.7-1.4-2.4-2-3.3-3s-2.8-2.8-3.5-3.1c-.4-.2-3,2.1-4.1,2.9-5.5,3.6-7,2.9-7.3,1.5-.2-.9,1-3.7,2.6-5.6,1.1-1.2,2-2.8,2-3.3,0-.9-3-2.5-4.2-3.1-1.6-.7-3.9-2.8-4-3.8.8-1.6,5.5-.8,7.8-.6h0l-.2-.1Z"
        style="fill:#533b6a; stroke-width:0px;" />
    <path
        d="M292.18,179.86c4.1,0,3.7-1,5.2-4.5,1.1-2.5,2.6-4.9,4.3-4.2,1.1.5,1.8,4.4,2.3,6.4.5,2.2.1,2.3,2.5,2.8,3.4,1.1,3.2.5,6.4,1.8,3.5,1.4-.8,3.8-2.5,4.4s-3,1.2-3.2,1.9c-.2.6.9,2.9,1.6,5.1.5,1.7,1.8,4.8,1.2,5.2-.5.4-1.4,1.1-3.6-.7-1.7-1.4-2.4-2-3.3-3s-2.8-2.8-3.5-3.1c-.4-.2-3,2.1-4.1,2.9-5.5,3.6-7,2.9-7.3,1.5-.2-.9,1-3.7,2.6-5.6,1.1-1.2,2-2.8,2-3.3,0-.9-3-2.5-4.2-3.1-1.6-.7-3.9-2.8-4-3.8.8-1.6,5.5-.8,7.8-.6h0l-.2-.1Z"
        style="fill:#533b6a; stroke-width:0px;" />
    <path
        d="M275.58,211.86c4.1,0,3.7-1,5.2-4.5,1.1-2.5,2.6-4.9,4.3-4.2,1.1.5,1.8,4.4,2.3,6.4.5,2.2.1,2.3,2.5,2.8,3.4,1.1,3.2.5,6.4,1.8,3.5,1.4-.8,3.8-2.5,4.4s-3,1.2-3.2,1.9c-.2.6.9,2.9,1.6,5.1.5,1.7,1.8,4.8,1.2,5.2-.5.4-1.4,1.1-3.6-.7-1.7-1.4-2.4-2-3.3-3s-2.8-2.8-3.5-3.1c-.4-.2-3,2.1-4.1,2.9-5.5,3.6-7,2.9-7.3,1.5-.2-.9,1-3.7,2.6-5.6,1.1-1.2,2-2.8,2-3.3,0-.9-3-2.5-4.2-3.1-1.6-.7-3.9-2.8-4-3.8.8-1.6,5.5-.8,7.8-.6h0l-.2-.1Z"
        style="fill:#533b6a; stroke-width:0px;" />
    <path
        d="M183.98,322.26c-5.7-16.7-14.3-19.3-19.8-23.2-9.6-4.3-22-6.4-33.3-.3-29.4,15.6-30.2,47.5-21.1,59.9,31.4,43.1,66.5,15.8,75.4-10.8,1.3-5,3.4-12.1-1.2-25.5h0v-.1Z"
        style="fill:#533b6a; stroke:#fff; stroke-miterlimit:10; stroke-width:5px;" />
    <path
        d="M284.38,322.26c-5.7-16.7-14.3-19.3-19.8-23.2-9.6-4.3-22-6.4-33.3-.3-29.4,15.6-30.2,47.5-21.1,59.9,31.4,43.1,66.5,15.8,75.4-10.8,1.3-5,3.4-12.1-1.2-25.5h0v-.1Z"
        style="fill:#533b6a; stroke:#fff; stroke-miterlimit:10; stroke-width:5px;" />
    <path
        d="M231.78,334.76c3.6-1.9,8.5,7.5,10.9,10.2s4.1-3.2,12.2-12.1c8.6-9.4,10.7-9.8,12.2-6.9s-19,27.5-23.4,27c-5.6-.7-15.3-16.5-12-18.2h.1Z"
        style="fill:#fff; stroke-width:0px;" />
    <path
        d="M130.28,325.16c2.3-2.4,14.2,11,19.8,15.8s12.9,10.2,10.3,14c-2.6,3.8-16.2-11.1-21.2-15.9-4.9-4.8-11.8-10.8-8.9-13.9h0Z"
        style="fill:#fff; stroke-width:0px;" />
    <path
        d="M131.18,354.56c-2.1-2.7,10.8-15.5,12.9-17.2,2-1.7,12-13.5,14.9-12.6s-2.7,10.3-11.9,19.1c-9.2,8.8-13.2,14.1-15.8,10.7h-.1Z"
        style="fill:#fff; stroke-width:0px;" />
    <path
        d="M436.18,240.86c-12.4-36-31-41.5-43-50-20.9-9.3-47.7-13.7-72.4-.7-63.8,33.6-65.5,102-45.9,128.7,68.2,92.6,144.5,34,163.8-23.2,2.7-10.7,7.4-26-2.5-54.8h0Z"
        style="fill:#b2d1de; stroke:#fff; stroke-miterlimit:10; stroke-width:5px;" />
    <path
        d="M123.18,274.96c-8.7-25.7-21.7-29.7-30.1-35.8-14.6-6.7-33.4-9.8-50.7-.5C-2.32,262.76-3.52,311.66,10.18,330.86c47.7,66.3,101.2,24.3,114.8-16.7,1.9-7.8,5.2-18.6-1.8-39.2h0Z"
        style="fill:#533b6a; stroke:#fff; stroke-miterlimit:10; stroke-width:5px;" />
    <path
        d="M306.18,261.16c10.5-5.6,24.5,21.6,31.5,29.6,6.9,8,11.9-9.4,35.4-34.9,24.8-27.1,31.1-28.3,35.3-19.9,4.3,8.3-55.1,79.5-67.5,78-16.2-2-44.2-47.7-34.7-52.7h0v-.1Z"
        style="fill:#fff; stroke-width:0px;" />
    <path
        d="M39.88,273.86c3.8-4,23.9,18.6,33.4,26.6s21.8,17.3,17.4,23.6c-4.4,6.3-27.4-18.8-35.7-26.8-8.3-8.1-19.9-18.2-15-23.4h-.1Z"
        style="fill:#fff; stroke-width:0px;" />
    <path
        d="M41.18,323.56c-3.6-4.6,18.3-26.2,21.7-29s20.2-22.7,25.1-21.2-4.5,17.4-20.1,32.2c-15.6,14.8-22.3,23.8-26.7,18.1v-.1Z"
        style="fill:#fff; stroke-width:0px;" />
</svg>