<svg width="142" height="28" viewBox="0 0 142 28" fill="none" xmlns="http://www.w3.org/2000/svg">
<mask id="path-1-outside-1_1_90" maskUnits="userSpaceOnUse" x="-0.59259" y="-0.348389" width="143" height="28" fill="black">
<rect fill="white" x="-0.59259" y="-0.348389" width="143" height="28"/>
<path d="M2.99141 5.56361L0.62341 5.11561V2.87561H5.83941C6.18074 2.87561 6.84208 2.85428 7.82341 2.81161C9.06074 2.72628 10.1807 2.68361 11.1834 2.68361C13.4874 2.68361 15.3007 2.96094 16.6234 3.51561C17.9461 4.07028 18.8847 4.87028 19.4394 5.91561C19.9941 6.93961 20.2714 8.24094 20.2714 9.81961C20.2714 12.5503 19.4394 14.6729 17.7754 16.1876C16.1114 17.7023 13.7434 18.4596 10.6714 18.4596C9.71141 18.4596 8.97541 18.4276 8.46341 18.3636V24.1876L12.6874 24.5396V26.6516H0.52741V24.5396L2.99141 24.2196V5.56361ZM8.43141 16.1556C8.85808 16.2623 9.56208 16.3156 10.5434 16.3156C13.3167 16.3156 14.7034 14.1929 14.7034 9.94761C14.7034 8.17694 14.3514 6.88628 13.6474 6.07561C12.9647 5.24361 11.9301 4.82761 10.5434 4.82761C9.94608 4.82761 9.47674 4.85961 9.13541 4.92361C8.79408 4.96628 8.55941 4.99828 8.43141 5.01961V16.1556ZM21.6784 21.5316C21.6784 19.6543 22.6277 18.2143 24.5264 17.2116C26.4464 16.2089 28.9637 15.6969 32.0784 15.6756V15.0356C32.0784 14.2676 31.9931 13.6596 31.8224 13.2116C31.6517 12.7636 31.3424 12.4329 30.8944 12.2196C30.4464 11.9849 29.7851 11.8676 28.9104 11.8676C27.8651 11.8676 26.9264 11.9956 26.0944 12.2516C25.2837 12.4863 24.4304 12.8063 23.5344 13.2116L22.4464 10.9076C22.7877 10.6303 23.3424 10.2996 24.1104 9.91561C24.8784 9.51028 25.7957 9.16894 26.8624 8.89161C27.9504 8.59294 29.0811 8.44361 30.2544 8.44361C31.9611 8.44361 33.2944 8.66761 34.2544 9.11561C35.2357 9.56361 35.9291 10.2569 36.3344 11.1956C36.7611 12.1343 36.9744 13.4143 36.9744 15.0356V24.5396H38.6384V26.5556C38.1477 26.6623 37.4651 26.7689 36.5904 26.8756C35.7157 26.9823 34.9691 27.0356 34.3504 27.0356C33.5397 27.0356 32.9957 26.9183 32.7184 26.6836C32.4624 26.4489 32.3344 25.9796 32.3344 25.2756V24.5396C31.8011 25.1796 31.0864 25.7556 30.1904 26.2676C29.2944 26.7583 28.2597 27.0036 27.0864 27.0036C26.0837 27.0036 25.1664 26.7903 24.3344 26.3636C23.5237 25.9156 22.8731 25.2863 22.3824 24.4756C21.9131 23.6436 21.6784 22.6623 21.6784 21.5316ZM29.5824 24.0596C29.9664 24.0596 30.3931 23.9529 30.8624 23.7396C31.3317 23.5049 31.7371 23.2276 32.0784 22.9076V17.8196C30.4144 17.8196 29.1771 18.1183 28.3664 18.7156C27.5771 19.3129 27.1824 20.0809 27.1824 21.0196C27.1824 21.9796 27.3957 22.7263 27.8224 23.2596C28.2491 23.7929 28.8357 24.0596 29.5824 24.0596ZM42.0404 3.54761L39.8004 3.13161V1.17961L46.2004 0.41161H46.2964L47.2244 1.08361V24.2516L49.3044 24.5396V26.6516H39.9924V24.5396L42.0404 24.2516V3.54761ZM65.8084 26.9716C65.0404 26.9716 64.4857 26.8116 64.1444 26.4916C63.8031 26.1503 63.6324 25.6596 63.6324 25.0196V24.3156C63.1204 25.0196 62.3524 25.6489 61.3284 26.2036C60.3044 26.7369 59.2697 27.0036 58.2244 27.0036C56.1337 27.0036 54.6404 26.4916 53.7444 25.4676C52.8697 24.4223 52.4324 22.6836 52.4324 20.2516V11.3556L50.9284 10.9396V8.89161L56.9444 8.47561H56.9764L57.6804 8.92361V20.3796C57.6804 21.7663 57.8511 22.7369 58.1924 23.2916C58.5337 23.8249 59.1417 24.0916 60.0164 24.0916C61.2111 24.0916 62.2137 23.6863 63.0244 22.8756V11.3556L61.0404 10.8756V8.89161L67.3764 8.47561H67.4724L68.2404 8.92361V24.4436H69.9364V26.4916C69.2111 26.6409 68.5391 26.7583 67.9204 26.8436C67.3231 26.9289 66.6191 26.9716 65.8084 26.9716ZM72.0662 24.5396L73.7622 24.2516V12.2196L71.8742 11.6436V9.14761L77.6982 8.44361L77.9542 8.57161L78.5942 9.46761V11.0676C79.2768 10.3636 80.2795 9.76628 81.6022 9.27561C82.9248 8.76361 84.0555 8.50761 84.9942 8.50761C86.1462 8.50761 87.0742 8.69961 87.7782 9.08361C88.5035 9.46761 89.0475 10.0649 89.4102 10.8756C90.1355 10.1929 91.0422 9.62761 92.1302 9.17961C93.2395 8.73161 94.3595 8.50761 95.4902 8.50761C97.3675 8.50761 98.7115 9.05161 99.5222 10.1396C100.354 11.2276 100.77 13.0089 100.77 15.4836V24.2516L102.69 24.5396V26.6516H94.0182V24.5396L95.4582 24.2516V15.6116C95.4582 14.0756 95.2768 13.0089 94.9142 12.4116C94.5728 11.8143 93.9328 11.5156 92.9942 11.5156C92.0128 11.5156 90.9888 11.9316 89.9222 12.7636C90.0502 13.5529 90.1142 14.4596 90.1142 15.4836V24.2516L91.9062 24.5396V26.6516H83.1702V24.5396L84.7702 24.2516V15.5156C84.7702 14.0009 84.5995 12.9556 84.2582 12.3796C83.9382 11.8036 83.3195 11.5156 82.4022 11.5156C81.8048 11.5156 81.2075 11.6543 80.6102 11.9316C80.0342 12.1876 79.5328 12.5076 79.1062 12.8916V24.2516L80.8342 24.5396V26.6516H72.0662V24.5396ZM103.439 1.17961L109.743 0.41161H109.807L110.831 1.05161V10.3956C111.386 9.81961 112.069 9.35028 112.879 8.98761C113.69 8.60361 114.554 8.41161 115.471 8.41161C117.519 8.41161 119.173 9.13694 120.431 10.5876C121.711 12.0169 122.351 14.2143 122.351 17.1796C122.351 19.0356 121.957 20.7103 121.167 22.2036C120.399 23.6969 119.29 24.8703 117.839 25.7236C116.389 26.5769 114.693 27.0036 112.751 27.0036C110.917 27.0036 109.381 26.8649 108.143 26.5876C106.906 26.2889 106.095 26.0223 105.711 25.7876V3.45161L103.439 3.03561V1.17961ZM113.487 11.5476C112.954 11.5476 112.453 11.6649 111.983 11.8996C111.514 12.1343 111.13 12.4116 110.831 12.7316V24.3156C110.917 24.5289 111.151 24.6996 111.535 24.8276C111.941 24.9556 112.399 25.0196 112.911 25.0196C114.106 25.0196 115.055 24.3903 115.759 23.1316C116.463 21.8729 116.815 20.0169 116.815 17.5636C116.815 15.4943 116.517 13.9796 115.919 13.0196C115.322 12.0383 114.511 11.5476 113.487 11.5476ZM124.303 21.5316C124.303 19.6543 125.253 18.2143 127.151 17.2116C129.071 16.2089 131.589 15.6969 134.703 15.6756V15.0356C134.703 14.2676 134.618 13.6596 134.447 13.2116C134.277 12.7636 133.967 12.4329 133.519 12.2196C133.071 11.9849 132.41 11.8676 131.535 11.8676C130.49 11.8676 129.551 11.9956 128.719 12.2516C127.909 12.4863 127.055 12.8063 126.159 13.2116L125.071 10.9076C125.413 10.6303 125.967 10.2996 126.735 9.91561C127.503 9.51028 128.421 9.16894 129.487 8.89161C130.575 8.59294 131.706 8.44361 132.879 8.44361C134.586 8.44361 135.919 8.66761 136.879 9.11561C137.861 9.56361 138.554 10.2569 138.959 11.1956C139.386 12.1343 139.599 13.4143 139.599 15.0356V24.5396H141.263V26.5556C140.773 26.6623 140.09 26.7689 139.215 26.8756C138.341 26.9823 137.594 27.0356 136.975 27.0356C136.165 27.0356 135.621 26.9183 135.343 26.6836C135.087 26.4489 134.959 25.9796 134.959 25.2756V24.5396C134.426 25.1796 133.711 25.7556 132.815 26.2676C131.919 26.7583 130.885 27.0036 129.711 27.0036C128.709 27.0036 127.791 26.7903 126.959 26.3636C126.149 25.9156 125.498 25.2863 125.007 24.4756C124.538 23.6436 124.303 22.6623 124.303 21.5316ZM132.207 24.0596C132.591 24.0596 133.018 23.9529 133.487 23.7396C133.957 23.5049 134.362 23.2276 134.703 22.9076V17.8196C133.039 17.8196 131.802 18.1183 130.991 18.7156C130.202 19.3129 129.807 20.0809 129.807 21.0196C129.807 21.9796 130.021 22.7263 130.447 23.2596C130.874 23.7929 131.461 24.0596 132.207 24.0596Z"/>
</mask>
<path d="M2.99141 5.56361L0.62341 5.11561V2.87561H5.83941C6.18074 2.87561 6.84208 2.85428 7.82341 2.81161C9.06074 2.72628 10.1807 2.68361 11.1834 2.68361C13.4874 2.68361 15.3007 2.96094 16.6234 3.51561C17.9461 4.07028 18.8847 4.87028 19.4394 5.91561C19.9941 6.93961 20.2714 8.24094 20.2714 9.81961C20.2714 12.5503 19.4394 14.6729 17.7754 16.1876C16.1114 17.7023 13.7434 18.4596 10.6714 18.4596C9.71141 18.4596 8.97541 18.4276 8.46341 18.3636V24.1876L12.6874 24.5396V26.6516H0.52741V24.5396L2.99141 24.2196V5.56361ZM8.43141 16.1556C8.85808 16.2623 9.56208 16.3156 10.5434 16.3156C13.3167 16.3156 14.7034 14.1929 14.7034 9.94761C14.7034 8.17694 14.3514 6.88628 13.6474 6.07561C12.9647 5.24361 11.9301 4.82761 10.5434 4.82761C9.94608 4.82761 9.47674 4.85961 9.13541 4.92361C8.79408 4.96628 8.55941 4.99828 8.43141 5.01961V16.1556ZM21.6784 21.5316C21.6784 19.6543 22.6277 18.2143 24.5264 17.2116C26.4464 16.2089 28.9637 15.6969 32.0784 15.6756V15.0356C32.0784 14.2676 31.9931 13.6596 31.8224 13.2116C31.6517 12.7636 31.3424 12.4329 30.8944 12.2196C30.4464 11.9849 29.7851 11.8676 28.9104 11.8676C27.8651 11.8676 26.9264 11.9956 26.0944 12.2516C25.2837 12.4863 24.4304 12.8063 23.5344 13.2116L22.4464 10.9076C22.7877 10.6303 23.3424 10.2996 24.1104 9.91561C24.8784 9.51028 25.7957 9.16894 26.8624 8.89161C27.9504 8.59294 29.0811 8.44361 30.2544 8.44361C31.9611 8.44361 33.2944 8.66761 34.2544 9.11561C35.2357 9.56361 35.9291 10.2569 36.3344 11.1956C36.7611 12.1343 36.9744 13.4143 36.9744 15.0356V24.5396H38.6384V26.5556C38.1477 26.6623 37.4651 26.7689 36.5904 26.8756C35.7157 26.9823 34.9691 27.0356 34.3504 27.0356C33.5397 27.0356 32.9957 26.9183 32.7184 26.6836C32.4624 26.4489 32.3344 25.9796 32.3344 25.2756V24.5396C31.8011 25.1796 31.0864 25.7556 30.1904 26.2676C29.2944 26.7583 28.2597 27.0036 27.0864 27.0036C26.0837 27.0036 25.1664 26.7903 24.3344 26.3636C23.5237 25.9156 22.8731 25.2863 22.3824 24.4756C21.9131 23.6436 21.6784 22.6623 21.6784 21.5316ZM29.5824 24.0596C29.9664 24.0596 30.3931 23.9529 30.8624 23.7396C31.3317 23.5049 31.7371 23.2276 32.0784 22.9076V17.8196C30.4144 17.8196 29.1771 18.1183 28.3664 18.7156C27.5771 19.3129 27.1824 20.0809 27.1824 21.0196C27.1824 21.9796 27.3957 22.7263 27.8224 23.2596C28.2491 23.7929 28.8357 24.0596 29.5824 24.0596ZM42.0404 3.54761L39.8004 3.13161V1.17961L46.2004 0.41161H46.2964L47.2244 1.08361V24.2516L49.3044 24.5396V26.6516H39.9924V24.5396L42.0404 24.2516V3.54761ZM65.8084 26.9716C65.0404 26.9716 64.4857 26.8116 64.1444 26.4916C63.8031 26.1503 63.6324 25.6596 63.6324 25.0196V24.3156C63.1204 25.0196 62.3524 25.6489 61.3284 26.2036C60.3044 26.7369 59.2697 27.0036 58.2244 27.0036C56.1337 27.0036 54.6404 26.4916 53.7444 25.4676C52.8697 24.4223 52.4324 22.6836 52.4324 20.2516V11.3556L50.9284 10.9396V8.89161L56.9444 8.47561H56.9764L57.6804 8.92361V20.3796C57.6804 21.7663 57.8511 22.7369 58.1924 23.2916C58.5337 23.8249 59.1417 24.0916 60.0164 24.0916C61.2111 24.0916 62.2137 23.6863 63.0244 22.8756V11.3556L61.0404 10.8756V8.89161L67.3764 8.47561H67.4724L68.2404 8.92361V24.4436H69.9364V26.4916C69.2111 26.6409 68.5391 26.7583 67.9204 26.8436C67.3231 26.9289 66.6191 26.9716 65.8084 26.9716ZM72.0662 24.5396L73.7622 24.2516V12.2196L71.8742 11.6436V9.14761L77.6982 8.44361L77.9542 8.57161L78.5942 9.46761V11.0676C79.2768 10.3636 80.2795 9.76628 81.6022 9.27561C82.9248 8.76361 84.0555 8.50761 84.9942 8.50761C86.1462 8.50761 87.0742 8.69961 87.7782 9.08361C88.5035 9.46761 89.0475 10.0649 89.4102 10.8756C90.1355 10.1929 91.0422 9.62761 92.1302 9.17961C93.2395 8.73161 94.3595 8.50761 95.4902 8.50761C97.3675 8.50761 98.7115 9.05161 99.5222 10.1396C100.354 11.2276 100.77 13.0089 100.77 15.4836V24.2516L102.69 24.5396V26.6516H94.0182V24.5396L95.4582 24.2516V15.6116C95.4582 14.0756 95.2768 13.0089 94.9142 12.4116C94.5728 11.8143 93.9328 11.5156 92.9942 11.5156C92.0128 11.5156 90.9888 11.9316 89.9222 12.7636C90.0502 13.5529 90.1142 14.4596 90.1142 15.4836V24.2516L91.9062 24.5396V26.6516H83.1702V24.5396L84.7702 24.2516V15.5156C84.7702 14.0009 84.5995 12.9556 84.2582 12.3796C83.9382 11.8036 83.3195 11.5156 82.4022 11.5156C81.8048 11.5156 81.2075 11.6543 80.6102 11.9316C80.0342 12.1876 79.5328 12.5076 79.1062 12.8916V24.2516L80.8342 24.5396V26.6516H72.0662V24.5396ZM103.439 1.17961L109.743 0.41161H109.807L110.831 1.05161V10.3956C111.386 9.81961 112.069 9.35028 112.879 8.98761C113.69 8.60361 114.554 8.41161 115.471 8.41161C117.519 8.41161 119.173 9.13694 120.431 10.5876C121.711 12.0169 122.351 14.2143 122.351 17.1796C122.351 19.0356 121.957 20.7103 121.167 22.2036C120.399 23.6969 119.29 24.8703 117.839 25.7236C116.389 26.5769 114.693 27.0036 112.751 27.0036C110.917 27.0036 109.381 26.8649 108.143 26.5876C106.906 26.2889 106.095 26.0223 105.711 25.7876V3.45161L103.439 3.03561V1.17961ZM113.487 11.5476C112.954 11.5476 112.453 11.6649 111.983 11.8996C111.514 12.1343 111.13 12.4116 110.831 12.7316V24.3156C110.917 24.5289 111.151 24.6996 111.535 24.8276C111.941 24.9556 112.399 25.0196 112.911 25.0196C114.106 25.0196 115.055 24.3903 115.759 23.1316C116.463 21.8729 116.815 20.0169 116.815 17.5636C116.815 15.4943 116.517 13.9796 115.919 13.0196C115.322 12.0383 114.511 11.5476 113.487 11.5476ZM124.303 21.5316C124.303 19.6543 125.253 18.2143 127.151 17.2116C129.071 16.2089 131.589 15.6969 134.703 15.6756V15.0356C134.703 14.2676 134.618 13.6596 134.447 13.2116C134.277 12.7636 133.967 12.4329 133.519 12.2196C133.071 11.9849 132.41 11.8676 131.535 11.8676C130.49 11.8676 129.551 11.9956 128.719 12.2516C127.909 12.4863 127.055 12.8063 126.159 13.2116L125.071 10.9076C125.413 10.6303 125.967 10.2996 126.735 9.91561C127.503 9.51028 128.421 9.16894 129.487 8.89161C130.575 8.59294 131.706 8.44361 132.879 8.44361C134.586 8.44361 135.919 8.66761 136.879 9.11561C137.861 9.56361 138.554 10.2569 138.959 11.1956C139.386 12.1343 139.599 13.4143 139.599 15.0356V24.5396H141.263V26.5556C140.773 26.6623 140.09 26.7689 139.215 26.8756C138.341 26.9823 137.594 27.0356 136.975 27.0356C136.165 27.0356 135.621 26.9183 135.343 26.6836C135.087 26.4489 134.959 25.9796 134.959 25.2756V24.5396C134.426 25.1796 133.711 25.7556 132.815 26.2676C131.919 26.7583 130.885 27.0036 129.711 27.0036C128.709 27.0036 127.791 26.7903 126.959 26.3636C126.149 25.9156 125.498 25.2863 125.007 24.4756C124.538 23.6436 124.303 22.6623 124.303 21.5316ZM132.207 24.0596C132.591 24.0596 133.018 23.9529 133.487 23.7396C133.957 23.5049 134.362 23.2276 134.703 22.9076V17.8196C133.039 17.8196 131.802 18.1183 130.991 18.7156C130.202 19.3129 129.807 20.0809 129.807 21.0196C129.807 21.9796 130.021 22.7263 130.447 23.2596C130.874 23.7929 131.461 24.0596 132.207 24.0596Z" fill="#4B325E"/>
<path d="M2.99141 5.56361H3.49141V5.14934L3.08436 5.07232L2.99141 5.56361ZM0.62341 5.11561H0.12341V5.52989L0.530464 5.6069L0.62341 5.11561ZM0.62341 2.87561V2.37561H0.12341V2.87561H0.62341ZM7.82341 2.81161L7.84514 3.3113L7.85781 3.31042L7.82341 2.81161ZM16.6234 3.51561L16.8168 3.05451L16.8168 3.05451L16.6234 3.51561ZM19.4394 5.91561L18.9977 6.14998L18.9998 6.15375L19.4394 5.91561ZM17.7754 16.1876L17.4388 15.8179L17.4388 15.8179L17.7754 16.1876ZM8.46341 18.3636L8.52543 17.8675L7.96341 17.7972V18.3636H8.46341ZM8.46341 24.1876H7.96341V24.6477L8.42189 24.6859L8.46341 24.1876ZM12.6874 24.5396H13.1874V24.0795L12.7289 24.0413L12.6874 24.5396ZM12.6874 26.6516V27.1516H13.1874V26.6516H12.6874ZM0.52741 26.6516H0.0274097V27.1516H0.52741V26.6516ZM0.52741 24.5396L0.463015 24.0438L0.0274097 24.1003V24.5396H0.52741ZM2.99141 24.2196L3.0558 24.7154L3.49141 24.6589V24.2196H2.99141ZM8.43141 16.1556H7.93141V16.546L8.31014 16.6407L8.43141 16.1556ZM13.6474 6.07561L13.2607 6.39289L13.2699 6.40345L13.6474 6.07561ZM9.13541 4.92361L9.19743 5.41975L9.21256 5.41786L9.22756 5.41505L9.13541 4.92361ZM8.43141 5.01961L8.34921 4.52641L7.93141 4.59604V5.01961H8.43141ZM3.08436 5.07232L0.716356 4.62432L0.530464 5.6069L2.89846 6.0549L3.08436 5.07232ZM1.12341 5.11561V2.87561H0.12341V5.11561H1.12341ZM0.62341 3.37561H5.83941V2.37561H0.62341V3.37561ZM5.83941 3.37561C6.1933 3.37561 6.86527 3.35374 7.84513 3.31114L7.80169 2.31208C6.81889 2.35481 6.16818 2.37561 5.83941 2.37561V3.37561ZM7.85781 3.31042C9.08625 3.22571 10.1945 3.18361 11.1834 3.18361V2.18361C10.167 2.18361 9.03524 2.22685 7.78901 2.31279L7.85781 3.31042ZM11.1834 3.18361C13.4565 3.18361 15.1945 3.45859 16.43 3.97671L16.8168 3.05451C15.407 2.4633 13.5183 2.18361 11.1834 2.18361V3.18361ZM16.43 3.97671C17.6696 4.49654 18.508 5.22698 18.9977 6.14997L19.8811 5.68125C19.2615 4.51358 18.2225 3.64401 16.8168 3.05451L16.43 3.97671ZM18.9998 6.15375C19.5032 7.08325 19.7714 8.29583 19.7714 9.81961H20.7714C20.7714 8.18605 20.4849 6.79597 19.8791 5.67747L18.9998 6.15375ZM19.7714 9.81961C19.7714 12.4421 18.9769 14.4178 17.4388 15.8179L18.112 16.5574C19.9019 14.9281 20.7714 12.6585 20.7714 9.81961H19.7714ZM17.4388 15.8179C15.896 17.2222 13.6648 17.9596 10.6714 17.9596V18.9596C13.822 18.9596 16.3268 18.1823 18.112 16.5574L17.4388 15.8179ZM10.6714 17.9596C9.71775 17.9596 9.00631 17.9276 8.52543 17.8675L8.40139 18.8598C8.94451 18.9276 9.70507 18.9596 10.6714 18.9596V17.9596ZM7.96341 18.3636V24.1876H8.96341V18.3636H7.96341ZM8.42189 24.6859L12.6459 25.0379L12.7289 24.0413L8.50493 23.6893L8.42189 24.6859ZM12.1874 24.5396V26.6516H13.1874V24.5396H12.1874ZM12.6874 26.1516H0.52741V27.1516H12.6874V26.1516ZM1.02741 26.6516V24.5396H0.0274097V26.6516H1.02741ZM0.591804 25.0354L3.0558 24.7154L2.92702 23.7238L0.463015 24.0438L0.591804 25.0354ZM3.49141 24.2196V5.56361H2.49141V24.2196H3.49141ZM8.31014 16.6407C8.80119 16.7634 9.55866 16.8156 10.5434 16.8156V15.8156C9.56549 15.8156 8.91496 15.7611 8.55268 15.6705L8.31014 16.6407ZM10.5434 16.8156C12.0801 16.8156 13.2865 16.2148 14.082 14.9971C14.8533 13.8163 15.2034 12.1088 15.2034 9.94761H14.2034C14.2034 12.0318 13.8601 13.5082 13.2448 14.4502C12.6536 15.3551 11.78 15.8156 10.5434 15.8156V16.8156ZM15.2034 9.94761C15.2034 8.12929 14.8453 6.69239 14.0249 5.74777L13.2699 6.40345C13.8576 7.08017 14.2034 8.2246 14.2034 9.94761H15.2034ZM14.0339 5.75845C13.2302 4.77891 12.0331 4.32761 10.5434 4.32761V5.32761C11.827 5.32761 12.6993 5.70831 13.2609 6.39277L14.0339 5.75845ZM10.5434 4.32761C9.93381 4.32761 9.42903 4.35984 9.04327 4.43217L9.22756 5.41505C9.52446 5.35938 9.95834 5.32761 10.5434 5.32761V4.32761ZM9.07339 4.42747C8.7328 4.47005 8.48861 4.50318 8.34921 4.52641L8.51361 5.51281C8.63021 5.49337 8.85536 5.46251 9.19743 5.41975L9.07339 4.42747ZM7.93141 5.01961V16.1556H8.93141V5.01961H7.93141ZM24.5264 17.2116L24.295 16.7684L24.2929 16.7695L24.5264 17.2116ZM32.0784 15.6756L32.0818 16.1756L32.5784 16.1722V15.6756H32.0784ZM31.8224 13.2116L32.2897 13.0336L32.2897 13.0336L31.8224 13.2116ZM30.8944 12.2196L30.6624 12.6625L30.6708 12.6669L30.6794 12.671L30.8944 12.2196ZM26.0944 12.2516L26.2335 12.732L26.2415 12.7295L26.0944 12.2516ZM23.5344 13.2116L23.0823 13.4251L23.2923 13.8699L23.7405 13.6672L23.5344 13.2116ZM22.4464 10.9076L22.1311 10.5196L21.8269 10.7667L21.9943 11.1211L22.4464 10.9076ZM24.1104 9.91561L24.3341 10.3629L24.3438 10.3578L24.1104 9.91561ZM26.8624 8.89161L26.9882 9.37557L26.9948 9.37377L26.8624 8.89161ZM34.2544 9.11561L34.043 9.56872L34.0468 9.57045L34.2544 9.11561ZM36.3344 11.1956L35.8753 11.3939L35.8792 11.4025L36.3344 11.1956ZM36.9744 24.5396H36.4744V25.0396H36.9744V24.5396ZM38.6384 24.5396H39.1384V24.0396H38.6384V24.5396ZM38.6384 26.5556L38.7446 27.0442L39.1384 26.9586V26.5556H38.6384ZM36.5904 26.8756L36.6509 27.3719L36.5904 26.8756ZM32.7184 26.6836L32.3805 27.0522L32.3879 27.0589L32.3954 27.0653L32.7184 26.6836ZM32.3344 24.5396H32.8344V23.1586L31.9503 24.2195L32.3344 24.5396ZM30.1904 26.2676L30.4306 26.7062L30.4385 26.7017L30.1904 26.2676ZM24.3344 26.3636L24.0926 26.8012L24.0994 26.805L24.1063 26.8085L24.3344 26.3636ZM22.3824 24.4756L21.9469 24.7213L21.9507 24.728L21.9547 24.7345L22.3824 24.4756ZM30.8624 23.7396L31.0693 24.1948L31.0777 24.191L31.086 24.1868L30.8624 23.7396ZM32.0784 22.9076L32.4204 23.2724L32.5784 23.1242V22.9076H32.0784ZM32.0784 17.8196H32.5784V17.3196H32.0784V17.8196ZM28.3664 18.7156L28.0698 18.3131L28.0647 18.3169L28.3664 18.7156ZM27.8224 23.2596L28.2128 22.9473L28.2128 22.9473L27.8224 23.2596ZM22.1784 21.5316C22.1784 20.6818 22.3918 19.9499 22.8079 19.3188C23.2262 18.6842 23.867 18.1253 24.7599 17.6537L24.2929 16.7695C23.2872 17.3006 22.5039 17.963 21.973 18.7684C21.4397 19.5773 21.1784 20.5041 21.1784 21.5316H22.1784ZM24.7579 17.6548C26.5834 16.7015 29.0142 16.1966 32.0818 16.1756L32.075 15.1756C28.9133 15.1973 26.3094 15.7164 24.295 16.7684L24.7579 17.6548ZM32.5784 15.6756V15.0356H31.5784V15.6756H32.5784ZM32.5784 15.0356C32.5784 14.2389 32.4911 13.5623 32.2897 13.0336L31.3552 13.3896C31.4951 13.7569 31.5784 14.2963 31.5784 15.0356H32.5784ZM32.2897 13.0336C32.0714 12.4608 31.669 12.0347 31.1094 11.7682L30.6794 12.671C31.0158 12.8312 31.232 13.0664 31.3552 13.3896L32.2897 13.0336ZM31.1264 11.7767C30.5722 11.4864 29.8148 11.3676 28.9104 11.3676V12.3676C29.7553 12.3676 30.3206 12.4835 30.6624 12.6625L31.1264 11.7767ZM28.9104 11.3676C27.8249 11.3676 26.8354 11.5005 25.9474 11.7737L26.2415 12.7295C27.0174 12.4908 27.9052 12.3676 28.9104 12.3676V11.3676ZM25.9554 11.7713C25.1184 12.0136 24.2426 12.3425 23.3283 12.7561L23.7405 13.6672C24.6182 13.2701 25.4491 12.9589 26.2334 12.7319L25.9554 11.7713ZM23.9865 12.9981L22.8985 10.6941L21.9943 11.1211L23.0823 13.4251L23.9865 12.9981ZM22.7617 11.2957C23.0593 11.0539 23.574 10.7428 24.334 10.3628L23.8868 9.4684C23.1108 9.85639 22.5162 10.2067 22.1311 10.5196L22.7617 11.2957ZM24.3438 10.3578C25.07 9.97454 25.9494 9.64561 26.9882 9.37552L26.7366 8.4077C25.6421 8.69228 24.6868 9.04602 23.877 9.47342L24.3438 10.3578ZM26.9948 9.37377C28.0379 9.08741 29.124 8.94361 30.2544 8.94361V7.94361C29.0382 7.94361 27.8629 8.09848 26.7301 8.40945L26.9948 9.37377ZM30.2544 8.94361C31.9276 8.94361 33.1775 9.16482 34.043 9.5687L34.4659 8.66252C33.4113 8.1704 31.9946 7.94361 30.2544 7.94361V8.94361ZM34.0468 9.57045C34.9222 9.97011 35.522 10.5756 35.8754 11.3938L36.7934 10.9974C36.3361 9.93832 35.5493 9.15711 34.4621 8.66077L34.0468 9.57045ZM35.8792 11.4025C36.2643 12.2496 36.4744 13.4492 36.4744 15.0356H37.4744C37.4744 13.3794 37.2579 12.0189 36.7896 10.9887L35.8792 11.4025ZM36.4744 15.0356V24.5396H37.4744V15.0356H36.4744ZM36.9744 25.0396H38.6384V24.0396H36.9744V25.0396ZM38.1384 24.5396V26.5556H39.1384V24.5396H38.1384ZM38.5322 26.067C38.0638 26.1689 37.3988 26.2733 36.5299 26.3793L36.6509 27.3719C37.5314 27.2646 38.2317 27.1557 38.7446 27.0442L38.5322 26.067ZM36.5299 26.3793C35.6676 26.4844 34.9424 26.5356 34.3504 26.5356V27.5356C34.9958 27.5356 35.7639 27.4801 36.6509 27.3719L36.5299 26.3793ZM34.3504 26.5356C33.966 26.5356 33.6654 26.5075 33.4398 26.4589C33.2091 26.4091 33.0928 26.3454 33.0414 26.3019L32.3954 27.0653C32.6214 27.2565 32.9157 27.3688 33.229 27.4364C33.5474 27.5051 33.9242 27.5356 34.3504 27.5356V26.5356ZM33.0563 26.315C32.9695 26.2355 32.8344 25.9651 32.8344 25.2756H31.8344C31.8344 25.9941 31.9553 26.6624 32.3805 27.0522L33.0563 26.315ZM32.8344 25.2756V24.5396H31.8344V25.2756H32.8344ZM31.9503 24.2195C31.463 24.8042 30.7985 25.3443 29.9423 25.8335L30.4385 26.7017C31.3744 26.1669 32.1391 25.555 32.7185 24.8597L31.9503 24.2195ZM29.9503 25.8291C29.1382 26.2738 28.1884 26.5036 27.0864 26.5036V27.5036C28.3311 27.5036 29.4506 27.2428 30.4306 26.7062L29.9503 25.8291ZM27.0864 26.5036C26.1572 26.5036 25.3189 26.3066 24.5626 25.9187L24.1063 26.8085C25.0139 27.274 26.0103 27.5036 27.0864 27.5036V26.5036ZM24.5763 25.926C23.8439 25.5213 23.2566 24.9544 22.8102 24.2167L21.9547 24.7345C22.4895 25.6182 23.2035 26.3099 24.0926 26.8012L24.5763 25.926ZM22.8179 24.23C22.398 23.4856 22.1784 22.5921 22.1784 21.5316H21.1784C21.1784 22.7325 21.4281 23.8016 21.9469 24.7213L22.8179 24.23ZM29.5824 24.5596C30.0578 24.5596 30.5561 24.4281 31.0693 24.1948L30.6555 23.2844C30.2301 23.4778 29.875 23.5596 29.5824 23.5596V24.5596ZM31.086 24.1868C31.5934 23.9331 32.0398 23.6292 32.4204 23.2724L31.7364 22.5428C31.4344 22.826 31.0701 23.0768 30.6388 23.2924L31.086 24.1868ZM32.5784 22.9076V17.8196H31.5784V22.9076H32.5784ZM32.0784 17.3196C30.3712 17.3196 29.0063 17.623 28.0698 18.3131L28.663 19.1181C29.3478 18.6135 30.4577 18.3196 32.0784 18.3196V17.3196ZM28.0647 18.3169C27.1584 19.0027 26.6824 19.9146 26.6824 21.0196H27.6824C27.6824 20.2473 27.9957 19.6231 28.6681 19.1143L28.0647 18.3169ZM26.6824 21.0196C26.6824 22.0479 26.9105 22.9201 27.432 23.572L28.2128 22.9473C27.881 22.5324 27.6824 21.9113 27.6824 21.0196H26.6824ZM27.432 23.572C27.9632 24.236 28.7 24.5596 29.5824 24.5596V23.5596C28.9715 23.5596 28.535 23.3499 28.2128 22.9473L27.432 23.572ZM42.0404 3.54761H42.5404V3.13192L42.1317 3.05601L42.0404 3.54761ZM39.8004 3.13161H39.3004V3.5473L39.7091 3.62321L39.8004 3.13161ZM39.8004 1.17961L39.7408 0.683171L39.3004 0.736022V1.17961H39.8004ZM46.2004 0.41161V-0.0883904H46.1705L46.1408 -0.0848288L46.2004 0.41161ZM46.2964 0.41161L46.5897 0.00663878L46.4584 -0.0883904H46.2964V0.41161ZM47.2244 1.08361H47.7244V0.828352L47.5177 0.67864L47.2244 1.08361ZM47.2244 24.2516H46.7244V24.6872L47.1558 24.7469L47.2244 24.2516ZM49.3044 24.5396H49.8044V24.1041L49.373 24.0443L49.3044 24.5396ZM49.3044 26.6516V27.1516H49.8044V26.6516H49.3044ZM39.9924 26.6516H39.4924V27.1516H39.9924V26.6516ZM39.9924 24.5396L39.9228 24.0445L39.4924 24.105V24.5396H39.9924ZM42.0404 24.2516L42.11 24.7467L42.5404 24.6862V24.2516H42.0404ZM42.1317 3.05601L39.8917 2.64002L39.7091 3.62321L41.9491 4.0392L42.1317 3.05601ZM40.3004 3.13161V1.17961H39.3004V3.13161H40.3004ZM39.86 1.67605L46.26 0.908048L46.1408 -0.0848288L39.7408 0.683171L39.86 1.67605ZM46.2004 0.91161H46.2964V-0.0883904H46.2004V0.91161ZM46.0032 0.816581L46.9312 1.48858L47.5177 0.67864L46.5897 0.00663878L46.0032 0.816581ZM46.7244 1.08361V24.2516H47.7244V1.08361H46.7244ZM47.1558 24.7469L49.2358 25.0349L49.373 24.0443L47.293 23.7563L47.1558 24.7469ZM48.8044 24.5396V26.6516H49.8044V24.5396H48.8044ZM49.3044 26.1516H39.9924V27.1516H49.3044V26.1516ZM40.4924 26.6516V24.5396H39.4924V26.6516H40.4924ZM40.062 25.0347L42.11 24.7467L41.9708 23.7565L39.9228 24.0445L40.062 25.0347ZM42.5404 24.2516V3.54761H41.5404V24.2516H42.5404ZM64.1444 26.4916L63.7909 26.8452L63.7966 26.8509L63.8024 26.8564L64.1444 26.4916ZM63.6324 24.3156H64.1324V22.778L63.228 24.0215L63.6324 24.3156ZM61.3284 26.2036L61.5594 26.6471L61.5666 26.6433L61.3284 26.2036ZM53.7444 25.4676L53.3608 25.7886L53.3681 25.7969L53.7444 25.4676ZM52.4324 11.3556H52.9324V10.9751L52.5657 10.8737L52.4324 11.3556ZM50.9284 10.9396H50.4284V11.3201L50.7951 11.4215L50.9284 10.9396ZM50.9284 8.89161L50.8939 8.3928L50.4284 8.42499V8.89161H50.9284ZM56.9444 8.47561V7.97561H56.9271L56.9099 7.9768L56.9444 8.47561ZM56.9764 8.47561L57.2448 8.05378L57.122 7.97561H56.9764V8.47561ZM57.6804 8.92361H58.1804V8.64914L57.9488 8.50178L57.6804 8.92361ZM58.1924 23.2916L57.7665 23.5537L57.7713 23.5611L58.1924 23.2916ZM63.0244 22.8756L63.378 23.2292L63.5244 23.0827V22.8756H63.0244ZM63.0244 11.3556H63.5244V10.9622L63.142 10.8696L63.0244 11.3556ZM61.0404 10.8756H60.5404V11.2691L60.9228 11.3616L61.0404 10.8756ZM61.0404 8.89161L61.0077 8.39269L60.5404 8.42336V8.89161H61.0404ZM67.3764 8.47561V7.97561H67.36L67.3437 7.97668L67.3764 8.47561ZM67.4724 8.47561L67.7243 8.04372L67.6076 7.97561H67.4724V8.47561ZM68.2404 8.92361H68.7404V8.63643L68.4923 8.49172L68.2404 8.92361ZM68.2404 24.4436H67.7404V24.9436H68.2404V24.4436ZM69.9364 24.4436H70.4364V23.9436H69.9364V24.4436ZM69.9364 26.4916L70.0372 26.9813L70.4364 26.8992V26.4916H69.9364ZM67.9204 26.8436L67.8521 26.3483L67.8497 26.3486L67.9204 26.8436ZM65.8084 26.4716C65.0906 26.4716 64.6911 26.3188 64.4864 26.1268L63.8024 26.8564C64.2804 27.3045 64.9902 27.4716 65.8084 27.4716V26.4716ZM64.498 26.1381C64.2779 25.918 64.1324 25.5717 64.1324 25.0196H63.1324C63.1324 25.7475 63.3283 26.3826 63.7909 26.8452L64.498 26.1381ZM64.1324 25.0196V24.3156H63.1324V25.0196H64.1324ZM63.228 24.0215C62.7721 24.6484 62.0698 25.2334 61.0903 25.764L61.5666 26.6433C62.635 26.0645 63.4687 25.3908 64.0368 24.6097L63.228 24.0215ZM61.0974 25.7602C60.1372 26.2603 59.1812 26.5036 58.2244 26.5036V27.5036C59.3583 27.5036 60.4716 27.2136 61.5594 26.6471L61.0974 25.7602ZM58.2244 26.5036C56.2006 26.5036 54.8806 26.0068 54.1207 25.1384L53.3681 25.7969C54.4003 26.9765 56.0669 27.5036 58.2244 27.5036V26.5036ZM54.1279 25.1468C53.3683 24.239 52.9324 22.6486 52.9324 20.2516H51.9324C51.9324 22.7186 52.3712 24.6056 53.3609 25.7885L54.1279 25.1468ZM52.9324 20.2516V11.3556H51.9324V20.2516H52.9324ZM52.5657 10.8737L51.0617 10.4577L50.7951 11.4215L52.2991 11.8375L52.5657 10.8737ZM51.4284 10.9396V8.89161H50.4284V10.9396H51.4284ZM50.9629 9.39042L56.9789 8.97442L56.9099 7.9768L50.8939 8.3928L50.9629 9.39042ZM56.9444 8.97561H56.9764V7.97561H56.9444V8.97561ZM56.708 8.89744L57.412 9.34544L57.9488 8.50178L57.2448 8.05378L56.708 8.89744ZM57.1804 8.92361V20.3796H58.1804V8.92361H57.1804ZM57.1804 20.3796C57.1804 21.7757 57.3465 22.871 57.7666 23.5537L58.6182 23.0296C58.3557 22.6029 58.1804 21.7568 58.1804 20.3796H57.1804ZM57.7713 23.5611C58.2374 24.2895 59.0429 24.5916 60.0164 24.5916V23.5916C59.2406 23.5916 58.8301 23.3604 58.6135 23.0221L57.7713 23.5611ZM60.0164 24.5916C61.3375 24.5916 62.4692 24.1379 63.378 23.2292L62.6709 22.5221C61.9583 23.2346 61.0847 23.5916 60.0164 23.5916V24.5916ZM63.5244 22.8756V11.3556H62.5244V22.8756H63.5244ZM63.142 10.8696L61.158 10.3896L60.9228 11.3616L62.9068 11.8416L63.142 10.8696ZM61.5404 10.8756V8.89161H60.5404V10.8756H61.5404ZM61.0732 9.39054L67.4092 8.97454L67.3437 7.97668L61.0077 8.39269L61.0732 9.39054ZM67.3764 8.97561H67.4724V7.97561H67.3764V8.97561ZM67.2205 8.9075L67.9885 9.3555L68.4923 8.49172L67.7243 8.04372L67.2205 8.9075ZM67.7404 8.92361V24.4436H68.7404V8.92361H67.7404ZM68.2404 24.9436H69.9364V23.9436H68.2404V24.9436ZM69.4364 24.4436V26.4916H70.4364V24.4436H69.4364ZM69.8356 26.0019C69.1191 26.1494 68.4581 26.2647 67.8521 26.3483L67.9887 27.3389C68.6201 27.2518 69.303 27.1325 70.0372 26.9813L69.8356 26.0019ZM67.8497 26.3486C67.2822 26.4297 66.6029 26.4716 65.8084 26.4716V27.4716C66.6353 27.4716 67.364 27.4282 67.9911 27.3386L67.8497 26.3486ZM72.0662 24.5396L71.9825 24.0467L71.5662 24.1174V24.5396H72.0662ZM73.7622 24.2516L73.8459 24.7446L74.2622 24.6739V24.2516H73.7622ZM73.7622 12.2196H74.2622V11.8494L73.9081 11.7414L73.7622 12.2196ZM71.8742 11.6436H71.3742V12.0138L71.7283 12.1218L71.8742 11.6436ZM71.8742 9.14761L71.8142 8.65122L71.3742 8.70441V9.14761H71.8742ZM77.6982 8.44361L77.9218 7.9964L77.7874 7.92919L77.6382 7.94722L77.6982 8.44361ZM77.9542 8.57161L78.361 8.28099L78.2888 8.17994L78.1778 8.1244L77.9542 8.57161ZM78.5942 9.46761H79.0942V9.30738L79.001 9.17699L78.5942 9.46761ZM78.5942 11.0676H78.0942V12.3015L78.9531 11.4157L78.5942 11.0676ZM81.6022 9.27561L81.7761 9.74444L81.7827 9.74189L81.6022 9.27561ZM87.7782 9.08361L87.5387 9.52259L87.5442 9.5255L87.7782 9.08361ZM89.4102 10.8756L88.9538 11.0798L89.2409 11.7216L89.7528 11.2397L89.4102 10.8756ZM92.1302 9.17961L91.9429 8.71598L91.9398 8.71727L92.1302 9.17961ZM99.5222 10.1396L99.1212 10.4384L99.125 10.4433L99.5222 10.1396ZM100.77 24.2516H100.27V24.6822L100.696 24.7461L100.77 24.2516ZM102.69 24.5396H103.19V24.109L102.764 24.0451L102.69 24.5396ZM102.69 26.6516V27.1516H103.19V26.6516H102.69ZM94.0182 26.6516H93.5182V27.1516H94.0182V26.6516ZM94.0182 24.5396L93.9201 24.0493L93.5182 24.1297V24.5396H94.0182ZM95.4582 24.2516L95.5562 24.7419L95.9582 24.6615V24.2516H95.4582ZM94.9142 12.4116L94.4799 12.6598L94.4868 12.6711L94.9142 12.4116ZM89.9222 12.7636L89.6146 12.3694L89.3812 12.5514L89.4286 12.8436L89.9222 12.7636ZM90.1142 24.2516H89.6142V24.6777L90.0348 24.7453L90.1142 24.2516ZM91.9062 24.5396H92.4062V24.1136L91.9855 24.0459L91.9062 24.5396ZM91.9062 26.6516V27.1516H92.4062V26.6516H91.9062ZM83.1702 26.6516H82.6702V27.1516H83.1702V26.6516ZM83.1702 24.5396L83.0816 24.0475L82.6702 24.1216V24.5396H83.1702ZM84.7702 24.2516L84.8587 24.7437L85.2702 24.6696V24.2516H84.7702ZM84.2582 12.3796L83.8209 12.6225L83.828 12.6345L84.2582 12.3796ZM80.6102 11.9316L80.8133 12.3886L80.8207 12.3851L80.6102 11.9316ZM79.1062 12.8916L78.7717 12.52L78.6062 12.6689V12.8916H79.1062ZM79.1062 24.2516H78.6062V24.6752L79.024 24.7448L79.1062 24.2516ZM80.8342 24.5396H81.3342V24.116L80.9164 24.0464L80.8342 24.5396ZM80.8342 26.6516V27.1516H81.3342V26.6516H80.8342ZM72.0662 26.6516H71.5662V27.1516H72.0662V26.6516ZM72.1499 25.0326L73.8459 24.7446L73.6785 23.7587L71.9825 24.0467L72.1499 25.0326ZM74.2622 24.2516V12.2196H73.2622V24.2516H74.2622ZM73.9081 11.7414L72.0201 11.1654L71.7283 12.1218L73.6163 12.6978L73.9081 11.7414ZM72.3742 11.6436V9.14761H71.3742V11.6436H72.3742ZM71.9342 9.644L77.7582 8.94L77.6382 7.94722L71.8142 8.65122L71.9342 9.644ZM77.4746 8.89082L77.7306 9.01882L78.1778 8.1244L77.9218 7.9964L77.4746 8.89082ZM77.5473 8.86223L78.1873 9.75823L79.001 9.17699L78.361 8.28099L77.5473 8.86223ZM78.0942 9.46761V11.0676H79.0942V9.46761H78.0942ZM78.9531 11.4157C79.5662 10.7834 80.4949 10.2197 81.7761 9.74439L81.4283 8.80683C80.0641 9.31288 78.9874 9.94382 78.2352 10.7195L78.9531 11.4157ZM81.7827 9.74189C83.0742 9.24193 84.1404 9.00761 84.9942 9.00761V8.00761C83.9706 8.00761 82.7754 8.28529 81.4217 8.80933L81.7827 9.74189ZM84.9942 9.00761C86.0967 9.00761 86.9333 9.19231 87.5387 9.52256L88.0176 8.64466C87.215 8.20691 86.1956 8.00761 84.9942 8.00761V9.00761ZM87.5442 9.5255C88.1627 9.85292 88.6327 10.3621 88.9538 11.0798L89.8666 10.6714C89.4623 9.76783 88.8443 9.08231 88.0121 8.64172L87.5442 9.5255ZM89.7528 11.2397C90.4266 10.6056 91.2789 10.0709 92.3205 9.64195L91.9398 8.71727C90.8055 9.18435 89.8444 9.78027 89.0675 10.5115L89.7528 11.2397ZM92.3174 9.64323C93.3707 9.21784 94.4273 9.00761 95.4902 9.00761V8.00761C94.2917 8.00761 93.1083 8.24538 91.9429 8.71599L92.3174 9.64323ZM95.4902 9.00761C97.2745 9.00761 98.4379 9.52129 99.1212 10.4384L99.9231 9.84087C98.9851 8.58193 97.4605 8.00761 95.4902 8.00761V9.00761ZM99.125 10.4433C99.8548 11.3977 100.27 13.0408 100.27 15.4836H101.27C101.27 12.9771 100.853 11.0575 99.9193 9.83589L99.125 10.4433ZM100.27 15.4836V24.2516H101.27V15.4836H100.27ZM100.696 24.7461L102.616 25.0341L102.764 24.0451L100.844 23.7571L100.696 24.7461ZM102.19 24.5396V26.6516H103.19V24.5396H102.19ZM102.69 26.1516H94.0182V27.1516H102.69V26.1516ZM94.5182 26.6516V24.5396H93.5182V26.6516H94.5182ZM94.1162 25.0299L95.5562 24.7419L95.3601 23.7613L93.9201 24.0493L94.1162 25.0299ZM95.9582 24.2516V15.6116H94.9582V24.2516H95.9582ZM95.9582 15.6116C95.9582 14.0697 95.7822 12.8778 95.3416 12.1521L94.4868 12.6711C94.7715 13.14 94.9582 14.0815 94.9582 15.6116H95.9582ZM95.3483 12.1635C94.8865 11.3554 94.0383 11.0156 92.9942 11.0156V12.0156C93.8273 12.0156 94.2592 12.2732 94.48 12.6597L95.3483 12.1635ZM92.9942 11.0156C91.8659 11.0156 90.7364 11.4944 89.6146 12.3694L90.2297 13.1579C91.2413 12.3688 92.1597 12.0156 92.9942 12.0156V11.0156ZM89.4286 12.8436C89.5513 13.6004 89.6142 14.4794 89.6142 15.4836H90.6142C90.6142 14.4398 90.549 13.5055 90.4157 12.6836L89.4286 12.8436ZM89.6142 15.4836V24.2516H90.6142V15.4836H89.6142ZM90.0348 24.7453L91.8268 25.0333L91.9855 24.0459L90.1935 23.7579L90.0348 24.7453ZM91.4062 24.5396V26.6516H92.4062V24.5396H91.4062ZM91.9062 26.1516H83.1702V27.1516H91.9062V26.1516ZM83.6702 26.6516V24.5396H82.6702V26.6516H83.6702ZM83.2587 25.0317L84.8587 24.7437L84.6816 23.7595L83.0816 24.0475L83.2587 25.0317ZM85.2702 24.2516V15.5156H84.2702V24.2516H85.2702ZM85.2702 15.5156C85.2702 13.9982 85.1054 12.8285 84.6883 12.1247L83.828 12.6345C84.0936 13.0827 84.2702 14.0037 84.2702 15.5156H85.2702ZM84.6952 12.1368C84.2539 11.3424 83.4207 11.0156 82.4022 11.0156V12.0156C83.2183 12.0156 83.6224 12.2648 83.8211 12.6224L84.6952 12.1368ZM82.4022 11.0156C81.7249 11.0156 81.0561 11.1733 80.3996 11.4781L80.8207 12.3851C81.3589 12.1352 81.8847 12.0156 82.4022 12.0156V11.0156ZM80.4071 11.4747C79.7878 11.75 79.241 12.0975 78.7717 12.52L79.4406 13.2633C79.8246 12.9177 80.2806 12.6253 80.8132 12.3885L80.4071 11.4747ZM78.6062 12.8916V24.2516H79.6062V12.8916H78.6062ZM79.024 24.7448L80.752 25.0328L80.9164 24.0464L79.1884 23.7584L79.024 24.7448ZM80.3342 24.5396V26.6516H81.3342V24.5396H80.3342ZM80.8342 26.1516H72.0662V27.1516H80.8342V26.1516ZM72.5662 26.6516V24.5396H71.5662V26.6516H72.5662ZM103.439 1.17961L103.379 0.683279L102.939 0.736826V1.17961H103.439ZM109.743 0.41161V-0.0883904H109.713L109.683 -0.0847207L109.743 0.41161ZM109.807 0.41161L110.072 -0.0123893L109.951 -0.0883904H109.807V0.41161ZM110.831 1.05161H111.331V0.774487L111.096 0.627612L110.831 1.05161ZM110.831 10.3956H110.331V11.6357L111.192 10.7424L110.831 10.3956ZM112.879 8.98761L113.084 9.44413L113.093 9.43948L112.879 8.98761ZM120.431 10.5876L120.054 10.9153L120.059 10.9212L120.431 10.5876ZM121.167 22.2036L120.725 21.9699L120.723 21.9749L121.167 22.2036ZM117.839 25.7236L118.093 26.1546L118.093 26.1546L117.839 25.7236ZM108.143 26.5876L108.026 27.0737L108.034 27.0755L108.143 26.5876ZM105.711 25.7876H105.211V26.068L105.451 26.2143L105.711 25.7876ZM105.711 3.45161H106.211V3.03485L105.801 2.95979L105.711 3.45161ZM103.439 3.03561H102.939V3.45237L103.349 3.52743L103.439 3.03561ZM111.983 11.8996L111.76 11.4524L111.76 11.4524L111.983 11.8996ZM110.831 12.7316L110.466 12.3905L110.331 12.5345V12.7316H110.831ZM110.831 24.3156H110.331V24.4119L110.367 24.5013L110.831 24.3156ZM111.535 24.8276L111.377 25.302L111.385 25.3044L111.535 24.8276ZM115.759 23.1316L115.323 22.8875L115.323 22.8875L115.759 23.1316ZM115.919 13.0196L115.492 13.2796L115.495 13.2838L115.919 13.0196ZM103.5 1.67594L109.804 0.90794L109.683 -0.0847207L103.379 0.683279L103.5 1.67594ZM109.743 0.91161H109.807V-0.0883904H109.743V0.91161ZM109.542 0.835609L110.566 1.47561L111.096 0.627612L110.072 -0.0123893L109.542 0.835609ZM110.331 1.05161V10.3956H111.331V1.05161H110.331ZM111.192 10.7424C111.697 10.2175 112.325 9.78339 113.084 9.44402L112.675 8.5312C111.812 8.91716 111.075 9.42175 110.471 10.0488L111.192 10.7424ZM113.093 9.43948C113.836 9.0879 114.626 8.91161 115.471 8.91161V7.91161C114.482 7.91161 113.544 8.11932 112.665 8.53574L113.093 9.43948ZM115.471 8.91161C117.385 8.91161 118.897 9.58205 120.054 10.9153L120.809 10.2599C119.449 8.69184 117.653 7.91161 115.471 7.91161V8.91161ZM120.059 10.9212C121.222 12.22 121.851 14.2729 121.851 17.1796H122.851C122.851 14.1557 122.201 11.8139 120.804 10.2541L120.059 10.9212ZM121.851 17.1796C121.851 18.9624 121.473 20.5555 120.725 21.97L121.609 22.4373C122.441 20.865 122.851 19.1088 122.851 17.1796H121.851ZM120.723 21.9749C119.998 23.3839 118.955 24.4872 117.586 25.2926L118.093 26.1546C119.625 25.2534 120.801 24.01 121.612 22.4323L120.723 21.9749ZM117.586 25.2926C116.223 26.0942 114.617 26.5036 112.751 26.5036V27.5036C114.768 27.5036 116.554 27.0597 118.093 26.1546L117.586 25.2926ZM112.751 26.5036C110.939 26.5036 109.442 26.3663 108.253 26.0997L108.034 27.0755C109.319 27.3636 110.895 27.5036 112.751 27.5036V26.5036ZM108.261 26.1016C107.013 25.8004 106.279 25.5484 105.972 25.361L105.451 26.2143C105.912 26.4961 106.799 26.7774 108.026 27.0737L108.261 26.1016ZM106.211 25.7876V3.45161H105.211V25.7876H106.211ZM105.801 2.95979L103.529 2.54379L103.349 3.52743L105.621 3.94343L105.801 2.95979ZM103.939 3.03561V1.17961H102.939V3.03561H103.939ZM113.487 11.0476C112.878 11.0476 112.3 11.1824 111.76 11.4524L112.207 12.3468C112.606 12.1475 113.03 12.0476 113.487 12.0476V11.0476ZM111.76 11.4524C111.248 11.7085 110.812 12.0192 110.466 12.3905L111.197 13.0728C111.448 12.804 111.781 12.56 112.207 12.3468L111.76 11.4524ZM110.331 12.7316V24.3156H111.331V12.7316H110.331ZM110.367 24.5013C110.537 24.9259 110.954 25.161 111.377 25.302L111.694 24.3533C111.348 24.2382 111.296 24.132 111.296 24.1299L110.367 24.5013ZM111.385 25.3044C111.848 25.4506 112.358 25.5196 112.911 25.5196V24.5196C112.44 24.5196 112.034 24.4607 111.686 24.3508L111.385 25.3044ZM112.911 25.5196C114.328 25.5196 115.425 24.7536 116.196 23.3757L115.323 22.8875C114.686 24.027 113.885 24.5196 112.911 24.5196V25.5196ZM116.196 23.3757C116.961 22.0071 117.315 20.0499 117.315 17.5636H116.315C116.315 19.984 115.966 21.7388 115.323 22.8875L116.196 23.3757ZM117.315 17.5636C117.315 15.4673 117.017 13.8367 116.344 12.7555L115.495 13.2838C116.017 14.1225 116.315 15.5213 116.315 17.5636H117.315ZM116.347 12.7596C115.672 11.6509 114.71 11.0476 113.487 11.0476V12.0476C114.313 12.0476 114.973 12.4256 115.492 13.2796L116.347 12.7596ZM127.151 17.2116L126.92 16.7684L126.918 16.7695L127.151 17.2116ZM134.703 15.6756L134.707 16.1756L135.203 16.1722V15.6756H134.703ZM134.447 13.2116L134.915 13.0336L134.915 13.0336L134.447 13.2116ZM133.519 12.2196L133.287 12.6625L133.296 12.6669L133.304 12.671L133.519 12.2196ZM128.719 12.2516L128.858 12.732L128.866 12.7295L128.719 12.2516ZM126.159 13.2116L125.707 13.4251L125.917 13.8699L126.365 13.6672L126.159 13.2116ZM125.071 10.9076L124.756 10.5196L124.452 10.7667L124.619 11.1211L125.071 10.9076ZM126.735 9.91561L126.959 10.3629L126.969 10.3578L126.735 9.91561ZM129.487 8.89161L129.613 9.37557L129.62 9.37377L129.487 8.89161ZM136.879 9.11561L136.668 9.56872L136.672 9.57045L136.879 9.11561ZM138.959 11.1956L138.5 11.3939L138.504 11.4025L138.959 11.1956ZM139.599 24.5396H139.099V25.0396H139.599V24.5396ZM141.263 24.5396H141.763V24.0396H141.263V24.5396ZM141.263 26.5556L141.37 27.0442L141.763 26.9586V26.5556H141.263ZM139.215 26.8756L139.276 27.3719L139.215 26.8756ZM135.343 26.6836L135.006 27.0522L135.013 27.0589L135.02 27.0653L135.343 26.6836ZM134.959 24.5396H135.459V23.1586L134.575 24.2195L134.959 24.5396ZM132.815 26.2676L133.056 26.7062L133.063 26.7017L132.815 26.2676ZM126.959 26.3636L126.718 26.8012L126.724 26.805L126.731 26.8085L126.959 26.3636ZM125.007 24.4756L124.572 24.7213L124.576 24.728L124.58 24.7345L125.007 24.4756ZM133.487 23.7396L133.694 24.1948L133.703 24.191L133.711 24.1868L133.487 23.7396ZM134.703 22.9076L135.045 23.2724L135.203 23.1242V22.9076H134.703ZM134.703 17.8196H135.203V17.3196H134.703V17.8196ZM130.991 18.7156L130.695 18.3131L130.69 18.3169L130.991 18.7156ZM130.447 23.2596L130.838 22.9473L130.838 22.9473L130.447 23.2596ZM124.803 21.5316C124.803 20.6818 125.017 19.9499 125.433 19.3188C125.851 18.6842 126.492 18.1253 127.385 17.6537L126.918 16.7695C125.912 17.3006 125.129 17.963 124.598 18.7684C124.065 19.5773 123.803 20.5041 123.803 21.5316H124.803ZM127.383 17.6548C129.208 16.7015 131.639 16.1966 134.707 16.1756L134.7 15.1756C131.538 15.1973 128.934 15.7164 126.92 16.7684L127.383 17.6548ZM135.203 15.6756V15.0356H134.203V15.6756H135.203ZM135.203 15.0356C135.203 14.2389 135.116 13.5623 134.915 13.0336L133.98 13.3896C134.12 13.7569 134.203 14.2963 134.203 15.0356H135.203ZM134.915 13.0336C134.696 12.4608 134.294 12.0347 133.734 11.7682L133.304 12.671C133.641 12.8312 133.857 13.0664 133.98 13.3896L134.915 13.0336ZM133.751 11.7767C133.197 11.4864 132.44 11.3676 131.535 11.3676V12.3676C132.38 12.3676 132.946 12.4835 133.287 12.6625L133.751 11.7767ZM131.535 11.3676C130.45 11.3676 129.46 11.5005 128.572 11.7737L128.866 12.7295C129.642 12.4908 130.53 12.3676 131.535 12.3676V11.3676ZM128.58 11.7713C127.743 12.0136 126.868 12.3425 125.953 12.7561L126.365 13.6672C127.243 13.2701 128.074 12.9589 128.858 12.7319L128.58 11.7713ZM126.612 12.9981L125.524 10.6941L124.619 11.1211L125.707 13.4251L126.612 12.9981ZM125.387 11.2957C125.684 11.0539 126.199 10.7428 126.959 10.3628L126.512 9.4684C125.736 9.85639 125.141 10.2067 124.756 10.5196L125.387 11.2957ZM126.969 10.3578C127.695 9.97454 128.574 9.64561 129.613 9.37552L129.362 8.4077C128.267 8.69228 127.312 9.04602 126.502 9.47342L126.969 10.3578ZM129.62 9.37377C130.663 9.08741 131.749 8.94361 132.879 8.94361V7.94361C131.663 7.94361 130.488 8.09848 129.355 8.40945L129.62 9.37377ZM132.879 8.94361C134.553 8.94361 135.803 9.16482 136.668 9.5687L137.091 8.66252C136.036 8.1704 134.62 7.94361 132.879 7.94361V8.94361ZM136.672 9.57045C137.547 9.97011 138.147 10.5756 138.5 11.3938L139.418 10.9974C138.961 9.93832 138.174 9.15711 137.087 8.66077L136.672 9.57045ZM138.504 11.4025C138.889 12.2496 139.099 13.4492 139.099 15.0356H140.099C140.099 13.3794 139.883 12.0189 139.415 10.9887L138.504 11.4025ZM139.099 15.0356V24.5396H140.099V15.0356H139.099ZM139.599 25.0396H141.263V24.0396H139.599V25.0396ZM140.763 24.5396V26.5556H141.763V24.5396H140.763ZM141.157 26.067C140.689 26.1689 140.024 26.2733 139.155 26.3793L139.276 27.3719C140.156 27.2646 140.857 27.1557 141.37 27.0442L141.157 26.067ZM139.155 26.3793C138.293 26.4844 137.567 26.5356 136.975 26.5356V27.5356C137.621 27.5356 138.389 27.4801 139.276 27.3719L139.155 26.3793ZM136.975 26.5356C136.591 26.5356 136.29 26.5075 136.065 26.4589C135.834 26.4091 135.718 26.3454 135.666 26.3019L135.02 27.0653C135.246 27.2565 135.541 27.3688 135.854 27.4364C136.172 27.5051 136.549 27.5356 136.975 27.5356V26.5356ZM135.681 26.315C135.594 26.2355 135.459 25.9651 135.459 25.2756H134.459C134.459 25.9941 134.58 26.6624 135.006 27.0522L135.681 26.315ZM135.459 25.2756V24.5396H134.459V25.2756H135.459ZM134.575 24.2195C134.088 24.8042 133.423 25.3443 132.567 25.8335L133.063 26.7017C133.999 26.1669 134.764 25.555 135.344 24.8597L134.575 24.2195ZM132.575 25.8291C131.763 26.2738 130.813 26.5036 129.711 26.5036V27.5036C130.956 27.5036 132.076 27.2428 133.056 26.7062L132.575 25.8291ZM129.711 26.5036C128.782 26.5036 127.944 26.3066 127.188 25.9187L126.731 26.8085C127.639 27.274 128.635 27.5036 129.711 27.5036V26.5036ZM127.201 25.926C126.469 25.5213 125.882 24.9544 125.435 24.2167L124.58 24.7345C125.115 25.6182 125.829 26.3099 126.718 26.8012L127.201 25.926ZM125.443 24.23C125.023 23.4856 124.803 22.5921 124.803 21.5316H123.803C123.803 22.7325 124.053 23.8016 124.572 24.7213L125.443 24.23ZM132.207 24.5596C132.683 24.5596 133.181 24.4281 133.694 24.1948L133.281 23.2844C132.855 23.4778 132.5 23.5596 132.207 23.5596V24.5596ZM133.711 24.1868C134.218 23.9331 134.665 23.6292 135.045 23.2724L134.361 22.5428C134.059 22.826 133.695 23.0768 133.264 23.2924L133.711 24.1868ZM135.203 22.9076V17.8196H134.203V22.9076H135.203ZM134.703 17.3196C132.996 17.3196 131.631 17.623 130.695 18.3131L131.288 19.1181C131.973 18.6135 133.083 18.3196 134.703 18.3196V17.3196ZM130.69 18.3169C129.783 19.0027 129.307 19.9146 129.307 21.0196H130.307C130.307 20.2473 130.621 19.6231 131.293 19.1143L130.69 18.3169ZM129.307 21.0196C129.307 22.0479 129.536 22.9201 130.057 23.572L130.838 22.9473C130.506 22.5324 130.307 21.9113 130.307 21.0196H129.307ZM130.057 23.572C130.588 24.236 131.325 24.5596 132.207 24.5596V23.5596C131.596 23.5596 131.16 23.3499 130.838 22.9473L130.057 23.572Z" fill="#4B325E" mask="url(#path-1-outside-1_1_90)"/>
</svg>
