<svg width="142" height="28" viewBox="0 0 142 28" fill="none" xmlns="http://www.w3.org/2000/svg">
    <path
        d="M3.38551 5.56361L1.01751 5.11561V2.87561H6.23351C6.57485 2.87561 7.23618 2.85428 8.21751 2.81161C9.45485 2.72628 10.5748 2.68361 11.5775 2.68361C13.8815 2.68361 15.6948 2.96094 17.0175 3.51561C18.3402 4.07028 19.2788 4.87028 19.8335 5.91561C20.3882 6.93961 20.6655 8.24094 20.6655 9.81961C20.6655 12.5503 19.8335 14.6729 18.1695 16.1876C16.5055 17.7023 14.1375 18.4596 11.0655 18.4596C10.1055 18.4596 9.36951 18.4276 8.85751 18.3636V24.1876L13.0815 24.5396V26.6516H0.921514V24.5396L3.38551 24.2196V5.56361ZM8.82551 16.1556C9.25218 16.2623 9.95618 16.3156 10.9375 16.3156C13.7108 16.3156 15.0975 14.1929 15.0975 9.94761C15.0975 8.17694 14.7455 6.88628 14.0415 6.07561C13.3588 5.24361 12.3242 4.82761 10.9375 4.82761C10.3402 4.82761 9.87085 4.85961 9.52951 4.92361C9.18818 4.96628 8.95351 4.99828 8.82551 5.01961V16.1556ZM22.0725 21.5316C22.0725 19.6543 23.0218 18.2143 24.9205 17.2116C26.8405 16.2089 29.3578 15.6969 32.4725 15.6756V15.0356C32.4725 14.2676 32.3872 13.6596 32.2165 13.2116C32.0458 12.7636 31.7365 12.4329 31.2885 12.2196C30.8405 11.9849 30.1792 11.8676 29.3045 11.8676C28.2592 11.8676 27.3205 11.9956 26.4885 12.2516C25.6778 12.4863 24.8245 12.8063 23.9285 13.2116L22.8405 10.9076C23.1818 10.6303 23.7365 10.2996 24.5045 9.91561C25.2725 9.51028 26.1898 9.16894 27.2565 8.89161C28.3445 8.59294 29.4752 8.44361 30.6485 8.44361C32.3552 8.44361 33.6885 8.66761 34.6485 9.11561C35.6298 9.56361 36.3232 10.2569 36.7285 11.1956C37.1552 12.1343 37.3685 13.4143 37.3685 15.0356V24.5396H39.0325V26.5556C38.5418 26.6623 37.8592 26.7689 36.9845 26.8756C36.1098 26.9823 35.3632 27.0356 34.7445 27.0356C33.9338 27.0356 33.3898 26.9183 33.1125 26.6836C32.8565 26.4489 32.7285 25.9796 32.7285 25.2756V24.5396C32.1952 25.1796 31.4805 25.7556 30.5845 26.2676C29.6885 26.7583 28.6538 27.0036 27.4805 27.0036C26.4778 27.0036 25.5605 26.7903 24.7285 26.3636C23.9178 25.9156 23.2672 25.2863 22.7765 24.4756C22.3072 23.6436 22.0725 22.6623 22.0725 21.5316ZM29.9765 24.0596C30.3605 24.0596 30.7872 23.9529 31.2565 23.7396C31.7258 23.5049 32.1312 23.2276 32.4725 22.9076V17.8196C30.8085 17.8196 29.5712 18.1183 28.7605 18.7156C27.9712 19.3129 27.5765 20.0809 27.5765 21.0196C27.5765 21.9796 27.7898 22.7263 28.2165 23.2596C28.6432 23.7929 29.2298 24.0596 29.9765 24.0596ZM42.4345 3.54761L40.1945 3.13161V1.17961L46.5945 0.41161H46.6905L47.6185 1.08361V24.2516L49.6985 24.5396V26.6516H40.3865V24.5396L42.4345 24.2516V3.54761ZM66.2025 26.9716C65.4345 26.9716 64.8798 26.8116 64.5385 26.4916C64.1972 26.1503 64.0265 25.6596 64.0265 25.0196V24.3156C63.5145 25.0196 62.7465 25.6489 61.7225 26.2036C60.6985 26.7369 59.6638 27.0036 58.6185 27.0036C56.5278 27.0036 55.0345 26.4916 54.1385 25.4676C53.2638 24.4223 52.8265 22.6836 52.8265 20.2516V11.3556L51.3225 10.9396V8.89161L57.3385 8.47561H57.3705L58.0745 8.92361V20.3796C58.0745 21.7663 58.2452 22.7369 58.5865 23.2916C58.9278 23.8249 59.5358 24.0916 60.4105 24.0916C61.6052 24.0916 62.6078 23.6863 63.4185 22.8756V11.3556L61.4345 10.8756V8.89161L67.7705 8.47561H67.8665L68.6345 8.92361V24.4436H70.3305V26.4916C69.6052 26.6409 68.9332 26.7583 68.3145 26.8436C67.7172 26.9289 67.0132 26.9716 66.2025 26.9716ZM72.4603 24.5396L74.1563 24.2516V12.2196L72.2683 11.6436V9.14761L78.0923 8.44361L78.3483 8.57161L78.9883 9.46761V11.0676C79.6709 10.3636 80.6736 9.76628 81.9963 9.27561C83.3189 8.76361 84.4496 8.50761 85.3883 8.50761C86.5403 8.50761 87.4683 8.69961 88.1723 9.08361C88.8976 9.46761 89.4416 10.0649 89.8043 10.8756C90.5296 10.1929 91.4363 9.62761 92.5243 9.17961C93.6336 8.73161 94.7536 8.50761 95.8843 8.50761C97.7616 8.50761 99.1056 9.05161 99.9163 10.1396C100.748 11.2276 101.164 13.0089 101.164 15.4836V24.2516L103.084 24.5396V26.6516H94.4123V24.5396L95.8523 24.2516V15.6116C95.8523 14.0756 95.6709 13.0089 95.3083 12.4116C94.9669 11.8143 94.3269 11.5156 93.3883 11.5156C92.4069 11.5156 91.3829 11.9316 90.3163 12.7636C90.4443 13.5529 90.5083 14.4596 90.5083 15.4836V24.2516L92.3003 24.5396V26.6516H83.5643V24.5396L85.1643 24.2516V15.5156C85.1643 14.0009 84.9936 12.9556 84.6523 12.3796C84.3323 11.8036 83.7136 11.5156 82.7963 11.5156C82.1989 11.5156 81.6016 11.6543 81.0043 11.9316C80.4283 12.1876 79.9269 12.5076 79.5003 12.8916V24.2516L81.2283 24.5396V26.6516H72.4603V24.5396ZM103.834 1.17961L110.138 0.41161H110.202L111.226 1.05161V10.3956C111.78 9.81961 112.463 9.35028 113.274 8.98761C114.084 8.60361 114.948 8.41161 115.866 8.41161C117.914 8.41161 119.567 9.13694 120.826 10.5876C122.106 12.0169 122.746 14.2143 122.746 17.1796C122.746 19.0356 122.351 20.7103 121.562 22.2036C120.794 23.6969 119.684 24.8703 118.234 25.7236C116.783 26.5769 115.087 27.0036 113.146 27.0036C111.311 27.0036 109.775 26.8649 108.538 26.5876C107.3 26.2889 106.49 26.0223 106.106 25.7876V3.45161L103.834 3.03561V1.17961ZM113.882 11.5476C113.348 11.5476 112.847 11.6649 112.378 11.8996C111.908 12.1343 111.524 12.4116 111.226 12.7316V24.3156C111.311 24.5289 111.546 24.6996 111.93 24.8276C112.335 24.9556 112.794 25.0196 113.306 25.0196C114.5 25.0196 115.45 24.3903 116.154 23.1316C116.858 21.8729 117.21 20.0169 117.21 17.5636C117.21 15.4943 116.911 13.9796 116.314 13.0196C115.716 12.0383 114.906 11.5476 113.882 11.5476ZM124.698 21.5316C124.698 19.6543 125.647 18.2143 127.546 17.2116C129.466 16.2089 131.983 15.6969 135.098 15.6756V15.0356C135.098 14.2676 135.012 13.6596 134.842 13.2116C134.671 12.7636 134.362 12.4329 133.914 12.2196C133.466 11.9849 132.804 11.8676 131.93 11.8676C130.884 11.8676 129.946 11.9956 129.114 12.2516C128.303 12.4863 127.45 12.8063 126.554 13.2116L125.466 10.9076C125.807 10.6303 126.362 10.2996 127.13 9.91561C127.898 9.51028 128.815 9.16894 129.882 8.89161C130.97 8.59294 132.1 8.44361 133.274 8.44361C134.98 8.44361 136.314 8.66761 137.274 9.11561C138.255 9.56361 138.948 10.2569 139.354 11.1956C139.78 12.1343 139.994 13.4143 139.994 15.0356V24.5396H141.658V26.5556C141.167 26.6623 140.484 26.7689 139.61 26.8756C138.735 26.9823 137.988 27.0356 137.37 27.0356C136.559 27.0356 136.015 26.9183 135.738 26.6836C135.482 26.4489 135.354 25.9796 135.354 25.2756V24.5396C134.82 25.1796 134.106 25.7556 133.21 26.2676C132.314 26.7583 131.279 27.0036 130.106 27.0036C129.103 27.0036 128.186 26.7903 127.354 26.3636C126.543 25.9156 125.892 25.2863 125.402 24.4756C124.932 23.6436 124.698 22.6623 124.698 21.5316ZM132.602 24.0596C132.986 24.0596 133.412 23.9529 133.882 23.7396C134.351 23.5049 134.756 23.2276 135.098 22.9076V17.8196C133.434 17.8196 132.196 18.1183 131.386 18.7156C130.596 19.3129 130.202 20.0809 130.202 21.0196C130.202 21.9796 130.415 22.7263 130.842 23.2596C131.268 23.7929 131.855 24.0596 132.602 24.0596Z"
        fill="#533B6A" />
</svg>
