<svg width="41" height="41" viewBox="0 0 41 41" fill="none" xmlns="http://www.w3.org/2000/svg">
<g clip-path="url(#clip0_1783_191)">
<rect x="0.791016" y="0.897949" width="40" height="40" rx="20" fill="#FCFCF3"/>
<g clip-path="url(#clip1_1783_191)">
<path d="M26.4215 19.2932C26.4215 19.2932 26.7557 21.6672 27.0064 21.8338C27.257 22.0004 28.0926 20.501 28.4686 19.1266L28.8447 17.7521C28.8447 17.7521 31.7692 15.7947 31.5604 13.5456C31.3514 11.2965 30.1816 9.38065 27.842 8.63099C25.5023 7.88133 23.1627 7.54807 19.0266 11.1299C14.8905 14.7117 14.1384 15.5032 11.1303 21.0425C11.1303 21.0425 3.46399 25.8037 5.07239 33.2041C6.15859 38.202 9.04139 41.1591 9.45918 41.6172C9.87696 42.0754 10.3783 41.9504 10.3783 41.9504C10.3783 41.9504 13.8567 47.0156 15.6007 48.1978C16.2692 48.9059 16.4362 51.8629 17.7732 52.6126C18.0239 52.8209 19.098 52.0228 19.6532 50.0303C19.7786 49.5722 20.2382 50.6551 21.9929 49.5305C23.7476 48.4061 24.3326 47.3231 24.3326 47.3231C24.3326 47.3231 26.4395 49.0962 27.4242 48.7392C27.8838 48.5726 27.842 47.698 27.257 46.74C26.6721 45.7822 26.1291 45.0741 26.1291 45.0741C26.1291 45.0741 28.8865 42.117 29.4295 40.9092C29.4295 40.9092 33.1897 39.6597 34.652 37.2024C36.1142 34.745 35.5711 31.8296 33.1479 29.7888C32.1034 28.6643 30.3487 27.9563 30.3487 27.9563C30.3487 27.9563 23.924 27.3586 21.032 26.915C20.4888 26.8317 19.6115 25.6656 19.8622 24.541C20.1128 23.4165 20.9902 19.3349 20.9902 19.3349L26.4215 19.2932Z" fill="#FAC25E"/>
<path d="M23.1834 15.3993C22.7931 14.9187 22.9508 13.8376 23.6417 13.0878C24.3328 12.338 25.1266 11.9006 26.0457 12.1711C26.9646 12.4416 26.5861 14.2536 25.3975 15.1282C24.5201 15.7739 23.5384 15.8365 23.1834 15.3993Z" fill="#533B6A"/>
<path d="M25.3587 17.9395C25.3587 17.9395 26.1245 16.5254 27.9908 17.1899C28.2832 17.294 28.1564 16.8766 27.8237 16.6692L27.6566 16.5651C27.6566 16.5651 27.9699 15.5431 28.3668 15.6793C28.7637 15.8154 28.5548 16.3569 28.7011 16.4193C28.8473 16.4818 29.6619 16.2944 29.4949 16.6901C29.3277 17.0857 28.8567 17.5152 28.9564 17.6753C29.0561 17.8354 30.2051 17.044 30.0588 16.4818C29.9126 15.9195 29.2984 15.9404 28.9517 15.9404C28.9517 15.9404 28.9725 15.2012 28.3668 15.2376C27.761 15.274 27.3432 16.3985 27.3432 16.3985C27.3432 16.3985 26.6956 16.3569 26.0689 16.7734C25.4423 17.1899 25.0245 17.9603 25.3587 17.9395Z" fill="#533B6A"/>
<path d="M7.59038 31.6529C7.76721 26.1891 10.2538 21.8757 10.5671 21.9382C10.8805 22.0006 8.37161 24.4286 8.14963 31.4559C8.02426 35.423 8.87011 37.2753 10.3165 40.3992C10.5045 40.8053 10.2329 41.0344 9.65845 40.0243C9.24778 39.3024 7.4337 36.4946 7.59038 31.6529Z" fill="#533B6A"/>
<path d="M12.8886 38.2745C12.3508 37.963 12.7319 37.8684 13.1392 38.0871C13.5466 38.3057 15.5207 39.3677 18.0901 38.8679C20.6595 38.3682 22.6159 37.7631 25.955 33.6827C26.9264 32.4957 26.6757 33.3703 26.4563 33.6827C26.237 33.995 23.6363 38.0704 20.6281 39.0002C17.62 39.9301 15.2073 39.6177 12.8886 38.2745Z" fill="#533B6A"/>
<path d="M23.866 27.3399C23.866 27.3399 24.1891 28.0882 26.3254 30.1988C27.6276 31.4853 30.3053 33.3709 30.1482 38.1188C30.1355 38.5044 29.9094 39.2642 29.9314 38.2573C29.9434 37.702 29.79 36.9727 29.683 36.4633C29.401 35.1201 28.846 33.1691 26.7497 31.2975C24.4189 29.2163 23.3655 27.2593 23.3655 27.2593L23.866 27.3399Z" fill="#533B6A"/>
<path d="M21.0934 19.1269L26.4203 19.2936L26.5092 19.8724C26.5092 19.8724 21.2814 19.5298 21.0934 19.6268C20.9054 19.7237 19.6521 25.593 20.6234 26.2177C21.5948 26.8424 29.266 27.8108 30.0678 27.4984C30.8697 27.186 31.7639 21.1676 31.2144 20.3764C30.9324 19.9704 28.19 19.9641 28.19 19.9641L28.3671 19.4618C28.3671 19.4618 31.0794 19.6268 31.5808 19.9079C32.0822 20.189 31.5295 25.9799 30.6721 27.5589C30.3318 28.1856 29.3657 27.9262 27.4229 27.8325C25.4802 27.7388 20.8695 27.239 20.3571 26.6768C19.8448 26.1144 19.6306 25.6856 20.0328 22.1882C20.4041 18.9603 21.0934 19.1269 21.0934 19.1269Z" fill="#533B6A"/>
<path d="M26.6541 20.9384C26.9544 20.8447 26.461 18.9925 26.6541 18.1896C26.7442 17.8147 26.3787 17.846 26.2337 18.5644C26.0888 19.2828 26.6541 20.9384 26.6541 20.9384Z" fill="#533B6A"/>
<path d="M28.0732 32.1005C28.0732 32.1005 28.6302 32.8917 29.4497 32.4698C30.016 32.1783 30.0691 31.9239 29.9082 31.5383C29.7428 31.142 30.016 31.1009 30.25 31.2325C30.5916 31.4245 31.1871 31.5765 31.4156 31.4133C31.774 31.1573 31.774 30.6428 31.6293 30.3958C31.326 29.8785 31.7185 29.8931 32.1571 30.1222C32.4429 30.2714 33.0127 30.1755 32.8959 29.7296C32.779 29.2836 33.4961 30.0918 33.0063 30.4943C32.6228 30.8094 32.0583 30.4251 32.0583 30.4251C32.0583 30.4251 32.293 31.5383 31.7185 31.8715C30.8823 32.3564 30.4755 31.8923 30.4755 31.8923C30.4755 31.8923 30.3711 32.642 29.7757 32.8399C29.306 32.9959 28.7731 33.0585 28.5223 32.6837C28.2717 32.3088 28.0732 32.1005 28.0732 32.1005Z" fill="#533B6A"/>
<path d="M29.9084 35.5581C29.9084 35.5581 30.246 36.3063 31.0921 36.3066C31.6153 36.3068 31.9229 35.8287 32.0813 35.464C32.131 35.3496 32.2952 35.3584 32.3369 35.476C32.4735 35.8613 32.7405 36.365 33.1914 36.3066C33.6201 36.251 33.9712 35.8748 34.1853 35.5791C34.2476 35.493 34.3848 35.5529 34.3611 35.6564C34.2586 36.1052 33.956 36.7351 33.0661 36.7442C32.6422 36.7486 32.4225 36.5009 32.3198 36.3242C32.2743 36.2457 32.1671 36.23 32.0988 36.2901C31.7945 36.5582 30.9354 37.0774 30.052 36.2343L29.9084 35.5581Z" fill="#533B6A"/>
<path d="M4.9504 29.5588C4.97797 29.434 4.95791 30.653 5.64727 30.5594C6.01438 30.5094 6.20613 30.2617 6.33969 30.0777C6.50408 29.8513 6.64732 30.1329 6.67173 30.2385C6.71529 30.4262 6.82969 30.6151 7.11994 30.5635C7.66496 30.4668 8.12266 29.591 8.12266 29.591C8.12266 29.591 8.1027 30.9385 7.03547 30.9416C6.72547 30.9425 6.55179 30.5686 6.39926 30.6133C6.2738 30.6501 6.10339 30.8359 6.01813 30.8991C5.72591 31.1156 5.10867 31.1331 4.8855 30.5058L4.9504 29.5588Z" fill="#533B6A"/>
<path d="M23.7058 14.379C23.7058 14.379 23.7476 14.5248 24.2908 14.504C24.8338 14.4831 25.6277 13.6918 25.7947 13.0879C25.7947 13.0879 26.0121 13.5716 25.691 14.1651C25.427 14.653 24.7541 15.1396 24.228 15.1396C23.3716 15.1396 23.7058 14.379 23.7058 14.379Z" fill="#FCFCF3"/>
<path d="M19.1892 23.2588C19.0711 23.1552 18.7701 22.8423 18.9022 22.4417C19.0198 22.0851 18.8223 21.9164 18.5784 22.2772C18.3345 22.6381 17.8201 23.1014 16.9935 22.782C16.167 22.4628 16.2432 20.8451 16.4369 20.3315C16.6306 19.8179 16.5323 19.44 16.277 19.7269C16.0216 20.0138 15.0145 21.5887 14.0866 20.9957C13.1586 20.4025 13.9495 18.2728 14.01 18.0831C14.0706 17.8935 13.9366 17.8162 13.7604 18.1787C13.5558 18.5997 13.0385 20.749 13.8137 21.4054C14.589 22.0619 15.9446 20.7478 15.9446 20.7478C15.9446 20.7478 15.6564 22.8081 16.7532 23.2534C17.8501 23.6986 18.5846 22.7487 18.5846 22.7487C18.5589 23.3083 19.1982 23.6789 19.1982 23.6789C19.7169 23.8374 20.0685 23.6092 20.0685 23.6092V23.1302C19.5767 23.4413 19.3067 23.3441 19.1892 23.2588Z" fill="#533B6A"/>
<path d="M7.43032 33.5998C7.50342 33.773 7.13968 34.3457 6.76565 34.5499C6.5659 34.659 6.39193 34.6606 6.1822 34.5763C5.84789 34.4419 5.8311 34.1066 5.60773 33.8589C5.53977 33.7339 5.51201 33.6412 5.59203 33.6011C5.78783 33.5309 6.10811 34.3183 6.5823 34.1879C6.79747 34.1288 6.85457 33.9871 7.01312 33.8544C7.14382 33.7451 7.3663 33.5035 7.43032 33.5998Z" fill="#533B6A"/>
<path d="M23.9003 21.6639C24.0842 21.6664 24.065 21.6188 24.1326 21.4637C24.1811 21.3527 24.2512 21.2472 24.3238 21.2737C24.3747 21.2953 24.4034 21.4698 24.4255 21.5577C24.4497 21.6543 24.4303 21.6591 24.5392 21.6808C24.6924 21.7285 24.682 21.7008 24.8272 21.7605C24.9823 21.8242 24.7906 21.9282 24.7134 21.9583C24.6386 21.9875 24.5789 22.0123 24.5707 22.0452C24.5634 22.0741 24.6118 22.1729 24.6438 22.2711C24.6682 22.3458 24.7239 22.4854 24.6965 22.5035C24.6723 22.5196 24.6329 22.5545 24.5346 22.4725C24.4599 22.4101 24.4262 22.3819 24.3867 22.3371C24.3493 22.2944 24.2627 22.2138 24.2295 22.1995C24.2125 22.1923 24.0948 22.2952 24.044 22.3278C23.7963 22.4867 23.7313 22.4582 23.7163 22.395C23.7074 22.3567 23.7604 22.2292 23.8342 22.1452C23.8818 22.091 23.9244 22.0188 23.922 21.9969C23.9179 21.9582 23.7873 21.8834 23.7333 21.8593C23.6591 21.8264 23.5568 21.7354 23.5518 21.6904C23.587 21.6181 23.7982 21.6548 23.9003 21.6639Z" fill="#533B6A"/>
<path d="M22.9745 23.285C23.1585 23.2875 23.1392 23.2399 23.2069 23.0848C23.2553 22.9738 23.3254 22.8683 23.398 22.8947C23.4489 22.9164 23.4776 23.0909 23.4997 23.1788C23.5239 23.2754 23.5045 23.2802 23.6134 23.302C23.7666 23.3496 23.7562 23.3219 23.9015 23.3816C24.0566 23.4453 23.8648 23.5493 23.7877 23.5794C23.7129 23.6086 23.6531 23.6334 23.6449 23.6663C23.6376 23.6952 23.686 23.794 23.718 23.8922C23.7424 23.9669 23.7981 24.1065 23.7708 24.1246C23.7466 24.1407 23.7071 24.1756 23.6088 24.0936C23.5342 24.0311 23.5004 24.003 23.461 23.9582C23.4235 23.9155 23.3369 23.8349 23.3037 23.8206C23.2867 23.8134 23.169 23.9163 23.1182 23.9489C22.8705 24.1078 22.8055 24.0793 22.7906 24.0161C22.7816 23.9778 22.8346 23.8503 22.9084 23.7663C22.956 23.7121 22.9986 23.6399 22.9962 23.618C22.9921 23.5793 22.8615 23.5045 22.8076 23.4804C22.7334 23.4475 22.631 23.3565 22.626 23.3116C22.6612 23.2392 22.8725 23.276 22.9745 23.285Z" fill="#533B6A"/>
<path d="M23.4015 24.9071C23.5855 24.9096 23.5662 24.862 23.6339 24.7069C23.6823 24.5959 23.7524 24.4903 23.825 24.5168C23.8759 24.5385 23.9047 24.713 23.9267 24.8008C23.9509 24.8975 23.9315 24.9023 24.0404 24.9239C24.1936 24.9717 24.1832 24.9439 24.3285 25.0036C24.4836 25.0673 24.2918 25.1713 24.2147 25.2015C24.1399 25.2306 24.0801 25.2554 24.0719 25.2883C24.0646 25.3173 24.113 25.4161 24.145 25.5143C24.1694 25.589 24.2251 25.7286 24.1978 25.7467C24.1736 25.7627 24.1341 25.7977 24.0358 25.7157C23.9612 25.6532 23.9274 25.6251 23.888 25.5802C23.8505 25.5376 23.7639 25.4569 23.7307 25.4427C23.7137 25.4355 23.596 25.5384 23.5453 25.571C23.2975 25.7298 23.2325 25.7014 23.2176 25.6382C23.2086 25.5998 23.2616 25.4724 23.3354 25.3884C23.383 25.3341 23.4256 25.2619 23.4232 25.2401C23.4191 25.2014 23.2885 25.1265 23.2346 25.1025C23.1604 25.0696 23.058 24.9786 23.053 24.9336C23.0882 24.8613 23.2995 24.8979 23.4015 24.9071Z" fill="#533B6A"/>
<path d="M25.2374 25.6576C25.4214 25.6601 25.4021 25.6125 25.4698 25.4574C25.5182 25.3464 25.5884 25.2408 25.661 25.2673C25.7118 25.289 25.7406 25.4635 25.7626 25.5513C25.7868 25.6479 25.7675 25.6528 25.8763 25.6744C26.0295 25.7222 26.0192 25.6944 26.1644 25.7541C26.3195 25.8178 26.1277 25.9218 26.0506 25.952C25.9758 25.9811 25.916 26.0059 25.9078 26.0388C25.9005 26.0678 25.9489 26.1666 25.9809 26.2647C26.0053 26.3395 26.0611 26.479 26.0337 26.4972C26.0095 26.5132 25.9701 26.5482 25.8718 26.4661C25.7971 26.4037 25.7633 26.3755 25.7239 26.3307C25.6865 26.2881 25.5998 26.2074 25.5666 26.1931C25.5496 26.186 25.432 26.2889 25.3812 26.3215C25.1334 26.4803 25.0684 26.4519 25.0535 26.3886C25.0445 26.3503 25.0976 26.2229 25.1714 26.1389C25.219 26.0846 25.2616 26.0124 25.2592 25.9906C25.255 25.9519 25.1244 25.877 25.0705 25.853C24.9963 25.8201 24.894 25.7291 24.8889 25.6841C24.9242 25.6118 25.1354 25.6484 25.2374 25.6576Z" fill="#533B6A"/>
<path d="M25.5702 21.3221C25.7542 21.3246 25.7349 21.277 25.8026 21.1219C25.851 21.0109 25.9211 20.9054 25.9937 20.9319C26.0446 20.9535 26.0734 21.128 26.0954 21.2159C26.1196 21.3125 26.1002 21.3173 26.2091 21.339C26.3623 21.3868 26.3519 21.359 26.4972 21.4187C26.6523 21.4824 26.4605 21.5864 26.3834 21.6165C26.3086 21.6457 26.2488 21.6705 26.2406 21.7034C26.2333 21.7323 26.2817 21.8311 26.3137 21.9293C26.3381 22.004 26.3938 22.1436 26.3665 22.1617C26.3423 22.1778 26.3028 22.2127 26.2045 22.1307C26.1299 22.0683 26.0961 22.0401 26.0567 21.9953C26.0192 21.9526 25.9326 21.872 25.8994 21.8577C25.8824 21.8505 25.7647 21.9534 25.714 21.986C25.4662 22.1449 25.4012 22.1164 25.3863 22.0532C25.3773 22.0149 25.4303 21.8874 25.5041 21.8034C25.5517 21.7492 25.5943 21.677 25.5919 21.6551C25.5878 21.6164 25.4572 21.5416 25.4033 21.5175C25.3291 21.4846 25.2267 21.3936 25.2217 21.3486C25.2569 21.2764 25.4682 21.313 25.5702 21.3221Z" fill="#533B6A"/>
<path d="M27.2555 22.1908C27.4395 22.1933 27.4202 22.1457 27.4879 21.9906C27.5363 21.8796 27.6064 21.774 27.679 21.8005C27.7299 21.8222 27.7587 21.9967 27.7807 22.0845C27.8049 22.1811 27.7855 22.186 27.8944 22.2076C28.0476 22.2554 28.0372 22.2276 28.1825 22.2873C28.3376 22.351 28.1458 22.455 28.0687 22.4852C27.9939 22.5143 27.9341 22.5391 27.9259 22.572C27.9186 22.601 27.967 22.6998 27.999 22.798C28.0234 22.8727 28.0791 23.0122 28.0518 23.0304C28.0276 23.0464 27.9881 23.0814 27.8898 22.9993C27.8152 22.9369 27.7814 22.9087 27.742 22.8639C27.7045 22.8213 27.6179 22.7406 27.5847 22.7264C27.5677 22.7192 27.45 22.8221 27.3993 22.8547C27.1515 23.0135 27.0865 22.9851 27.0716 22.9218C27.0626 22.8835 27.1156 22.7561 27.1894 22.6721C27.237 22.6178 27.2796 22.5456 27.2772 22.5238C27.2731 22.4851 27.1425 22.4102 27.0886 22.3862C27.0144 22.3533 26.912 22.2622 26.907 22.2173C26.9423 22.145 27.1535 22.1816 27.2555 22.1908Z" fill="#533B6A"/>
<path d="M27.6503 23.7753C27.8342 23.7777 27.815 23.7302 27.8826 23.5751C27.9311 23.4641 28.0012 23.3585 28.0738 23.385C28.1247 23.4066 28.1534 23.5812 28.1755 23.669C28.1997 23.7656 28.1803 23.7704 28.2892 23.7922C28.4423 23.8399 28.432 23.8121 28.5772 23.8718C28.7323 23.9355 28.5406 24.0395 28.4634 24.0696C28.3886 24.0988 28.3289 24.1236 28.3207 24.1565C28.3134 24.1855 28.3618 24.2842 28.3938 24.3824C28.4182 24.4572 28.4739 24.5967 28.4465 24.6148C28.4223 24.6309 28.3829 24.6659 28.2846 24.5838C28.2099 24.5214 28.1762 24.4932 28.1367 24.4484C28.0993 24.4058 28.0127 24.3251 27.9795 24.3108C27.9625 24.3036 27.8448 24.4066 27.794 24.4391C27.5463 24.598 27.4813 24.5695 27.4663 24.5063C27.4574 24.468 27.5104 24.3406 27.5842 24.2566C27.6318 24.2023 27.6744 24.1301 27.672 24.1082C27.6679 24.0695 27.5373 23.9947 27.4833 23.9707C27.4091 23.9378 27.3068 23.8468 27.3018 23.8018C27.337 23.7295 27.5482 23.7662 27.6503 23.7753Z" fill="#533B6A"/>
<path d="M26.9074 25.2035C27.0913 25.206 27.0721 25.1584 27.1397 25.0033C27.1881 24.8923 27.2583 24.7867 27.3309 24.8132C27.3818 24.8349 27.4105 25.0094 27.4325 25.0972C27.4567 25.1938 27.4374 25.1987 27.5462 25.2203C27.6995 25.2681 27.6891 25.2403 27.8343 25.3C27.9894 25.3637 27.7977 25.4677 27.7205 25.4979C27.6457 25.527 27.586 25.5518 27.5778 25.5847C27.5705 25.6137 27.6189 25.7125 27.6509 25.8106C27.6753 25.8854 27.731 26.0249 27.7036 26.0431C27.6794 26.0591 27.64 26.0941 27.5417 26.012C27.467 25.9496 27.4332 25.9214 27.3938 25.8766C27.3564 25.834 27.2697 25.7533 27.2365 25.739C27.2195 25.7319 27.1019 25.8348 27.0511 25.8674C26.8033 26.0262 26.7383 25.9978 26.7234 25.9345C26.7144 25.8962 26.7675 25.7688 26.8413 25.6848C26.8889 25.6305 26.9315 25.5583 26.9291 25.5365C26.925 25.4978 26.7944 25.4229 26.7404 25.3989C26.6662 25.366 26.5639 25.275 26.5588 25.23C26.5941 25.1577 26.8053 25.1943 26.9074 25.2035Z" fill="#533B6A"/>
</g>
</g>
<defs>
<clipPath id="clip0_1783_191">
<rect x="0.791016" y="0.897949" width="40" height="40" rx="20" fill="white"/>
</clipPath>
<clipPath id="clip1_1783_191">
<rect width="30.625" height="52.0977" fill="white" transform="translate(4.85254 8.14648)"/>
</clipPath>
</defs>
</svg>
