<svg width="84" height="135" viewBox="0 0 84 135" fill="none" xmlns="http://www.w3.org/2000/svg">
<g opacity="0.25" clip-path="url(#clip0_1718_3764)">
<path d="M23.9941 105.292C20.1856 101.175 15.6746 78.7402 13.3686 71.9331C11.0621 65.1238 6.89164 52.2578 14.1205 46.0993C18.5062 42.3624 25.5377 38.7475 25.8784 34.0227C26.219 29.2979 28.3541 15.5569 49.282 14.4597C70.2098 13.3625 71.3641 22.37 77.1124 29.2207C82.8613 36.0737 104.468 31.513 107.5 41.6319C110.533 51.7508 125.034 98.9642 118.638 103.9C112.243 108.836 67.7208 127.372 56.4924 125.87C45.2641 124.368 28.2953 109.943 23.9953 105.297L23.9941 105.292Z" fill="#FCFCF3"/>
<path d="M48.4442 78.9642L22.1608 66.1231C22.1608 66.1231 24.6089 76.8911 25.9751 81.0639C27.3413 85.2366 29.9113 95.0486 29.9113 95.0486C30.0102 95.4175 30.2317 95.7417 30.5401 95.9668L56.893 117.744C58.6502 119.082 60.6621 119.104 61.3347 118.907C99.7179 107.668 110.386 100.905 110.386 100.905C111.199 100.609 111.649 99.7382 111.425 98.901L100.952 59.8161L48.4442 78.9642Z" fill="#B2D1DE"/>
<path d="M69.6512 34.0967C68.9395 33.8565 68.1673 33.8669 67.4636 34.1242L42.8038 42.5004L17.0637 52.4967C16.4309 52.7278 16.0784 53.4047 16.253 54.0564L19.0888 64.64C19.2297 65.1657 19.5867 65.6075 20.0738 65.8558L45.273 78.689C46.2087 79.1652 47.3056 79.3353 48.2981 79.0007C88.4821 65.5059 98.3435 61.765 102.142 59.7433C102.661 59.4669 102.919 58.8675 102.766 58.2998L99.3251 45.4563C99.07 44.5042 98.3559 43.7437 97.4208 43.4284L69.6518 34.099L69.6512 34.0967Z" fill="#B2D1DE"/>
<path d="M36.3298 37.4827C39.9816 36.3858 41.9061 35.9056 41.0822 34.9734C40.2583 34.0411 35.6884 35.3887 34.3269 35.8364C32.9676 36.2835 32.3418 37.9333 33.3265 38.0814C34.3113 38.2295 35.492 37.7332 36.3298 37.4827Z" fill="#B2D1DE"/>
<path d="M40.915 31.237C41.6208 30.4322 39.7988 29.0642 38.4528 28.6435C37.1067 28.2229 34.757 27.3277 34.2339 27.8799C33.7108 28.432 34.6092 29.6332 36.5783 30.5451C38.548 31.4592 40.1581 32.098 40.915 31.237Z" fill="#B2D1DE"/>
<path d="M43.0691 27.1606C43.8298 26.746 42.9586 25.8311 42.3047 25.225C41.6509 24.6189 40.571 24.1245 40.2669 24.824C39.9629 25.5234 41.8888 27.8083 43.0713 27.16L43.0691 27.1606Z" fill="#B2D1DE"/>
<path d="M52.3017 48.1785C52.3017 48.1785 49.5948 48.6575 47.701 49.4112C45.8073 50.1649 45.6671 51.0264 46.8769 51.8553C48.0866 52.6842 48.3825 53.1802 50.472 52.5398C52.5616 51.8994 66.8436 47.0829 68.1239 46.4912C69.4049 45.9018 68.4177 45.1363 67.1879 44.6822C65.9581 44.228 65.513 44.101 64.6855 44.2399C63.8601 44.3782 63.0762 44.6711 63.0762 44.6711L62.2902 46.9226L58.4776 48.1336L52.3055 48.1751L52.3017 48.1785Z" fill="#FCFCF3"/>
<path d="M69.8961 82.566C70.6903 82.294 70.5345 82.1179 70.5875 81.346C70.6255 80.7913 70.7653 80.2282 71.1164 80.2336C71.3686 80.2489 71.7596 80.9586 71.9892 81.3043C72.2422 81.684 72.1661 81.7352 72.6665 81.6627C73.3985 81.6346 73.3114 81.5301 74.0274 81.5655C74.7916 81.6047 74.1278 82.346 73.8426 82.5953C73.5666 82.835 73.348 83.0332 73.3612 83.1883C73.3741 83.3246 73.7334 83.6781 74.0228 84.0528C74.2431 84.3371 74.6961 84.855 74.6058 84.9763C74.5257 85.083 74.4097 85.294 73.8636 85.0899C73.4462 84.9342 73.2573 84.8641 73.0186 84.7315C72.7799 84.5989 72.2957 84.3878 72.1299 84.3777C72.0457 84.3719 71.6983 84.9977 71.5299 85.2156C70.7095 86.2807 70.3869 86.2582 70.2253 86.008C70.128 85.8564 70.1597 85.2253 70.3486 84.7485C70.4695 84.4414 70.541 84.0647 70.4979 83.9745C70.4193 83.8132 69.7439 83.6911 69.4756 83.6683C69.1063 83.6394 68.5253 83.4021 68.4357 83.2177C68.477 82.8515 69.4392 82.686 69.8923 82.5694L69.8961 82.566Z" fill="#FCFCF3"/>
<path d="M68.4154 90.9888C69.2096 90.7168 69.0537 90.5408 69.1068 89.7689C69.1448 89.2141 69.2846 88.6511 69.6357 88.6564C69.8879 88.6717 70.2789 89.3814 70.5085 89.7271C70.7615 90.1069 70.6854 90.158 71.1858 90.0855C71.9178 90.0575 71.8307 89.9529 72.5467 89.9884C73.3109 90.0275 72.6471 90.7689 72.3619 91.0181C72.0859 91.2578 71.8673 91.4561 71.8805 91.6112C71.8933 91.7474 72.2527 92.101 72.5421 92.4757C72.7624 92.7599 73.2154 93.2778 73.1251 93.3991C73.045 93.5058 72.929 93.7168 72.3829 93.5127C71.9655 93.357 71.7766 93.2869 71.5379 93.1543C71.3126 93.0277 70.8149 92.8106 70.6492 92.8006C70.565 92.7947 70.2176 93.4205 70.0492 93.6385C69.2288 94.7036 68.9062 94.6811 68.7446 94.4308C68.6473 94.2793 68.679 93.6481 68.8679 93.1713C68.9888 92.8643 69.0603 92.4876 69.0172 92.3973C68.9386 92.2361 68.2632 92.114 67.9948 92.0912C67.6256 92.0623 67.0446 91.8249 66.955 91.6406C66.9963 91.2744 67.9585 91.1089 68.4116 90.9922L68.4154 90.9888Z" fill="#FCFCF3"/>
<path d="M72.7315 97.3448C73.5258 97.0728 73.3699 96.8967 73.423 96.1249C73.461 95.5701 73.6007 95.007 73.9518 95.0124C74.204 95.0277 74.595 95.7374 74.8247 96.0831C75.0776 96.4628 75.0016 96.514 75.5019 96.4415C76.234 96.4134 76.1469 96.3089 76.8628 96.3444C77.627 96.3835 76.9633 97.1248 76.678 97.3741C76.402 97.6138 76.1834 97.812 76.1966 97.9671C76.2095 98.1034 76.5689 98.4569 76.8583 98.8316C77.0786 99.1159 77.5316 99.6338 77.4412 99.7551C77.3611 99.8618 77.2452 100.073 76.6991 99.8687C76.2817 99.713 76.0928 99.6429 75.8541 99.5103C75.6153 99.3778 75.1311 99.1666 74.9654 99.1565C74.8811 99.1507 74.5337 99.7765 74.3653 99.9944C73.545 101.06 73.2223 101.037 73.0608 100.787C72.9635 100.635 72.9952 100.004 73.184 99.5273C73.3049 99.2202 73.3765 98.8435 73.3334 98.7533C73.2548 98.592 72.5794 98.4699 72.311 98.4472C71.9418 98.4182 71.3607 98.1809 71.2712 97.9965C71.3124 97.6303 72.2746 97.4648 72.7277 97.3482L72.7315 97.3448Z" fill="#FCFCF3"/>
<path d="M81.7689 97.7764C82.5631 97.5044 82.4073 97.3284 82.4603 96.5565C82.4983 96.0017 82.6381 95.4387 82.9892 95.444C83.2414 95.4593 83.6324 96.169 83.862 96.5147C84.115 96.8945 84.0389 96.9456 84.5393 96.8731C85.2713 96.8451 85.1842 96.7405 85.9002 96.776C86.6644 96.8151 86.0006 97.5565 85.7154 97.8057C85.4301 98.055 85.2208 98.2437 85.234 98.3988C85.2469 98.535 85.6062 98.8886 85.8956 99.2633C86.1159 99.5475 86.5689 100.065 86.4786 100.187C86.3985 100.293 86.2825 100.504 85.7364 100.3C85.319 100.145 85.1301 100.075 84.8914 99.9419C84.6527 99.8094 84.1685 99.5982 84.0027 99.5881C83.9185 99.5823 83.5711 100.208 83.4027 100.426C82.5823 101.491 82.2597 101.469 82.0981 101.218C82.0008 101.067 82.0325 100.436 82.2214 99.9589C82.3423 99.6519 82.4138 99.2752 82.3707 99.1849C82.2921 99.0237 81.6167 98.9016 81.3484 98.8788C80.9791 98.8499 80.3981 98.6125 80.3085 98.4282C80.3498 98.062 81.312 97.8965 81.7651 97.7798L81.7689 97.7764Z" fill="#FCFCF3"/>
<path d="M76.5474 78.5367C77.3417 78.2647 77.1858 78.0886 77.2389 77.3167C77.2769 76.762 77.4166 76.1989 77.7678 76.2043C78.0199 76.2196 78.4109 76.9293 78.6406 77.275C78.8936 77.6547 78.8175 77.7059 79.3179 77.6334C80.0499 77.6053 79.9628 77.5008 80.6787 77.5362C81.4429 77.5754 80.7792 78.3167 80.4939 78.566C80.2179 78.8057 79.9993 79.0039 80.0125 79.159C80.0254 79.2953 80.3848 79.6488 80.6742 80.0235C80.8945 80.3078 81.3475 80.8257 81.2571 80.947C81.177 81.0537 81.0611 81.2647 80.515 81.0606C80.0976 80.9049 79.9087 80.8348 79.67 80.7022C79.4447 80.5755 78.947 80.3585 78.7813 80.3484C78.697 80.3426 78.3497 80.9684 78.1812 81.1863C77.3609 82.2514 77.0383 82.2289 76.8767 81.9786C76.7794 81.8271 76.8111 81.196 76.9999 80.7192C77.1208 80.4121 77.1924 80.0354 77.1493 79.9452C77.0707 79.7839 76.3953 79.6618 76.1269 79.639C75.7577 79.6101 75.1767 79.3728 75.0871 79.1884C75.1284 78.8222 76.0905 78.6567 76.5436 78.5401L76.5474 78.5367Z" fill="#FCFCF3"/>
<path d="M85.1241 79.7095C85.9183 79.4375 85.7625 79.2615 85.8156 78.4896C85.8536 77.9349 85.9933 77.3718 86.3444 77.3771C86.5966 77.3924 86.9876 78.1022 87.2173 78.4479C87.4702 78.8276 87.3941 78.8787 87.8945 78.8062C88.6265 78.7782 88.5395 78.6737 89.2554 78.7091C90.0196 78.7482 89.3558 79.4896 89.0706 79.7388C88.7946 79.9785 88.576 80.1768 88.5892 80.3319C88.6021 80.4681 88.9614 80.8217 89.2509 81.1964C89.4712 81.4807 89.9242 81.9985 89.8338 82.1198C89.7537 82.2265 89.6378 82.4375 89.0916 82.2335C88.6743 82.0777 88.4853 82.0076 88.2466 81.8751C88.0079 81.7425 87.5237 81.5313 87.358 81.5213C87.2737 81.5154 86.9263 82.1412 86.7579 82.3592C85.9375 83.4243 85.6149 83.4018 85.4533 83.1515C85.356 83 85.3877 82.3688 85.5766 81.892C85.6975 81.585 85.7691 81.2083 85.726 81.118C85.6473 80.9568 84.972 80.8347 84.7036 80.8119C84.3343 80.783 83.7533 80.5456 83.6637 80.3613C83.705 79.9951 84.6672 79.8296 85.1203 79.7129L85.1241 79.7095Z" fill="#FCFCF3"/>
<path d="M18.5225 54.5732C18.5225 54.5732 25.9588 56.9396 33.3249 60.0847C37.7382 61.9706 40.9856 63.2267 42.6096 64.0937C44.1084 71.9008 45.9521 76.5683 45.9521 76.5683" stroke="#FCFCF3" stroke-width="1.68954" stroke-linecap="round" stroke-linejoin="round"/>
<path d="M96.8747 46.1084C96.8747 46.1084 83.4021 46.3538 71.4164 45.7376C61.8617 45.2443 55.6128 45.6959 41.7318 48.1997" stroke="#FCFCF3" stroke-width="1.68954" stroke-linecap="round" stroke-linejoin="round"/>
<path d="M58.4737 48.1369C54.9838 48.383 45.5562 46.8912 43.9457 46.7711C44.7952 44.6422 45.7063 41.6848 46.5059 38.3641C47.3317 34.9299 48.9834 26.6504 48.3743 22.4287C48.9487 22.7294 61.8194 24.241 64.04 24.5836C64.796 26.4882 64.9876 32.4673 64.0925 37.7858C63.4415 41.6609 62.3844 45.9076 62.2863 46.9259L58.4737 48.1369Z" fill="#FCFCF3" stroke="#B2D1DE" stroke-width="1.68954" stroke-linecap="round" stroke-linejoin="round"/>
<path d="M50.1512 35.356C51.2061 34.8224 52.5385 37.5551 53.2053 38.3685C53.8722 39.1819 54.4072 37.4664 56.7893 34.9813C59.3094 32.3504 59.9282 32.2438 60.3319 33.0803C60.7362 33.919 54.7045 40.8506 53.4778 40.6726C51.8775 40.4408 49.2006 35.838 50.1518 35.3582L50.1512 35.356Z" fill="#B2D1DE"/>
<path d="M49.3469 82.4038C49.3469 82.4038 51.0867 88.8702 50.9859 88.5207C52.7541 94.6432 53.2903 95.5863 55.0909 101.698C56.4126 106.181 56.385 106.219 58.1596 112.842" stroke="#FCFCF3" stroke-width="1.68954" stroke-linecap="round" stroke-linejoin="round"/>
</g>
<defs>
<clipPath id="clip0_1718_3764">
<rect width="99.4219" height="111.85" fill="white" transform="translate(0.935547 26.4839) rotate(-15)"/>
</clipPath>
</defs>
</svg>
