<svg width="118" height="91" viewBox="0 0 118 91" fill="none" xmlns="http://www.w3.org/2000/svg">
<g opacity="0.25" clip-path="url(#clip0_1718_3808)">
<path d="M7.24505 81.9434C5.53184 76.6028 10.9183 54.3619 11.7031 47.2178C12.4883 40.0715 14.1421 26.648 23.2956 24.1189C28.8492 22.5839 36.7496 22.277 39.0539 18.1382C41.3582 13.9994 49.0971 2.44585 68.5301 10.2902C87.9632 18.1346 85.2051 26.7868 87.5221 35.4243C89.8387 44.0641 111.35 49.0558 109.825 59.5087C108.3 69.9617 101.503 118.882 93.6207 120.655C85.7403 122.428 37.5549 120.425 28.0115 114.321C18.468 108.218 9.17951 87.9755 7.24426 81.9479L7.24505 81.9434Z" fill="#FCFCF3"/>
<path d="M40.527 68.4054L22.1263 45.665C22.1263 45.665 19.7975 56.4594 19.2735 60.8188C18.7495 65.1781 16.9349 75.1574 16.9349 75.1574C16.8687 75.5335 16.9326 75.921 17.1171 76.2553L31.8066 107.125C32.8343 109.08 34.6486 109.95 35.3414 110.055C74.88 116.079 87.4058 114.455 87.4058 114.455C88.2685 114.53 89.0437 113.93 89.194 113.077L96.2088 73.2258L40.527 68.4054Z" fill="#B2D1DE"/>
<path d="M78.6996 36.6931C78.1559 36.1747 77.4516 35.858 76.7051 35.794L50.815 32.9713L23.2613 31.1609C22.5902 31.1031 21.9847 31.5678 21.8677 32.2322L19.9682 43.0233C19.8739 43.5593 20.0109 44.1106 20.3475 44.5414L37.7687 66.8167C38.4157 67.6435 39.3382 68.261 40.3791 68.3769C82.5027 73.1166 93.0214 73.8907 97.3184 73.6625C97.9056 73.6311 98.3922 73.1966 98.4941 72.6178L100.799 59.5226C100.97 58.5518 100.644 57.5609 99.9296 56.8802L78.6992 36.6953L78.6996 36.6931Z" fill="#B2D1DE"/>
<path d="M47.0659 25.6886C50.8393 26.2367 52.7866 26.6143 52.4335 25.4213C52.0804 24.2282 47.3689 23.5196 45.9458 23.3504C44.5249 23.1816 43.2608 24.4127 44.0908 24.9629C44.9209 25.513 46.2007 25.5618 47.0659 25.6886Z" fill="#B2D1DE"/>
<path d="M53.8602 21.9637C54.8399 21.5324 53.7661 19.5228 52.7237 18.573C51.6813 17.6232 49.9294 15.8194 49.2221 16.099C48.5148 16.3785 48.8218 17.8467 50.2215 19.505C51.6208 21.1655 52.8105 22.4245 53.8602 21.9637Z" fill="#B2D1DE"/>
<path d="M57.5344 19.1783C58.3991 19.1239 57.9958 17.9266 57.6591 17.1011C57.3224 16.2755 56.5523 15.3713 55.9814 15.8769C55.4104 16.3824 56.191 19.267 57.5367 19.1787L57.5344 19.1783Z" fill="#B2D1DE"/>
<path d="M57.026 42.1292C57.026 42.1292 54.37 41.4202 52.3351 41.3035C50.3002 41.1868 49.8094 41.9085 50.5558 43.1708C51.3022 44.4331 51.361 45.0077 53.5255 45.3097C55.6899 45.6118 70.6699 47.278 72.0804 47.2824C73.4904 47.2891 72.9189 46.1784 71.996 45.2473C71.0731 44.3162 70.7232 44.0131 69.9144 43.7895C69.1079 43.5663 68.2737 43.5007 68.2737 43.5007L66.6103 45.2096L62.6429 44.697L57.0309 42.1278L57.026 42.1292Z" fill="#FCFCF3"/>
<path d="M58.4507 80.7302C59.2855 80.8191 59.2186 80.5937 59.5927 79.9165C59.8614 79.4297 60.2259 78.9783 60.5419 79.1315C60.764 79.2519 60.8187 80.0603 60.8809 80.4707C60.9498 80.9217 60.8592 80.9359 61.3434 81.0815C62.0187 81.3653 61.984 81.2338 62.6179 81.5683C63.2941 81.9265 62.3794 82.3181 62.0155 82.4236C61.6641 82.5243 61.3822 82.6117 61.3287 82.7578C61.2828 82.8868 61.4592 83.359 61.5633 83.8209C61.6429 84.1716 61.8348 84.8324 61.7017 84.9041C61.584 84.967 61.3898 85.1093 60.981 84.6937C60.6684 84.3763 60.5268 84.2329 60.3664 84.0119C60.206 83.791 59.8563 83.395 59.7103 83.3159C59.6364 83.275 59.0572 83.6956 58.8125 83.822C57.6191 84.4409 57.3361 84.2843 57.2954 83.9892C57.2712 83.8108 57.5665 83.252 57.939 82.8996C58.1783 82.6724 58.4023 82.3612 58.4013 82.2611C58.3982 82.0818 57.8375 81.6859 57.6039 81.5518C57.2814 81.3697 56.855 80.9091 56.8517 80.7042C57.0438 80.3897 57.9858 80.6461 58.4458 80.7317L58.4507 80.7302Z" fill="#FCFCF3"/>
<path d="M53.551 87.74C54.3858 87.8289 54.3189 87.6035 54.693 86.9262C54.9618 86.4395 55.3262 85.9881 55.6422 86.1413C55.8644 86.2616 55.919 87.0701 55.9812 87.4804C56.0501 87.9314 55.9596 87.9457 56.4437 88.0913C57.1191 88.375 57.0843 88.2435 57.7183 88.578C58.3945 88.9362 57.4797 89.3279 57.1159 89.4334C56.7644 89.5341 56.4826 89.6215 56.429 89.7676C56.3832 89.8965 56.5596 90.3688 56.6637 90.8307C56.7433 91.1814 56.9352 91.8421 56.802 91.9139C56.6844 91.9768 56.4902 92.1191 56.0813 91.7035C55.7688 91.386 55.6272 91.2427 55.4668 91.0217C55.316 90.8117 54.9566 90.4048 54.8107 90.3257C54.7368 90.2848 54.1576 90.7053 53.9128 90.8318C52.7194 91.4507 52.4365 91.2941 52.3957 90.999C52.3715 90.8205 52.6668 90.2618 53.0394 89.9094C53.2787 89.6821 53.5026 89.3709 53.5017 89.2709C53.4985 89.0915 52.9379 88.6956 52.7043 88.5616C52.3818 88.3794 51.9554 87.9189 51.952 87.714C52.1441 87.3995 53.0861 87.6559 53.5461 87.7415L53.551 87.74Z" fill="#FCFCF3"/>
<path d="M66.1814 79.8875C67.0162 79.9764 66.9493 79.7509 67.3234 79.0737C67.5921 78.5869 67.9566 78.1356 68.2726 78.2887C68.4947 78.4091 68.5494 79.2175 68.6116 79.6279C68.6805 80.0789 68.5899 80.0931 69.0741 80.2387C69.7495 80.5225 69.7147 80.391 70.3487 80.7255C71.0248 81.0837 70.1101 81.4754 69.7462 81.5808C69.3948 81.6815 69.1129 81.7689 69.0594 81.9151C69.0135 82.044 69.1899 82.5163 69.294 82.9781C69.3737 83.3288 69.5655 83.9896 69.4324 84.0614C69.3147 84.1243 69.1205 84.2666 68.7117 83.8509C68.3991 83.5335 68.2575 83.3901 68.0971 83.1692C67.9464 82.9592 67.587 82.5522 67.441 82.4731C67.3671 82.4323 66.7879 82.8528 66.5432 82.9792C65.3498 83.5982 65.0668 83.4415 65.0261 83.1464C65.0019 82.968 65.2972 82.4093 65.6697 82.0568C65.909 81.8296 66.133 81.5184 66.1321 81.4184C66.1289 81.239 65.5683 80.8431 65.3346 80.7091C65.0121 80.5269 64.5857 80.0664 64.5824 79.8614C64.7745 79.5469 65.7165 79.8033 66.1765 79.8889L66.1814 79.8875Z" fill="#FCFCF3"/>
<path d="M73.4602 84.573C74.295 84.6619 74.2281 84.4365 74.6022 83.7593C74.8709 83.2725 75.2354 82.8211 75.5514 82.9743C75.7735 83.0946 75.8282 83.9031 75.8904 84.3134C75.9593 84.7644 75.8687 84.7787 76.3529 84.9243C77.0283 85.208 76.9935 85.0765 77.6275 85.4111C78.3036 85.7693 77.3889 86.1609 77.025 86.2664C76.6736 86.3671 76.3918 86.4545 76.3382 86.6006C76.2924 86.7296 76.4688 87.2018 76.5728 87.6637C76.6525 88.0144 76.8444 88.6751 76.7112 88.7469C76.5936 88.8098 76.3993 88.9521 75.9905 88.5365C75.6779 88.219 75.5363 88.0757 75.3759 87.8547C75.2155 87.6337 74.8658 87.2378 74.7198 87.1587C74.6459 87.1178 74.0667 87.5383 73.822 87.6648C72.6286 88.2837 72.3456 88.1271 72.3049 87.832C72.2807 87.6535 72.576 87.0948 72.9486 86.7424C73.1878 86.5152 73.4118 86.2039 73.4109 86.1039C73.4077 85.9245 72.8471 85.5286 72.6134 85.3946C72.2909 85.2125 71.8645 84.7519 71.8612 84.547C72.0533 84.2325 72.9953 84.4889 73.4553 84.5745L73.4602 84.573Z" fill="#FCFCF3"/>
<path d="M74.5696 91.9739C75.4044 92.0628 75.3374 91.8374 75.7116 91.1601C75.9803 90.6733 76.3448 90.222 76.6608 90.3751C76.8829 90.4955 76.9376 91.3039 76.9998 91.7143C77.0687 92.1653 76.9781 92.1796 77.4623 92.3252C78.1376 92.6089 78.1029 92.4774 78.7368 92.8119C79.413 93.1701 78.4983 93.5618 78.1344 93.6673C77.7706 93.7727 77.5011 93.8553 77.4476 94.0015C77.4017 94.1304 77.5781 94.6027 77.6822 95.0645C77.7618 95.4153 77.9537 96.076 77.8206 96.1478C77.7029 96.2107 77.5087 96.353 77.0999 95.9373C76.7873 95.6199 76.6457 95.4766 76.4853 95.2556C76.3346 95.0456 75.9752 94.6387 75.8292 94.5596C75.7553 94.5187 75.1761 94.9392 74.9314 95.0657C73.738 95.6846 73.455 95.528 73.4143 95.2328C73.3901 95.0544 73.6854 94.4957 74.0579 94.1433C74.2972 93.916 74.5212 93.6048 74.5202 93.5048C74.517 93.3254 73.9564 92.9295 73.7228 92.7955C73.4003 92.6133 72.9739 92.1528 72.9706 91.9479C73.1627 91.6333 74.1047 91.8897 74.5647 91.9753L74.5696 91.9739Z" fill="#FCFCF3"/>
<path d="M23.7068 33.6587C23.7068 33.6587 29.4479 38.9443 34.7964 44.9063C38.0002 48.4798 40.4133 50.9898 41.5191 52.4616C39.5804 60.1712 39.2802 65.1807 39.2802 65.1807" stroke="#FCFCF3" stroke-width="1.68954" stroke-linecap="round" stroke-linejoin="round"/>
<path d="M98.3025 59.0786C98.3025 59.0786 85.9869 53.6109 75.3829 47.9902C66.9306 43.5076 61.0757 41.2777 47.436 37.6845" stroke="#FCFCF3" stroke-width="1.68954" stroke-linecap="round" stroke-linejoin="round"/>
<path d="M62.6382 44.6984C59.3708 43.4475 51.4554 38.1135 50.0463 37.3244C51.7155 35.7536 53.7904 33.4576 55.9177 30.7854C58.1167 28.0214 63.1107 21.2141 64.3417 17.1302C64.7353 17.6453 75.7633 24.4514 77.6314 25.6998C77.5123 27.7456 75.1606 33.2461 72.103 37.6889C69.8763 40.9265 67.1245 44.3294 66.6055 45.211L62.6382 44.6984Z" fill="#FCFCF3" stroke="#B2D1DE" stroke-width="1.68954" stroke-linecap="round" stroke-linejoin="round"/>
<path d="M60.4924 29.5984C61.6739 29.5603 61.7275 32.6001 61.9884 33.619C62.2493 34.6379 63.4588 33.3089 66.6675 32.0625C70.0631 30.7421 70.669 30.9068 70.6816 31.8355C70.6939 32.7666 62.2989 36.502 61.2622 35.8226C59.9096 34.9366 59.4271 29.6339 60.492 29.6007L60.4924 29.5984Z" fill="#B2D1DE"/>
<path d="M39.8926 71.9043C39.8926 71.9043 38.7385 78.5004 38.7947 78.1411C37.8116 84.4375 37.8993 85.5188 36.9502 91.8189C36.2548 96.4407 36.2137 96.4636 35.0251 103.216" stroke="#FCFCF3" stroke-width="1.68954" stroke-linecap="round" stroke-linejoin="round"/>
</g>
<defs>
<clipPath id="clip0_1718_3808">
<rect width="99.4219" height="111.85" fill="white" transform="translate(19.6289 0.77002) rotate(9.98322)"/>
</clipPath>
</defs>
</svg>
