<svg width="84" height="129" viewBox="0 0 84 129" fill="none" xmlns="http://www.w3.org/2000/svg">
<g opacity="0.25" clip-path="url(#clip0_915_1428)">
<path d="M-26.9859 82.0784C-28.6991 76.7378 -23.3127 54.497 -22.5279 47.3528C-21.7427 40.2065 -20.0889 26.783 -10.9353 24.2539C-5.38172 22.7189 2.51864 22.4121 4.82293 18.2732C7.12723 14.1344 14.8661 2.58086 34.2992 10.4253C53.7323 18.2697 50.9742 26.9218 53.2912 35.5593C55.6078 44.1991 77.1188 49.1908 75.594 59.6437C74.0691 70.0967 67.2724 119.017 59.3897 120.79C51.5093 122.563 3.32395 120.56 -6.21949 114.456C-15.7629 108.353 -25.0515 88.1105 -26.9867 82.0829L-26.9859 82.0784Z" fill="#FCFCF3"/>
<path d="M6.29605 68.5401L-12.1046 45.7998C-12.1046 45.7998 -14.4334 56.5942 -14.9575 60.9535C-15.4815 65.3128 -17.296 75.2922 -17.296 75.2922C-17.3622 75.6683 -17.2984 76.0557 -17.1139 76.3901L-2.42435 107.26C-1.39664 109.215 0.417645 110.084 1.11045 110.19C40.649 116.214 53.1748 114.59 53.1748 114.59C54.0375 114.665 54.8128 114.065 54.9631 113.211L61.9778 73.3605L6.29605 68.5401Z" fill="#B2D1DE"/>
<path d="M44.4686 36.8281C43.9249 36.3097 43.2206 35.993 42.4741 35.929L16.584 33.1063L-10.9697 31.2959C-11.6408 31.2381 -12.2463 31.7028 -12.3632 32.3672L-14.2627 43.1583C-14.3571 43.6943 -14.2201 44.2456 -13.8834 44.6764L3.53779 66.9517C4.18476 67.7785 5.10726 68.396 6.14818 68.5119C48.2718 73.2516 58.7904 74.0257 63.0875 73.7975C63.6746 73.7662 64.1613 73.3317 64.2631 72.7528L66.5682 59.6576C66.7391 58.6868 66.413 57.6959 65.6986 57.0152L44.4682 36.8303L44.4686 36.8281Z" fill="#B2D1DE"/>
<path d="M12.835 25.8236C16.6084 26.3717 18.5556 26.7493 18.2025 25.5563C17.8494 24.3632 13.138 23.6546 11.7148 23.4854C10.2939 23.3166 9.0298 24.5477 9.85987 25.0979C10.6899 25.648 11.9698 25.6968 12.835 25.8236Z" fill="#B2D1DE"/>
<path d="M19.6292 22.0987C20.6089 21.6674 19.5352 19.6578 18.4927 18.708C17.4503 17.7582 15.6985 15.9544 14.9912 16.234C14.2839 16.5135 14.5908 17.9817 15.9906 19.64C17.3899 21.3005 18.5795 22.5595 19.6292 22.0987Z" fill="#B2D1DE"/>
<path d="M23.3035 19.3136C24.1682 19.2591 23.7648 18.0619 23.4281 17.2363C23.0915 16.4107 22.3214 15.5065 21.7504 16.0121C21.1794 16.5177 21.9601 19.4022 23.3057 19.314L23.3035 19.3136Z" fill="#B2D1DE"/>
<path d="M22.795 42.2642C22.795 42.2642 20.1391 41.5552 18.1042 41.4385C16.0693 41.3218 15.5784 42.0435 16.3248 43.3058C17.0713 44.5681 17.13 45.1427 19.2945 45.4448C21.459 45.7468 36.4389 47.413 37.8494 47.4174C39.2594 47.4241 38.6879 46.3134 37.765 45.3823C36.8421 44.4512 36.4923 44.1482 35.6835 43.9245C34.877 43.7013 34.0427 43.6357 34.0427 43.6357L32.3793 45.3446L28.412 44.832L22.7999 42.2628L22.795 42.2642Z" fill="#FCFCF3"/>
<path d="M24.2197 80.8655C25.0545 80.9544 24.9876 80.729 25.3617 80.0517C25.6305 79.5649 25.9949 79.1136 26.3109 79.2667C26.5331 79.3871 26.5877 80.1956 26.6499 80.6059C26.7188 81.0569 26.6283 81.0712 27.1124 81.2168C27.7878 81.5005 27.753 81.369 28.387 81.7035C29.0632 82.0617 28.1484 82.4534 27.7846 82.5589C27.4331 82.6595 27.1513 82.7469 27.0977 82.8931C27.0519 83.022 27.2283 83.4943 27.3324 83.9561C27.412 84.3069 27.6039 84.9676 27.4707 85.0394C27.3531 85.1023 27.1589 85.2446 26.75 84.8289C26.4375 84.5115 26.2958 84.3682 26.1355 84.1472C25.9751 83.9262 25.6253 83.5303 25.4794 83.4512C25.4055 83.4103 24.8263 83.8308 24.5815 83.9573C23.3881 84.5762 23.1052 84.4196 23.0644 84.1244C23.0402 83.946 23.3355 83.3873 23.7081 83.0349C23.9474 82.8076 24.1713 82.4964 24.1704 82.3964C24.1672 82.217 23.6066 81.8211 23.373 81.6871C23.0505 81.5049 22.6241 81.0444 22.6207 80.8395C22.8128 80.525 23.7548 80.7813 24.2148 80.867L24.2197 80.8655Z" fill="#FCFCF3"/>
<path d="M19.3201 87.875C20.1549 87.9639 20.0879 87.7385 20.4621 87.0613C20.7308 86.5745 21.0953 86.1231 21.4113 86.2763C21.6334 86.3966 21.6881 87.2051 21.7502 87.6154C21.8192 88.0664 21.7286 88.0807 22.2128 88.2263C22.8881 88.5101 22.8534 88.3785 23.4873 88.7131C24.1635 89.0713 23.2487 89.4629 22.8849 89.5684C22.5335 89.6691 22.2516 89.7565 22.1981 89.9026C22.1522 90.0316 22.3286 90.5038 22.4327 90.9657C22.5123 91.3164 22.7042 91.9772 22.5711 92.0489C22.4534 92.1118 22.2592 92.2541 21.8504 91.8385C21.5378 91.521 21.3962 91.3777 21.2358 91.1567C21.0851 90.9467 20.7257 90.5398 20.5797 90.4607C20.5058 90.4198 19.9266 90.8403 19.6819 90.9668C18.4885 91.5857 18.2055 91.4291 18.1648 91.134C18.1406 90.9555 18.4359 90.3968 18.8084 90.0444C19.0477 89.8172 19.2717 89.5059 19.2707 89.4059C19.2675 89.2265 18.7069 88.8306 18.4733 88.6966C18.1508 88.5145 17.7244 88.0539 17.7211 87.849C17.9132 87.5345 18.8552 87.7909 19.3152 87.8765L19.3201 87.875Z" fill="#FCFCF3"/>
<path d="M20.5478 95.4592C21.3826 95.5481 21.3157 95.3227 21.6898 94.6455C21.9586 94.1587 22.3231 93.7073 22.6391 93.8605C22.8612 93.9809 22.9159 94.7893 22.978 95.1997C23.0469 95.6507 22.9564 95.6649 23.4406 95.8105C24.1159 96.0943 24.0811 95.9628 24.7151 96.2973C25.3913 96.6555 24.4765 97.0471 24.1127 97.1526C23.7613 97.2533 23.4794 97.3407 23.4259 97.4868C23.38 97.6158 23.5564 98.088 23.6605 98.5499C23.7401 98.9006 23.932 99.5614 23.7989 99.6331C23.6812 99.696 23.487 99.8383 23.0782 99.4227C22.7656 99.1053 22.624 98.9619 22.4636 98.7409C22.3032 98.52 21.9535 98.124 21.8075 98.0449C21.7336 98.004 21.1544 98.4246 20.9097 98.551C19.7162 99.1699 19.4333 99.0133 19.3925 98.7182C19.3683 98.5398 19.6637 97.981 20.0362 97.6286C20.2755 97.4014 20.4994 97.0902 20.4985 96.9901C20.4953 96.8108 19.9347 96.4149 19.7011 96.2808C19.3786 96.0987 18.9522 95.6382 18.9489 95.4332C19.1409 95.1187 20.083 95.3751 20.543 95.4607L20.5478 95.4592Z" fill="#FCFCF3"/>
<path d="M28.5574 99.6675C29.3922 99.7564 29.3252 99.531 29.6994 98.8537C29.9681 98.3669 30.3326 97.9156 30.6486 98.0687C30.8707 98.1891 30.9254 98.9976 30.9875 99.4079C31.0565 99.8589 30.9659 99.8732 31.4501 100.019C32.1254 100.303 32.0907 100.171 32.7246 100.506C33.4008 100.864 32.4861 101.255 32.1222 101.361C31.7584 101.466 31.4889 101.549 31.4354 101.695C31.3895 101.824 31.5659 102.296 31.67 102.758C31.7496 103.109 31.9415 103.77 31.8084 103.841C31.6907 103.904 31.4965 104.047 31.0877 103.631C30.7751 103.314 30.6335 103.17 30.4731 102.949C30.3127 102.728 29.963 102.332 29.817 102.253C29.7431 102.212 29.1639 102.633 28.9192 102.759C27.7258 103.378 27.4428 103.222 27.4021 102.926C27.3779 102.748 27.6732 102.189 28.0457 101.837C28.285 101.61 28.509 101.298 28.508 101.198C28.5048 101.019 27.9442 100.623 27.7106 100.489C27.3881 100.307 26.9617 99.8464 26.9584 99.6415C27.1505 99.327 28.0925 99.5833 28.5525 99.669L28.5574 99.6675Z" fill="#FCFCF3"/>
<path d="M31.9504 80.0225C32.7852 80.1114 32.7183 79.8859 33.0924 79.2087C33.3612 78.7219 33.7256 78.2706 34.0416 78.4237C34.2638 78.5441 34.3184 79.3525 34.3806 79.7629C34.4495 80.2139 34.359 80.2281 34.8431 80.3738C35.5185 80.6575 35.4837 80.526 36.1177 80.8605C36.7939 81.2187 35.8791 81.6104 35.5153 81.7158C35.1639 81.8165 34.882 81.9039 34.8285 82.0501C34.7826 82.179 34.959 82.6513 35.0631 83.1131C35.1427 83.4638 35.3346 84.1246 35.2015 84.1964C35.0838 84.2593 34.8896 84.4016 34.4807 83.9859C34.1682 83.6685 34.0266 83.5251 33.8662 83.3042C33.7154 83.0942 33.3561 82.6873 33.2101 82.6081C33.1362 82.5673 32.557 82.9878 32.3123 83.1142C31.1188 83.7332 30.8359 83.5765 30.7951 83.2814C30.7709 83.103 31.0662 82.5443 31.4388 82.1919C31.6781 81.9646 31.902 81.6534 31.9011 81.5534C31.8979 81.374 31.3373 80.9781 31.1037 80.8441C30.7812 80.6619 30.3548 80.2014 30.3514 79.9964C30.5435 79.6819 31.4856 79.9383 31.9455 80.0239L31.9504 80.0225Z" fill="#FCFCF3"/>
<path d="M39.2292 84.708C40.064 84.7969 39.9971 84.5715 40.3712 83.8943C40.64 83.4075 41.0045 82.9561 41.3205 83.1093C41.5426 83.2296 41.5972 84.0381 41.6594 84.4484C41.7283 84.8995 41.6378 84.9137 42.1219 85.0593C42.7973 85.3431 42.7625 85.2115 43.3965 85.5461C44.0727 85.9043 43.1579 86.2959 42.7941 86.4014C42.4427 86.5021 42.1608 86.5895 42.1073 86.7356C42.0614 86.8646 42.2378 87.3368 42.3419 87.7987C42.4215 88.1494 42.6134 88.8102 42.4803 88.8819C42.3626 88.9448 42.1684 89.0871 41.7596 88.6715C41.447 88.3541 41.3054 88.2107 41.145 87.9897C40.9846 87.7688 40.6349 87.3728 40.4889 87.2937C40.415 87.2528 39.8358 87.6734 39.5911 87.7998C38.3976 88.4187 38.1147 88.2621 38.0739 87.967C38.0497 87.7886 38.345 87.2298 38.7176 86.8774C38.9569 86.6502 39.1808 86.3389 39.1799 86.2389C39.1767 86.0596 38.6161 85.6636 38.3825 85.5296C38.06 85.3475 37.6336 84.8869 37.6303 84.682C37.8223 84.3675 38.7644 84.6239 39.2243 84.7095L39.2292 84.708Z" fill="#FCFCF3"/>
<path d="M40.3386 92.1089C41.1734 92.1978 41.1065 91.9724 41.4806 91.2951C41.7494 90.8083 42.1138 90.357 42.4298 90.5101C42.652 90.6305 42.7066 91.439 42.7688 91.8493C42.8377 92.3003 42.7471 92.3146 43.2313 92.4602C43.9067 92.7439 43.8719 92.6124 44.5059 92.9469C45.182 93.3051 44.2673 93.6968 43.9035 93.8023C43.5396 93.9077 43.2702 93.9903 43.2166 94.1365C43.1708 94.2654 43.3472 94.7377 43.4513 95.1995C43.5309 95.5503 43.7228 96.211 43.5896 96.2828C43.472 96.3457 43.2778 96.488 42.8689 96.0723C42.5564 95.7549 42.4147 95.6116 42.2544 95.3906C42.1036 95.1806 41.7442 94.7737 41.5983 94.6946C41.5243 94.6537 40.9452 95.0742 40.7004 95.2007C39.507 95.8196 39.2241 95.663 39.1833 95.3679C39.1591 95.1894 39.4544 94.6307 39.827 94.2783C40.0663 94.051 40.2902 93.7398 40.2893 93.6398C40.2861 93.4604 39.7255 93.0645 39.4918 92.9305C39.1694 92.7483 38.743 92.2878 38.7396 92.0829C38.9317 91.7684 39.8737 92.0247 40.3337 92.1104L40.3386 92.1089Z" fill="#FCFCF3"/>
<path d="M36.3369 98.3084C37.1717 98.3973 37.1048 98.1718 37.4789 97.4946C37.7476 97.0078 38.1121 96.5565 38.4281 96.7096C38.6502 96.83 38.7049 97.6384 38.7671 98.0488C38.836 98.4998 38.7454 98.514 39.2296 98.6596C39.905 98.9434 39.8702 98.8119 40.5042 99.1464C41.1803 99.5046 40.2656 99.8963 39.9017 100.002C39.5503 100.102 39.2685 100.19 39.2149 100.336C39.1691 100.465 39.3455 100.937 39.4495 101.399C39.5292 101.75 39.7211 102.411 39.5879 102.482C39.4703 102.545 39.276 102.687 38.8672 102.272C38.5546 101.954 38.413 101.811 38.2526 101.59C38.0923 101.369 37.7425 100.973 37.5965 100.894C37.5226 100.853 36.9434 101.274 36.6987 101.4C35.5053 102.019 35.2223 101.862 35.1816 101.567C35.1574 101.389 35.4527 100.83 35.8253 100.478C36.0646 100.251 36.2885 99.9393 36.2876 99.8393C36.2844 99.6599 35.7238 99.264 35.4901 99.13C35.1677 98.9478 34.7412 98.4873 34.7379 98.2823C34.93 97.9678 35.872 98.2242 36.332 98.3098L36.3369 98.3084Z" fill="#FCFCF3"/>
<path d="M-10.5242 33.7939C-10.5242 33.7939 -4.7831 39.0796 0.565483 45.0416C3.76926 48.615 6.18233 51.125 7.28814 52.5969C5.34941 60.3065 5.04926 65.3159 5.04926 65.3159" stroke="#FCFCF3" stroke-width="1.68954" stroke-linecap="round" stroke-linejoin="round"/>
<path d="M64.0716 59.2136C64.0716 59.2136 51.756 53.7459 41.1519 48.1252C32.6996 43.6426 26.8448 41.4127 13.2051 37.8195" stroke="#FCFCF3" stroke-width="1.68954" stroke-linecap="round" stroke-linejoin="round"/>
<path d="M28.4072 44.8337C25.1399 43.5828 17.2244 38.2488 15.8154 37.4597C17.4846 35.8888 19.5595 33.5929 21.6867 30.9207C23.8858 28.1566 28.8797 21.3494 30.1107 17.2654C30.5044 17.7806 41.5323 24.5867 43.4005 25.8351C43.2813 27.8808 40.9297 33.3814 37.8721 37.8242C35.6453 41.0617 32.8936 44.4646 32.3746 45.3462L28.4072 44.8337Z" fill="#FCFCF3" stroke="#B2D1DE" stroke-width="1.68954" stroke-linecap="round" stroke-linejoin="round"/>
<path d="M26.2614 29.7335C27.443 29.6953 27.4965 32.7351 27.7574 33.754C28.0184 34.7729 29.2279 33.4439 32.4366 32.1975C35.8321 30.8771 36.4381 31.0418 36.4507 31.9706C36.4629 32.9016 28.0679 36.6371 27.0312 35.9576C25.6786 35.0717 25.1962 29.7689 26.261 29.7357L26.2614 29.7335Z" fill="#B2D1DE"/>
<path d="M5.66162 72.0393C5.66162 72.0393 4.5075 78.6354 4.56379 78.2761C3.5806 84.5725 3.66834 85.6538 2.71925 91.9539C2.02389 96.5757 1.98277 96.5986 0.794149 103.351" stroke="#FCFCF3" stroke-width="1.68954" stroke-linecap="round" stroke-linejoin="round"/>
</g>
<defs>
<clipPath id="clip0_915_1428">
<rect width="99.4219" height="111.85" fill="white" transform="translate(-14.6021 0.905029) rotate(9.98322)"/>
</clipPath>
</defs>
</svg>
