<svg width="86" height="135" viewBox="0 0 86 135" fill="none" xmlns="http://www.w3.org/2000/svg">
<g opacity="0.25" clip-path="url(#clip0_1718_3742)">
<path d="M-16.7568 105.496C-20.5654 101.379 -25.0764 78.9443 -27.3824 72.1372C-29.6889 65.3279 -33.8593 52.4619 -26.6304 46.3034C-22.2448 42.5665 -15.2132 38.9516 -14.8726 34.2268C-14.532 29.502 -12.3969 15.761 8.531 14.6638C29.4589 13.5666 30.6131 22.5741 36.3614 29.4248C42.1103 36.2778 63.7168 31.7171 66.7494 41.836C69.7821 51.9549 84.2829 99.1683 77.8866 104.105C71.4925 109.04 26.9698 127.576 15.7415 126.074C4.51312 124.572 -12.4557 110.147 -16.7557 105.501L-16.7568 105.496Z" fill="#FCFCF3"/>
<path d="M7.69322 79.1683L-18.5902 66.3273C-18.5902 66.3273 -16.142 77.0952 -14.7759 81.268C-13.4097 85.4407 -10.8397 95.2527 -10.8397 95.2527C-10.7408 95.6216 -10.5193 95.9458 -10.2108 96.1709L16.142 117.948C17.8993 119.286 19.9111 119.308 20.5837 119.111C58.967 107.872 69.6347 101.11 69.6347 101.11C70.4485 100.813 70.8979 99.9423 70.6736 99.1051L60.2008 60.0202L7.69322 79.1683Z" fill="#B2D1DE"/>
<path d="M28.9002 34.3009C28.1885 34.0606 27.4163 34.071 26.7126 34.3283L2.05285 42.7045L-23.6873 52.7008C-24.32 52.9319 -24.6726 53.6088 -24.498 54.2605L-21.6621 64.8441C-21.5213 65.3698 -21.1643 65.8116 -20.6772 66.0599L4.52204 78.8931C5.45768 79.3693 6.55467 79.5394 7.54714 79.2048C47.7311 65.71 57.5925 61.9691 61.3911 59.9474C61.9101 59.671 62.1676 59.0716 62.0155 58.5039L58.5741 45.6604C58.319 44.7083 57.6049 43.9478 56.6698 43.6325L28.9008 34.3031L28.9002 34.3009Z" fill="#B2D1DE"/>
<path d="M-4.42119 37.6868C-0.769373 36.5899 1.15516 36.1097 0.33122 35.1775C-0.492722 34.2452 -5.0626 35.5928 -6.42407 36.0405C-7.78333 36.4876 -8.4092 38.1374 -7.42443 38.2855C-6.43966 38.4336 -5.25898 37.9373 -4.42119 37.6868Z" fill="#B2D1DE"/>
<path d="M0.163997 31.4411C0.86983 30.6363 -0.952168 29.2683 -2.29822 28.8476C-3.64427 28.427 -5.99402 27.5318 -6.51709 28.084C-7.04015 28.6361 -6.1418 29.8373 -4.17267 30.7492C-2.20296 31.6633 -0.592905 32.3021 0.163997 31.4411Z" fill="#B2D1DE"/>
<path d="M2.31811 27.3647C3.07887 26.9501 2.20761 26.0352 1.55376 25.4291C0.899903 24.823 -0.180001 24.3286 -0.484034 25.0281C-0.788067 25.7275 1.13784 28.0124 2.32032 27.3641L2.31811 27.3647Z" fill="#B2D1DE"/>
<path d="M11.5507 48.3826C11.5507 48.3826 8.84383 48.8616 6.95005 49.6153C5.05627 50.369 4.91617 51.2305 6.12588 52.0594C7.3356 52.8883 7.63154 53.3843 9.72107 52.7439C11.8106 52.1036 26.0926 47.287 27.373 46.6953C28.6539 46.1059 27.6668 45.3404 26.437 44.8863C25.2071 44.4321 24.762 44.3051 23.9345 44.444C23.1091 44.5823 22.3252 44.8752 22.3252 44.8752L21.5393 47.1267L17.7266 48.3377L11.5545 48.3792L11.5507 48.3826Z" fill="#FCFCF3"/>
<path d="M29.1451 82.7701C29.9393 82.4981 29.7835 82.322 29.8366 81.5501C29.8746 80.9954 30.0143 80.4323 30.3654 80.4377C30.6176 80.453 31.0086 81.1627 31.2383 81.5084C31.4912 81.8881 31.4151 81.9393 31.9155 81.8668C32.6475 81.8387 32.5605 81.7342 33.2764 81.7696C34.0406 81.8088 33.3768 82.5501 33.0916 82.7994C32.8156 83.0391 32.597 83.2373 32.6102 83.3924C32.6231 83.5287 32.9824 83.8822 33.2719 84.2569C33.4922 84.5412 33.9452 85.0591 33.8548 85.1804C33.7747 85.2871 33.6588 85.4981 33.1126 85.294C32.6952 85.1383 32.5063 85.0682 32.2676 84.9356C32.0289 84.803 31.5447 84.5919 31.379 84.5818C31.2947 84.576 30.9473 85.2018 30.7789 85.4197C29.9585 86.4848 29.6359 86.4623 29.4743 86.2121C29.377 86.0605 29.4087 85.4294 29.5976 84.9526C29.7185 84.6455 29.7901 84.2688 29.747 84.1786C29.6683 84.0173 28.993 83.8952 28.7246 83.8724C28.3553 83.8435 27.7743 83.6062 27.6847 83.4218C27.726 83.0556 28.6882 82.8901 29.1413 82.7735L29.1451 82.7701Z" fill="#FCFCF3"/>
<path d="M27.6644 91.1929C28.4586 90.9209 28.3028 90.7449 28.3558 89.973C28.3938 89.4182 28.5336 88.8552 28.8847 88.8605C29.1369 88.8758 29.5279 89.5855 29.7576 89.9312C30.0105 90.311 29.9344 90.3621 30.4348 90.2896C31.1668 90.2616 31.0797 90.157 31.7957 90.1925C32.5599 90.2316 31.8961 90.973 31.6109 91.2222C31.3349 91.4619 31.1163 91.6602 31.1295 91.8153C31.1424 91.9515 31.5017 92.3051 31.7911 92.6798C32.0114 92.9641 32.4644 93.4819 32.3741 93.6032C32.294 93.7099 32.1781 93.9209 31.6319 93.7168C31.2145 93.5611 31.0256 93.491 30.7869 93.3585C30.5616 93.2318 30.064 93.0147 29.8982 93.0047C29.814 92.9988 29.4666 93.6246 29.2982 93.8426C28.4778 94.9077 28.1552 94.8852 27.9936 94.6349C27.8963 94.4834 27.928 93.8522 28.1169 93.3754C28.2378 93.0684 28.3093 92.6917 28.2663 92.6014C28.1876 92.4402 27.5122 92.3181 27.2439 92.2953C26.8746 92.2664 26.2936 92.029 26.204 91.8447C26.2453 91.4785 27.2075 91.313 27.6606 91.1963L27.6644 91.1929Z" fill="#FCFCF3"/>
<path d="M31.9806 97.5489C32.7748 97.2769 32.6189 97.1008 32.672 96.329C32.71 95.7742 32.8498 95.2111 33.2009 95.2165C33.4531 95.2318 33.844 95.9415 34.0737 96.2872C34.3267 96.6669 34.2506 96.7181 34.751 96.6456C35.483 96.6175 35.3959 96.513 36.1119 96.5485C36.876 96.5876 36.2123 97.3289 35.927 97.5782C35.651 97.8179 35.4325 98.0161 35.4457 98.1712C35.4585 98.3075 35.8179 98.661 36.1073 99.0357C36.3276 99.32 36.7806 99.8379 36.6903 99.9592C36.6102 100.066 36.4942 100.277 35.9481 100.073C35.5307 99.9171 35.3418 99.847 35.1031 99.7144C34.8644 99.5819 34.3801 99.3707 34.2144 99.3606C34.1302 99.3548 33.7828 99.9806 33.6143 100.199C32.794 101.264 32.4714 101.241 32.3098 100.991C32.2125 100.839 32.2442 100.208 32.433 99.7314C32.554 99.4243 32.6255 99.0476 32.5824 98.9574C32.5038 98.7961 31.8284 98.674 31.56 98.6513C31.1908 98.6223 30.6098 98.385 30.5202 98.2006C30.5615 97.8344 31.5236 97.6689 31.9767 97.5523L31.9806 97.5489Z" fill="#FCFCF3"/>
<path d="M41.0179 97.9805C41.8121 97.7085 41.6563 97.5325 41.7094 96.7606C41.7474 96.2058 41.8871 95.6428 42.2382 95.6481C42.4904 95.6634 42.8814 96.3731 43.1111 96.7188C43.364 97.0986 43.2879 97.1497 43.7883 97.0772C44.5203 97.0492 44.4333 96.9446 45.1492 96.9801C45.9134 97.0192 45.2496 97.7606 44.9644 98.0098C44.6791 98.2591 44.4698 98.4478 44.483 98.6029C44.4959 98.7391 44.8552 99.0927 45.1447 99.4674C45.365 99.7516 45.818 100.27 45.7276 100.391C45.6475 100.498 45.5316 100.709 44.9854 100.504C44.5681 100.349 44.3791 100.279 44.1404 100.146C43.9017 100.013 43.4175 99.8023 43.2518 99.7923C43.1675 99.7864 42.8201 100.412 42.6517 100.63C41.8313 101.695 41.5087 101.673 41.3471 101.422C41.2498 101.271 41.2815 100.64 41.4704 100.163C41.5913 99.856 41.6629 99.4793 41.6198 99.389C41.5411 99.2278 40.8657 99.1057 40.5974 99.0829C40.2281 99.054 39.6471 98.8166 39.5575 98.6323C39.5988 98.2661 40.561 98.1006 41.0141 97.9839L41.0179 97.9805Z" fill="#FCFCF3"/>
<path d="M35.7965 78.7408C36.5907 78.4688 36.4348 78.2927 36.4879 77.5208C36.5259 76.9661 36.6657 76.403 37.0168 76.4084C37.269 76.4237 37.66 77.1334 37.8896 77.4791C38.1426 77.8588 38.0665 77.91 38.5669 77.8375C39.2989 77.8094 39.2118 77.7049 39.9278 77.7404C40.692 77.7795 40.0282 78.5208 39.743 78.7701C39.467 79.0098 39.2484 79.208 39.2616 79.3631C39.2745 79.4994 39.6338 79.8529 39.9232 80.2276C40.1435 80.5119 40.5965 81.0298 40.5062 81.1511C40.4261 81.2578 40.3101 81.4688 39.764 81.2647C39.3466 81.109 39.1577 81.0389 38.919 80.9063C38.6937 80.7796 38.196 80.5626 38.0303 80.5525C37.9461 80.5467 37.5987 81.1725 37.4303 81.3904C36.6099 82.4555 36.2873 82.433 36.1257 82.1827C36.0284 82.0312 36.0601 81.4001 36.249 80.9233C36.3699 80.6162 36.4414 80.2395 36.3983 80.1493C36.3197 79.988 35.6443 79.8659 35.3759 79.8431C35.0067 79.8142 34.4257 79.5769 34.3361 79.3925C34.3774 79.0263 35.3396 78.8608 35.7927 78.7442L35.7965 78.7408Z" fill="#FCFCF3"/>
<path d="M44.3731 79.9136C45.1674 79.6416 45.0115 79.4656 45.0646 78.6937C45.1026 78.139 45.2423 77.5759 45.5934 77.5812C45.8456 77.5965 46.2366 78.3063 46.4663 78.652C46.7192 79.0317 46.6432 79.0828 47.1435 79.0103C47.8756 78.9823 47.7885 78.8778 48.5044 78.9132C49.2686 78.9523 48.6049 79.6937 48.3196 79.9429C48.0436 80.1826 47.825 80.3809 47.8382 80.536C47.8511 80.6722 48.2105 81.0258 48.4999 81.4005C48.7202 81.6848 49.1732 82.2026 49.0828 82.3239C49.0027 82.4306 48.8868 82.6416 48.3407 82.4376C47.9233 82.2818 47.7344 82.2117 47.4957 82.0792C47.2569 81.9466 46.7727 81.7354 46.607 81.7254C46.5227 81.7195 46.1753 82.3453 46.0069 82.5633C45.1866 83.6284 44.8639 83.6059 44.7024 83.3556C44.6051 83.2041 44.6368 82.5729 44.8256 82.0961C44.9465 81.7891 45.0181 81.4124 44.975 81.3221C44.8963 81.1609 44.221 81.0388 43.9526 81.016C43.5834 80.9871 43.0023 80.7497 42.9128 80.5654C42.954 80.1992 43.9162 80.0337 44.3693 79.917L44.3731 79.9136Z" fill="#FCFCF3"/>
<path d="M48.5045 86.1534C49.2987 85.8814 49.1428 85.7053 49.1959 84.9334C49.2339 84.3787 49.3737 83.8156 49.7248 83.821C49.977 83.8363 50.368 84.546 50.5976 84.8917C50.8506 85.2714 50.7745 85.3226 51.2749 85.2501C52.0069 85.222 51.9198 85.1175 52.6358 85.1529C53.4 85.1921 52.7362 85.9334 52.451 86.1827C52.1657 86.432 51.9564 86.6206 51.9696 86.7757C51.9825 86.912 52.3418 87.2655 52.6312 87.6402C52.8515 87.9245 53.3045 88.4424 53.2142 88.5637C53.1341 88.6704 53.0181 88.8814 52.472 88.6773C52.0546 88.5216 51.8657 88.4515 51.627 88.3189C51.4017 88.1922 50.904 87.9752 50.7383 87.9651C50.6541 87.9593 50.3067 88.5851 50.1383 88.803C49.3179 89.8681 48.9953 89.8456 48.8337 89.5953C48.7364 89.4438 48.7681 88.8127 48.957 88.3359C49.0779 88.0288 49.1494 87.6521 49.1063 87.5619C49.0277 87.4006 48.3523 87.2785 48.084 87.2557C47.7147 87.2268 47.1337 86.9895 47.0441 86.8051C47.0854 86.4389 48.0476 86.2734 48.5007 86.1568L48.5045 86.1534Z" fill="#FCFCF3"/>
<path d="M47.4957 93.463C48.2899 93.191 48.1341 93.0149 48.1871 92.243C48.2251 91.6883 48.3649 91.1252 48.716 91.1306C48.9682 91.1459 49.3592 91.8556 49.5888 92.2013C49.8418 92.581 49.7657 92.6321 50.2661 92.5596C50.9981 92.5316 50.911 92.4271 51.627 92.4625C52.3912 92.5016 51.7274 93.243 51.4422 93.4923C51.1662 93.7319 50.9476 93.9302 50.9608 94.0853C50.9737 94.2215 51.333 94.5751 51.6224 94.9498C51.8427 95.2341 52.2957 95.752 52.2054 95.8732C52.1253 95.9799 52.0093 96.1909 51.4632 95.9869C51.0458 95.8312 50.8569 95.761 50.6182 95.6285C50.3795 95.4959 49.8953 95.2847 49.7295 95.2747C49.6453 95.2688 49.2979 95.8946 49.1295 96.1126C48.3091 97.1777 47.9865 97.1552 47.8249 96.9049C47.7276 96.7534 47.7593 96.1222 47.9482 95.6454C48.0691 95.3384 48.1406 94.9617 48.0976 94.8714C48.0189 94.7102 47.3435 94.5881 47.0752 94.5653C46.7059 94.5364 46.1249 94.2991 46.0353 94.1147C46.0766 93.7485 47.0388 93.583 47.4919 93.4663L47.4957 93.463Z" fill="#FCFCF3"/>
<path d="M-22.2285 54.7773C-22.2285 54.7773 -14.7922 57.1437 -7.42604 60.2888C-3.01278 62.1747 0.234625 63.4308 1.85859 64.2978C3.35745 72.1049 5.20114 76.7724 5.20114 76.7724" stroke="#FCFCF3" stroke-width="1.68954" stroke-linecap="round" stroke-linejoin="round"/>
<path d="M56.1237 46.3125C56.1237 46.3125 42.6511 46.5579 30.6654 45.9417C21.1107 45.4484 14.8619 45.9 0.980817 48.4038" stroke="#FCFCF3" stroke-width="1.68954" stroke-linecap="round" stroke-linejoin="round"/>
<path d="M17.7227 48.341C14.2328 48.5871 4.80518 47.0953 3.1947 46.9752C4.04425 44.8463 4.95532 41.8889 5.7549 38.5682C6.58075 35.134 8.23238 26.8545 7.62333 22.6328C8.19771 22.9335 21.0684 24.4451 23.289 24.7877C24.045 26.6923 24.2366 32.6714 23.3415 37.9899C22.6905 41.865 21.6334 46.1117 21.5354 47.13L17.7227 48.341Z" fill="#FCFCF3" stroke="#B2D1DE" stroke-width="1.68954" stroke-linecap="round" stroke-linejoin="round"/>
<path d="M9.40023 35.5601C10.4551 35.0265 11.7875 37.7592 12.4544 38.5726C13.1212 39.386 13.6563 37.6705 16.0383 35.1854C18.5584 32.5545 19.1772 32.4479 19.581 33.2844C19.9853 34.1231 13.9535 41.0547 12.7268 40.8767C11.1266 40.6449 8.44963 36.0421 9.40082 35.5623L9.40023 35.5601Z" fill="#B2D1DE"/>
<path d="M8.59595 82.6079C8.59595 82.6079 10.3357 89.0743 10.235 88.7248C12.0031 94.8473 12.5393 95.7904 14.3399 101.902C15.6616 106.385 15.634 106.423 17.4086 113.046" stroke="#FCFCF3" stroke-width="1.68954" stroke-linecap="round" stroke-linejoin="round"/>
</g>
<defs>
<clipPath id="clip0_1718_3742">
<rect width="99.4219" height="111.85" fill="white" transform="translate(-39.8154 26.688) rotate(-15)"/>
</clipPath>
</defs>
</svg>
