<?xml version="1.0" encoding="UTF-8"?>
<svg id="svg1" xmlns="http://www.w3.org/2000/svg" viewBox="0 0 372.75 287.77">
    <g id="layer1">
        <g id="g1">
            <path id="path1"
                d="m226.26,140.45c-1.35,23.02-4.28,84.9-10.28,90.07-6,5.25-135.52,9.97-148.27-8.62s3.37-178.35.75-193.8c-2.62-15.45,19.8-21.9,64.57-20.7,44.77,1.2,93.45,12.6,94.58,22.95,1.12,10.35-1.35,110.1-1.35,110.1Z"
                fill="#fde4ba" stroke-width="0" />
            <path id="path2"
                d="m260.31,155.82c-4.72,22.58-20.85,81.45-27.53,85.8-6.67,4.28-127.05-7.65-136.95-27.9-9.9-20.25,29.4-175.95,29.1-191.62-.37-15.67,22.8-18.75,66.9-11.02,44.1,7.72,88.5,25.95,88.05,36.3-.45,10.35-19.65,108.52-19.65,108.52h0l.08-.07Z"
                fill="#fff" stroke="#fac25e" stroke-linecap="round" stroke-linejoin="round"
                stroke-width="2.92" />
            <path id="path3"
                d="m276.44,36.27C246.06,15.65,129.51-7.3,122.76,2.22c-5.92,8.47-19.65,85.12-22.8,103.35h-.15l-14.25,107.62s-4.8,13.65,60.07,27.75c70.28,15.3,79.42,11.85,91.87,2.55,12.45-9.22,32.03-101.62,37.87-140.85,5.85-39.15,13.12-58.2,1.05-66.37Zm-47.7,200.93c-14.7,18.37-131.47-18.97-133.05-22.95-1.57-3.97,15.98-109.27,15.98-109.27,0,0,10.95-89.4,19.8-94.35,17.17-9.52,137.7,20.85,142.43,37.8,4.72,16.87-30.6,170.4-45.22,188.77h.07Z"
                fill="#fac25e" stroke-width="0" />
            <g id="g2">
                <path id="path1-8"
                    d="m161.84,107.82s-1.43,3.43,2.26,10.56c0,0-15.7,6.42-21.02,7.57-7.59,1.64-10.95-7.35-10.95-7.35l29.71-10.78Z"
                    fill="#533b6a" stroke-width="0" />
                <path id="path2-3"
                    d="m132.08,132.96l32.93-10.98s.5.97,2,2.07l-5.26,10.54s-9.31,2.31-17.29,4.95c-9.22,3.06-12.38-6.58-12.38-6.58h0Z"
                    fill="#533b6a" stroke-width="0" />
                <path id="path3-9"
                    d="m169.53,170.23l2.21-9.61,7.1-3.05,4.67,6.14s-1.76,6.68-2.51,9.54c-1.92,7.28-13.23,4.9-11.46-3.02Z"
                    fill="#533b6a" stroke-width="0" />
                <path id="path4-0"
                    d="m153.4,151.33s-1.82.83-3.62,1.35c-5.01,1.46-10.1-1.91-10.96-6.13l20.4-7.04-5.81,11.82h0Z"
                    fill="#533b6a" stroke-width="0" />
                <path id="path5-5"
                    d="m204.06,164.44s1.19,1.6,2.51,2.94c3.67,3.71,9.76,3.24,12.56-.04l-14.42-16.05-.65,13.16h0Z"
                    fill="#533b6a" stroke-width="0" />
                <path id="path6-2"
                    d="m218.29,122.44s-.41,3.7-7.1,8.13c0,0,10.61,13.23,14.7,16.82,5.85,5.12,13.14-1.11,13.14-1.11l-20.74-23.84Z"
                    fill="#533b6a" stroke-width="0" />
                <path id="path7-2"
                    d="m232.11,158.86l-23.47-25.58s-.9.61-2.75.84l-.51,11.77s7.02,6.53,12.71,12.72c6.58,7.15,14.02.26,14.02.26h0Z"
                    fill="#533b6a" stroke-width="0" />
                <path id="path8-7"
                    d="m199.7,175.39l2.12-47.03c12.09.18,14.63-14.05,14.63-14.05l21.56,25.29c3.03-14.28-3.28-23.09-10.28-31.91-7.01-8.83-16.85-9.67-19.86-2.52-1.46,3.47-3.13,5.94-5,2.54-.86-1.57-.29-8.6.2-10.58,1.79-7.25-2.83-12.81-8.62-13.63-5.06-.71-7.49-.04-10.05,1.8-2.53,1.82-2.36,6.19-1.75,5.11s4.82-1.92,5.59.95c1.11,4.13-4.76,9.24-6.27,10.18-3.3,2.04-3.07-.15-2.63-3.89.91-7.71-8.07-11.83-18.52-7.6-10.45,4.23-20.28,8.78-24.68,22.7l31.23-11.38s-4.65,13.05,5.96,18.85l-21.49,42.55s-9.98.26-10.22,2.43c-.23,2.16.96,3.05.96,3.05,0,0,1.79-3.3,3.29-3.08,1.5.22,3.59.32,3.59.32,0,0-5,2.56-4.05,5.34.42,1.23.86,1.3.86,1.3,0,0,2.69-5.31,4.72-4.95s5.8-.79,6.08,1.2c.29,1.99-.28,2.91-.28,2.91,0,0,2.82-2.55,1.87-4.37-.95-1.82-1.94-2.84-1.94-2.84l22.96-9.91,15.1,19.94s-1.36.39-3.09,1.51c-1.73,1.12-.53,4.73-.53,4.73,0,0-.04-1.08,1.19-2.67s3.94,1.27,5.88,1.96c1.95.69,1.67,6.63,1.67,6.63,0,0,.2.44,1.39-.7,2.12-2.03-.89-6.65-.89-6.65,0,0,1.87.95,3.28,1.49,1.41.55,1.34,4.31,1.34,4.31,0,0,1.48-.18,2.34-2.18.86-2-7.7-7.15-7.7-7.15h0Zm-24.59-39.4c-1.72-.08-1.87-4.22-1.08-4.1.86.13.65,2.3,1.46,2.71.81.41,1.84-1.87,2.4-1.79s-1.06,3.26-2.78,3.18h0Zm6.88-12.23c-1.72-.08-1.87-4.22-1.08-4.1.86.13.65,2.3,1.46,2.71.81.41,1.84-1.87,2.4-1.79s-1.06,3.26-2.78,3.18h0Zm9.46-35.3c.16-1.07,1.15-1.81,2.23-1.65,1.07.16,1.81,1.15,1.65,2.23-.16,1.07-1.15,1.81-2.23,1.65s-1.81-1.15-1.65-2.23Zm-7.77,39.19c.86.13.65,2.3,1.46,2.71.81.41,1.84-1.87,2.4-1.79s-1.06,3.26-2.78,3.18c-1.72-.08-1.87-4.22-1.08-4.1h0Zm-.55,15.17c-1.72-.08-1.87-4.22-1.08-4.1.86.13.65,2.3,1.46,2.71.81.41,1.84-1.87,2.4-1.79s-1.06,3.26-2.78,3.18h0Zm8.63-17.15c-1.72-.08-1.87-4.22-1.08-4.1.86.13.65,2.3,1.46,2.71.81.41,1.84-1.87,2.4-1.79s-1.06,3.26-2.78,3.18h0Zm.34,12.83c-1.72-.08-1.87-4.22-1.08-4.1.86.13.65,2.3,1.46,2.71.81.41,1.84-1.87,2.4-1.79s-1.06,3.26-2.78,3.18h0Z"
                    fill="#533b6a" stroke-width="0" />
            </g>
            <path id="path4"
                d="m317.31,140.52c3.15,4.42,12.37-5.02,15.45-9s3.3-8.55,1.12-9.9-5.55-1.73-10.28,5.92c-4.72,7.73-8.47,10.05-6.3,12.98Z"
                fill="#b2d1de" stroke-width="0" />
            <path id="path5"
                d="m331.19,156.2c1.72-7.05,8.17-10.58,20.1-15.45,11.92-4.87,13.72-6.15,18.6-2.77s5.4,7.65-13.8,16.35c-19.2,8.7-26.47,8.25-24.9,1.87h0Z"
                fill="#b2d1de" stroke-width="0" />
            <path id="path6"
                d="m342.74,183.65c-3.15-3,0-9,4.42-10.87,4.5-1.87,11.92-1.05,13.05,1.95,1.12,3.08-2.25,5.77-6.67,7.12s-7.65,4.65-10.72,1.8h-.08Z"
                fill="#b2d1de" stroke-width="0" />
            <path id="path15"
                d="m137.99,241.7c-4.27-12.53-10.73-14.47-14.85-17.4-7.2-3.22-16.5-4.8-24.98-.22-22.05,11.7-22.65,35.62-15.82,44.92,23.55,32.33,49.88,11.85,56.55-8.1.98-3.75,2.55-9.08-.9-19.12h0v-.08Z"
                fill="#533b6a" stroke="#fff" stroke-miterlimit="7.5" stroke-width="3.75" />
            <path id="path16"
                d="m213.29,241.7c-4.28-12.53-10.72-14.47-14.85-17.4-7.2-3.22-16.5-4.8-24.98-.22-22.05,11.7-22.65,35.62-15.83,44.92,23.55,32.33,49.87,11.85,56.55-8.1.97-3.75,2.55-9.08-.9-19.12h0v-.08Z"
                fill="#533b6a" stroke="#fff" stroke-miterlimit="7.5" stroke-width="3.75" />
            <path id="path17"
                d="m173.84,251.07c2.7-1.42,6.37,5.62,8.17,7.65s3.08-2.4,9.15-9.08c6.45-7.05,8.02-7.35,9.15-5.17s-14.25,20.62-17.55,20.25c-4.2-.53-11.48-12.37-9-13.65h.08Z"
                fill="#fff" stroke-width="0" />
            <path id="path18"
                d="m97.71,243.87c1.73-1.8,10.65,8.25,14.85,11.85s9.67,7.65,7.73,10.5c-1.95,2.85-12.15-8.33-15.9-11.92-3.67-3.6-8.85-8.1-6.67-10.42h0Z"
                fill="#fff" stroke-width="0" />
            <path id="path19"
                d="m98.39,265.92c-1.58-2.03,8.1-11.62,9.67-12.9,1.5-1.28,9-10.12,11.17-9.45s-2.02,7.72-8.92,14.33c-6.9,6.6-9.9,10.58-11.85,8.03h-.07Z"
                fill="#fff" stroke-width="0" />
            <path id="path20"
                d="m327.14,180.65c-9.3-27-23.25-31.12-32.25-37.5-15.67-6.98-35.78-10.27-54.3-.52-47.85,25.2-49.12,76.5-34.42,96.52,51.15,69.45,108.37,25.5,122.85-17.4,2.03-8.03,5.55-19.5-1.87-41.1h0Z"
                fill="#b2d1de" stroke="#fff" stroke-miterlimit="7.5" stroke-width="3.75" />
            <path id="path21"
                d="m92.39,206.22c-6.52-19.27-16.28-22.27-22.57-26.85-10.95-5.02-25.05-7.35-38.02-.37C-1.74,197.07-2.64,233.75,7.64,248.15c35.77,49.72,75.9,18.22,86.1-12.53,1.43-5.85,3.9-13.95-1.35-29.4h0Z"
                fill="#533b6a" stroke="#fff" stroke-miterlimit="7.5" stroke-width="3.75" />
            <path id="path22"
                d="m229.64,195.87c7.87-4.2,18.37,16.2,23.62,22.2,5.17,6,8.92-7.05,26.55-26.17,18.6-20.33,23.33-21.23,26.47-14.92,3.22,6.23-41.33,59.62-50.62,58.5-12.15-1.5-33.15-35.78-26.03-39.53h0v-.08Z"
                fill="#fff" stroke-width="0" />
            <path id="path23"
                d="m29.91,205.4c2.85-3,17.92,13.95,25.05,19.95s16.35,12.97,13.05,17.7c-3.3,4.72-20.55-14.1-26.77-20.1-6.22-6.08-14.92-13.65-11.25-17.55h-.07Z"
                fill="#fff" stroke-width="0" />
            <path id="path24"
                d="m30.89,242.67c-2.7-3.45,13.72-19.65,16.28-21.75,2.55-2.1,15.15-17.03,18.83-15.9s-3.37,13.05-15.07,24.15c-11.7,11.1-16.72,17.85-20.03,13.58v-.08Z"
                fill="#fff" stroke-width="0" />
        </g>
    </g>
</svg>