<?xml version="1.0" encoding="UTF-8"?>
<svg id="Design" xmlns="http://www.w3.org/2000/svg" version="1.1" viewBox="0 0 700 700">
  <!-- Generator: Adobe Illustrator 29.2.0, SVG Export Plug-In . SVG Version: 2.1.0 Build 108)  -->
  <defs>
    <style>
      .st0, .st1 {
        fill: none;
      }

      .st0, .st1, .st2 {
        stroke: #533b6a;
        stroke-linecap: round;
        stroke-linejoin: round;
      }

      .st0, .st2 {
        stroke-width: 5px;
      }

      .st1 {
        stroke-width: 4.19px;
      }

      .st3 {
        fill: #533b6a;
      }

      .st4 {
        fill: #ffe2b3;
      }

      .st2, .st5 {
        fill: #fcfcf3;
      }

      .st6 {
        fill: #fac25e;
      }
    </style>
  </defs>
  <path class="st5" d="M156.35,465.39c-11.45-21.7-5.1-121.56-7.14-152.92-2.04-31.37-5.1-90.43,32.48-108.26,22.8-10.82,56.66-18.13,63.46-37.7,6.8-19.57,31.42-75.19,121.24-56.14,89.82,19.05,84.49,58.4,101.05,93.84,16.56,35.45,113.18,40.64,114.54,86.81,1.36,46.17,9.19,261.99-23.48,275.6-32.66,13.61-242.12,41.51-287.94,22.46-45.82-19.05-101.28-99.18-114.21-123.67Z"/>
  <path class="st6" d="M289.69,381.86l-96.68-83.98s-1.85,48.25-.8,67.42c1.05,19.17.8,63.52.8,63.52,0,1.67.57,3.29,1.62,4.59l86.84,121.8c5.92,7.64,14.41,10.01,17.48,9.94,175.2-4.03,228.02-20.52,228.02-20.52,3.78-.33,6.67-3.5,6.67-7.29v-176.93l-243.95,21.45Z"/>
  <path class="st4" d="M430.33,216.37c-2.74-1.82-6.02-2.65-9.29-2.36l-113.87,7.47-120.28,13.09c-2.94.26-5.2,2.72-5.2,5.67v47.91c0,2.38,1.01,4.65,2.79,6.25l92.1,82.72c3.42,3.07,7.87,5.03,12.45,4.74,185.38-11.52,231.36-16.16,249.73-20.4,2.51-.58,4.28-2.82,4.28-5.39v-58.14c0-4.31-2.16-8.33-5.76-10.72l-106.95-70.83Z"/>
  <path class="st6" d="M285.46,192.96c16.7-.5,25.39-.35,22.96-5.22-2.43-4.87-23.3-4.35-29.57-4s-10.78,6.61-6.78,8.35c4,1.74,9.56.98,13.39.87Z"/>
  <path class="st6" d="M311.95,171.77c3.9-2.6-2.26-10.44-7.48-13.74-5.22-3.3-14.15-9.74-16.99-8-2.84,1.74-.4,7.83,6.9,13.91,7.3,6.09,13.39,10.61,17.57,7.83Z"/>
  <path class="st6" d="M325.69,156.99c3.69-.89,1.04-5.74-1.04-9.04-2.09-3.3-6.09-6.61-8.17-4-2.09,2.61,3.48,14.44,9.22,13.04Z"/>
  <path class="st3" d="M340.93,256.21s-12-1.04-20.87,0c-8.87,1.04-10.44,4.52-6.26,9.39,4.17,4.87,4.87,7.3,14.44,6.96,9.57-.35,75.48-4.52,81.57-5.57,6.09-1.04,2.78-5.39-1.91-8.7-4.7-3.3-6.43-4.35-10.09-4.7s-7.3,0-7.3,0l-5.88,8.62-17.51.8-26.17-6.81Z"/>
  <path class="st0" d="M190.71,244.99s28.79,18.41,56.4,40.03c16.54,12.96,28.86,21.94,34.75,27.44-2.51,34.67,0,56.47,0,56.47"/>
  <path class="st0" d="M531.93,297.9s-57.3,4.65-107.33,9.94c-39.88,4.22-66.84,5.91-128.43,7.59"/>
  <path class="st2" d="M367.1,263.02c-15.05-2.91-53.26-19.88-59.94-22.21,6.01-8.03,13.22-19.49,20.37-32.61,7.39-13.57,23.77-46.67,25.98-65.19,2.09,1.92,54.85,22.87,63.86,26.83,1.04,8.9-4.93,34.37-14.75,55.82-7.15,15.63-16.44,32.37-18.01,36.56l-17.51.8Z"/>
  <path class="st0" d="M289.61,397.42s.03,29.28,0,27.69c.54,27.86,1.74,32.45,2.43,60.3.51,20.43.35,20.56.35,50.54"/>
  <path class="st3" d="M393.45,204.32c-1.35.65-2.68,1.34-4.07,1.9.04.68.06,1.37.04,2.09-.13,4.59-2.38,10.73-6.54,15.17-4.74,5.05-11.55,7.21-16.96,6.3-11.75-1.97-15.48-6.92-17.69-10.19-1.86-2.74-6.69-14.42,4.14-26.03,3.57-3.82,16.57-8.71,24.37-4.52,3.5,1.88,6.22,3.55,8.41,6.29,1.22-.57,2.3-1.07,3.49-1.67-3.24-4.12-7.16-6.51-10.11-7.85-.34-.15-.67-.3-1.01-.42-13.52-4.8-23.35.78-27.59,4.28-4.24,3.5-6.72,8.73-8.26,16.68-1.68,8.69,1.4,13.26,3.49,16.23,4.57,6.5,9.22,9.99,18.24,11.24,8.6,1.19,14.52.19,21.66-7,6.45-6.49,8.1-13.25,8.49-18.33.11-1.46.06-2.85-.11-4.18Z"/>
  <path class="st3" d="M351.19,217.8c-1.04-3.06,14.13-10.05,16.42-10.93,2.29-.88,24.26-12.69,26.1-10.53,3.78,4.42-10.87,8.99-24.25,15.72-10.63,5.35-16.99,9.5-18.27,5.74Z"/>
  <path class="st3" d="M360.25,190.68c2.73-1.44,4.81,12.73,8.33,18.62,3.52,5.89,12.7,14.26,9.25,16.79s-13.45-12.48-16.34-18.19c-2.9-5.72-4.76-15.37-1.24-17.22Z"/>
  <path class="st1" d="M381.7,436.56c.17-6.18,2.6-31.6,31.05-33.13,27.76-1.49,33.33,22.28,34.35,29.13"/>
  <path class="st1" d="M435.04,435c12.3-.68,33.31-1.7,34.48-.73,2.08,1.71,1.26,9.03.77,9.68-.64.86-2.58.63-2.58.63l2.85,63.51s3.29-.19,4.16-.22c.88-.03,1.41,6.82.37,6.94-1.37.16-115.1,6.36-117.17,6.29-1.22-.04-1.92-7.05-.38-7.14,1.54-.08,2.78-.15,2.78-.15l-3.4-63.28s-2.9.16-3.07-.56c-.41-1.73-1.17-7.91.17-9.5.88-1.04,27.84-2.59,40.59-3.27"/>
  <path class="st1" d="M393.69,435.42s-1.6-18.07,12.59-29.56"/>
  <path class="st1" d="M420.19,405.11s11.18.7,12.66,28.21"/>
  <path class="st1" d="M383.81,428.81s8.65-8.93,29.79-9.61c21.14-.69,30.69,6.37,30.69,6.37"/>
  <line class="st1" x1="412.57" y1="405.52" x2="413.73" y2="427.2"/>
  <line class="st1" x1="369.58" y1="449.85" x2="358.85" y2="450.43"/>
  <line class="st1" x1="465.64" y1="444.7" x2="455.07" y2="445.27"/>
  <path class="st1" d="M446.91,446.35l-73.11,3.63,37.92-20.25c2.38-1.13,2-1.72,6.84.49s33.7,13.47,34.13,16,1.92,9.19-.15,9.3l-77.92,4.18-.34-6.39"/>
  <path class="st1" d="M380,459.62c-.26,1.61-.11,5.03.34,6.29s10.89,0,10.89,0c2.64-.46,1.54-3.72,1.23-6.97"/>
  <path class="st1" d="M383.55,512.3c-.46-1.51-.68-4.85.1-5.9.77-1.03,9.35-1.16,10.33-1,2.38.5,2.11,6.23,2.11,6.23"/>
  <path class="st1" d="M382.99,466.91s-.18,13.35,1.78,38.76"/>
  <line class="st1" x1="363.12" y1="513.88" x2="468.32" y2="508.23"/>
  <path class="st1" d="M391.23,465.92s2.32,33.35,2.24,38.61"/>
  <path class="st1" d="M407.3,458.16c-.26,1.61-.11,5.03.34,6.29.45,1.27,10.89,0,10.89,0,2.64-.46,1.54-3.72,1.23-6.97"/>
  <path class="st1" d="M410.84,510.83c-.46-1.51-.68-4.85.1-5.9s9.35-1.16,10.33-1c2.38.5,2.11,6.23,2.11,6.23"/>
  <path class="st1" d="M410.29,465.44s-.18,13.35,1.78,38.76"/>
  <path class="st1" d="M418.53,464.46s2.32,33.35,2.24,38.61"/>
  <path class="st1" d="M434.11,456.72c-.26,1.61-.11,5.03.34,6.29.45,1.27,10.89,0,10.89,0,2.64-.46,1.54-3.72,1.23-6.97"/>
  <path class="st1" d="M437.65,509.4c-.46-1.51-.68-4.85.1-5.9.77-1.03,9.35-1.16,10.33-1,2.38.5,2.11,6.23,2.11,6.23"/>
  <path class="st1" d="M437.1,464s-.18,13.35,1.78,38.76"/>
  <path class="st1" d="M445.34,463.02s2.32,33.35,2.24,38.61"/>
</svg>