<?xml version="1.0" encoding="UTF-8" standalone="no"?>
<!-- Created with Inkscape (http://www.inkscape.org/) -->

<svg
  
   viewBox="0 0 131.50502 101.50701"
   version="1.1"
   id="svg1"
   xml:space="preserve"
   xmlns="http://www.w3.org/2000/svg"
   xmlns:svg="http://www.w3.org/2000/svg"><defs
     id="defs1"><style
       id="style1">
      .st0 {
        fill: #533b6a;
      }
    </style></defs><g
     id="layer1"><g
       id="g1"
       transform="matrix(0.26458333,0,0,0.26458333,0.00841496,1.6816853e-4)"><path
         d="m 301.68,187.26 c -1.8,30.7 -5.7,113.2 -13.7,120.1 -8,7 -180.7,13.3 -197.7,-11.5 -17,-24.8 4.5,-237.8 1,-258.4 -3.5,-20.6 26.4,-29.2 86.1,-27.6 59.7,1.6 124.6,16.8 126.1,30.6 1.5,13.8 -1.8,146.8 -1.8,146.8 z"
         style="fill:#fde4ba;stroke-width:0px"
         id="path1" /><path
         d="m 347.08,207.76 c -6.3,30.1 -27.8,108.6 -36.7,114.4 -8.9,5.7 -169.4,-10.2 -182.6,-37.2 -13.2,-27 39.2,-234.6 38.8,-255.5 -0.5,-20.9 30.4,-25 89.2,-14.7 58.8,10.3 118,34.6 117.4,48.4 -0.6,13.8 -26.2,144.7 -26.2,144.7 v 0 z"
         style="fill:#ffffff;stroke:#fac25e;stroke-width:3.9px;stroke-linecap:round;stroke-linejoin:round"
         id="path2" /><path
         d="m 368.58,48.36 c -40.5,-27.5 -195.9,-58.1 -204.9,-45.4 -7.9,11.3 -26.2,113.5 -30.4,137.8 h -0.2 l -19,143.5 c 0,0 -6.4,18.2 80.1,37 93.7,20.4 105.9,15.8 122.5,3.4 16.6,-12.3 42.7,-135.5 50.5,-187.8 7.8,-52.2 17.5,-77.6 1.4,-88.5 z m -63.6,267.9 c -19.6,24.5 -175.3,-25.3 -177.4,-30.6 -2.1,-5.3 21.3,-145.7 21.3,-145.7 0,0 14.6,-119.2 26.4,-125.8 22.9,-12.7 183.6,27.8 189.9,50.4 6.3,22.5 -40.8,227.2 -60.3,251.7 z"
         style="fill:#fac25e;stroke-width:0px"
         id="path3" /><g
         id="g2"
         transform="matrix(0.2693716,0.06972909,-0.06972909,0.2693716,176.00438,61.633193)"
         style="display:inline"><path
           class="st0"
           d="m 212.36,249.93 c 0,0 -2.53,17.65 23.18,46.25 0,0 -65.12,48.65 -88.4,60.35 C 113.88,373.25 87.5,335.61 87.5,335.61 Z"
           id="path1-8" /><path
           class="st0"
           d="m 104.49,402.29 139.59,-90.48 c 0,0 3.47,3.9 11.76,7.2 l -11.76,55.2 c 0,0 -40.43,21.88 -74.25,43.73 -39.1,25.25 -65.34,-15.64 -65.34,-15.64 z"
           id="path2-3" /><path
           class="st0"
           d="m 322.96,530.18 -1.3,-47.23 29.28,-22.66 29.03,22.88 c 0,0 -0.13,33.08 -0.2,47.26 -0.16,36.06 -55.5,38.64 -56.81,-0.25 z"
           id="path3-9" /><path
           class="st0"
           d="m 225.44,461.88 c 0,0 -7.44,6.01 -15.19,10.62 -21.5,12.8 -49.16,3.29 -58.2,-15.26 l 86.16,-57.16 -12.78,61.81 z"
           id="path4-0" /><path
           class="st0"
           d="m 476.19,461.88 c 0,0 7.44,6.01 15.19,10.62 21.5,12.8 49.16,3.29 58.2,-15.26 l -86.16,-57.16 12.78,61.81 z"
           id="path5-5" /><path
           class="st0"
           d="m 491.78,249.93 c 0,0 2.53,17.65 -23.18,46.25 0,0 65.12,48.65 88.4,60.35 33.26,16.72 59.64,-20.92 59.64,-20.92 z"
           id="path6-2" /><path
           class="st0"
           d="M 599.64,402.29 460.05,311.81 c 0,0 -3.47,3.9 -11.76,7.2 l 11.76,55.2 c 0,0 40.43,21.88 74.25,43.73 39.1,25.25 65.34,-15.64 65.34,-15.64 z"
           id="path7-2" /><path
           class="st0"
           d="M 469.12,517.89 422.48,297.16 c 56.31,-13.68 51.01,-82.76 51.01,-82.76 l 130.4,91.43 c -3.07,-69.89 -42.92,-103.16 -86.02,-135.7 -43.1,-32.54 -89.77,-24.62 -95.15,12.18 -2.61,17.85 -7.36,31.33 -20.13,17.78 -5.9,-6.26 -11.68,-39.52 -11.78,-49.3 -0.39,-35.8 -28.51,-56.03 -56.35,-52.86 -24.35,2.78 -34.79,8.79 -44.47,20.41 -9.56,11.47 -3.52,31.55 -1.99,25.81 1.53,-5.74 20.03,-14.7 27.06,-2.32 10.13,17.82 -10.96,48.59 -16.88,54.77 -12.88,13.44 -14.42,2.98 -16.87,-14.9 -5.05,-36.85 -51.65,-45.18 -95.04,-13.02 -43.39,32.16 -83.52,65.08 -87.21,134.94 l 131.2,-90.28 c 0,0 -5.9,66.13 50.29,80.31 l -48.58,223.21 c 0,0 -45.99,13.21 -44.48,23.52 1.51,10.31 8.12,12.99 8.12,12.99 0,0 4.34,-17.48 11.57,-18.26 7.23,-0.78 17.04,-2.84 17.04,-2.84 0,0 -20.11,17.89 -12.36,29.65 3.43,5.2 5.57,4.98 5.57,4.98 0,0 6.11,-27.87 15.97,-28.62 9.86,-0.75 25.93,-10.64 29.66,-1.75 3.73,8.89 2.19,13.83 2.19,13.83 0,0 10.02,-15.21 3.42,-22.53 -6.6,-7.32 -12.43,-10.84 -12.43,-10.84 l 94.62,-73.54 93.97,74.37 c 0,0 -5.86,3.46 -12.52,10.73 -6.66,7.27 3.23,22.56 3.23,22.56 0,0 -1.5,-4.95 2.31,-13.81 3.81,-8.86 19.79,1.17 29.64,2.01 9.86,0.84 15.72,28.76 15.72,28.76 0,0 1.45,1.82 5.62,-4.93 7.4,-11.98 -12.1,-29.76 -12.1,-29.76 0,0 9.79,2.15 17.01,2.99 7.22,0.84 11.41,18.36 11.41,18.36 0,0 6.64,-2.62 8.24,-12.92 1.6,-10.3 -44.28,-23.91 -44.28,-23.91 z M 307.73,364.64 c -8.09,1.69 -13.72,-17.34 -9.94,-17.74 4.13,-0.44 5.79,9.91 10.02,10.84 4.24,0.93 6.28,-10.88 9.01,-11.17 2.73,-0.29 -1,16.38 -9.1,18.08 z m 17.25,-64.99 c -8.09,1.69 -13.72,-17.34 -9.94,-17.74 4.13,-0.44 5.79,9.91 10.02,10.83 4.24,0.93 6.28,-10.88 9.01,-11.17 2.73,-0.29 -1,16.38 -9.1,18.08 z m 1.5,-175.12 c -0.55,-5.16 3.18,-9.79 8.34,-10.34 5.16,-0.55 9.79,3.18 10.34,8.34 0.55,5.16 -3.18,9.79 -8.34,10.34 -5.16,0.55 -9.79,-3.18 -10.34,-8.34 z m 11.03,191.13 c 4.13,-0.44 5.79,9.91 10.02,10.83 4.24,0.93 6.28,-10.88 9.01,-11.17 2.73,-0.29 -1,16.38 -9.1,18.08 -8.09,1.69 -13.72,-17.34 -9.94,-17.74 z m 15.64,71.02 c -8.09,1.69 -13.72,-17.34 -9.94,-17.74 4.13,-0.44 5.79,9.91 10.02,10.84 4.24,0.93 6.28,-10.88 9.01,-11.17 2.73,-0.29 -1,16.38 -9.1,18.08 z m 19.44,-89.91 c -8.09,1.69 -13.72,-17.34 -9.94,-17.74 4.13,-0.44 5.79,9.91 10.02,10.83 4.24,0.93 6.28,-10.88 9.01,-11.17 2.73,-0.29 -1,16.38 -9.1,18.08 z m 16.99,59.1 c -8.09,1.69 -13.72,-17.34 -9.94,-17.74 4.13,-0.44 5.79,9.91 10.02,10.84 4.24,0.93 6.28,-10.88 9.01,-11.17 2.73,-0.29 -1,16.38 -9.1,18.08 z"
           id="path8-7" /></g><path
         d="m 423.08,187.36 c 4.2,5.9 16.5,-6.7 20.6,-12 4.1,-5.3 4.4,-11.4 1.5,-13.2 -2.9,-1.8 -7.4,-2.3 -13.7,7.9 -6.3,10.3 -11.3,13.4 -8.4,17.3 z"
         style="fill:#b2d1de;stroke-width:0px"
         id="path4" /><path
         d="m 441.58,208.26 c 2.3,-9.4 10.9,-14.1 26.8,-20.6 15.9,-6.5 18.3,-8.2 24.8,-3.7 6.5,4.5 7.2,10.2 -18.4,21.8 -25.6,11.6 -35.3,11 -33.2,2.5 z"
         style="fill:#b2d1de;stroke-width:0px"
         id="path5" /><path
         d="m 456.98,244.86 c -4.2,-4 0,-12 5.9,-14.5 6,-2.5 15.9,-1.4 17.4,2.6 1.5,4.1 -3,7.7 -8.9,9.5 -5.9,1.8 -10.2,6.2 -14.3,2.4 z"
         style="fill:#b2d1de;stroke-width:0px"
         id="path6" /><path
         d="m 183.98,322.26 c -5.7,-16.7 -14.3,-19.3 -19.8,-23.2 -9.6,-4.3 -22,-6.4 -33.3,-0.3 -29.4,15.6 -30.2,47.5 -21.1,59.9 31.4,43.1 66.5,15.8 75.4,-10.8 1.3,-5 3.4,-12.1 -1.2,-25.5 v 0 z"
         style="fill:#533b6a;stroke:#ffffff;stroke-width:5px;stroke-miterlimit:10"
         id="path15" /><path
         d="m 284.38,322.26 c -5.7,-16.7 -14.3,-19.3 -19.8,-23.2 -9.6,-4.3 -22,-6.4 -33.3,-0.3 -29.4,15.6 -30.2,47.5 -21.1,59.9 31.4,43.1 66.5,15.8 75.4,-10.8 1.3,-5 3.4,-12.1 -1.2,-25.5 v 0 z"
         style="fill:#533b6a;stroke:#ffffff;stroke-width:5px;stroke-miterlimit:10"
         id="path16" /><path
         d="m 231.78,334.76 c 3.6,-1.9 8.5,7.5 10.9,10.2 2.4,2.7 4.1,-3.2 12.2,-12.1 8.6,-9.4 10.7,-9.8 12.2,-6.9 1.5,2.9 -19,27.5 -23.4,27 -5.6,-0.7 -15.3,-16.5 -12,-18.2 z"
         style="fill:#ffffff;stroke-width:0px"
         id="path17" /><path
         d="m 130.28,325.16 c 2.3,-2.4 14.2,11 19.8,15.8 5.6,4.8 12.9,10.2 10.3,14 -2.6,3.8 -16.2,-11.1 -21.2,-15.9 -4.9,-4.8 -11.8,-10.8 -8.9,-13.9 z"
         style="fill:#ffffff;stroke-width:0px"
         id="path18" /><path
         d="m 131.18,354.56 c -2.1,-2.7 10.8,-15.5 12.9,-17.2 2,-1.7 12,-13.5 14.9,-12.6 2.9,0.9 -2.7,10.3 -11.9,19.1 -9.2,8.8 -13.2,14.1 -15.8,10.7 z"
         style="fill:#ffffff;stroke-width:0px"
         id="path19" /><path
         d="m 436.18,240.86 c -12.4,-36 -31,-41.5 -43,-50 -20.9,-9.3 -47.7,-13.7 -72.4,-0.7 -63.8,33.6 -65.5,102 -45.9,128.7 68.2,92.6 144.5,34 163.8,-23.2 2.7,-10.7 7.4,-26 -2.5,-54.8 z"
         style="fill:#b2d1de;stroke:#ffffff;stroke-width:5px;stroke-miterlimit:10"
         id="path20" /><path
         d="m 123.18,274.96 c -8.7,-25.7 -21.7,-29.7 -30.1,-35.8 -14.6,-6.7 -33.4,-9.8 -50.7,-0.5 -44.7,24.1 -45.9,73 -32.2,92.2 47.7,66.3 101.2,24.3 114.8,-16.7 1.9,-7.8 5.2,-18.6 -1.8,-39.2 z"
         style="fill:#533b6a;stroke:#ffffff;stroke-width:5px;stroke-miterlimit:10"
         id="path21" /><path
         d="m 306.18,261.16 c 10.5,-5.6 24.5,21.6 31.5,29.6 6.9,8 11.9,-9.4 35.4,-34.9 24.8,-27.1 31.1,-28.3 35.3,-19.9 4.3,8.3 -55.1,79.5 -67.5,78 -16.2,-2 -44.2,-47.7 -34.7,-52.7 v 0 z"
         style="fill:#ffffff;stroke-width:0px"
         id="path22" /><path
         d="m 39.88,273.86 c 3.8,-4 23.9,18.6 33.4,26.6 9.5,8 21.8,17.3 17.4,23.6 -4.4,6.3 -27.4,-18.8 -35.7,-26.8 -8.3,-8.1 -19.9,-18.2 -15,-23.4 z"
         style="fill:#ffffff;stroke-width:0px"
         id="path23" /><path
         d="m 41.18,323.56 c -3.6,-4.6 18.3,-26.2 21.7,-29 3.4,-2.8 20.2,-22.7 25.1,-21.2 4.9,1.5 -4.5,17.4 -20.1,32.2 -15.6,14.8 -22.3,23.8 -26.7,18.1 z"
         style="fill:#ffffff;stroke-width:0px"
         id="path24" /></g></g></svg>
