<?xml version="1.0" encoding="UTF-8"?>
<svg id="Design" xmlns="http://www.w3.org/2000/svg" version="1.1" viewBox="0 0 351.86 577.38">
  <!-- Generator: Adobe Illustrator 29.2.1, SVG Export Plug-In . SVG Version: 2.1.0 Build 116)  -->
  <g>
    <path d="M192.02,209.07c-14.21-2.77-23.16.27-23.09-31.51.06-31.78,3.68-59.93,21.01-52.17,13.9,2.63,80.08,3.6,80.08,3.6l24.27,4.51s2.08,25.72-1.39,44.06c-3.47,18.34-3.12,37.4-20.11,39.83-16.99,2.43-80.77-8.32-80.77-8.32Z" fill="#fcfcf3"/>
    <path d="M142.58,493.47s6.68-2.29,8.61-4.59l-.05,55.55s34.43-7.28,43.09,8.67c3.12,5.89-2.43,6.59-10.05,2.77-7.63-3.81-20.98-1.73-20.98-1.73,0,0,37.97,22.53,28.26,23.23-9.71.69-38.83-19.07-48.88-20.8-10.05-1.73-27.39-1.73-26-5.89,1.39-4.16,14.96-6.59,25.01-7.28l.99-49.92Z" fill="#533b6a"/>
    <path d="M251.69,443.5c1.35-.04,34.76,36.11,34.76,36.11,0,0,16.48-34.15,33.63-30.85,9.01,1.73-7.78,11.82-15.95,20.8-3.47,3.81-1.04,3.12-1.04,3.12,0,0,24.27-12.13,33.63-5.2,9.36,6.93-22.19,9.01-32.24,15.95-10.05,6.93-14.56,13.87-23.23,24.96-8.67,11.09-11.44,5.55-8.67-3.47,2.77-9.01,9.71-16.03,9.71-16.03l-36.58-37.88s-5.67-7.13,5.98-7.51Z" fill="#533b6a"/>
    <path d="M238.26,123.7s3.7,26.35,6.47,28.19c2.77,1.85,12.02-14.79,16.18-30.04l4.16-15.25s32.35-21.72,30.04-46.68c-2.31-24.96-15.25-46.22-41.14-54.54-25.88-8.32-51.77-12.02-97.53,27.73-45.76,39.75-54.08,48.53-87.36,110.01,0,0-84.81,52.84-67.02,134.97,12.02,55.47,43.91,88.28,48.53,93.37,4.62,5.08,10.17,3.7,10.17,3.7,0,0,38.48,56.21,57.78,69.33,7.4,7.86,9.24,40.67,24.03,48.99,2.77,2.31,14.66-6.55,20.8-28.66,1.39-5.08,6.47,6.93,25.88-5.55,19.41-12.48,25.88-24.5,25.88-24.5,0,0,23.31,19.68,34.2,15.72,5.08-1.85,4.62-11.56-1.85-22.19-6.47-10.63-12.48-18.49-12.48-18.49,0,0,30.51-32.82,36.51-46.22,0,0,41.6-13.87,57.78-41.14,16.18-27.27,10.17-59.63-16.64-82.27-11.56-12.48-30.97-20.34-30.97-20.34,0,0-71.08-6.63-103.07-11.56-6.01-.92-15.72-13.87-12.94-26.35,2.77-12.48,12.48-57.78,12.48-57.78l60.09-.46Z" fill="#fac25e"/>
    <path d="M202.44,80.49c-4.32-5.33-2.58-17.33,5.07-25.65,7.64-8.32,16.43-13.17,26.59-10.17,10.17,3,5.98,23.11-7.16,32.82-9.71,7.16-20.57,7.86-24.5,3Z" fill="#533b6a"/>
    <path d="M226.48,108.68s8.47-15.69,29.12-8.32c3.24,1.16,1.83-3.48-1.85-5.78l-1.85-1.16s3.47-11.34,7.86-9.83c4.39,1.51,2.08,7.52,3.7,8.21s10.63-1.39,8.78,3c-1.85,4.39-7.06,9.16-5.96,10.93,1.1,1.78,13.81-7,12.2-13.24-1.62-6.24-8.41-6.01-12.25-6.01,0,0,.23-8.2-6.47-7.8-6.7.4-11.32,12.88-11.32,12.88,0,0-7.16-.46-14.1,4.16-6.93,4.62-11.56,13.17-7.86,12.94Z" fill="#533b6a"/>
    <path d="M29.92,260.86c1.96-60.63,29.47-108.5,32.93-107.81,3.47.69-24.29,27.64-26.75,105.62-1.39,44.03,7.97,64.58,23.97,99.25,2.08,4.51-.92,7.05-7.28-4.16-4.54-8.01-24.61-39.17-22.88-92.9Z" fill="#533b6a"/>
    <path d="M88.51,334.36c-5.95-3.46-1.73-4.51,2.77-2.08,4.51,2.43,26.35,14.21,54.77,8.67,28.43-5.55,50.07-12.26,87.01-57.55,10.75-13.17,7.97-3.47,5.55,0s-31.2,48.69-64.48,59.01c-33.28,10.32-59.97,6.85-85.62-8.05Z" fill="#533b6a"/>
    <path d="M209.96,213s3.57,8.3,27.21,31.73c14.41,14.28,44.03,35.2,42.29,87.89-.14,4.28-2.64,12.71-2.4,1.54.13-6.16-1.56-14.26-2.75-19.91-3.12-14.91-9.26-36.56-32.45-57.33-25.79-23.1-37.44-44.81-37.44-44.81l5.54.9Z" fill="#533b6a"/>
    <path d="M179.33,121.85l58.93,1.85.98,6.42s-57.84-3.8-59.92-2.73-15.95,66.21-5.2,73.14c10.75,6.93,95.61,17.68,104.49,14.21,8.87-3.47,18.76-70.26,12.68-79.04-3.12-4.51-33.46-4.58-33.46-4.58l1.96-5.57s30.01,1.83,35.55,4.95c5.55,3.12-.57,67.39-10.05,84.91-3.77,6.96-14.45,4.08-35.95,3.04-21.49-1.04-72.5-6.59-78.17-12.83-5.67-6.24-8.04-11-3.59-49.81,4.11-35.82,11.73-33.97,11.73-33.97Z" fill="#533b6a"/>
    <path d="M240.83,141.96c3.32-1.04-2.14-21.6,0-30.51,1-4.16-3.05-3.81-4.65,4.16-1.6,7.97,4.65,26.35,4.65,26.35Z" fill="#533b6a"/>
    <path d="M256.52,265.83s6.16,8.78,15.23,4.1c6.27-3.24,6.85-6.06,5.07-10.34-1.83-4.4,1.19-4.85,3.78-3.39,3.78,2.13,10.37,3.82,12.89,2.01,3.97-2.84,3.97-8.55,2.36-11.29-3.35-5.74.99-5.58,5.84-3.04,3.16,1.66,9.47.59,8.17-4.36-1.29-4.95,6.64,4.02,1.22,8.49-4.24,3.5-10.49-.77-10.49-.77,0,0,2.6,12.35-3.76,16.05-9.25,5.38-13.75.23-13.75.23,0,0-1.16,8.32-7.74,10.52-5.2,1.73-11.09,2.43-13.87-1.73-2.77-4.16-4.97-6.47-4.97-6.47Z" fill="#533b6a"/>
    <path d="M276.82,304.21s3.73,8.3,13.09,8.31c5.79,0,9.19-5.3,10.94-9.35.55-1.27,2.37-1.17,2.83.13,1.51,4.28,4.46,9.87,9.45,9.22,4.74-.62,8.63-4.79,11-8.07.69-.95,2.21-.29,1.95.86-1.14,4.98-4.48,11.97-14.33,12.07-4.69.05-7.12-2.7-8.26-4.66-.5-.87-1.69-1.05-2.44-.38-3.37,2.98-12.87,8.74-22.64-.62l-1.59-7.5Z" fill="#533b6a"/>
    <path d="M.72,237.63c.3-1.38.08,12.14,7.71,11.1,4.06-.55,6.18-3.3,7.66-5.35,1.82-2.51,3.4.61,3.67,1.78.48,2.08,1.75,4.18,4.96,3.61,6.03-1.07,11.09-10.79,11.09-10.79,0,0-.22,14.95-12.03,14.99-3.43,0-5.35-4.14-7.04-3.64-1.39.41-3.27,2.47-4.22,3.17-3.23,2.4-10.06,2.6-12.53-4.37l.72-10.51Z" fill="#533b6a"/>
    <path d="M208.22,69.16s.46,1.62,6.47,1.39c6.01-.23,14.79-9.01,16.64-15.72,0,0,2.4,5.37-1.15,11.95-2.92,5.41-10.36,10.81-16.18,10.81-9.48,0-5.78-8.44-5.78-8.44Z" fill="#fcfcf3"/>
    <path d="M158.23,167.71c-1.31-1.15-4.64-4.62-3.18-9.07,1.3-3.96-.88-5.83-3.58-1.82-2.7,4-8.39,9.15-17.53,5.6-9.14-3.54-8.3-21.5-6.16-27.2,2.14-5.7,1.06-9.89-1.77-6.71-2.83,3.18-13.97,20.66-24.23,14.08-10.27-6.58-1.52-30.22-.85-32.32.67-2.1-.81-2.96-2.76,1.06-2.26,4.67-7.99,28.52.59,35.81,8.58,7.29,23.57-7.3,23.57-7.3,0,0-3.19,22.86,8.95,27.81,12.13,4.94,20.26-5.6,20.26-5.6-.28,6.21,6.79,10.32,6.79,10.32,5.74,1.76,9.63-.77,9.63-.77v-5.32c-5.44,3.45-8.43,2.37-9.73,1.43Z" fill="#533b6a"/>
    <path d="M28.14,282.47c.81,1.92-3.21,8.28-7.35,10.54-2.21,1.21-4.14,1.23-6.46.29-3.7-1.49-3.88-5.21-6.36-7.96-.75-1.39-1.06-2.42-.17-2.86,2.17-.78,5.71,7.96,10.96,6.51,2.38-.66,3.01-2.23,4.77-3.7,1.45-1.21,3.91-3.89,4.62-2.83Z" fill="#533b6a"/>
    <path d="M173.54,145.51s24.31,31.3,57.57,35.61c13.37,1.73,65.73-32.6,65.73-32.6v7.28s-40.27,31.9-65.73,31.21c-25.47-.69-62.23-37.1-62.23-37.1l4.66-4.4Z" fill="#533b6a"/>
    <path d="M168.88,199.53s19.42-23.77,28.96-26.12c9.54-2.35,4.68,0,4.68,0,0,0-20.75,14.54-29.8,31.24l-3.85-5.12Z" fill="#533b6a"/>
    <path d="M259.39,174.88s10.06,1.97,28.78,31.21c-2.08,5.55-3.12,6.02-3.12,6.02,0,0-23.23-34.1-28.09-37.23-4.85-3.12,2.43,0,2.43,0Z" fill="#533b6a"/>
  </g>
  <path d="M299.16,115.2c2.51,4.37,11.88-3.42,15.17-6.84s3.86-7.6,2-9.04-4.95-2.16-10.06,4.49c-5.11,6.64-8.8,8.43-7.11,11.39Z" fill="#533b6a"/>
  <path d="M312.05,127.83c2.29-6.33,8.54-8.96,20.06-12.33,11.51-3.37,13.26-4.35,17.46-.78,4.2,3.56,4.28,7.59-14.3,13.79-18.58,6.2-25.27,5.02-23.21-.67Z" fill="#533b6a"/>
  <path d="M332.32,144.44c2.65,3.05-.82,8.29-5.13,9.6-4.31,1.31-11.11-.16-11.83-3.09-.72-2.93,2.65-5.13,6.88-5.92,4.23-.79,7.49-3.57,10.08-.59Z" fill="#533b6a"/>
</svg>