<?xml version="1.0" encoding="UTF-8" standalone="no"?>
<!-- Created with Inkscape (http://www.inkscape.org/) -->

<svg
   width="122.922mm"
   height="122.922mm"
   viewBox="0 0 122.922 122.922"
   version="1.1"
   id="svg1"
   xml:space="preserve"
   xmlns="http://www.w3.org/2000/svg"
   xmlns:svg="http://www.w3.org/2000/svg"><defs
     id="defs1"><style
       id="style1">
      .st0 {
        fill: #533b6a;
      }

      .st1 {
        fill: #fcfcf3;
      }

      .st2 {
        fill: #fac25e;
      }
    </style><clipPath
       clipPathUnits="userSpaceOnUse"
       id="clipPath156"><circle
         style="opacity:0.7;fill:#808080;stroke:#0088aa;stroke-width:2.08546;stroke-opacity:0"
         id="circle156"
         cx="343.40662"
         cy="208.28462"
         r="232.29398" /></clipPath></defs><g
     id="layer1"><g
       id="g1"
       transform="matrix(0.26458333,0,0,0.26458333,-29.398552,6.3524747)"
       style="fill:none"
       clip-path="url(#clipPath156)"><rect
         style="opacity:1;fill:#fcfcf3;fill-opacity:1;stroke:#fcfcf3;stroke-width:1.8872;stroke-opacity:0"
         id="rect156"
         width="475.79105"
         height="474.24231"
         x="105.98747"
         y="-28.872242"
         ry="2.5157609" /><g
         id="g20"><path
           class="st1"
           d="m 366.28,270.38 c -14.21,-2.77 -23.16,0.27 -23.09,-31.51 0.06,-31.78 3.68,-59.93 21.01,-52.17 13.9,2.63 80.08,3.6 80.08,3.6 l 24.27,4.51 c 0,0 2.08,25.72 -1.39,44.06 -3.47,18.34 -3.12,37.4 -20.11,39.83 -16.99,2.43 -80.77,-8.32 -80.77,-8.32 z"
           id="path1" /><path
           class="st2"
           d="m 412.52,185.01 c 0,0 3.7,26.35 6.47,28.19 2.77,1.85 12.02,-14.79 16.18,-30.04 l 4.16,-15.25 c 0,0 32.35,-21.72 30.04,-46.68 -2.31,-24.96 -15.25,-46.22 -41.14,-54.54 -25.88,-8.32 -51.77,-12.02 -97.53,27.73 -45.76,39.75 -54.08,48.53 -87.36,110.01 0,0 -84.81,52.84 -67.02,134.97 12.02,55.47 43.91,88.28 48.53,93.37 4.62,5.08 10.17,3.7 10.17,3.7 0,0 38.48,56.21 57.78,69.33 7.4,7.86 9.24,40.67 24.03,48.99 2.77,2.31 14.66,-6.55 20.8,-28.66 1.39,-5.08 6.47,6.93 25.88,-5.55 19.41,-12.48 25.88,-24.5 25.88,-24.5 0,0 23.31,19.68 34.2,15.72 5.08,-1.85 4.62,-11.56 -1.85,-22.19 -6.47,-10.63 -12.48,-18.49 -12.48,-18.49 0,0 30.51,-32.82 36.51,-46.22 0,0 41.6,-13.87 57.78,-41.14 16.18,-27.27 10.17,-59.63 -16.64,-82.27 -11.56,-12.48 -30.97,-20.34 -30.97,-20.34 0,0 -71.08,-6.63 -103.07,-11.56 -6.01,-0.92 -15.72,-13.87 -12.94,-26.35 2.77,-12.48 12.48,-57.78 12.48,-57.78 L 412.5,185 Z"
           id="path4" /><path
           class="st0"
           d="m 376.7,141.8 c -4.32,-5.33 -2.58,-17.33 5.07,-25.65 7.64,-8.32 16.43,-13.17 26.59,-10.17 10.17,3 5.98,23.11 -7.16,32.82 -9.71,7.16 -20.57,7.86 -24.5,3 z"
           id="path5" /><path
           class="st0"
           d="m 400.74,169.99 c 0,0 8.47,-15.69 29.12,-8.32 3.24,1.16 1.83,-3.48 -1.85,-5.78 l -1.85,-1.16 c 0,0 3.47,-11.34 7.86,-9.83 4.39,1.51 2.08,7.52 3.7,8.21 1.62,0.69 10.63,-1.39 8.78,3 -1.85,4.39 -7.06,9.16 -5.96,10.93 1.1,1.78 13.81,-7 12.2,-13.24 -1.62,-6.24 -8.41,-6.01 -12.25,-6.01 0,0 0.23,-8.2 -6.47,-7.8 -6.7,0.4 -11.32,12.88 -11.32,12.88 0,0 -7.16,-0.46 -14.1,4.16 -6.93,4.62 -11.56,13.17 -7.86,12.94 z"
           id="path6" /><path
           class="st0"
           d="m 204.18,322.17 c 1.96,-60.63 29.47,-108.5 32.93,-107.81 3.47,0.69 -24.29,27.64 -26.75,105.62 -1.39,44.03 7.97,64.58 23.97,99.25 2.08,4.51 -0.92,7.05 -7.28,-4.16 -4.54,-8.01 -24.61,-39.17 -22.88,-92.9 z"
           id="path7" /><path
           class="st0"
           d="m 262.77,395.67 c -5.95,-3.46 -1.73,-4.51 2.77,-2.08 4.51,2.43 26.35,14.21 54.77,8.67 28.43,-5.55 50.07,-12.26 87.01,-57.55 10.75,-13.17 7.97,-3.47 5.55,0 -2.43,3.47 -31.2,48.69 -64.48,59.01 -33.28,10.32 -59.97,6.85 -85.62,-8.05 z"
           id="path8" /><path
           class="st0"
           d="m 384.22,274.31 c 0,0 3.57,8.3 27.21,31.73 14.41,14.28 44.03,35.2 42.29,87.89 -0.14,4.28 -2.64,12.71 -2.4,1.54 0.13,-6.16 -1.56,-14.26 -2.75,-19.91 -3.12,-14.91 -9.26,-36.56 -32.45,-57.33 -25.79,-23.1 -37.44,-44.81 -37.44,-44.81 l 5.54,0.9 z"
           id="path9" /><path
           class="st0"
           d="m 353.59,183.16 58.93,1.85 0.98,6.42 c 0,0 -57.84,-3.8 -59.92,-2.73 -2.08,1.08 -15.95,66.21 -5.2,73.14 10.75,6.93 95.61,17.68 104.49,14.21 8.87,-3.47 18.76,-70.26 12.68,-79.04 -3.12,-4.51 -33.46,-4.58 -33.46,-4.58 l 1.96,-5.57 c 0,0 30.01,1.83 35.55,4.95 5.55,3.12 -0.57,67.39 -10.05,84.91 -3.77,6.96 -14.45,4.08 -35.95,3.04 -21.49,-1.04 -72.5,-6.59 -78.17,-12.83 -5.67,-6.24 -8.04,-11 -3.59,-49.81 4.11,-35.82 11.73,-33.97 11.73,-33.97 z"
           id="path10" /><path
           class="st0"
           d="m 415.09,203.27 c 3.32,-1.04 -2.14,-21.6 0,-30.51 1,-4.16 -3.05,-3.81 -4.65,4.16 -1.6,7.97 4.65,26.35 4.65,26.35 z"
           id="path11" /><path
           class="st0"
           d="m 430.78,327.14 c 0,0 6.16,8.78 15.23,4.1 6.27,-3.24 6.85,-6.06 5.07,-10.34 -1.83,-4.4 1.19,-4.85 3.78,-3.39 3.78,2.13 10.37,3.82 12.89,2.01 3.97,-2.84 3.97,-8.55 2.36,-11.29 -3.35,-5.74 0.99,-5.58 5.84,-3.04 3.16,1.66 9.47,0.59 8.17,-4.36 -1.3,-4.95 6.64,4.02 1.22,8.49 -4.24,3.5 -10.49,-0.77 -10.49,-0.77 0,0 2.6,12.35 -3.76,16.05 -9.25,5.38 -13.75,0.23 -13.75,0.23 0,0 -1.16,8.32 -7.74,10.52 -5.2,1.73 -11.09,2.43 -13.87,-1.73 -2.77,-4.16 -4.97,-6.47 -4.97,-6.47 z"
           id="path12" /><path
           class="st0"
           d="m 451.08,365.52 c 0,0 3.73,8.3 13.09,8.31 5.79,0 9.19,-5.3 10.94,-9.35 0.55,-1.27 2.37,-1.17 2.83,0.13 1.51,4.28 4.46,9.87 9.45,9.22 4.74,-0.62 8.63,-4.79 11,-8.07 0.69,-0.95 2.21,-0.29 1.95,0.86 -1.14,4.98 -4.48,11.97 -14.33,12.07 -4.69,0.05 -7.12,-2.7 -8.26,-4.66 -0.5,-0.87 -1.69,-1.05 -2.44,-0.38 -3.37,2.98 -12.87,8.74 -22.64,-0.62 l -1.59,-7.5 z"
           id="path13" /><path
           class="st0"
           d="m 174.98,298.94 c 0.3,-1.38 0.08,12.14 7.71,11.1 4.06,-0.55 6.18,-3.3 7.66,-5.35 1.82,-2.51 3.4,0.61 3.67,1.78 0.48,2.08 1.75,4.18 4.96,3.61 6.03,-1.07 11.09,-10.79 11.09,-10.79 0,0 -0.22,14.95 -12.03,14.99 -3.43,0 -5.35,-4.14 -7.04,-3.64 -1.39,0.41 -3.27,2.47 -4.22,3.17 -3.23,2.4 -10.06,2.6 -12.53,-4.37 l 0.72,-10.51 z"
           id="path14" /><path
           class="st1"
           d="m 382.48,130.47 c 0,0 0.46,1.62 6.47,1.39 6.01,-0.23 14.79,-9.01 16.64,-15.72 0,0 2.4,5.37 -1.15,11.95 -2.92,5.41 -10.36,10.81 -16.18,10.81 -9.48,0 -5.78,-8.44 -5.78,-8.44 z"
           id="path15" /><path
           class="st0"
           d="m 332.49,229.02 c -1.31,-1.15 -4.64,-4.62 -3.18,-9.07 1.3,-3.96 -0.88,-5.83 -3.58,-1.82 -2.7,4 -8.39,9.15 -17.53,5.6 -9.14,-3.54 -8.3,-21.5 -6.16,-27.2 2.14,-5.7 1.06,-9.89 -1.77,-6.71 -2.83,3.18 -13.97,20.66 -24.23,14.08 -10.27,-6.58 -1.52,-30.22 -0.85,-32.32 0.67,-2.1 -0.81,-2.96 -2.76,1.06 -2.26,4.67 -7.99,28.52 0.59,35.81 8.58,7.29 23.57,-7.3 23.57,-7.3 0,0 -3.19,22.86 8.95,27.81 12.13,4.94 20.26,-5.6 20.26,-5.6 -0.28,6.21 6.79,10.32 6.79,10.32 5.74,1.76 9.63,-0.77 9.63,-0.77 v -5.32 c -5.44,3.45 -8.43,2.37 -9.73,1.43 z"
           id="path16" /><path
           class="st0"
           d="m 202.4,343.78 c 0.81,1.92 -3.21,8.28 -7.35,10.54 -2.21,1.21 -4.14,1.23 -6.46,0.29 -3.7,-1.49 -3.88,-5.21 -6.36,-7.96 -0.75,-1.39 -1.06,-2.42 -0.17,-2.86 2.17,-0.78 5.71,7.96 10.96,6.51 2.38,-0.66 3.01,-2.23 4.77,-3.7 1.45,-1.21 3.91,-3.89 4.62,-2.83 z"
           id="path17" /><path
           class="st0"
           d="m 347.81,206.82 c 0,0 24.31,31.3 57.57,35.61 13.37,1.73 65.73,-32.6 65.73,-32.6 v 7.28 c 0,0 -40.27,31.9 -65.73,31.21 -25.47,-0.69 -62.23,-37.1 -62.23,-37.1 z"
           id="path18" /><path
           class="st0"
           d="m 343.14,260.84 c 0,0 19.42,-23.77 28.96,-26.12 9.54,-2.35 4.68,0 4.68,0 0,0 -20.75,14.54 -29.8,31.24 l -3.85,-5.12 z"
           id="path19" /><path
           class="st0"
           d="m 433.66,236.19 c 0,0 10.06,1.97 28.78,31.21 -2.08,5.55 -3.12,6.02 -3.12,6.02 0,0 -23.23,-34.1 -28.09,-37.23 -4.85,-3.12 2.43,0 2.43,0 z"
           id="path20" /></g><path
         class="st0"
         d="m 473.43,176.51 c 2.51,4.37 11.88,-3.42 15.17,-6.84 3.29,-3.42 3.86,-7.6 2,-9.04 -1.86,-1.44 -4.95,-2.16 -10.06,4.49 -5.11,6.64 -8.8,8.43 -7.11,11.39 z"
         id="path21" /><path
         class="st0"
         d="m 486.31,189.14 c 2.29,-6.33 8.54,-8.96 20.06,-12.33 11.51,-3.37 13.26,-4.35 17.46,-0.78 4.2,3.56 4.28,7.59 -14.3,13.79 -18.58,6.2 -25.27,5.02 -23.21,-0.67 z"
         id="path22" /><path
         class="st0"
         d="m 506.58,205.75 c 2.65,3.05 -0.82,8.29 -5.13,9.6 -4.31,1.31 -11.11,-0.16 -11.83,-3.09 -0.72,-2.93 2.65,-5.13 6.88,-5.92 4.23,-0.79 7.49,-3.57 10.08,-0.59 z"
         id="path23" /></g></g></svg>
