<?xml version="1.0" encoding="UTF-8"?>
<svg id="svg1" xmlns="http://www.w3.org/2000/svg" width="348.44" height="348.44"
    xmlns:xlink="http://www.w3.org/1999/xlink" viewBox="0 0 348.44 348.44">
    <defs>
        <clipPath id="clippath">
            <circle cx="174.22" cy="174.22" r="174.22" fill="none" stroke-width="0" />
        </clipPath>
    </defs>
    <g id="layer1">
        <g clip-path="url(#clippath)">
            <g id="g2">
                <g id="g1">
                    <rect id="rect156" x="-3.84" y="-3.65" width="356.84" height="355.68" rx="1.89"
                        ry="1.89" fill="#fcfcf3" stroke-width="0" />
                    <g id="g20">
                        <path id="path1"
                            d="m191.38,220.79c-10.66-2.08-17.37.2-17.32-23.63.04-23.83,2.76-44.95,15.76-39.13,10.42,1.97,60.06,2.7,60.06,2.7l18.2,3.38s1.56,19.29-1.04,33.04c-2.6,13.76-2.34,28.05-15.08,29.87-12.74,1.82-60.58-6.24-60.58-6.24h0Z"
                            fill="#fcfcf3" stroke-width="0" />
                        <path id="path4"
                            d="m226.06,156.76s2.78,19.76,4.85,21.14c2.08,1.39,9.01-11.09,12.13-22.53l3.12-11.44s24.26-16.29,22.53-35.01c-1.73-18.72-11.44-34.67-30.86-40.9-19.41-6.24-38.83-9.02-73.15,20.8-34.32,29.81-40.56,36.4-65.52,82.51,0,0-63.61,39.63-50.27,101.23,9.02,41.6,32.93,66.21,36.4,70.03,3.46,3.81,7.63,2.78,7.63,2.78,0,0,28.86,42.16,43.34,52,5.55,5.89,6.93,30.5,18.02,36.74,2.08,1.73,11-4.91,15.6-21.49,1.04-3.81,4.85,5.2,19.41-4.16,14.56-9.36,19.41-18.37,19.41-18.37,0,0,17.48,14.76,25.65,11.79,3.81-1.39,3.46-8.67-1.39-16.64-4.85-7.97-9.36-13.87-9.36-13.87,0,0,22.88-24.62,27.38-34.67,0,0,31.2-10.4,43.33-30.86,12.13-20.45,7.63-44.72-12.48-61.7-8.67-9.36-23.23-15.25-23.23-15.25,0,0-53.31-4.97-77.3-8.67-4.51-.69-11.79-10.4-9.71-19.76,2.08-9.36,9.36-43.33,9.36-43.33l45.07-.35h0l.03-.02Z"
                            fill="#fac25e" stroke-width="0" />
                        <path id="path5"
                            d="m199.19,124.35c-3.24-4-1.93-13,3.8-19.24s12.32-9.88,19.94-7.63c7.63,2.25,4.49,17.33-5.37,24.61-7.28,5.37-15.43,5.9-18.37,2.25h0Z"
                            fill="#533b6a" stroke-width="0" />
                        <path id="path6"
                            d="m217.22,145.49s6.35-11.77,21.84-6.24c2.43.87,1.37-2.61-1.39-4.33l-1.39-.87s2.6-8.5,5.89-7.37,1.56,5.64,2.78,6.16c1.21.52,7.97-1.04,6.58,2.25-1.39,3.29-5.29,6.87-4.47,8.2.83,1.33,10.36-5.25,9.15-9.93-1.21-4.68-6.31-4.51-9.19-4.51,0,0,.17-6.15-4.85-5.85s-8.49,9.66-8.49,9.66c0,0-5.37-.35-10.58,3.12-5.2,3.46-8.67,9.88-5.89,9.71h.01Z"
                            fill="#533b6a" stroke-width="0" />
                        <path id="path7"
                            d="m69.8,259.63c1.47-45.47,22.1-81.37,24.7-80.86,2.6.52-18.22,20.73-20.06,79.21-1.04,33.02,5.98,48.43,17.98,74.44,1.56,3.38-.69,5.29-5.46-3.12-3.4-6.01-18.46-29.38-17.16-69.67Z"
                            fill="#533b6a" stroke-width="0" />
                        <path id="path8"
                            d="m113.74,314.75c-4.46-2.59-1.3-3.38,2.08-1.56,3.38,1.82,19.76,10.66,41.08,6.5s37.55-9.2,65.26-43.16c8.06-9.88,5.98-2.6,4.16,0-1.82,2.6-23.4,36.52-48.36,44.26-24.96,7.74-44.98,5.14-64.21-6.04h-.01Z"
                            fill="#533b6a" stroke-width="0" />
                        <path id="path9"
                            d="m204.83,223.73s2.68,6.22,20.41,23.8c10.81,10.71,33.02,26.4,31.72,65.92-.11,3.21-1.98,9.53-1.8,1.16.1-4.62-1.17-10.7-2.06-14.93-2.34-11.18-6.95-27.42-24.34-43-19.34-17.33-28.08-33.61-28.08-33.61l4.16.67h-.01Z"
                            fill="#533b6a" stroke-width="0" />
                        <path id="path10"
                            d="m181.86,155.37l44.2,1.39.74,4.81s-43.38-2.85-44.94-2.05c-1.56.81-11.96,49.66-3.9,54.86,8.06,5.2,71.71,13.26,78.37,10.66,6.65-2.6,14.07-52.7,9.51-59.28-2.34-3.38-25.09-3.44-25.09-3.44l1.47-4.18s22.51,1.37,26.66,3.71c4.16,2.34-.43,50.54-7.54,63.68-2.83,5.22-10.84,3.06-26.96,2.28s-54.37-4.94-58.63-9.62c-4.25-4.68-6.03-8.25-2.69-37.36,3.08-26.87,8.8-25.48,8.8-25.48h0v.02Z"
                            fill="#533b6a" stroke-width="0" />
                        <path id="path11"
                            d="m227.98,170.45c2.49-.78-1.61-16.2,0-22.88.75-3.12-2.29-2.86-3.49,3.12-1.2,5.98,3.49,19.76,3.49,19.76h0Z"
                            fill="#533b6a" stroke-width="0" />
                        <path id="path12"
                            d="m239.75,263.36s4.62,6.58,11.42,3.08c4.7-2.43,5.14-4.54,3.8-7.75-1.37-3.3.89-3.64,2.83-2.54,2.83,1.6,7.78,2.87,9.67,1.51,2.98-2.13,2.98-6.41,1.77-8.47-2.51-4.3.74-4.18,4.38-2.28,2.37,1.25,7.1.44,6.13-3.27s4.98,3.01.92,6.37c-3.18,2.62-7.87-.58-7.87-.58,0,0,1.95,9.26-2.82,12.04-6.94,4.04-10.31.17-10.31.17,0,0-.87,6.24-5.8,7.89-3.9,1.3-8.32,1.82-10.4-1.3-2.08-3.12-3.73-4.85-3.73-4.85h0v-.02Z"
                            fill="#533b6a" stroke-width="0" />
                        <path id="path13"
                            d="m254.98,292.14s2.8,6.22,9.82,6.23c4.34,0,6.89-3.97,8.21-7.01.41-.95,1.78-.88,2.12.1,1.13,3.21,3.34,7.4,7.09,6.92,3.55-.46,6.47-3.59,8.25-6.05.52-.71,1.66-.22,1.46.64-.86,3.74-3.36,8.98-10.75,9.05-3.52.04-5.34-2.03-6.2-3.5-.37-.65-1.27-.79-1.83-.29-2.53,2.24-9.65,6.55-16.98-.46l-1.19-5.62h0Z"
                            fill="#533b6a" stroke-width="0" />
                        <path id="path14"
                            d="m47.9,242.21c.23-1.04.06,9.11,5.78,8.33,3.04-.41,4.63-2.47,5.75-4.01,1.37-1.88,2.55.46,2.75,1.33.36,1.56,1.31,3.13,3.72,2.71,4.52-.8,8.32-8.09,8.32-8.09,0,0-.17,11.21-9.02,11.24-2.57,0-4.01-3.11-5.28-2.73-1.04.31-2.45,1.85-3.17,2.38-2.42,1.8-7.54,1.95-9.4-3.28l.54-7.88h0Z"
                            fill="#533b6a" stroke-width="0" />
                        <path id="path15"
                            d="m203.53,115.85s.34,1.21,4.85,1.04c4.51-.17,11.09-6.76,12.48-11.79,0,0,1.8,4.03-.86,8.96-2.19,4.06-7.77,8.11-12.13,8.11-7.11,0-4.33-6.33-4.33-6.33h0Z"
                            fill="#fcfcf3" stroke-width="0" />
                        <path id="path16"
                            d="m166.03,189.77c-.98-.86-3.48-3.46-2.38-6.8.97-2.97-.66-4.37-2.68-1.37-2.03,3-6.29,6.86-13.15,4.2-6.86-2.65-6.22-16.12-4.62-20.4,1.61-4.27.79-7.42-1.33-5.03s-10.48,15.5-18.17,10.56c-7.7-4.94-1.14-22.67-.64-24.24.5-1.58-.61-2.22-2.07.79-1.7,3.5-5.99,21.39.44,26.86s17.68-5.48,17.68-5.48c0,0-2.39,17.15,6.71,20.86s15.2-4.2,15.2-4.2c-.21,4.66,5.09,7.74,5.09,7.74,4.3,1.32,7.22-.58,7.22-.58v-3.99c-4.08,2.59-6.32,1.78-7.3,1.07h0Z"
                            fill="#533b6a" stroke-width="0" />
                        <path id="path17"
                            d="m68.47,275.84c.61,1.44-2.41,6.21-5.51,7.91-1.66.91-3.1.92-4.85.22-2.77-1.12-2.91-3.91-4.77-5.97-.56-1.04-.79-1.82-.13-2.14,1.63-.58,4.28,5.97,8.22,4.88,1.79-.5,2.26-1.67,3.58-2.78,1.09-.91,2.93-2.92,3.46-2.12Z"
                            fill="#533b6a" stroke-width="0" />
                        <path id="path18"
                            d="m177.52,173.12s18.23,23.48,43.18,26.71c10.03,1.3,49.3-24.45,49.3-24.45v5.46s-30.2,23.92-49.3,23.41c-19.1-.52-46.67-27.83-46.67-27.83l3.5-3.3h0Z"
                            fill="#533b6a" stroke-width="0" />
                        <path id="path19"
                            d="m174.02,213.63s14.57-17.83,21.72-19.59c7.16-1.76,3.51,0,3.51,0,0,0-15.56,10.9-22.35,23.43l-2.89-3.84h.01Z"
                            fill="#533b6a" stroke-width="0" />
                        <path id="path20"
                            d="m241.91,195.14s7.54,1.48,21.58,23.41c-1.56,4.16-2.34,4.51-2.34,4.51,0,0-17.42-25.58-21.07-27.92-3.64-2.34,1.82,0,1.82,0h0Z"
                            fill="#533b6a" stroke-width="0" />
                    </g>
                    <path id="path21"
                        d="m271.74,150.38c1.88,3.28,8.91-2.56,11.38-5.13s2.89-5.7,1.5-6.78-3.71-1.62-7.54,3.37c-3.83,4.98-6.6,6.32-5.33,8.54h-.01Z"
                        fill="#533b6a" stroke-width="0" />
                    <path id="path22"
                        d="m281.4,159.86c1.72-4.75,6.41-6.72,15.04-9.25s9.95-3.26,13.1-.58c3.15,2.67,3.21,5.69-10.72,10.34s-18.95,3.77-17.41-.5h-.01Z"
                        fill="#533b6a" stroke-width="0" />
                    <path id="path23"
                        d="m296.6,172.31c1.99,2.29-.62,6.22-3.85,7.2s-8.33-.12-8.87-2.32c-.54-2.2,1.99-3.85,5.16-4.44s5.62-2.68,7.56-.44h0Z"
                        fill="#533b6a" stroke-width="0" />
                </g>
            </g>
        </g>
    </g>
</svg>