<svg width="104" height="104" viewBox="0 0 104 104" fill="none" xmlns="http://www.w3.org/2000/svg">
    <g clip-path="url(#clip0_8354_1268)">
        <path
            d="M28.8794 89.6714C23.7083 88.2392 3.88114 69.6691 6.12812 62.5233C8.37509 55.3774 14.2776 18.492 18.0671 14.5624C21.8554 10.6326 64.9288 10.3863 71.0211 12.6035C77.1131 14.8219 100.323 26.6984 100.166 32.4843C100.007 38.2699 90.8481 73.1837 88.9075 77.6864C86.9669 82.189 37.2569 91.9907 28.8797 89.6702L28.8794 89.6714Z"
            fill="#C4DCE3" />
        <path
            d="M65.7902 18.1205C56.6825 18.0516 36.3177 18.1767 28.748 17.9264C23.6961 17.759 24.132 17.9713 23.4625 20.6848C22.663 23.9253 20.8077 31.232 20.017 34.6354C19.0216 38.9217 13.3266 62.1586 13.3266 62.1586C13.2343 62.5292 13.2552 62.9179 13.3872 63.257L26.8764 81.2216C27.606 83.2079 29.1277 84.1488 29.7304 84.2812C57.9571 81.3521 79.0458 75.6518 79.0458 75.6518C79.7998 75.7611 80.5391 75.1973 80.7492 74.3537L90.8541 33.782C91.3457 31.6253 81.4437 26.2359 76.3457 22.4313C71.2476 18.6268 71.3064 18.1619 65.7902 18.1205Z"
            fill="#B2D1DE" />
        <path
            d="M63.0074 48.6064C63.0194 48.6147 63.0452 48.6354 63.0818 48.6833C63.1372 48.7558 63.2 48.8657 63.2645 49.0207C63.3938 49.3316 63.5045 49.7535 63.6009 50.2397C63.7489 50.9855 63.8452 51.7731 63.9407 52.4639L64.0374 53.118C64.106 53.535 64.1282 53.803 64.1688 54.0897C64.2037 54.3364 64.2547 54.6233 64.4229 54.8635C64.6082 55.1283 64.878 55.2619 65.1729 55.3472C65.4518 55.4278 65.8183 55.4816 66.2794 55.5393C67.6368 55.8588 68.2954 55.9034 68.9044 55.9706C69.4818 56.0344 70.0404 56.1211 71.2646 56.5313L71.2665 56.5318C71.5664 56.6309 71.7317 56.732 71.8155 56.8084C71.8879 56.8746 71.8885 56.9102 71.889 56.9213C71.8904 56.9484 71.8824 57.0186 71.8071 57.1414C71.7327 57.2626 71.6113 57.4038 71.4431 57.56C70.7564 58.1978 69.5539 58.8343 68.8494 59.1412L68.847 59.1426C68.1542 59.4477 67.4994 59.7421 66.9916 60.0381C66.7367 60.1867 66.5015 60.3446 66.3108 60.5167C66.123 60.6861 65.9495 60.8948 65.8604 61.1492C65.7671 61.4154 65.8071 61.7328 65.855 61.9832C65.9081 62.2608 65.9991 62.5841 66.1031 62.9225C66.3168 63.6184 66.5877 64.3989 66.7915 65.1974L66.7924 65.1976C66.9621 65.8586 67.2199 66.6748 67.387 67.437C67.469 67.8111 67.5175 68.1277 67.5207 68.3589C67.5221 68.4586 67.5129 68.5233 67.5045 68.5612C67.2665 68.7285 67.0734 68.8711 66.786 68.9086C66.5001 68.9458 66.0263 68.8821 65.2744 68.3308C64.023 67.403 63.5004 67.0128 62.9032 66.3554L62.9041 66.3557C62.5813 65.999 62.0545 65.5052 61.5378 65.0774C61.2782 64.8626 61.0144 64.6581 60.7734 64.4935C60.5441 64.3369 60.2968 64.1888 60.0798 64.1185C59.9117 64.064 59.7621 64.1043 59.7058 64.121C59.6302 64.1434 59.5589 64.1765 59.4991 64.2074C59.3778 64.2701 59.2393 64.3586 59.0979 64.4566C58.8117 64.6551 58.456 64.9316 58.0898 65.223C57.3397 65.8201 56.5504 66.477 56.0818 66.8041L56.0782 66.8063C53.7083 68.4857 52.317 69.1774 51.5339 69.3458C51.1496 69.4283 51.0058 69.3646 50.9645 69.3368C50.9276 69.3118 50.8673 69.2446 50.8368 69.0373C50.8365 69.0342 50.8359 69.0219 50.8374 68.9982C50.8394 68.9688 50.8446 68.9286 50.8544 68.8776C50.8742 68.7751 50.9095 68.6439 50.964 68.4863C51.073 68.1709 51.246 67.7789 51.4708 67.3485C51.9208 66.4868 52.5599 65.5068 53.264 64.7145C53.7554 64.1647 54.2313 63.5378 54.5853 62.9936C54.7621 62.7218 54.9136 62.4621 55.0231 62.2381C55.0777 62.1263 55.126 62.0154 55.1608 61.9111C55.1849 61.8393 55.2097 61.75 55.2198 61.6541L55.2252 61.5558C55.2219 61.339 55.1334 61.153 55.0421 61.014C54.9482 60.8711 54.8251 60.739 54.6955 60.6197C54.4357 60.3808 54.0953 60.1453 53.7453 59.9332C53.0442 59.5084 52.2258 59.1285 51.7298 58.9462C51.1667 58.7385 50.478 58.2894 49.9275 57.7858C49.6547 57.5361 49.4306 57.2864 49.2779 57.0644C49.1856 56.9301 49.1345 56.8245 49.1059 56.7488C49.2335 56.6103 49.4489 56.4781 49.7837 56.3671C50.2111 56.2255 50.7585 56.1442 51.3699 56.104C52.4874 56.0305 53.6844 56.0947 54.61 56.114L54.6264 56.1412L54.9312 56.1215C56.6033 56.0101 57.543 55.7425 58.2156 54.9962C58.5323 54.6447 58.7665 54.211 59.0032 53.725C59.2482 53.2217 59.4961 52.6616 59.8633 51.9526C60.3838 50.9508 60.9836 49.9997 61.5879 49.3559C62.2139 48.6889 62.684 48.5158 63.0074 48.6064Z"
            fill="#C4DCE3" stroke="#C4DCE3" />
        <path
            d="M27.5957 21.3369C27.5957 21.3369 30.5518 25.1863 34.8822 30.7358C37.4764 34.0609 41.2799 36.48 40.3193 37.7644C38.1496 44.3917 31.2183 76.8777 31.2183 76.8777"
            stroke="#C4DCE3" stroke-width="2.5" stroke-linecap="round" stroke-linejoin="round" />
        <path
            d="M85.584 34.7492C80.5444 35.1632 79.3145 36.1464 68.1993 37.3972C57.8227 38.5649 59.16 38.6246 44.6716 39.668"
            fill="#C4DCE3" />
        <path
            d="M85.584 34.7492C80.5444 35.1632 79.3145 36.1464 68.1993 37.3972C57.8227 38.5649 59.16 38.6246 44.6716 39.668"
            stroke="#C4DCE3" stroke-width="2.5" stroke-linecap="round" stroke-linejoin="round" />
        <path
            d="M68.1997 24.7342C69.0477 24.7335 69.4642 24.9249 69.7489 25.1492C69.9033 25.2709 70.0371 25.4167 70.1898 25.5972C70.2624 25.683 70.3427 25.7805 70.4298 25.8824L70.7124 26.1943C70.8863 26.372 70.9948 26.5091 71.0585 26.6106C71.0677 26.6252 71.0736 26.6402 71.0804 26.6523C70.9406 26.6971 70.7286 26.728 70.4502 26.7499C70.1823 26.7711 69.8319 26.7867 69.5668 26.8218C67.0002 27.1609 62.4105 27.7763 60.3359 27.7885C60.0931 27.7898 59.3781 27.8347 58.4741 27.8853C57.5561 27.9367 56.4145 27.996 55.2855 28.0321C54.1538 28.0683 53.0462 28.0808 52.1925 28.0377C51.7639 28.016 51.4159 27.9811 51.1668 27.9332C51.0415 27.9091 50.9566 27.8845 50.9062 27.8643C50.9028 27.8629 50.9 27.8612 50.8972 27.86C50.7199 27.6216 50.5221 27.3986 50.3348 27.1966C50.1272 26.9727 49.9435 26.7837 49.7805 26.5936C49.6187 26.4048 49.5095 26.2511 49.4485 26.1204C49.4341 26.0895 49.423 26.0616 49.415 26.0366C49.554 25.9939 49.7551 25.9457 50.0184 25.897C50.6067 25.7884 51.4355 25.6834 52.4044 25.5866C54.3387 25.3933 56.7891 25.2378 58.8964 25.1555C63.1654 24.9887 65.0954 24.7365 68.1808 24.7335L68.1997 24.7342Z"
            fill="#C4DCE3" stroke="#C4DCE3" />
    </g>
    <defs>
        <clipPath id="clip0_8354_1268">
            <rect width="86" height="85" fill="white"
                transform="translate(20.543) rotate(13.9858)" />
        </clipPath>
    </defs>
</svg>
